<?xml version="1.0" encoding="utf-8"?>
<!-- Generator: Adobe Illustrator 24.0.1, SVG Export Plug-In . SVG Version: 6.00 Build 0)  -->
<svg version="1.1" id="Layer_1" xmlns="http://www.w3.org/2000/svg" xmlns:xlink="http://www.w3.org/1999/xlink" x="0px" y="0px"
	 viewBox="0 0 1003.1 602.1" style="enable-background:new 0 0 1003.1 602.1;" xml:space="preserve">
<style type="text/css">
	.st0{opacity:0.5;}
	.st1{clip-path:url(#SVGID_2_);fill:none;stroke:#000000;stroke-width:2;stroke-miterlimit:10;}
	.st2{fill:none;}
	.st3{fill:#CFECF2;}
	.st4{fill:#BFE6EE;}
	.st5{fill:#9BD9E5;}
	.st6{fill:#8FD5E3;}
	.st7{fill:#B0E1EB;}
	.st8{fill:#E0F2F7;}
	.st9{fill:#F1F9FB;}
	.st10{opacity:3.999330e-02;}
	.st11{clip-path:url(#SVGID_4_);fill:#FFCC06;}
	.st12{fill:#D91F26;}
	.st13{fill:#EA1D25;}
	.st14{fill:#C42026;}
	.st15{fill:#B11F24;}
	.st16{opacity:0.25;}
	.st17{clip-path:url(#SVGID_6_);fill:#FFCC06;}
	.st18{fill:#BF6428;}
	.st19{fill:#E77B24;}
	.st20{fill:#F5A336;}
	.st21{fill:#E78824;}
	.st22{fill:#F7A82F;}
	.st23{fill:#D77228;}
	.st24{fill:#E08826;}
	.st25{fill:#E57E25;}
	.st26{fill:#A15725;}
	.st27{fill:#86491F;}
	.st28{fill:#5F3122;}
	.st29{fill:#7A431C;}
	.st30{fill:#F19021;}
	.st31{fill:#9C5524;}
	.st32{fill:#E390BD;}
	.st33{fill:#754027;}
	.st34{fill:#4A2517;}
	.st35{fill:#24110C;}
	.st36{fill:#331B13;}
	.st37{fill:#402118;}
	.st38{fill:#E8E8E8;}
	.st39{fill:#F2F2F3;}
	.st40{fill:#D6D6D6;}
	.st41{fill:#C7C7C6;}
	.st42{clip-path:url(#SVGID_8_);}
	.st43{clip-path:url(#SVGID_10_);}
	.st44{clip-path:url(#SVGID_12_);fill:#FFCC06;}
	.st45{clip-path:url(#SVGID_14_);}
	.st46{fill:#111111;}
	.st47{font-family:'Anton-Regular';}
	.st48{font-size:120.7804px;}
	.st49{clip-path:url(#SVGID_16_);}
	.st50{fill:#402312;}
	.st51{fill:#482817;}
	.st52{fill:#4B2812;}
	.st53{fill:#442918;}
	.st54{fill:#87421E;}
	.st55{fill:#904620;}
	.st56{fill:#A65125;}
	.st57{fill:#9C4C23;}
	.st58{fill:#703717;}
	.st59{fill:#803F1C;}
	.st60{fill:#944821;}
	.st61{fill:#7B3C1A;}
	.st62{fill:#533017;}
	.st63{fill:#653518;}
	.st64{fill:#4C2D1A;}
	.st65{fill:#6B3816;}
	.st66{fill:#753D19;}
	.st67{fill:#693617;}
	.st68{fill:#542C15;}
	.st69{fill:#532F18;}
	.st70{fill:#583016;}
	.st71{fill:#733E19;}
	.st72{clip-path:url(#SVGID_18_);fill:none;stroke:#000000;stroke-width:2;stroke-miterlimit:10;}
	.st73{clip-path:url(#SVGID_20_);fill:#FFCC06;}
	.st74{clip-path:url(#SVGID_22_);fill:#FFCC06;}
	.st75{clip-path:url(#SVGID_24_);}
	.st76{clip-path:url(#SVGID_26_);}
	.st77{clip-path:url(#SVGID_28_);fill:#FFCC06;}
	.st78{clip-path:url(#SVGID_30_);}
	.st79{clip-path:url(#SVGID_32_);}
</style>
<g>
	<g class="st0">
		<g>
			<defs>
				<rect id="SVGID_1_" width="624.1" height="531"/>
			</defs>
			<clipPath id="SVGID_2_">
				<use xlink:href="#SVGID_1_"  style="overflow:visible;"/>
			</clipPath>
			<polygon class="st1" points="312,9 10.7,529 613.3,529 			"/>
		</g>
	</g>
	<rect x="9" y="4.2" class="st2" width="994.1" height="597.9"/>
	<polygon class="st3" points="197.7,440.8 266.9,469 248.2,440.8 	"/>
	<polygon class="st4" points="197.7,486.1 266.9,469 197.7,440.8 	"/>
	<polygon class="st5" points="197.7,486.1 266.9,508 266.9,469 	"/>
	<polygon class="st4" points="197.7,527.2 266.9,508 197.7,486.1 	"/>
	<polygon class="st5" points="197.7,527.2 266.9,558.2 266.9,508 	"/>
	<polygon class="st6" points="266.9,508 266.9,558.2 295.9,540.3 	"/>
	<polygon class="st5" points="266.9,508 295.9,493.1 295.9,540.3 	"/>
	<polygon class="st4" points="266.9,508 295.9,493.1 266.9,469 	"/>
	<polygon class="st3" points="329,435.5 295.9,493.1 266.9,469 	"/>
	<polygon class="st5" points="329,435.5 295.9,493.1 333,465.8 	"/>
	<polygon class="st7" points="353.7,498.1 295.9,493.1 319.2,460.4 	"/>
	<polygon class="st4" points="353.7,498.1 295.9,493.1 295.9,540.3 	"/>
	<polygon class="st5" points="353.7,498.1 295.9,586.4 295.9,540.3 	"/>
	<polygon class="st7" points="353.7,498.1 295.9,586.4 358.7,558.2 	"/>
	<polygon class="st5" points="352.7,595.1 295.9,586.4 358.7,558.2 	"/>
	<polygon class="st7" points="352.7,595.1 400.6,602.1 358.7,558.2 	"/>
	<polygon class="st4" points="358.7,558.2 400.6,602.1 400.6,533.1 	"/>
	<polygon class="st4" points="400.6,533.1 353.7,498.1 358.7,558.2 	"/>
	<polygon class="st3" points="400.6,533.1 353.7,498.1 400.6,503.6 	"/>
	<polygon class="st8" points="400.6,503.6 400.6,533.1 425.2,449.6 425.2,449.6 	"/>
	<polygon class="st3" points="400.6,533.1 425.2,535.9 425.2,449.6 	"/>
	<polygon class="st9" points="400.6,573.3 425.2,535.9 425.2,535.9 400.6,533.1 	"/>
	<polygon class="st8" points="400.6,573.3 400.6,602.1 425.2,535.9 425.2,535.9 	"/>
	<polygon class="st3" points="400.6,602.1 425.2,561 425.2,535.9 	"/>
	<polygon class="st3" points="353.7,498.1 386.1,476.1 319.2,460.4 	"/>
	<polygon class="st9" points="333,440.8 386.1,476.1 319.2,460.4 	"/>
	<polygon class="st3" points="386.1,476.1 425.2,449.6 425.2,449.6 333,440.8 	"/>
	<polygon class="st5" points="386.1,476.1 400.6,503.6 425.2,449.6 425.2,449.6 	"/>
	<polygon class="st7" points="400.6,503.6 386.1,476.1 353.7,498.1 	"/>
	<polygon class="st8" points="197.7,440.8 197.7,440.8 248.2,440.8 262.8,411.4 	"/>
	<polygon class="st9" points="262.8,411.4 248.2,440.8 329,435.5 	"/>
	<polygon class="st8" points="329,435.5 248.2,440.8 266.9,469 	"/>
	<g class="st10">
		<g>
			<defs>
				<rect id="SVGID_3_" x="197.7" y="411.4" width="227.5" height="190.7"/>
			</defs>
			<clipPath id="SVGID_4_">
				<use xlink:href="#SVGID_3_"  style="overflow:visible;"/>
			</clipPath>
			<polygon class="st11" points="262.8,411.4 197.7,440.8 197.7,486.1 197.7,527.2 266.9,558.2 295.9,540.3 295.9,586.4 
				352.7,595.1 400.6,602.1 425.2,561 425.2,449.6 333,440.8 330.2,444.8 329,435.5 			"/>
		</g>
	</g>
	<rect x="197.7" y="411.4" class="st2" width="227.5" height="190.7"/>
	<polygon class="st12" points="458.7,189.6 446.2,231.7 492.9,216.2 	"/>
	<polygon class="st13" points="471.9,247.2 446.2,231.7 492.9,216.2 	"/>
	<polygon class="st14" points="435.9,261.4 446.2,231.7 471.9,247.2 	"/>
	<polygon class="st15" points="497.3,267.6 471.9,247.2 435.9,261.4 	"/>
	<polygon class="st14" points="467.9,293.8 497.3,267.6 435.9,261.4 	"/>
	<polygon class="st14" points="425.8,191.8 438.9,211.8 458.7,189.6 	"/>
	<polygon class="st13" points="438.9,211.8 446.2,231.7 458.7,189.6 	"/>
	<polygon class="st15" points="438.9,211.8 407.5,206.8 425.8,191.8 	"/>
	<polygon class="st15" points="398.8,238.1 438.9,211.8 407.5,206.8 	"/>
	<polygon class="st13" points="527.1,189.6 551.9,211.8 560,191.8 	"/>
	<polygon class="st13" points="492.9,216.2 520.9,239.4 527.1,189.6 	"/>
	<polygon class="st12" points="527.1,189.6 520.9,239.4 551.9,211.8 	"/>
	<polygon class="st14" points="578.3,206.8 551.9,211.8 560,191.8 	"/>
	<polygon class="st15" points="551.9,211.8 556,245.6 578.3,206.8 	"/>
	<polygon class="st14" points="556,245.6 586.9,238.1 578.3,206.8 	"/>
	<polygon class="st15" points="556,245.6 575.6,264.6 586.9,238.1 	"/>
	<polygon class="st13" points="556,245.6 520.9,239.4 551.9,211.8 	"/>
	<polygon class="st12" points="471.9,247.2 497.3,267.6 492.9,216.2 	"/>
	<polygon class="st15" points="520.9,239.4 497.3,267.6 492.9,216.2 	"/>
	<polygon class="st14" points="528.1,267.6 520.9,239.4 497.3,267.6 	"/>
	<polygon class="st12" points="528.1,267.6 502.6,306.4 497.3,267.6 	"/>
	<polygon class="st13" points="467.9,293.8 502.6,306.4 497.3,267.6 	"/>
	<polygon class="st12" points="528.1,267.6 556,245.6 520.9,239.4 	"/>
	<polygon class="st14" points="528.1,267.6 575.6,264.6 556,245.6 	"/>
	<polygon class="st14" points="502.6,306.4 539.6,300.8 528.1,267.6 	"/>
	<polygon class="st15" points="539.6,300.8 575.6,264.6 528.1,267.6 	"/>
	<polygon class="st12" points="398.8,238.1 446.2,231.7 438.9,211.8 	"/>
	<polygon class="st13" points="398.8,238.1 435.9,261.4 446.2,231.7 	"/>
	<polygon class="st15" points="410.1,264.6 435.9,261.4 398.8,238.1 	"/>
	<polygon class="st14" points="435.9,290.5 435.9,261.4 410.1,264.6 	"/>
	<polygon class="st13" points="435.9,290.5 467.9,293.8 435.9,261.4 	"/>
	<polygon class="st12" points="473.7,328.4 467.9,293.8 435.9,290.5 	"/>
	<polygon class="st14" points="473.7,328.4 502.6,306.4 467.9,293.8 	"/>
	<polygon class="st13" points="502.6,306.4 493.1,347.3 539.6,300.8 	"/>
	<polygon class="st15" points="473.7,328.4 493.1,347.3 502.6,306.4 	"/>
	<g class="st16">
		<g>
			<defs>
				<rect id="SVGID_5_" x="398.8" y="189.6" width="188.1" height="157.7"/>
			</defs>
			<clipPath id="SVGID_6_">
				<use xlink:href="#SVGID_5_"  style="overflow:visible;"/>
			</clipPath>
			<polygon class="st17" points="527.1,189.6 492.9,216.2 458.7,189.6 425.8,191.8 407.5,206.8 398.8,238.1 410.1,264.6 
				435.9,290.5 473.7,328.4 493.1,347.3 539.6,300.8 575.6,264.6 586.9,238.1 578.3,206.8 560,191.8 			"/>
		</g>
	</g>
	<rect x="398.8" y="189.6" class="st2" width="188.1" height="157.7"/>
	<polygon class="st18" points="883.8,31.4 875.1,76 912.3,141.6 	"/>
	<polygon class="st19" points="883.8,31.4 917.3,31.4 912.3,141.6 	"/>
	<polygon class="st20" points="945.7,185 917.3,31.4 912.3,141.6 	"/>
	<polygon class="st21" points="945.7,185 885.7,298.6 912.3,141.6 	"/>
	<polygon class="st19" points="945.7,185 885.7,298.6 961.8,199.9 	"/>
	<polygon class="st22" points="925,308.1 885.7,298.6 961.8,199.9 	"/>
	<polygon class="st23" points="925,308.1 1003.1,261.8 1003.1,261.8 962.1,75.8 	"/>
	<polygon class="st24" points="925,308.1 968.4,351.3 1003.1,261.8 1003.1,261.8 	"/>
	<polygon class="st23" points="968.4,351.3 978,412.1 1003.1,261.8 1003.1,261.8 	"/>
	<polygon class="st25" points="978,412.1 931.5,412.1 968.4,351.3 	"/>
	<polygon class="st26" points="978,412.1 1003.1,404 1003.1,261.8 	"/>
	<polygon class="st27" points="978,412.1 968.4,515.7 1003.1,404 1003.1,404 	"/>
	<polygon class="st23" points="978,412.1 968.4,515.7 931.5,412.1 	"/>
	<polygon class="st27" points="917.3,515.7 968.4,515.7 931.5,412.1 	"/>
	<polygon class="st28" points="968.4,515.7 1001.5,515.7 1003.1,404.1 1003.1,404 	"/>
	<polygon class="st22" points="925,308.1 931.5,412.1 968.4,351.3 	"/>
	<polygon class="st24" points="945.7,185 917.3,31.4 953.2,31.4 	"/>
	<polygon class="st18" points="945.7,185 961.8,76 953.2,31.4 	"/>
	<polygon class="st27" points="945.7,185 961.8,76 961.8,199.9 	"/>
	<polygon class="st29" points="875.1,170.1 875.1,76 912.3,141.6 	"/>
	<polygon class="st27" points="875.1,170.1 875.1,199.9 912.3,141.6 	"/>
	<polygon class="st18" points="885.7,298.6 875.1,199.9 912.3,141.6 	"/>
	<polygon class="st30" points="836.7,261.8 885.7,298.6 875.6,75.8 	"/>
	<polygon class="st27" points="836.7,346 885.7,298.6 836.7,261.8 	"/>
	<polygon class="st31" points="836.7,346 868.9,404 885.7,298.6 	"/>
	<polygon class="st27" points="836.7,515.7 868.9,404 836.7,346 	"/>
	<polygon class="st18" points="885.7,298.6 925,308.1 868.9,404 	"/>
	<polygon class="st32" points="931.5,412.1 925,308.1 868.9,404 	"/>
	<polygon class="st25" points="931.5,412.1 925,308.1 868.9,404 	"/>
	<polygon class="st18" points="931.5,412.1 917.3,515.7 868.9,404 	"/>
	<polygon class="st27" points="868.9,515.7 917.3,515.7 868.9,404 	"/>
	<polygon class="st28" points="836.7,515.7 868.9,515.7 868.9,404 	"/>
	<polygon class="st28" points="875.1,31.4 898.7,31.4 872.7,4.2 	"/>
	<polygon class="st33" points="872.7,4.2 898.7,31.4 925,4.2 	"/>
	<polygon class="st34" points="925,4.2 898.7,31.4 960.9,31.4 	"/>
	<polygon class="st35" points="925,4.2 960.9,31.4 961.8,4.2 	"/>
	<polygon class="st36" points="836.7,529 875,529 836.7,515.7 	"/>
	<polygon class="st37" points="836.7,515.7 875,529 917.3,515.7 	"/>
	<polygon class="st36" points="875,529 968.4,529 917.3,515.7 	"/>
	<polygon class="st37" points="917.3,515.7 968.4,529 1001.5,515.7 	"/>
	<polygon class="st36" points="968.4,529 1001.5,529 1001.5,515.7 	"/>
	<polygon class="st38" points="836.7,463.9 861.2,337.8 836.7,277.5 	"/>
	<polygon class="st39" points="836.7,277.5 861.2,337.8 917.3,277.5 	"/>
	<polygon class="st38" points="974.2,418.9 917.3,277.5 861.2,337.8 	"/>
	<polygon class="st40" points="836.7,463.9 974.2,418.9 861.2,337.8 	"/>
	<polygon class="st41" points="836.7,463.9 1003.1,463.9 1003.1,463.9 974.2,418.9 	"/>
	<polygon class="st40" points="917.3,277.5 974.2,418.9 1003.1,277.5 1003.1,277.5 	"/>
	<polygon class="st41" points="974.2,418.9 1003.1,463.9 1003.1,277.5 	"/>
	<g>
		<defs>
			<rect id="SVGID_7_" x="836.7" y="4.2" width="166.4" height="524.8"/>
		</defs>
		<clipPath id="SVGID_8_">
			<use xlink:href="#SVGID_7_"  style="overflow:visible;"/>
		</clipPath>
		<g class="st42">
			<g>
				<defs>
					<rect id="SVGID_9_" x="856.1" y="325.9" width="123.5" height="82.2"/>
				</defs>
				<clipPath id="SVGID_10_">
					<use xlink:href="#SVGID_9_"  style="overflow:visible;"/>
				</clipPath>
				<g class="st43">
					<defs>
						<rect id="SVGID_11_" x="856.1" y="325.9" width="123.5" height="82.2"/>
					</defs>
					<clipPath id="SVGID_12_">
						<use xlink:href="#SVGID_11_"  style="overflow:visible;"/>
					</clipPath>
					<path class="st44" d="M960.9,332.5c0.5-0.7,1.7-2.9,1.9-3.4c0-0.1,0.1-0.3,0.2-0.5c0.1-0.3,0.4-1,0.6-1.4
						c-0.5-0.2-1.3-0.5-3.1-1.3c0,0-0.1,0-0.1,0c-0.5,2.1-1.3,3.7-2.2,5.5c-0.2,0.3-0.4,0.7-0.7,1.2c-0.6,0.9-1.4,2.2-1.9,3.4
						c0.5,0.2,1.2,0.5,1.7,0.6C958.3,335.7,959.9,333.9,960.9,332.5"/>
					<path class="st44" d="M948.9,327.7c0-0.1-0.2-0.1-0.4-0.1c-0.9,0.2-7.5,1.7-11.6,2.7c-2.1,0.5-2.6,0.8-2.8,2.1l-0.1,0.5
						c-0.2,1.5-0.5,4.5-1.5,8.3c-2.5,9.3-7,23.7-8.9,29.8c-0.4,1.2-0.7,2.1-0.8,2.6l-0.7,2.3c-1.2,3.8-1.9,6.3-3.3,11.7
						c-0.1,0.4-0.1,0.6-0.1,0.7c0.7,0.2,1.3,0.2,1.9,0.2c0.9,0,1.9-0.1,3-0.3c3.6-0.5,6.6-1.1,9.4-1.8c0.2-1,0.6-2.7,0.7-3.6
						c0-0.4,0.6-2.8,0.7-3.5c0.9-3.9,1.7-7.9,2.9-11.8c0.8-2.6,1.7-5.3,2.5-7.5c0.4-1.3,0.9-2.6,1.3-3.9c2.7-7.8,5.2-15.1,6.8-22
						c0-0.1,0-0.2,0.1-0.3C949.3,329.4,949.1,328.1,948.9,327.7"/>
					<path class="st44" d="M900.6,364c0.4-1.2,2.6-2.6,13.3-8.5c4.5-2.5,10.5-5.8,11.7-6.9c-0.2-2-4.6-10.4-6.4-12.3
						c-3.2,2.4-17.9,13.4-19,14.3c-2.2,1.8-4.4,3.7-6.8,5.5c-0.4,0.3-1.1,0.3-1.5,0c-0.3-0.3-0.5-0.7-0.4-1.1c0,0,1-5.3,4.1-12.8
						c0.8-1.9,1.5-3.7,2.2-5.3c1-2.3,1.9-4.6,2.4-5.9c-2,0-5.3,0.2-8.6,0.5c-3.5,0.3-5.2,0.6-6.5,0.9c-0.6,0.1-1.2,0.2-1.8,0.3
						c-1.6,0.2-1.6,0.6-1.9,1.7c-0.1,0.2-0.1,0.5-0.2,0.7c0,0-0.6,1.8-0.8,2.6c-0.3,1-2.7,8.3-3.6,10.9c-3.2,9.3-6.6,18.8-10.2,28
						c-1,2.5-3.7,9.2-6.1,15c-1.7,4.2-3.5,8.6-3.6,9l-0.2,0.5c-0.2,0.5-0.5,1.3-0.5,1.9c1.3,0.2,4.8,0.5,8.8,0.5h1.4
						c2.3,0,6.1,0,7-0.4c1.1-2.6,2.5-7,3.3-9.7l0.1-0.2c1.8-5.6,5.2-13.2,6.6-15.8c0.2-0.4,0.6-0.6,1-0.6c0.4,0,0.8,0.2,1.1,0.6
						c0.6,1,1.1,2.1,1.6,3.4c1.7,4.9,5.4,14.8,6.8,16.6c0.2,0.3,0.5,0.6,0.8,0.6c1.2-0.4,6.9-3.8,11.4-7.6c4.2-3.7,7-6.6,7.7-7.7
						c-1-1.6-5.3-7.3-8.2-11.2C900.4,364.7,900.4,364.7,900.6,364C900.6,364.1,900.6,364,900.6,364"/>
					<path class="st44" d="M973,346.3c0.2,0,0.4,0,0.6,0c0.6,0,1.3,0.1,1.8,0.1c0.3,0,0.6,0.1,0.8,0.1c0.4-1.8,1.3-6.3,1.5-7.6
						c-1.2-0.1-2.7-0.1-3.8,0l-0.3,0c-1.1,0.1-2.4,0.3-3.4,0.6c-3.5,1.1-7,2.7-9.4,6.5c-0.4,0.6-1.2,2.2-1.2,3.8
						c0.1,2.8,4.4,3.8,5.7,4.1c0.8,0.1,1.6,0.3,2.1,0.5c2.3,0.7,3.7,1.6,4.1,2.7c0.2,0.6,0.2,1.2-0.2,1.9c-1,1.7-3.5,2.9-5.5,3.3
						c-1.8,0.4-4,0.3-5.8-0.2c-0.9-0.2-1.6-0.5-2.1-0.7c-0.1,0-0.2-0.1-0.2-0.1c-1.2,1.3-2.1,2.9-2.7,4.8c-0.3,1-0.4,1.8-0.4,2.1
						c0.4,0.2,1.4,0.5,2.1,0.6c2.8,0.3,5.2,0.3,7.3-0.2l0.4-0.1c1.3-0.3,2.4-0.5,4.3-1.2c1.9-0.7,3.9-2.1,5.9-4.2
						c2.1-2.2,3-4.8,2.4-7.5c-0.5-2.2-2.5-2.9-4.5-3.5c-0.3-0.1-0.7-0.2-1.1-0.3c-1.8-0.5-3.8-1.1-3.8-2.8c0,0,0,0,0-0.1
						C967.9,347.7,968.9,346.3,973,346.3"/>
					<path class="st44" d="M962.9,337.7c0.4-0.5,0.8-1,1.1-1.4c0.6-0.8,1.8-3,2-3.7c0.2-0.4,0.9-2,0.9-2.3c0-0.6-0.3-1-0.7-1
						c-0.1,0-0.4-0.1-0.8-0.3c-0.1,0.2-0.2,0.4-0.3,0.6c-0.1,0.2-0.1,0.3-0.2,0.4c-0.3,0.7-1.5,3-2.2,3.9c-0.4,0.6-2.7,3.7-4.7,4.8
						c-0.3,0.2-0.6,0.2-0.9,0.2c-0.1,0-0.2,0-0.3,0c0,0-0.2-0.1-0.5-0.1c-0.1,0.3-0.2,0.5-0.2,0.8c-0.1,0.3,2.9,1.2,3.1,1.3
						c0.1,0,0.2,0,0.4-0.1c0.3-0.2,0.7-0.5,1.1-0.8C961.5,339.2,962.2,338.4,962.9,337.7"/>
					<path class="st44" d="M977,347.8c-0.2,0.1-0.4,0.1-0.7,0.1c-0.3,0-0.8,0-1.3-0.1c-0.5-0.1-1.2-0.1-1.7-0.1
						c-2.5-0.1-4.2,0.4-4.3,1.2c0,0.3,0.6,0.6,1.2,0.8c0.8-0.6,2.5-1,4.5-0.9c1.4,0,3,0.3,3.3,0.2c0.1-0.7,1.6-7.8,1.7-8.2
						c0-0.3-0.4-0.6-0.6-0.6c-0.1,0-0.1,0-0.2,0c-0.5,2.4-1.4,7.1-1.5,7.1C977.3,347.4,977.2,347.6,977,347.8"/>
					<path class="st44" d="M967,355.6c-0.5-0.1-1.2-0.3-1.9-0.4c-1.5-0.3-2.7-0.7-3.7-1.2c1.2,1.2,3.3,1.9,5.1,2.2
						c0.8,0.1,1.5,0.3,2,0.4c0.6,0.2,1.1,0.4,1.6,0.6C969.7,356.8,968.8,356.2,967,355.6"/>
					<path class="st44" d="M978.5,356.1c0.3,2.8-0.7,5.6-2.9,7.8c-2.2,2.2-4.2,3.7-6.3,4.5c-1.9,0.7-3.1,1-4.4,1.3l-0.4,0.1
						c-1.3,0.3-2.7,0.4-4.2,0.4c-1.1,0-2.2-0.1-3.4-0.2c0,0-0.7-0.1-1.4-0.3c0,0.2,0,0.4,0.1,0.4c0.2,0.3,1.7,0.8,2.7,0.9
						c2.5,0.3,5,0.3,7.4-0.2c1.4-0.3,2.6-0.5,4.6-1.3c2.1-0.8,4-2.2,6.1-4.3c2-2.1,3.3-4.9,2.6-8.1
						C978.8,356.7,978.6,356.4,978.5,356.1"/>
					<path class="st44" d="M952.7,331c-0.1-0.2-0.4-0.8-1.3-0.9c-0.2,1.2-0.4,2.6-0.9,4.2l-0.1,0.2c-1.7,7-4.2,14.4-6.9,22.2
						c-0.4,1.3-0.9,2.6-1.3,3.9c-0.8,2.2-1.6,4.8-2.4,7.4c-1.2,3.7-2,7.7-2.9,11.6c-0.3,1.5-0.6,3.1-0.7,3.3
						c-0.2,1.3-0.8,4.3-0.9,4.5c-0.1,0.4-0.4,0.8-0.8,0.9c-3,0.9-6.3,1.5-10.3,2.1c-1.2,0.2-2.2,0.3-3.3,0.3c-0.1,0-0.3,0-0.4,0
						c0,0.1,0,0.1,0,0.2c-0.2,0.8-0.3,1.9,0.8,2.2c1.9,0.4,3.5,0.2,5.4-0.1c3.4-0.5,6.8-1.1,10.2-2.1c0,0,0.7-3.1,0.9-4.4
						c0.1-0.4,0.7-3.4,0.7-3.4c0.8-3.9,1.7-7.9,2.9-11.7c0.8-2.7,1.7-5.3,2.5-7.5c3.1-9.2,6.2-17.9,8.2-26
						C951.9,337.6,953.4,332.8,952.7,331"/>
					<path class="st44" d="M917,385.3c-0.3-0.4-0.7-1-1.2-1.7c-0.7,1.3-2.8,3.8-8.2,8.5c-4.5,3.9-11.5,8.2-12.9,8.2c0,0-0.1,0-0.1,0
						c0.3,0.6,0.6,1.1,0.9,1.5c0.2,0.3,0.6,0.8,1.6,0.8c0.7,0,7.2-3.7,12.1-7.9c3.1-2.7,5.7-5.2,7.1-6.9
						C917.1,386.4,917.2,385.7,917,385.3"/>
					<path class="st44" d="M884.4,380.5c-1.6,3.4-4,9-5.4,13.3l-0.1,0.2c-0.9,2.8-2.4,7.4-3.5,10.1c-0.6,1.5-3,1.7-9.1,1.7h-1.4
						c-2.3,0-4.8-0.1-6.8-0.3c-0.1,0-0.3,0-0.4,0c-0.2,0.8-0.3,1.6,0,2.1c0.2,0.3,4.6,0.5,9.6,0.5c5,0,9,0.1,9.4-0.9
						c1.1-2.7,2.6-7.4,3.5-10.2c1.4-4.3,3.6-9.6,5.3-13.1c-0.6-1.6-0.7-2.5-0.7-2.5C884.6,381.1,884.5,380.8,884.4,380.5"/>
					<path class="st44" d="M897.7,343c-1.5,3.7-2.5,6.9-3.1,9.1c1.2-1,2.3-1.9,3.5-2.9c0.3-0.9,0.7-1.9,1.1-2.9
						c2.9-7.1,5.3-12.4,5-12.7c-0.1-0.1-1.1-0.2-2.6-0.1c-0.4,1.1-1,2.5-1.8,4.3C899.2,339.3,898.5,341.1,897.7,343"/>
					<path class="st44" d="M915,357.6c-4.3,2.4-10,5.5-11.8,6.9c0.4,0.6,0.9,1.3,1.8,2.5c3.4-2.5,14.9-8.5,20.7-11.9
						c0.5-1.8,1.3-3.3,1.8-5.1C926.7,351,923.9,352.7,915,357.6"/>
				</g>
			</g>
		</g>
	</g>
	<g class="st0">
		<g>
			<defs>
				<rect id="SVGID_13_" x="259.2" y="184.5" width="250.9" height="211"/>
			</defs>
			<clipPath id="SVGID_14_">
				<use xlink:href="#SVGID_13_"  style="overflow:visible;"/>
			</clipPath>
			<g class="st45">
				<text transform="matrix(1 0 0 1 290.0088 355.045)" class="st46 st47 st48">+</text>
			</g>
		</g>
	</g>
	<g class="st0">
		<g>
			<defs>
				<rect id="SVGID_15_" x="633.1" y="202.7" width="245.6" height="211"/>
			</defs>
			<clipPath id="SVGID_16_">
				<use xlink:href="#SVGID_15_"  style="overflow:visible;"/>
			</clipPath>
			<g class="st49">
				<text transform="matrix(1 0 0 1 663.9688 373.2637)" class="st46 st47 st48">=</text>
			</g>
		</g>
	</g>
	<rect x="9" y="4.2" class="st2" width="994.1" height="597.9"/>
	<polygon class="st50" points="63.4,291.3 63.6,301.5 82.5,275.8 	"/>
	<polygon class="st51" points="63.6,301.5 82,299 82.5,275.8 	"/>
	<polygon class="st52" points="82.5,275.8 82,299 107,272.9 	"/>
	<polygon class="st50" points="82.5,275.8 107,272.9 99.6,246.7 	"/>
	<polygon class="st51" points="99.6,246.7 107,272.9 120.9,242.1 	"/>
	<polygon class="st50" points="99.6,246.7 120.9,242.1 110.9,215.3 	"/>
	<polygon class="st50" points="110.9,215.3 120.9,242.1 126.1,213.1 	"/>
	<polygon class="st52" points="110.9,215.3 126.1,213.1 113.2,185.2 	"/>
	<polygon class="st50" points="96.9,212.3 110.9,215.3 113.2,185.2 	"/>
	<polygon class="st51" points="99.6,246.7 110.9,215.3 96.9,212.3 	"/>
	<polygon class="st50" points="79.8,242.4 99.6,246.7 96.9,212.3 	"/>
	<polygon class="st52" points="82.5,275.8 99.6,246.7 79.8,242.4 	"/>
	<polygon class="st51" points="68.4,272.8 82.5,275.8 79.8,242.4 	"/>
	<polygon class="st52" points="63.4,291.3 82.5,275.8 68.4,272.8 	"/>
	<polygon class="st53" points="113.2,185.2 126.1,213.1 121.9,183.4 	"/>
	<polygon class="st54" points="101.1,201.7 121.7,183.2 108.4,181.6 	"/>
	<polygon class="st55" points="87.1,188.2 87.1,188.2 101.1,201.7 108.4,181.6 	"/>
	<polygon class="st56" points="87.1,188.2 69.5,205.6 101.1,201.7 87.1,188.2 	"/>
	<polygon class="st55" points="69.5,205.6 103.3,221.5 101.1,201.7 	"/>
	<polygon class="st57" points="69.2,230.6 103.3,221.5 69.5,205.6 	"/>
	<polygon class="st56" points="51.9,232.1 69.2,230.6 69.5,205.6 	"/>
	<polygon class="st57" points="51.9,232.1 42.6,261.6 69.2,230.6 	"/>
	<polygon class="st55" points="42.6,261.6 63.3,259 69.2,230.6 	"/>
	<polygon class="st54" points="69.2,230.6 63.3,259 103.3,221.5 	"/>
	<polygon class="st58" points="63.3,259 79.7,255.9 103.3,221.5 	"/>
	<polygon class="st59" points="63.3,259 66.9,282.7 79.7,255.9 	"/>
	<polygon class="st60" points="42.6,261.6 42.3,286.6 63.3,259 	"/>
	<polygon class="st55" points="42.3,286.6 66.9,282.7 63.3,259 	"/>
	<polygon class="st54" points="42.3,286.6 51.4,305.3 66.9,282.7 	"/>
	<polygon class="st61" points="51.4,305.3 62.3,312.2 66.9,282.7 	"/>
	<polygon class="st58" points="101.1,201.7 103.3,221.5 121.7,183.2 	"/>
	<polygon class="st62" points="63.8,302.1 62.3,312.2 85.4,290.4 	"/>
	<polygon class="st63" points="62.3,312.2 80.8,313.1 80.8,313.1 85.4,290.4 	"/>
	<polygon class="st62" points="80.8,313.1 80.8,313.1 110.1,291.8 85.4,290.4 	"/>
	<polygon class="st64" points="85.4,290.4 110.1,291.8 107.5,264.7 	"/>
	<polygon class="st51" points="107.5,264.7 110.1,291.8 129.3,264.1 	"/>
	<polygon class="st50" points="107.5,264.7 129.3,264.1 124.2,235.9 	"/>
	<polygon class="st50" points="129.3,264.1 139.6,236.5 124.2,235.9 	"/>
	<polygon class="st52" points="124.2,235.9 139.6,236.5 131.9,206.7 	"/>
	<polygon class="st65" points="111,230.4 124.2,235.9 131.9,206.7 	"/>
	<polygon class="st66" points="111,230.4 131.9,206.7 121.5,198.6 	"/>
	<polygon class="st67" points="121.5,198.6 131.9,206.7 121.7,183.2 	"/>
	<polygon class="st68" points="131.9,206.7 136.8,193.3 121.7,183.2 	"/>
	<polygon class="st69" points="131.9,206.7 140.8,206.5 136.8,193.3 	"/>
	<polygon class="st70" points="107.5,264.7 124.2,235.9 111,230.4 	"/>
	<polygon class="st71" points="88.8,257 107.5,264.7 111,230.4 	"/>
	<polygon class="st65" points="85.4,290.4 107.5,264.7 88.8,257 	"/>
	<polygon class="st59" points="72.1,284.9 85.4,290.4 88.8,257 	"/>
	<polygon class="st63" points="63.8,302.1 85.4,290.4 72.1,284.9 	"/>
	<polygon class="st53" points="131.9,206.7 139.6,236.5 140.8,206.5 	"/>
	<polygon class="st50" points="85.3,324.2 91.1,312.7 121.5,306.8 	"/>
	<polygon class="st51" points="85.3,324.2 107.3,332.4 121.5,306.8 	"/>
	<polygon class="st52" points="150.6,318 107.3,332.4 121.5,306.8 	"/>
	<polygon class="st50" points="150.6,318 157.9,284.4 121.5,306.8 	"/>
	<polygon class="st51" points="150.6,318 157.9,284.4 184.4,292 	"/>
	<polygon class="st50" points="189.1,256.2 157.9,284.4 184.4,292 	"/>
	<polygon class="st50" points="189.1,256.2 207.4,262.7 184.4,292 	"/>
	<polygon class="st52" points="189.1,256.2 207.4,262.7 209.6,224 	"/>
	<polygon class="st50" points="189.1,256.2 175.3,244.5 209.6,224 	"/>
	<polygon class="st51" points="189.1,256.2 175.3,244.5 157.9,284.4 	"/>
	<polygon class="st50" points="138.4,267.9 175.3,244.5 157.9,284.4 	"/>
	<polygon class="st52" points="138.4,267.9 121.5,306.8 157.9,284.4 	"/>
	<polygon class="st51" points="138.4,267.9 121.5,306.8 107.7,295.1 	"/>
	<polygon class="st52" points="91.1,312.7 121.5,306.8 107.7,295.1 	"/>
	<polygon class="st53" points="220.3,227.2 207.4,262.7 209.6,224 	"/>
	<polygon class="st54" points="220.2,226.8 206.3,217 186.2,235.2 	"/>
	<polygon class="st55" points="178.6,211.8 186.2,235.2 206.3,217 	"/>
	<polygon class="st56" points="178.6,211.8 148.7,220.7 186.2,235.2 	"/>
	<polygon class="st55" points="177,258.6 148.7,220.7 186.2,235.2 	"/>
	<polygon class="st57" points="177,258.6 148.7,220.7 133.6,248.4 	"/>
	<polygon class="st56" points="113.3,239.9 148.7,220.7 133.6,248.4 	"/>
	<polygon class="st57" points="113.3,239.9 85.5,267.2 133.6,248.4 	"/>
	<polygon class="st55" points="110.2,276.7 85.5,267.2 133.6,248.4 	"/>
	<polygon class="st54" points="110.2,276.7 177,258.6 133.6,248.4 	"/>
	<polygon class="st58" points="110.2,276.7 177,258.6 130.3,282.9 	"/>
	<polygon class="st59" points="110.2,276.7 100,305.2 130.3,282.9 	"/>
	<polygon class="st60" points="110.2,276.7 85.5,267.2 70.4,294.9 	"/>
	<polygon class="st55" points="110.2,276.7 100,305.2 70.4,294.9 	"/>
	<polygon class="st54" points="69.4,321.2 100,305.2 70.4,294.9 	"/>
	<polygon class="st61" points="69.4,321.2 77.4,335.3 100,305.2 	"/>
	<polygon class="st58" points="177,258.6 220.2,226.8 186.2,235.2 	"/>
	<polygon class="st62" points="77.4,335.3 85.1,325.1 116.2,324.7 	"/>
	<polygon class="st63" points="77.4,335.3 97.6,347.3 116.2,324.7 	"/>
	<polygon class="st62" points="97.6,347.3 142.8,341 116.2,324.7 	"/>
	<polygon class="st64" points="142.8,341 156,309.2 116.2,324.7 	"/>
	<polygon class="st51" points="142.8,341 156,309.2 180.7,321.4 	"/>
	<polygon class="st50" points="191.8,287 156,309.2 180.7,321.4 	"/>
	<polygon class="st50" points="191.8,287 208.6,296.7 180.7,321.4 	"/>
	<polygon class="st52" points="191.8,287 208.6,296.7 217.6,259 	"/>
	<polygon class="st65" points="191.8,287 180.3,273.1 217.6,259 	"/>
	<polygon class="st66" points="210.9,243.8 180.3,273.1 217.6,259 	"/>
	<polygon class="st67" points="210.9,243.8 220.2,226.8 217.6,259 	"/>
	<polygon class="st68" points="217.6,259 231,246.9 220.2,226.8 	"/>
	<polygon class="st69" points="217.6,259 227.7,264.1 231,246.9 	"/>
	<polygon class="st70" points="191.8,287 180.3,273.1 156,309.2 	"/>
	<polygon class="st71" points="139.7,289.5 180.3,273.1 156,309.2 	"/>
	<polygon class="st65" points="139.7,289.5 116.2,324.7 156,309.2 	"/>
	<polygon class="st59" points="139.7,289.5 116.2,324.7 104.6,310.7 	"/>
	<polygon class="st63" points="85.1,325.1 116.2,324.7 104.6,310.7 	"/>
	<polygon class="st53" points="227.7,264.1 208.6,296.7 217.6,259 	"/>
	<rect x="9" y="4.2" class="st2" width="994.1" height="597.9"/>
</g>
<g class="st0">
	<g class="st0">
		<g>
			<defs>
				<rect id="SVGID_17_" width="624.1" height="531"/>
			</defs>
			<clipPath id="SVGID_18_">
				<use xlink:href="#SVGID_17_"  style="overflow:visible;"/>
			</clipPath>
			<polygon class="st72" points="312,9 10.7,529 613.3,529 			"/>
		</g>
	</g>
	<rect x="9" y="4.2" class="st2" width="994.1" height="597.9"/>
	<polygon class="st3" points="197.7,440.8 266.9,469 248.2,440.8 	"/>
	<polygon class="st4" points="197.7,486.1 266.9,469 197.7,440.8 	"/>
	<polygon class="st5" points="197.7,486.1 266.9,508 266.9,469 	"/>
	<polygon class="st4" points="197.7,527.2 266.9,508 197.7,486.1 	"/>
	<polygon class="st5" points="197.7,527.2 266.9,558.2 266.9,508 	"/>
	<polygon class="st6" points="266.9,508 266.9,558.2 295.9,540.3 	"/>
	<polygon class="st5" points="266.9,508 295.9,493.1 295.9,540.3 	"/>
	<polygon class="st4" points="266.9,508 295.9,493.1 266.9,469 	"/>
	<polygon class="st3" points="329,435.5 295.9,493.1 266.9,469 	"/>
	<polygon class="st5" points="329,435.5 295.9,493.1 333,465.8 	"/>
	<polygon class="st7" points="353.7,498.1 295.9,493.1 319.2,460.4 	"/>
	<polygon class="st4" points="353.7,498.1 295.9,493.1 295.9,540.3 	"/>
	<polygon class="st5" points="353.7,498.1 295.9,586.4 295.9,540.3 	"/>
	<polygon class="st7" points="353.7,498.1 295.9,586.4 358.7,558.2 	"/>
	<polygon class="st5" points="352.7,595.1 295.9,586.4 358.7,558.2 	"/>
	<polygon class="st7" points="352.7,595.1 400.6,602.1 358.7,558.2 	"/>
	<polygon class="st4" points="358.7,558.2 400.6,602.1 400.6,533.1 	"/>
	<polygon class="st4" points="400.6,533.1 353.7,498.1 358.7,558.2 	"/>
	<polygon class="st3" points="400.6,533.1 353.7,498.1 400.6,503.6 	"/>
	<polygon class="st8" points="400.6,503.6 400.6,533.1 425.2,449.6 425.2,449.6 	"/>
	<polygon class="st3" points="400.6,533.1 425.2,535.9 425.2,449.6 	"/>
	<polygon class="st9" points="400.6,573.3 425.2,535.9 425.2,535.9 400.6,533.1 	"/>
	<polygon class="st8" points="400.6,573.3 400.6,602.1 425.2,535.9 425.2,535.9 	"/>
	<polygon class="st3" points="400.6,602.1 425.2,561 425.2,535.9 	"/>
	<polygon class="st3" points="353.7,498.1 386.1,476.1 319.2,460.4 	"/>
	<polygon class="st9" points="333,440.8 386.1,476.1 319.2,460.4 	"/>
	<polygon class="st3" points="386.1,476.1 425.2,449.6 425.2,449.6 333,440.8 	"/>
	<polygon class="st5" points="386.1,476.1 400.6,503.6 425.2,449.6 425.2,449.6 	"/>
	<polygon class="st7" points="400.6,503.6 386.1,476.1 353.7,498.1 	"/>
	<polygon class="st8" points="197.7,440.8 197.7,440.8 248.2,440.8 262.8,411.4 	"/>
	<polygon class="st9" points="262.8,411.4 248.2,440.8 329,435.5 	"/>
	<polygon class="st8" points="329,435.5 248.2,440.8 266.9,469 	"/>
	<g class="st10">
		<g>
			<defs>
				<rect id="SVGID_19_" x="197.7" y="411.4" width="227.5" height="190.7"/>
			</defs>
			<clipPath id="SVGID_20_">
				<use xlink:href="#SVGID_19_"  style="overflow:visible;"/>
			</clipPath>
			<polygon class="st73" points="262.8,411.4 197.7,440.8 197.7,486.1 197.7,527.2 266.9,558.2 295.9,540.3 295.9,586.4 
				352.7,595.1 400.6,602.1 425.2,561 425.2,449.6 333,440.8 330.2,444.8 329,435.5 			"/>
		</g>
	</g>
	<rect x="197.7" y="411.4" class="st2" width="227.5" height="190.7"/>
	<polygon class="st12" points="458.7,189.6 446.2,231.7 492.9,216.2 	"/>
	<polygon class="st13" points="471.9,247.2 446.2,231.7 492.9,216.2 	"/>
	<polygon class="st14" points="435.9,261.4 446.2,231.7 471.9,247.2 	"/>
	<polygon class="st15" points="497.3,267.6 471.9,247.2 435.9,261.4 	"/>
	<polygon class="st14" points="467.9,293.8 497.3,267.6 435.9,261.4 	"/>
	<polygon class="st14" points="425.8,191.8 438.9,211.8 458.7,189.6 	"/>
	<polygon class="st13" points="438.9,211.8 446.2,231.7 458.7,189.6 	"/>
	<polygon class="st15" points="438.9,211.8 407.5,206.8 425.8,191.8 	"/>
	<polygon class="st15" points="398.8,238.1 438.9,211.8 407.5,206.8 	"/>
	<polygon class="st13" points="527.1,189.6 551.9,211.8 560,191.8 	"/>
	<polygon class="st13" points="492.9,216.2 520.9,239.4 527.1,189.6 	"/>
	<polygon class="st12" points="527.1,189.6 520.9,239.4 551.9,211.8 	"/>
	<polygon class="st14" points="578.3,206.8 551.9,211.8 560,191.8 	"/>
	<polygon class="st15" points="551.9,211.8 556,245.6 578.3,206.8 	"/>
	<polygon class="st14" points="556,245.6 586.9,238.1 578.3,206.8 	"/>
	<polygon class="st15" points="556,245.6 575.6,264.6 586.9,238.1 	"/>
	<polygon class="st13" points="556,245.6 520.9,239.4 551.9,211.8 	"/>
	<polygon class="st12" points="471.9,247.2 497.3,267.6 492.9,216.2 	"/>
	<polygon class="st15" points="520.9,239.4 497.3,267.6 492.9,216.2 	"/>
	<polygon class="st14" points="528.1,267.6 520.9,239.4 497.3,267.6 	"/>
	<polygon class="st12" points="528.1,267.6 502.6,306.4 497.3,267.6 	"/>
	<polygon class="st13" points="467.9,293.8 502.6,306.4 497.3,267.6 	"/>
	<polygon class="st12" points="528.1,267.6 556,245.6 520.9,239.4 	"/>
	<polygon class="st14" points="528.1,267.6 575.6,264.6 556,245.6 	"/>
	<polygon class="st14" points="502.6,306.4 539.6,300.8 528.1,267.6 	"/>
	<polygon class="st15" points="539.6,300.8 575.6,264.6 528.1,267.6 	"/>
	<polygon class="st12" points="398.8,238.1 446.2,231.7 438.9,211.8 	"/>
	<polygon class="st13" points="398.8,238.1 435.9,261.4 446.2,231.7 	"/>
	<polygon class="st15" points="410.1,264.6 435.9,261.4 398.8,238.1 	"/>
	<polygon class="st14" points="435.9,290.5 435.9,261.4 410.1,264.6 	"/>
	<polygon class="st13" points="435.9,290.5 467.9,293.8 435.9,261.4 	"/>
	<polygon class="st12" points="473.7,328.4 467.9,293.8 435.9,290.5 	"/>
	<polygon class="st14" points="473.7,328.4 502.6,306.4 467.9,293.8 	"/>
	<polygon class="st13" points="502.6,306.4 493.1,347.3 539.6,300.8 	"/>
	<polygon class="st15" points="473.7,328.4 493.1,347.3 502.6,306.4 	"/>
	<g class="st16">
		<g>
			<defs>
				<rect id="SVGID_21_" x="398.8" y="189.6" width="188.1" height="157.7"/>
			</defs>
			<clipPath id="SVGID_22_">
				<use xlink:href="#SVGID_21_"  style="overflow:visible;"/>
			</clipPath>
			<polygon class="st74" points="527.1,189.6 492.9,216.2 458.7,189.6 425.8,191.8 407.5,206.8 398.8,238.1 410.1,264.6 
				435.9,290.5 473.7,328.4 493.1,347.3 539.6,300.8 575.6,264.6 586.9,238.1 578.3,206.8 560,191.8 			"/>
		</g>
	</g>
	<rect x="398.8" y="189.6" class="st2" width="188.1" height="157.7"/>
	<polygon class="st18" points="883.8,31.4 875.1,76 912.3,141.6 	"/>
	<polygon class="st19" points="883.8,31.4 917.3,31.4 912.3,141.6 	"/>
	<polygon class="st20" points="945.7,185 917.3,31.4 912.3,141.6 	"/>
	<polygon class="st21" points="945.7,185 885.7,298.6 912.3,141.6 	"/>
	<polygon class="st19" points="945.7,185 885.7,298.6 961.8,199.9 	"/>
	<polygon class="st22" points="925,308.1 885.7,298.6 961.8,199.9 	"/>
	<polygon class="st23" points="925,308.1 1003.1,261.8 1003.1,261.8 962.1,75.8 	"/>
	<polygon class="st24" points="925,308.1 968.4,351.3 1003.1,261.8 1003.1,261.8 	"/>
	<polygon class="st23" points="968.4,351.3 978,412.1 1003.1,261.8 1003.1,261.8 	"/>
	<polygon class="st25" points="978,412.1 931.5,412.1 968.4,351.3 	"/>
	<polygon class="st26" points="978,412.1 1003.1,404 1003.1,261.8 	"/>
	<polygon class="st27" points="978,412.1 968.4,515.7 1003.1,404 1003.1,404 	"/>
	<polygon class="st23" points="978,412.1 968.4,515.7 931.5,412.1 	"/>
	<polygon class="st27" points="917.3,515.7 968.4,515.7 931.5,412.1 	"/>
	<polygon class="st28" points="968.4,515.7 1001.5,515.7 1003.1,404.1 1003.1,404 	"/>
	<polygon class="st22" points="925,308.1 931.5,412.1 968.4,351.3 	"/>
	<polygon class="st24" points="945.7,185 917.3,31.4 953.2,31.4 	"/>
	<polygon class="st18" points="945.7,185 961.8,76 953.2,31.4 	"/>
	<polygon class="st27" points="945.7,185 961.8,76 961.8,199.9 	"/>
	<polygon class="st29" points="875.1,170.1 875.1,76 912.3,141.6 	"/>
	<polygon class="st27" points="875.1,170.1 875.1,199.9 912.3,141.6 	"/>
	<polygon class="st18" points="885.7,298.6 875.1,199.9 912.3,141.6 	"/>
	<polygon class="st30" points="836.7,261.8 885.7,298.6 875.6,75.8 	"/>
	<polygon class="st27" points="836.7,346 885.7,298.6 836.7,261.8 	"/>
	<polygon class="st31" points="836.7,346 868.9,404 885.7,298.6 	"/>
	<polygon class="st27" points="836.7,515.7 868.9,404 836.7,346 	"/>
	<polygon class="st18" points="885.7,298.6 925,308.1 868.9,404 	"/>
	<polygon class="st32" points="931.5,412.1 925,308.1 868.9,404 	"/>
	<polygon class="st25" points="931.5,412.1 925,308.1 868.9,404 	"/>
	<polygon class="st18" points="931.5,412.1 917.3,515.7 868.9,404 	"/>
	<polygon class="st27" points="868.9,515.7 917.3,515.7 868.9,404 	"/>
	<polygon class="st28" points="836.7,515.7 868.9,515.7 868.9,404 	"/>
	<polygon class="st28" points="875.1,31.4 898.7,31.4 872.7,4.2 	"/>
	<polygon class="st33" points="872.7,4.2 898.7,31.4 925,4.2 	"/>
	<polygon class="st34" points="925,4.2 898.7,31.4 960.9,31.4 	"/>
	<polygon class="st35" points="925,4.2 960.9,31.4 961.8,4.2 	"/>
	<polygon class="st36" points="836.7,529 875,529 836.7,515.7 	"/>
	<polygon class="st37" points="836.7,515.7 875,529 917.3,515.7 	"/>
	<polygon class="st36" points="875,529 968.4,529 917.3,515.7 	"/>
	<polygon class="st37" points="917.3,515.7 968.4,529 1001.5,515.7 	"/>
	<polygon class="st36" points="968.4,529 1001.5,529 1001.5,515.7 	"/>
	<polygon class="st38" points="836.7,463.9 861.2,337.8 836.7,277.5 	"/>
	<polygon class="st39" points="836.7,277.5 861.2,337.8 917.3,277.5 	"/>
	<polygon class="st38" points="974.2,418.9 917.3,277.5 861.2,337.8 	"/>
	<polygon class="st40" points="836.7,463.9 974.2,418.9 861.2,337.8 	"/>
	<polygon class="st41" points="836.7,463.9 1003.1,463.9 1003.1,463.9 974.2,418.9 	"/>
	<polygon class="st40" points="917.3,277.5 974.2,418.9 1003.1,277.5 1003.1,277.5 	"/>
	<polygon class="st41" points="974.2,418.9 1003.1,463.9 1003.1,277.5 	"/>
	<g>
		<defs>
			<rect id="SVGID_23_" x="836.7" y="4.2" width="166.4" height="524.8"/>
		</defs>
		<clipPath id="SVGID_24_">
			<use xlink:href="#SVGID_23_"  style="overflow:visible;"/>
		</clipPath>
		<g class="st75">
			<g>
				<defs>
					<rect id="SVGID_25_" x="856.1" y="325.9" width="123.5" height="82.2"/>
				</defs>
				<clipPath id="SVGID_26_">
					<use xlink:href="#SVGID_25_"  style="overflow:visible;"/>
				</clipPath>
				<g class="st76">
					<defs>
						<rect id="SVGID_27_" x="856.1" y="325.9" width="123.5" height="82.2"/>
					</defs>
					<clipPath id="SVGID_28_">
						<use xlink:href="#SVGID_27_"  style="overflow:visible;"/>
					</clipPath>
					<path class="st77" d="M960.9,332.5c0.5-0.7,1.7-2.9,1.9-3.4c0-0.1,0.1-0.3,0.2-0.5c0.1-0.3,0.4-1,0.6-1.4
						c-0.5-0.2-1.3-0.5-3.1-1.3c0,0-0.1,0-0.1,0c-0.5,2.1-1.3,3.7-2.2,5.5c-0.2,0.3-0.4,0.7-0.7,1.2c-0.6,0.9-1.4,2.2-1.9,3.4
						c0.5,0.2,1.2,0.5,1.7,0.6C958.3,335.7,959.9,333.9,960.9,332.5"/>
					<path class="st77" d="M948.9,327.7c0-0.1-0.2-0.1-0.4-0.1c-0.9,0.2-7.5,1.7-11.6,2.7c-2.1,0.5-2.6,0.8-2.8,2.1l-0.1,0.5
						c-0.2,1.5-0.5,4.5-1.5,8.3c-2.5,9.3-7,23.7-8.9,29.8c-0.4,1.2-0.7,2.1-0.8,2.6l-0.7,2.3c-1.2,3.8-1.9,6.3-3.3,11.7
						c-0.1,0.4-0.1,0.6-0.1,0.7c0.7,0.2,1.3,0.2,1.9,0.2c0.9,0,1.9-0.1,3-0.3c3.6-0.5,6.6-1.1,9.4-1.8c0.2-1,0.6-2.7,0.7-3.6
						c0-0.4,0.6-2.8,0.7-3.5c0.9-3.9,1.7-7.9,2.9-11.8c0.8-2.6,1.7-5.3,2.5-7.5c0.4-1.3,0.9-2.6,1.3-3.9c2.7-7.8,5.2-15.1,6.8-22
						c0-0.1,0-0.2,0.1-0.3C949.3,329.4,949.1,328.1,948.9,327.7"/>
					<path class="st77" d="M900.6,364c0.4-1.2,2.6-2.6,13.3-8.5c4.5-2.5,10.5-5.8,11.7-6.9c-0.2-2-4.6-10.4-6.4-12.3
						c-3.2,2.4-17.9,13.4-19,14.3c-2.2,1.8-4.4,3.7-6.8,5.5c-0.4,0.3-1.1,0.3-1.5,0c-0.3-0.3-0.5-0.7-0.4-1.1c0,0,1-5.3,4.1-12.8
						c0.8-1.9,1.5-3.7,2.2-5.3c1-2.3,1.9-4.6,2.4-5.9c-2,0-5.3,0.2-8.6,0.5c-3.5,0.3-5.2,0.6-6.5,0.9c-0.6,0.1-1.2,0.2-1.8,0.3
						c-1.6,0.2-1.6,0.6-1.9,1.7c-0.1,0.2-0.1,0.5-0.2,0.7c0,0-0.6,1.8-0.8,2.6c-0.3,1-2.7,8.3-3.6,10.9c-3.2,9.3-6.6,18.8-10.2,28
						c-1,2.5-3.7,9.2-6.1,15c-1.7,4.2-3.5,8.6-3.6,9l-0.2,0.5c-0.2,0.5-0.5,1.3-0.5,1.9c1.3,0.2,4.8,0.5,8.8,0.5h1.4
						c2.3,0,6.1,0,7-0.4c1.1-2.6,2.5-7,3.3-9.7l0.1-0.2c1.8-5.6,5.2-13.2,6.6-15.8c0.2-0.4,0.6-0.6,1-0.6c0.4,0,0.8,0.2,1.1,0.6
						c0.6,1,1.1,2.1,1.6,3.4c1.7,4.9,5.4,14.8,6.8,16.6c0.2,0.3,0.5,0.6,0.8,0.6c1.2-0.4,6.9-3.8,11.4-7.6c4.2-3.7,7-6.6,7.7-7.7
						c-1-1.6-5.3-7.3-8.2-11.2C900.4,364.7,900.4,364.7,900.6,364C900.6,364.1,900.6,364,900.6,364"/>
					<path class="st77" d="M973,346.3c0.2,0,0.4,0,0.6,0c0.6,0,1.3,0.1,1.8,0.1c0.3,0,0.6,0.1,0.8,0.1c0.4-1.8,1.3-6.3,1.5-7.6
						c-1.2-0.1-2.7-0.1-3.8,0l-0.3,0c-1.1,0.1-2.4,0.3-3.4,0.6c-3.5,1.1-7,2.7-9.4,6.5c-0.4,0.6-1.2,2.2-1.2,3.8
						c0.1,2.8,4.4,3.8,5.7,4.1c0.8,0.1,1.6,0.3,2.1,0.5c2.3,0.7,3.7,1.6,4.1,2.7c0.2,0.6,0.2,1.2-0.2,1.9c-1,1.7-3.5,2.9-5.5,3.3
						c-1.8,0.4-4,0.3-5.8-0.2c-0.9-0.2-1.6-0.5-2.1-0.7c-0.1,0-0.2-0.1-0.2-0.1c-1.2,1.3-2.1,2.9-2.7,4.8c-0.3,1-0.4,1.8-0.4,2.1
						c0.4,0.2,1.4,0.5,2.1,0.6c2.8,0.3,5.2,0.3,7.3-0.2l0.4-0.1c1.3-0.3,2.4-0.5,4.3-1.2c1.9-0.7,3.9-2.1,5.9-4.2
						c2.1-2.2,3-4.8,2.4-7.5c-0.5-2.2-2.5-2.9-4.5-3.5c-0.3-0.1-0.7-0.2-1.1-0.3c-1.8-0.5-3.8-1.1-3.8-2.8c0,0,0,0,0-0.1
						C967.9,347.7,968.9,346.3,973,346.3"/>
					<path class="st77" d="M962.9,337.7c0.4-0.5,0.8-1,1.1-1.4c0.6-0.8,1.8-3,2-3.7c0.2-0.4,0.9-2,0.9-2.3c0-0.6-0.3-1-0.7-1
						c-0.1,0-0.4-0.1-0.8-0.3c-0.1,0.2-0.2,0.4-0.3,0.6c-0.1,0.2-0.1,0.3-0.2,0.4c-0.3,0.7-1.5,3-2.2,3.9c-0.4,0.6-2.7,3.7-4.7,4.8
						c-0.3,0.2-0.6,0.2-0.9,0.2c-0.1,0-0.2,0-0.3,0c0,0-0.2-0.1-0.5-0.1c-0.1,0.3-0.2,0.5-0.2,0.8c-0.1,0.3,2.9,1.2,3.1,1.3
						c0.1,0,0.2,0,0.4-0.1c0.3-0.2,0.7-0.5,1.1-0.8C961.5,339.2,962.2,338.4,962.9,337.7"/>
					<path class="st77" d="M977,347.8c-0.2,0.1-0.4,0.1-0.7,0.1c-0.3,0-0.8,0-1.3-0.1c-0.5-0.1-1.2-0.1-1.7-0.1
						c-2.5-0.1-4.2,0.4-4.3,1.2c0,0.3,0.6,0.6,1.2,0.8c0.8-0.6,2.5-1,4.5-0.9c1.4,0,3,0.3,3.3,0.2c0.1-0.7,1.6-7.8,1.7-8.2
						c0-0.3-0.4-0.6-0.6-0.6c-0.1,0-0.1,0-0.2,0c-0.5,2.4-1.4,7.1-1.5,7.1C977.3,347.4,977.2,347.6,977,347.8"/>
					<path class="st77" d="M967,355.6c-0.5-0.1-1.2-0.3-1.9-0.4c-1.5-0.3-2.7-0.7-3.7-1.2c1.2,1.2,3.3,1.9,5.1,2.2
						c0.8,0.1,1.5,0.3,2,0.4c0.6,0.2,1.1,0.4,1.6,0.6C969.7,356.8,968.8,356.2,967,355.6"/>
					<path class="st77" d="M978.5,356.1c0.3,2.8-0.7,5.6-2.9,7.8c-2.2,2.2-4.2,3.7-6.3,4.5c-1.9,0.7-3.1,1-4.4,1.3l-0.4,0.1
						c-1.3,0.3-2.7,0.4-4.2,0.4c-1.1,0-2.2-0.1-3.4-0.2c0,0-0.7-0.1-1.4-0.3c0,0.2,0,0.4,0.1,0.4c0.2,0.3,1.7,0.8,2.7,0.9
						c2.5,0.3,5,0.3,7.4-0.2c1.4-0.3,2.6-0.5,4.6-1.3c2.1-0.8,4-2.2,6.1-4.3c2-2.1,3.3-4.9,2.6-8.1
						C978.8,356.7,978.6,356.4,978.5,356.1"/>
					<path class="st77" d="M952.7,331c-0.1-0.2-0.4-0.8-1.3-0.9c-0.2,1.2-0.4,2.6-0.9,4.2l-0.1,0.2c-1.7,7-4.2,14.4-6.9,22.2
						c-0.4,1.3-0.9,2.6-1.3,3.9c-0.8,2.2-1.6,4.8-2.4,7.4c-1.2,3.7-2,7.7-2.9,11.6c-0.3,1.5-0.6,3.1-0.7,3.3
						c-0.2,1.3-0.8,4.3-0.9,4.5c-0.1,0.4-0.4,0.8-0.8,0.9c-3,0.9-6.3,1.5-10.3,2.1c-1.2,0.2-2.2,0.3-3.3,0.3c-0.1,0-0.3,0-0.4,0
						c0,0.1,0,0.1,0,0.2c-0.2,0.8-0.3,1.9,0.8,2.2c1.9,0.4,3.5,0.2,5.4-0.1c3.4-0.5,6.8-1.1,10.2-2.1c0,0,0.7-3.1,0.9-4.4
						c0.1-0.4,0.7-3.4,0.7-3.4c0.8-3.9,1.7-7.9,2.9-11.7c0.8-2.7,1.7-5.3,2.5-7.5c3.1-9.2,6.2-17.9,8.2-26
						C951.9,337.6,953.4,332.8,952.7,331"/>
					<path class="st77" d="M917,385.3c-0.3-0.4-0.7-1-1.2-1.7c-0.7,1.3-2.8,3.8-8.2,8.5c-4.5,3.9-11.5,8.2-12.9,8.2c0,0-0.1,0-0.1,0
						c0.3,0.6,0.6,1.1,0.9,1.5c0.2,0.3,0.6,0.8,1.6,0.8c0.7,0,7.2-3.7,12.1-7.9c3.1-2.7,5.7-5.2,7.1-6.9
						C917.1,386.4,917.2,385.7,917,385.3"/>
					<path class="st77" d="M884.4,380.5c-1.6,3.4-4,9-5.4,13.3l-0.1,0.2c-0.9,2.8-2.4,7.4-3.5,10.1c-0.6,1.5-3,1.7-9.1,1.7h-1.4
						c-2.3,0-4.8-0.1-6.8-0.3c-0.1,0-0.3,0-0.4,0c-0.2,0.8-0.3,1.6,0,2.1c0.2,0.3,4.6,0.5,9.6,0.5c5,0,9,0.1,9.4-0.9
						c1.1-2.7,2.6-7.4,3.5-10.2c1.4-4.3,3.6-9.6,5.3-13.1c-0.6-1.6-0.7-2.5-0.7-2.5C884.6,381.1,884.5,380.8,884.4,380.5"/>
					<path class="st77" d="M897.7,343c-1.5,3.7-2.5,6.9-3.1,9.1c1.2-1,2.3-1.9,3.5-2.9c0.3-0.9,0.7-1.9,1.1-2.9
						c2.9-7.1,5.3-12.4,5-12.7c-0.1-0.1-1.1-0.2-2.6-0.1c-0.4,1.1-1,2.5-1.8,4.3C899.2,339.3,898.5,341.1,897.7,343"/>
					<path class="st77" d="M915,357.6c-4.3,2.4-10,5.5-11.8,6.9c0.4,0.6,0.9,1.3,1.8,2.5c3.4-2.5,14.9-8.5,20.7-11.9
						c0.5-1.8,1.3-3.3,1.8-5.1C926.7,351,923.9,352.7,915,357.6"/>
				</g>
			</g>
		</g>
	</g>
	<g class="st0">
		<g>
			<defs>
				<rect id="SVGID_29_" x="259.2" y="184.5" width="250.9" height="211"/>
			</defs>
			<clipPath id="SVGID_30_">
				<use xlink:href="#SVGID_29_"  style="overflow:visible;"/>
			</clipPath>
			<g class="st78">
				<text transform="matrix(1 0 0 1 290.0088 355.045)" class="st46 st47 st48">+</text>
			</g>
		</g>
	</g>
	<g class="st0">
		<g>
			<defs>
				<rect id="SVGID_31_" x="633.1" y="202.7" width="245.6" height="211"/>
			</defs>
			<clipPath id="SVGID_32_">
				<use xlink:href="#SVGID_31_"  style="overflow:visible;"/>
			</clipPath>
			<g class="st79">
				<text transform="matrix(1 0 0 1 663.9688 373.2637)" class="st46 st47 st48">=</text>
			</g>
		</g>
	</g>
	<rect x="9" y="4.2" class="st2" width="994.1" height="597.9"/>
	<polygon class="st50" points="63.4,291.3 63.6,301.5 82.5,275.8 	"/>
	<polygon class="st51" points="63.6,301.5 82,299 82.5,275.8 	"/>
	<polygon class="st52" points="82.5,275.8 82,299 107,272.9 	"/>
	<polygon class="st50" points="82.5,275.8 107,272.9 99.6,246.7 	"/>
	<polygon class="st51" points="99.6,246.7 107,272.9 120.9,242.1 	"/>
	<polygon class="st50" points="99.6,246.7 120.9,242.1 110.9,215.3 	"/>
	<polygon class="st50" points="110.9,215.3 120.9,242.1 126.1,213.1 	"/>
	<polygon class="st52" points="110.9,215.3 126.1,213.1 113.2,185.2 	"/>
	<polygon class="st50" points="96.9,212.3 110.9,215.3 113.2,185.2 	"/>
	<polygon class="st51" points="99.6,246.7 110.9,215.3 96.9,212.3 	"/>
	<polygon class="st50" points="79.8,242.4 99.6,246.7 96.9,212.3 	"/>
	<polygon class="st52" points="82.5,275.8 99.6,246.7 79.8,242.4 	"/>
	<polygon class="st51" points="68.4,272.8 82.5,275.8 79.8,242.4 	"/>
	<polygon class="st52" points="63.4,291.3 82.5,275.8 68.4,272.8 	"/>
	<polygon class="st53" points="113.2,185.2 126.1,213.1 121.9,183.4 	"/>
	<polygon class="st54" points="101.1,201.7 121.7,183.2 108.4,181.6 	"/>
	<polygon class="st55" points="87.1,188.2 87.1,188.2 101.1,201.7 108.4,181.6 	"/>
	<polygon class="st56" points="87.1,188.2 69.5,205.6 101.1,201.7 87.1,188.2 	"/>
	<polygon class="st55" points="69.5,205.6 103.3,221.5 101.1,201.7 	"/>
	<polygon class="st57" points="69.2,230.6 103.3,221.5 69.5,205.6 	"/>
	<polygon class="st56" points="51.9,232.1 69.2,230.6 69.5,205.6 	"/>
	<polygon class="st57" points="51.9,232.1 42.6,261.6 69.2,230.6 	"/>
	<polygon class="st55" points="42.6,261.6 63.3,259 69.2,230.6 	"/>
	<polygon class="st54" points="69.2,230.6 63.3,259 103.3,221.5 	"/>
	<polygon class="st58" points="63.3,259 79.7,255.9 103.3,221.5 	"/>
	<polygon class="st59" points="63.3,259 66.9,282.7 79.7,255.9 	"/>
	<polygon class="st60" points="42.6,261.6 42.3,286.6 63.3,259 	"/>
	<polygon class="st55" points="42.3,286.6 66.9,282.7 63.3,259 	"/>
	<polygon class="st54" points="42.3,286.6 51.4,305.3 66.9,282.7 	"/>
	<polygon class="st61" points="51.4,305.3 62.3,312.2 66.9,282.7 	"/>
	<polygon class="st58" points="101.1,201.7 103.3,221.5 121.7,183.2 	"/>
	<polygon class="st62" points="63.8,302.1 62.3,312.2 85.4,290.4 	"/>
	<polygon class="st63" points="62.3,312.2 80.8,313.1 80.8,313.1 85.4,290.4 	"/>
	<polygon class="st62" points="80.8,313.1 80.8,313.1 110.1,291.8 85.4,290.4 	"/>
	<polygon class="st64" points="85.4,290.4 110.1,291.8 107.5,264.7 	"/>
	<polygon class="st51" points="107.5,264.7 110.1,291.8 129.3,264.1 	"/>
	<polygon class="st50" points="107.5,264.7 129.3,264.1 124.2,235.9 	"/>
	<polygon class="st50" points="129.3,264.1 139.6,236.5 124.2,235.9 	"/>
	<polygon class="st52" points="124.2,235.9 139.6,236.5 131.9,206.7 	"/>
	<polygon class="st65" points="111,230.4 124.2,235.9 131.9,206.7 	"/>
	<polygon class="st66" points="111,230.4 131.9,206.7 121.5,198.6 	"/>
	<polygon class="st67" points="121.5,198.6 131.9,206.7 121.7,183.2 	"/>
	<polygon class="st68" points="131.9,206.7 136.8,193.3 121.7,183.2 	"/>
	<polygon class="st69" points="131.9,206.7 140.8,206.5 136.8,193.3 	"/>
	<polygon class="st70" points="107.5,264.7 124.2,235.9 111,230.4 	"/>
	<polygon class="st71" points="88.8,257 107.5,264.7 111,230.4 	"/>
	<polygon class="st65" points="85.4,290.4 107.5,264.7 88.8,257 	"/>
	<polygon class="st59" points="72.1,284.9 85.4,290.4 88.8,257 	"/>
	<polygon class="st63" points="63.8,302.1 85.4,290.4 72.1,284.9 	"/>
	<polygon class="st53" points="131.9,206.7 139.6,236.5 140.8,206.5 	"/>
	<polygon class="st50" points="85.3,324.2 91.1,312.7 121.5,306.8 	"/>
	<polygon class="st51" points="85.3,324.2 107.3,332.4 121.5,306.8 	"/>
	<polygon class="st52" points="150.6,318 107.3,332.4 121.5,306.8 	"/>
	<polygon class="st50" points="150.6,318 157.9,284.4 121.5,306.8 	"/>
	<polygon class="st51" points="150.6,318 157.9,284.4 184.4,292 	"/>
	<polygon class="st50" points="189.1,256.2 157.9,284.4 184.4,292 	"/>
	<polygon class="st50" points="189.1,256.2 207.4,262.7 184.4,292 	"/>
	<polygon class="st52" points="189.1,256.2 207.4,262.7 209.6,224 	"/>
	<polygon class="st50" points="189.1,256.2 175.3,244.5 209.6,224 	"/>
	<polygon class="st51" points="189.1,256.2 175.3,244.5 157.9,284.4 	"/>
	<polygon class="st50" points="138.4,267.9 175.3,244.5 157.9,284.4 	"/>
	<polygon class="st52" points="138.4,267.9 121.5,306.8 157.9,284.4 	"/>
	<polygon class="st51" points="138.4,267.9 121.5,306.8 107.7,295.1 	"/>
	<polygon class="st52" points="91.1,312.7 121.5,306.8 107.7,295.1 	"/>
	<polygon class="st53" points="220.3,227.2 207.4,262.7 209.6,224 	"/>
	<polygon class="st54" points="220.2,226.8 206.3,217 186.2,235.2 	"/>
	<polygon class="st55" points="178.6,211.8 186.2,235.2 206.3,217 	"/>
	<polygon class="st56" points="178.6,211.8 148.7,220.7 186.2,235.2 	"/>
	<polygon class="st55" points="177,258.6 148.7,220.7 186.2,235.2 	"/>
	<polygon class="st57" points="177,258.6 148.7,220.7 133.6,248.4 	"/>
	<polygon class="st56" points="113.3,239.9 148.7,220.7 133.6,248.4 	"/>
	<polygon class="st57" points="113.3,239.9 85.5,267.2 133.6,248.4 	"/>
	<polygon class="st55" points="110.2,276.7 85.5,267.2 133.6,248.4 	"/>
	<polygon class="st54" points="110.2,276.7 177,258.6 133.6,248.4 	"/>
	<polygon class="st58" points="110.2,276.7 177,258.6 130.3,282.9 	"/>
	<polygon class="st59" points="110.2,276.7 100,305.2 130.3,282.9 	"/>
	<polygon class="st60" points="110.2,276.7 85.5,267.2 70.4,294.9 	"/>
	<polygon class="st55" points="110.2,276.7 100,305.2 70.4,294.9 	"/>
	<polygon class="st54" points="69.4,321.2 100,305.2 70.4,294.9 	"/>
	<polygon class="st61" points="69.4,321.2 77.4,335.3 100,305.2 	"/>
	<polygon class="st58" points="177,258.6 220.2,226.8 186.2,235.2 	"/>
	<polygon class="st62" points="77.4,335.3 85.1,325.1 116.2,324.7 	"/>
	<polygon class="st63" points="77.4,335.3 97.6,347.3 116.2,324.7 	"/>
	<polygon class="st62" points="97.6,347.3 142.8,341 116.2,324.7 	"/>
	<polygon class="st64" points="142.8,341 156,309.2 116.2,324.7 	"/>
	<polygon class="st51" points="142.8,341 156,309.2 180.7,321.4 	"/>
	<polygon class="st50" points="191.8,287 156,309.2 180.7,321.4 	"/>
	<polygon class="st50" points="191.8,287 208.6,296.7 180.7,321.4 	"/>
	<polygon class="st52" points="191.8,287 208.6,296.7 217.6,259 	"/>
	<polygon class="st65" points="191.8,287 180.3,273.1 217.6,259 	"/>
	<polygon class="st66" points="210.9,243.8 180.3,273.1 217.6,259 	"/>
	<polygon class="st67" points="210.9,243.8 220.2,226.8 217.6,259 	"/>
	<polygon class="st68" points="217.6,259 231,246.9 220.2,226.8 	"/>
	<polygon class="st69" points="217.6,259 227.7,264.1 231,246.9 	"/>
	<polygon class="st70" points="191.8,287 180.3,273.1 156,309.2 	"/>
	<polygon class="st71" points="139.7,289.5 180.3,273.1 156,309.2 	"/>
	<polygon class="st65" points="139.7,289.5 116.2,324.7 156,309.2 	"/>
	<polygon class="st59" points="139.7,289.5 116.2,324.7 104.6,310.7 	"/>
	<polygon class="st63" points="85.1,325.1 116.2,324.7 104.6,310.7 	"/>
	<polygon class="st53" points="227.7,264.1 208.6,296.7 217.6,259 	"/>
	<rect x="9" y="4.2" class="st2" width="994.1" height="597.9"/>
</g>
</svg>
