<?xml version="1.0" encoding="utf-8"?>
<!-- Generator: Adobe Illustrator 24.0.1, SVG Export Plug-In . SVG Version: 6.00 Build 0)  -->
<svg version="1.1" id="Layer_1" xmlns="http://www.w3.org/2000/svg" xmlns:xlink="http://www.w3.org/1999/xlink" x="0px" y="0px"
	 viewBox="0 0 363.6 286.5" style="enable-background:new 0 0 363.6 286.5;" xml:space="preserve">
<style type="text/css">
	.st0{clip-path:url(#SVGID_2_);fill:#111111;}
	.st1{clip-path:url(#SVGID_2_);fill:none;stroke:#111111;stroke-width:1.484;}
	.st2{clip-path:url(#SVGID_4_);fill:#111111;}
	.st3{fill:#111111;}
	.st4{clip-path:url(#SVGID_6_);fill:#111111;}
	.st5{clip-path:url(#SVGID_6_);fill:none;stroke:#111111;stroke-width:1.484;}
	.st6{clip-path:url(#SVGID_8_);fill:#111111;}
	.st7{clip-path:url(#SVGID_8_);fill:none;stroke:#111111;stroke-width:1.484;}
</style>
<g>
	<g>
		<defs>
			<rect id="SVGID_1_" width="363.6" height="286.5"/>
		</defs>
		<clipPath id="SVGID_2_">
			<use xlink:href="#SVGID_1_"  style="overflow:visible;"/>
		</clipPath>
		<path class="st0" d="M28.8,80.5h-7.3L0.2,133.7h5.6c0.6,0,1.1-0.2,1.6-0.5c0.4-0.3,0.7-0.7,0.9-1.2l5-12.8H37l5,12.8
			c0.2,0.5,0.5,0.9,0.9,1.2c0.4,0.3,0.9,0.5,1.6,0.5H50L28.8,80.5z M15.2,113.9l8.3-21.6c0.5-1.3,1.1-3,1.6-5c0.2,1,0.5,1.9,0.8,2.7
			c0.3,0.9,0.5,1.6,0.8,2.2l8.3,21.6H15.2z"/>
		<path class="st0" d="M357.5,171.5h-10.9v1.6h8.2l-8.4,11.9c-0.1,0.1-0.1,0.2-0.1,0.3c0,0.1-0.1,0.2-0.1,0.3v0.8h11.2v-1.6h-8.5
			l8.4-11.8c0.1-0.2,0.2-0.4,0.2-0.7V171.5z M345.6,171.5h-1.8c-0.2,0-0.3,0-0.4,0.1c-0.1,0.1-0.2,0.2-0.3,0.3l-3.4,5.8
			c-0.1,0.2-0.2,0.5-0.3,0.7c-0.1,0.2-0.2,0.4-0.3,0.6c-0.1-0.2-0.2-0.4-0.3-0.6c-0.1-0.2-0.2-0.4-0.3-0.7l-3.4-5.8
			c-0.1-0.1-0.2-0.3-0.3-0.3c-0.1-0.1-0.2-0.1-0.4-0.1h-1.8l5.5,9v5.9h2v-5.9L345.6,171.5z M327.3,178.7l4.9-7.1h-1.9
			c-0.1,0-0.2,0-0.3,0.1c-0.1,0.1-0.1,0.1-0.2,0.2l-3.7,5.4c-0.1,0.2-0.2,0.3-0.2,0.5l-3.9-6c-0.1-0.1-0.1-0.2-0.2-0.2
			c-0.1,0-0.2-0.1-0.3-0.1h-2l4.9,7.2l-5.1,7.6h1.9c0.1,0,0.2,0,0.3-0.1c0.1-0.1,0.2-0.2,0.2-0.3l3.9-5.8c0.1-0.1,0.1-0.3,0.2-0.4
			l4,6.3c0.1,0.1,0.1,0.2,0.2,0.3c0.1,0.1,0.2,0.1,0.4,0.1h2L327.3,178.7z M317.3,171.5c-0.2,0-0.3,0-0.4,0.1
			c-0.1,0.1-0.2,0.2-0.2,0.3l-3.1,10.3c0,0.2-0.1,0.4-0.1,0.6c0,0.2-0.1,0.4-0.1,0.7c0-0.2-0.1-0.4-0.2-0.7
			c-0.1-0.2-0.1-0.4-0.2-0.6l-3.5-10.3c-0.1-0.1-0.1-0.3-0.2-0.3c-0.1-0.1-0.3-0.1-0.4-0.1h-0.6c-0.2,0-0.3,0-0.4,0.2
			c-0.1,0.1-0.2,0.2-0.2,0.3l-3.5,10.3c-0.1,0.2-0.1,0.4-0.2,0.6c-0.1,0.2-0.1,0.4-0.2,0.7c0-0.2-0.1-0.5-0.1-0.7
			c0-0.2-0.1-0.4-0.1-0.6l-3.1-10.3c0-0.1-0.1-0.3-0.2-0.3c-0.1-0.1-0.3-0.1-0.5-0.1H298l4.6,14.9h1.8l3.8-11.4
			c0-0.1,0.1-0.2,0.1-0.4s0.1-0.3,0.1-0.4c0,0.1,0.1,0.3,0.1,0.4s0.1,0.2,0.1,0.4l3.8,11.4h1.8l4.6-14.9H317.3z M296,171.5
			c-0.2,0-0.3,0-0.4,0.2c-0.1,0.1-0.2,0.2-0.2,0.3l-4.2,10.5c-0.1,0.2-0.2,0.5-0.2,0.8c-0.1,0.3-0.2,0.6-0.2,0.9
			c-0.1-0.3-0.1-0.6-0.2-0.9c-0.1-0.3-0.2-0.5-0.3-0.8l-4.2-10.5c-0.1-0.1-0.1-0.3-0.2-0.3c-0.1-0.1-0.3-0.1-0.4-0.1h-1.6l6.1,14.9
			h1.8l6.1-14.9H296z M274.3,184.5c-0.5-0.2-0.9-0.5-1.2-0.9c-0.3-0.4-0.6-0.8-0.8-1.3c-0.2-0.5-0.3-1.1-0.3-1.7v-9h-2v9
			c0,0.9,0.1,1.7,0.4,2.4c0.3,0.7,0.7,1.4,1.2,1.9c0.5,0.5,1.1,1,1.9,1.3c0.7,0.3,1.6,0.5,2.5,0.5c0.9,0,1.7-0.2,2.5-0.5
			c0.7-0.3,1.4-0.7,1.9-1.3c0.5-0.5,0.9-1.2,1.2-1.9c0.3-0.7,0.4-1.5,0.4-2.4v-9h-2v9c0,0.6-0.1,1.2-0.3,1.7c-0.2,0.5-0.4,1-0.8,1.3
			c-0.3,0.4-0.7,0.7-1.2,0.9c-0.5,0.2-1,0.3-1.7,0.3C275.3,184.8,274.8,184.7,274.3,184.5 M268,171.5h-11.7v1.7h4.8v13.2h2v-13.2
			h4.8V171.5z M254.8,172.9c-0.5-0.5-1.1-0.9-1.8-1.1c-0.7-0.3-1.4-0.4-2.3-0.4c-0.7,0-1.4,0.1-2,0.3c-0.6,0.2-1.1,0.5-1.4,0.9
			c-0.4,0.4-0.7,0.8-0.9,1.3c-0.2,0.5-0.3,1-0.3,1.5c0,0.7,0.1,1.2,0.3,1.7c0.2,0.4,0.5,0.8,0.8,1.1c0.3,0.3,0.7,0.5,1.1,0.7
			c0.4,0.2,0.9,0.4,1.3,0.5s0.9,0.3,1.3,0.4s0.8,0.3,1.1,0.5c0.3,0.2,0.6,0.4,0.8,0.7c0.2,0.3,0.3,0.7,0.3,1.1
			c0,0.4-0.1,0.8-0.2,1.1c-0.1,0.3-0.3,0.6-0.6,0.9c-0.3,0.2-0.6,0.4-0.9,0.6c-0.4,0.1-0.8,0.2-1.3,0.2c-0.4,0-0.7,0-1-0.1
			c-0.3-0.1-0.6-0.2-0.8-0.3s-0.5-0.2-0.6-0.4c-0.2-0.1-0.4-0.3-0.5-0.4c-0.1-0.1-0.3-0.2-0.4-0.3c-0.1-0.1-0.2-0.1-0.3-0.1
			c-0.1,0-0.2,0-0.3,0.1c-0.1,0.1-0.1,0.1-0.2,0.2l-0.6,1c0.6,0.6,1.2,1.1,2,1.4c0.8,0.4,1.7,0.5,2.6,0.5c0.8,0,1.5-0.1,2.1-0.4
			c0.6-0.2,1.1-0.6,1.6-1c0.4-0.4,0.8-0.9,1-1.5c0.2-0.6,0.3-1.2,0.3-1.8c0-0.6-0.1-1.1-0.3-1.6c-0.2-0.4-0.5-0.8-0.8-1.1
			c-0.3-0.3-0.7-0.5-1.1-0.7c-0.4-0.2-0.9-0.4-1.3-0.5c-0.4-0.2-0.9-0.3-1.3-0.4c-0.4-0.1-0.8-0.3-1.1-0.5s-0.6-0.4-0.8-0.7
			c-0.2-0.3-0.3-0.6-0.3-1c0-0.3,0.1-0.6,0.2-0.9c0.1-0.3,0.3-0.5,0.5-0.7c0.2-0.2,0.5-0.4,0.9-0.5c0.3-0.1,0.7-0.2,1.2-0.2
			c0.5,0,0.9,0.1,1.2,0.2c0.3,0.1,0.6,0.2,0.9,0.4s0.4,0.3,0.6,0.4c0.2,0.1,0.3,0.2,0.4,0.2c0.1,0,0.2,0,0.3-0.1
			c0.1-0.1,0.1-0.1,0.2-0.2L254.8,172.9z M240.3,180.5c-0.2-0.3-0.4-0.5-0.7-0.6c0.6-0.1,1.1-0.3,1.5-0.6c0.5-0.3,0.8-0.6,1.2-0.9
			c0.3-0.4,0.6-0.8,0.7-1.2s0.2-0.9,0.2-1.5c0-0.6-0.1-1.2-0.3-1.7c-0.2-0.5-0.5-0.9-1-1.3c-0.4-0.4-1-0.6-1.7-0.8
			c-0.7-0.2-1.5-0.3-2.4-0.3h-4.2v14.9h2v-6.2h1.5c0.3,0,0.5,0,0.6,0.1c0.1,0.1,0.3,0.2,0.4,0.4l3.9,5.3c0.2,0.3,0.4,0.4,0.8,0.4
			h1.8L240.3,180.5z M235.7,178.8v-5.6h2.2c1.2,0,2,0.2,2.6,0.7c0.6,0.5,0.9,1.1,0.9,2c0,0.4-0.1,0.8-0.2,1.2
			c-0.2,0.4-0.4,0.7-0.7,0.9c-0.3,0.3-0.7,0.5-1.1,0.6c-0.4,0.1-1,0.2-1.5,0.2H235.7z M227.7,185.4c0.5-0.3,0.9-0.7,1.3-1.2
			c0.4-0.4,0.7-0.9,1-1.5c0.3-0.5,0.5-1.1,0.6-1.8s0.2-1.3,0.2-2c0-1.1-0.2-2.1-0.5-3.1c-0.4-0.9-0.9-1.7-1.5-2.4
			c-0.6-0.7-1.4-1.2-2.3-1.6c-0.9-0.4-1.9-0.6-3-0.6c-1.1,0-2.1,0.2-3,0.6c-0.9,0.4-1.7,0.9-2.3,1.6c-0.6,0.7-1.1,1.5-1.5,2.4
			c-0.4,0.9-0.5,2-0.5,3.1s0.2,2.1,0.5,3.1c0.4,0.9,0.9,1.7,1.5,2.4c0.6,0.7,1.4,1.2,2.3,1.6c0.9,0.4,1.9,0.6,3,0.6
			c0.9,0,1.8-0.1,2.6-0.4l2.6,2.8c0.2,0.2,0.3,0.3,0.5,0.4c0.2,0.1,0.4,0.1,0.7,0.1h1.7L227.7,185.4z M218.5,176.5
			c0.2-0.7,0.6-1.3,1.1-1.8c0.5-0.5,1-0.9,1.7-1.2c0.7-0.3,1.4-0.4,2.2-0.4c0.8,0,1.5,0.1,2.2,0.4c0.7,0.3,1.2,0.7,1.7,1.2
			c0.5,0.5,0.8,1.1,1.1,1.8c0.2,0.7,0.4,1.5,0.4,2.5c0,0.9-0.1,1.7-0.4,2.5c-0.2,0.7-0.6,1.3-1.1,1.8s-1,0.9-1.7,1.2
			c-0.7,0.3-1.4,0.4-2.2,0.4c-0.8,0-1.5-0.1-2.2-0.4c-0.7-0.3-1.2-0.7-1.7-1.2c-0.5-0.5-0.8-1.1-1.1-1.8c-0.2-0.7-0.4-1.5-0.4-2.5
			C218.2,178.1,218.3,177.3,218.5,176.5 M204.5,171.5v14.9h2v-5.6h2.4c0.9,0,1.7-0.1,2.4-0.3c0.7-0.2,1.3-0.6,1.7-1
			c0.5-0.4,0.8-0.9,1.1-1.5s0.4-1.2,0.4-1.9c0-0.7-0.1-1.3-0.3-1.9c-0.2-0.6-0.6-1.1-1-1.5s-1-0.7-1.7-0.9c-0.7-0.2-1.5-0.3-2.5-0.3
			H204.5z M206.6,179.3v-6.1h2.4c1.2,0,2.1,0.3,2.7,0.8c0.6,0.5,0.9,1.3,0.9,2.2c0,0.5-0.1,0.9-0.2,1.3c-0.2,0.4-0.4,0.7-0.7,1
			c-0.3,0.3-0.7,0.5-1.1,0.6c-0.4,0.2-0.9,0.2-1.5,0.2H206.6z M199.2,181.5c-0.2,0.7-0.6,1.3-1.1,1.8s-1,0.9-1.7,1.2
			c-0.7,0.3-1.4,0.4-2.2,0.4c-0.8,0-1.5-0.1-2.2-0.4c-0.7-0.3-1.2-0.7-1.7-1.2c-0.5-0.5-0.8-1.1-1.1-1.8c-0.2-0.7-0.4-1.5-0.4-2.5
			c0-0.9,0.1-1.7,0.4-2.5c0.2-0.7,0.6-1.3,1.1-1.8c0.5-0.5,1-0.9,1.7-1.2c0.7-0.3,1.4-0.4,2.2-0.4c0.8,0,1.5,0.1,2.2,0.4
			c0.6,0.3,1.2,0.7,1.7,1.2c0.5,0.5,0.8,1.1,1.1,1.8c0.2,0.7,0.4,1.5,0.4,2.5C199.6,179.9,199.5,180.7,199.2,181.5 M201.1,175.9
			c-0.4-0.9-0.9-1.7-1.5-2.4c-0.6-0.7-1.4-1.2-2.3-1.6c-0.9-0.4-1.9-0.6-3-0.6c-1.1,0-2.1,0.2-3,0.6c-0.9,0.4-1.7,0.9-2.3,1.6
			c-0.6,0.7-1.1,1.5-1.5,2.4c-0.4,0.9-0.5,2-0.5,3.1s0.2,2.1,0.5,3.1c0.4,0.9,0.9,1.7,1.5,2.4c0.6,0.7,1.4,1.2,2.3,1.6
			c0.9,0.4,1.9,0.6,3,0.6c1.1,0,2.1-0.2,3-0.6c0.9-0.4,1.7-0.9,2.3-1.6c0.6-0.7,1.1-1.5,1.5-2.4c0.4-0.9,0.5-2,0.5-3.1
			S201.5,176.9,201.1,175.9 M182.3,171.5v10.5c0,0.2,0,0.3,0,0.5c0,0.2,0,0.3,0,0.5l-8.6-11.2c-0.1-0.1-0.1-0.1-0.2-0.2
			c0,0-0.1-0.1-0.1-0.1c0,0-0.1,0-0.2-0.1c-0.1,0-0.1,0-0.2,0h-1v14.9h1.8v-10.6c0-0.1,0-0.3,0-0.5c0-0.2,0-0.3,0-0.5l8.6,11.2
			c0.1,0.1,0.2,0.2,0.3,0.3c0.1,0.1,0.2,0.1,0.4,0.1h1v-14.9H182.3z M166.8,171.5c-0.2,0-0.3,0-0.4,0.1c-0.1,0-0.2,0.1-0.3,0.3
			l-5,9.2c-0.1,0.2-0.2,0.3-0.2,0.5c-0.1,0.2-0.1,0.4-0.2,0.6c-0.1-0.2-0.1-0.4-0.2-0.5c-0.1-0.2-0.2-0.4-0.2-0.5l-5.1-9.2
			c-0.1-0.2-0.2-0.3-0.3-0.3c-0.1,0-0.2-0.1-0.4-0.1h-1.5v14.9h1.8v-10.9c0-0.3,0-0.7-0.1-1l5.2,9.3c0.2,0.3,0.4,0.5,0.7,0.5h0.3
			c0.3,0,0.6-0.2,0.7-0.5l5.1-9.3c0,0.2,0,0.3,0,0.5c0,0.2,0,0.3,0,0.5v10.9h1.8v-14.9H166.8z M144.1,184.7v-13.2h-2v14.9h8.4v-1.7
			H144.1z M130.3,171.5h-2v14.9h2v-6.8h0.9c0.3,0,0.6,0,0.7,0.1c0.2,0.1,0.3,0.2,0.4,0.4l5.1,5.9c0,0.1,0.1,0.1,0.2,0.2
			c0.1,0.1,0.1,0.1,0.2,0.1c0.1,0,0.1,0.1,0.2,0.1c0.1,0,0.2,0,0.3,0h1.7l-5.9-7.1c-0.1-0.2-0.3-0.4-0.4-0.5
			c-0.2-0.1-0.3-0.2-0.5-0.3c0.1-0.1,0.3-0.2,0.4-0.3c0.1-0.1,0.3-0.2,0.4-0.4l5.7-6.4h-1.7c-0.2,0-0.4,0-0.6,0.1
			c-0.2,0.1-0.3,0.2-0.4,0.4l-5,5.6c-0.1,0.2-0.3,0.3-0.4,0.3c-0.2,0.1-0.4,0.1-0.6,0.1h-0.8V171.5z M124.7,171.5h-2v9.8
			c0,0.6-0.1,1.2-0.2,1.6c-0.1,0.5-0.3,0.8-0.6,1.1c-0.2,0.3-0.5,0.5-0.9,0.6c-0.4,0.1-0.8,0.2-1.2,0.2c-0.3,0-0.6,0-0.8-0.1
			c-0.2-0.1-0.4-0.1-0.5-0.1c-0.2,0-0.3,0-0.3,0.1c-0.1,0.1-0.1,0.2-0.1,0.3c0,0.2,0,0.4-0.1,0.6c0,0.2,0,0.4-0.1,0.6
			c0.7,0.2,1.4,0.3,2.1,0.3c0.8,0,1.4-0.1,2-0.4c0.6-0.2,1.1-0.6,1.5-1c0.4-0.5,0.7-1,0.9-1.7c0.2-0.7,0.3-1.4,0.3-2.2V171.5z
			 M115.7,171.5h-2v14.9h2V171.5z M107.9,171.5v6.6h-8v-6.6h-2v14.9h2v-6.8h8v6.8h2v-14.9H107.9z M90.2,179.3v1.1
			c0,0.1,0,0.2,0.1,0.3c0.1,0.1,0.2,0.1,0.3,0.1H93v3.3c-0.5,0.3-1,0.5-1.6,0.6c-0.5,0.2-1.2,0.2-1.8,0.2c-0.9,0-1.7-0.1-2.4-0.4
			c-0.7-0.3-1.3-0.7-1.8-1.2c-0.5-0.5-0.9-1.1-1.1-1.9c-0.3-0.7-0.4-1.6-0.4-2.5c0-0.9,0.1-1.7,0.4-2.4c0.3-0.7,0.6-1.3,1.1-1.8
			c0.5-0.5,1.1-0.9,1.7-1.2c0.7-0.3,1.4-0.4,2.3-0.4c0.6,0,1.1,0,1.5,0.1c0.4,0.1,0.8,0.2,1.1,0.3c0.3,0.1,0.6,0.3,0.8,0.4
			c0.2,0.1,0.4,0.3,0.6,0.4c0.2,0.1,0.3,0.1,0.5,0.1c0.1,0,0.3-0.1,0.3-0.3l0.6-0.9c-0.3-0.3-0.7-0.6-1-0.8
			c-0.4-0.2-0.8-0.4-1.2-0.6c-0.4-0.2-0.9-0.3-1.4-0.4c-0.5-0.1-1.1-0.1-1.6-0.1c-1.2,0-2.2,0.2-3.2,0.6c-0.9,0.4-1.7,0.9-2.4,1.6
			c-0.7,0.7-1.2,1.5-1.5,2.4s-0.5,2-0.5,3.1c0,1.1,0.2,2.2,0.6,3.1c0.4,0.9,0.9,1.7,1.6,2.4s1.5,1.2,2.5,1.6c1,0.4,2,0.6,3.2,0.6
			c1,0,1.9-0.1,2.8-0.4c0.8-0.3,1.6-0.7,2.4-1.2v-5.7H90.2z M80.2,173.2v-1.6h-9.2v14.9h2V180h6.1v-1.6h-6.1v-5.2H80.2z M61.1,184.8
			v-5.1h5.8v-1.6h-5.8v-4.9h7.2v-1.6h-9.2v14.9h9.2l0-1.6H61.1z M53.7,181.4c-0.2,0.7-0.6,1.3-1.1,1.8c-0.5,0.5-1,0.9-1.7,1.1
			c-0.7,0.3-1.4,0.4-2.2,0.4h-3.5v-11.6h3.5c0.8,0,1.5,0.1,2.2,0.4c0.7,0.3,1.2,0.6,1.7,1.1c0.5,0.5,0.8,1.1,1.1,1.8
			c0.2,0.7,0.4,1.5,0.4,2.5C54.1,179.9,54,180.7,53.7,181.4 M55.7,176c-0.4-0.9-0.9-1.7-1.5-2.4c-0.6-0.7-1.4-1.2-2.3-1.5
			s-1.9-0.5-3-0.5h-5.6v14.9h5.6c1.1,0,2.1-0.2,3-0.5c0.9-0.4,1.7-0.9,2.3-1.5c0.6-0.7,1.1-1.4,1.5-2.3c0.4-0.9,0.5-1.9,0.5-3
			S56,176.9,55.7,176 M39.5,183.5c-0.3,0.2-0.5,0.4-0.8,0.6c-0.3,0.2-0.5,0.3-0.8,0.4s-0.6,0.2-1,0.2c-0.4,0.1-0.8,0.1-1.2,0.1
			c-0.7,0-1.4-0.1-2-0.4c-0.6-0.3-1.2-0.6-1.6-1.1c-0.5-0.5-0.8-1.1-1.1-1.8c-0.3-0.7-0.4-1.6-0.4-2.5c0-0.9,0.1-1.7,0.4-2.5
			c0.3-0.7,0.6-1.3,1.1-1.8c0.5-0.5,1-0.9,1.6-1.2c0.6-0.3,1.3-0.4,2.1-0.4c0.6,0,1.2,0.1,1.6,0.2c0.4,0.1,0.8,0.3,1.1,0.5
			c0.3,0.2,0.5,0.3,0.7,0.5c0.2,0.1,0.3,0.2,0.5,0.2c0.1,0,0.2,0,0.3-0.1c0.1,0,0.1-0.1,0.2-0.2l0.7-0.9c-0.6-0.6-1.3-1-2.1-1.4
			c-0.8-0.3-1.7-0.5-2.8-0.5c-1.1,0-2.1,0.2-3,0.6c-0.9,0.4-1.7,0.9-2.3,1.6c-0.6,0.7-1.1,1.5-1.5,2.4c-0.4,0.9-0.5,2-0.5,3.1
			c0,1.1,0.2,2.2,0.5,3.1c0.3,0.9,0.8,1.7,1.4,2.4c0.6,0.7,1.4,1.2,2.2,1.6c0.9,0.4,1.8,0.6,2.9,0.6c1.2,0,2.3-0.2,3.2-0.6
			c0.9-0.4,1.6-0.9,2.2-1.7l-0.8-0.9c-0.1-0.1-0.2-0.1-0.3-0.1C39.7,183.4,39.6,183.4,39.5,183.5 M16,171.5v14.9h5.3
			c0.8,0,1.6-0.1,2.2-0.3c0.7-0.2,1.2-0.5,1.6-0.9c0.4-0.4,0.8-0.8,1-1.3c0.2-0.5,0.3-1.1,0.3-1.7c0-0.9-0.3-1.7-0.8-2.2
			c-0.6-0.6-1.4-1-2.5-1.2c0.5-0.1,0.9-0.3,1.2-0.6c0.3-0.2,0.6-0.5,0.9-0.8c0.2-0.3,0.4-0.6,0.5-0.9c0.1-0.3,0.2-0.7,0.2-1.1
			c0-0.6-0.1-1.1-0.3-1.6c-0.2-0.5-0.5-0.9-0.9-1.2c-0.4-0.3-1-0.6-1.6-0.8c-0.7-0.2-1.4-0.3-2.4-0.3H16z M20.7,173.1
			c1.1,0,1.9,0.2,2.5,0.6c0.5,0.4,0.8,1,0.8,1.9c0,0.4-0.1,0.7-0.2,1c-0.1,0.3-0.3,0.6-0.6,0.8c-0.3,0.2-0.6,0.4-1,0.5
			c-0.4,0.1-0.9,0.2-1.5,0.2H18v-5.1H20.7z M18,184.8v-5.2h3.2c1.1,0,1.9,0.2,2.5,0.7c0.5,0.4,0.8,1.1,0.8,1.8
			c0,0.4-0.1,0.8-0.2,1.1s-0.3,0.6-0.6,0.9c-0.3,0.2-0.6,0.4-1,0.6c-0.4,0.1-0.9,0.2-1.5,0.2H18z M8.1,171.5H6l-6,14.9h1.6
			c0.2,0,0.3,0,0.4-0.1c0.1-0.1,0.2-0.2,0.2-0.3l1.4-3.6h6.7l1.4,3.6c0.1,0.1,0.1,0.3,0.2,0.3s0.3,0.1,0.4,0.1H14L8.1,171.5z
			 M4.2,180.9l2.3-6c0.2-0.4,0.3-0.8,0.4-1.4c0.1,0.3,0.1,0.5,0.2,0.8c0.1,0.2,0.1,0.4,0.2,0.6l2.3,6.1H4.2z"/>
		<path class="st0" d="M303.2,225h-8.9v1.7h6.5l-6.6,8.7c-0.1,0.1-0.2,0.3-0.2,0.4c0,0.1-0.1,0.3-0.1,0.4v0.9h9.1v-1.7h-6.6l6.5-8.7
			c0.1-0.1,0.2-0.2,0.2-0.4c0.1-0.1,0.1-0.3,0.1-0.4V225z M291.4,225c-0.1,0-0.3,0-0.4,0.1c-0.1,0.1-0.2,0.2-0.2,0.3l-3.1,7.6
			c-0.1,0.3-0.2,0.7-0.4,1.1c-0.1-0.4-0.2-0.7-0.3-1l-3.2-7.6c0-0.1-0.1-0.2-0.2-0.3c-0.1-0.1-0.3-0.1-0.4-0.1h-1.8l5,11.3l-2.2,4.8
			h1.6c0.2,0,0.4,0,0.5-0.1s0.2-0.2,0.3-0.4l6.7-15.6H291.4z M276.5,230.7l4-5.7h-1.9c-0.1,0-0.2,0-0.3,0.1s-0.2,0.2-0.2,0.3
			l-2.6,3.8c-0.1,0.2-0.2,0.4-0.3,0.7l-3-4.5c-0.1-0.1-0.1-0.2-0.2-0.2c-0.1-0.1-0.2-0.1-0.4-0.1h-2l4,5.9l-4.2,6.2h1.9
			c0.2,0,0.3,0,0.4-0.1c0.1-0.1,0.2-0.2,0.3-0.3l2.8-4.1c0.1-0.1,0.1-0.2,0.1-0.3c0-0.1,0.1-0.2,0.1-0.3l3,4.7
			c0.1,0.1,0.1,0.2,0.2,0.3s0.2,0.1,0.4,0.1h2L276.5,230.7z M267.2,225c-0.1,0-0.3,0-0.4,0.1c-0.1,0.1-0.2,0.2-0.2,0.3l-2.4,7.7
			c-0.1,0.3-0.1,0.6-0.2,0.8c-0.1,0.3-0.1,0.5-0.1,0.8c-0.1-0.3-0.1-0.5-0.2-0.8c-0.1-0.3-0.1-0.5-0.2-0.8l-2.5-7.8
			c0-0.1-0.1-0.2-0.2-0.3c-0.1-0.1-0.2-0.1-0.4-0.1h-0.9c-0.1,0-0.3,0-0.4,0.1c-0.1,0.1-0.2,0.2-0.2,0.3l-2.5,7.8
			c-0.1,0.3-0.2,0.5-0.2,0.8c-0.1,0.3-0.1,0.5-0.2,0.8c-0.1-0.5-0.2-1-0.3-1.6l-2.3-7.7c0-0.1-0.1-0.2-0.2-0.3
			c-0.1-0.1-0.3-0.1-0.4-0.1h-1.7l3.9,12h1.6c0.2,0,0.4-0.1,0.5-0.4l2.7-8.1c0.1-0.2,0.1-0.4,0.2-0.6c0-0.2,0.1-0.4,0.1-0.6
			c0,0.2,0.1,0.4,0.1,0.6c0,0.2,0.1,0.4,0.2,0.6l2.7,8.2c0.1,0.3,0.2,0.4,0.4,0.4h1.7l3.9-12H267.2z M248.6,225
			c-0.1,0-0.3,0-0.4,0.1c-0.1,0.1-0.2,0.2-0.2,0.3l-3.1,7.7c-0.1,0.3-0.2,0.6-0.3,0.9c-0.1,0.3-0.1,0.6-0.2,0.8
			c-0.1-0.3-0.1-0.6-0.2-0.8c-0.1-0.3-0.2-0.6-0.2-0.9l-3.1-7.7c0-0.1-0.1-0.2-0.2-0.3c-0.1-0.1-0.3-0.1-0.4-0.1h-1.7l4.9,12h1.9
			l4.9-12H248.6z M234.5,225v8.9c-0.5,0.5-1,0.9-1.5,1.2c-0.5,0.3-1.1,0.4-1.8,0.4c-0.9,0-1.5-0.2-1.9-0.7c-0.4-0.5-0.6-1.2-0.6-2.1
			V225h-2.1v7.7c0,0.7,0.1,1.3,0.3,1.9c0.2,0.6,0.4,1,0.8,1.4c0.3,0.4,0.8,0.7,1.3,0.9c0.5,0.2,1.1,0.3,1.7,0.3
			c0.8,0,1.6-0.2,2.2-0.5c0.6-0.4,1.2-0.8,1.8-1.4l0.2,1.3c0.1,0.3,0.3,0.4,0.6,0.4h1.3v-12H234.5z M223.5,236.9
			c0.5-0.2,1-0.5,1.3-0.8l-0.6-1c-0.1-0.1-0.2-0.2-0.3-0.2c-0.1,0-0.1,0-0.2,0.1c-0.1,0.1-0.2,0.1-0.3,0.2c-0.1,0.1-0.3,0.1-0.4,0.2
			c-0.2,0.1-0.4,0.1-0.6,0.1c-0.4,0-0.7-0.1-0.9-0.4c-0.2-0.2-0.4-0.6-0.4-1.1v-7.2h3.5v-1.5h-3.5v-4.1H220c-0.1,0-0.2,0-0.3,0.1
			c-0.1,0.1-0.1,0.2-0.2,0.3l-0.5,3.7l-2,0.2v0.8c0,0.2,0,0.3,0.1,0.4c0.1,0.1,0.2,0.1,0.3,0.1h1.4v7.4c0,1,0.3,1.8,0.8,2.3
			c0.5,0.5,1.2,0.8,2.2,0.8C222.5,237.2,223,237.1,223.5,236.9 M215.4,226.2c-0.5-0.4-1-0.8-1.6-1c-0.6-0.2-1.3-0.4-2.1-0.4
			c-0.7,0-1.3,0.1-1.8,0.3c-0.5,0.2-1,0.4-1.3,0.8c-0.4,0.3-0.6,0.7-0.8,1.1c-0.2,0.4-0.3,0.9-0.3,1.3c0,0.5,0.1,1,0.3,1.3
			c0.2,0.4,0.4,0.7,0.7,0.9c0.3,0.2,0.6,0.4,1,0.6c0.4,0.2,0.8,0.3,1.2,0.4c0.4,0.1,0.8,0.2,1.2,0.4c0.4,0.1,0.7,0.2,1,0.4
			c0.3,0.2,0.5,0.3,0.7,0.6c0.2,0.2,0.3,0.5,0.3,0.8c0,0.3,0,0.5-0.1,0.8s-0.3,0.4-0.5,0.6c-0.2,0.2-0.5,0.3-0.8,0.4
			c-0.3,0.1-0.7,0.2-1.1,0.2c-0.5,0-0.9-0.1-1.2-0.2c-0.3-0.1-0.6-0.2-0.8-0.4c-0.2-0.1-0.4-0.3-0.6-0.4c-0.2-0.1-0.3-0.2-0.5-0.2
			c-0.1,0-0.2,0-0.3,0.1c-0.1,0.1-0.2,0.1-0.2,0.2l-0.5,0.8c0.5,0.4,1.1,0.8,1.7,1.1c0.7,0.3,1.4,0.4,2.3,0.4c0.7,0,1.4-0.1,1.9-0.3
			s1-0.5,1.4-0.8c0.4-0.3,0.7-0.8,0.9-1.2c0.2-0.5,0.3-1,0.3-1.5c0-0.5-0.1-0.9-0.3-1.2c-0.2-0.3-0.4-0.6-0.7-0.9
			c-0.3-0.2-0.6-0.4-1-0.6c-0.4-0.2-0.8-0.3-1.1-0.4c-0.4-0.1-0.8-0.3-1.1-0.4c-0.4-0.1-0.7-0.2-1-0.4c-0.3-0.2-0.5-0.3-0.7-0.5
			c-0.2-0.2-0.3-0.5-0.3-0.8c0-0.2,0.1-0.5,0.2-0.7c0.1-0.2,0.3-0.4,0.5-0.6c0.2-0.2,0.4-0.3,0.7-0.4c0.3-0.1,0.6-0.1,1-0.1
			c0.4,0,0.8,0,1.1,0.1c0.3,0.1,0.6,0.2,0.8,0.3c0.2,0.1,0.4,0.2,0.6,0.3c0.2,0.1,0.3,0.1,0.4,0.1c0.2,0,0.3-0.1,0.4-0.3
			L215.4,226.2z M201.2,225.6c0-0.2-0.1-0.4-0.2-0.5c-0.1-0.1-0.2-0.1-0.5-0.1h-1.2v12h2.1v-7.6c0.1-0.4,0.3-0.8,0.5-1.1
			s0.4-0.6,0.6-0.8c0.2-0.2,0.5-0.4,0.8-0.5c0.3-0.1,0.6-0.2,1-0.2c0.3,0,0.5,0,0.7,0.1c0.2,0,0.4,0.1,0.5,0.1
			c0.2,0,0.3-0.1,0.4-0.3l0.2-1.6c-0.2-0.1-0.4-0.2-0.6-0.3c-0.2-0.1-0.5-0.1-0.7-0.1c-0.8,0-1.5,0.2-2,0.7s-1,1.1-1.4,1.9
			L201.2,225.6z M194.8,225c-0.3,0-0.5,0.1-0.6,0.4l-0.1,0.9c-0.4-0.5-0.9-0.9-1.4-1.2c-0.5-0.3-1.2-0.4-2-0.4
			c-0.8,0-1.5,0.2-2.2,0.5c-0.6,0.3-1.2,0.8-1.6,1.3c-0.4,0.6-0.8,1.2-1,2c-0.2,0.8-0.4,1.6-0.4,2.5c0,1,0.1,1.9,0.3,2.6
			c0.2,0.8,0.5,1.4,0.9,1.9c0.4,0.5,0.9,0.9,1.4,1.2c0.6,0.3,1.2,0.4,1.9,0.4c0.8,0,1.6-0.2,2.2-0.5s1.2-0.8,1.7-1.4v5.9h2.1V225
			H194.8z M193.9,233.6c-0.4,0.6-0.9,1-1.4,1.3c-0.5,0.3-1.1,0.5-1.8,0.5c-0.5,0-0.9-0.1-1.3-0.2c-0.4-0.2-0.7-0.4-1-0.8
			c-0.3-0.4-0.5-0.8-0.6-1.4c-0.1-0.6-0.2-1.2-0.2-2c0-1.5,0.3-2.6,0.9-3.4c0.6-0.8,1.5-1.2,2.6-1.2c0.6,0,1.1,0.1,1.6,0.3
			c0.5,0.2,0.9,0.6,1.3,1.1V233.6z M174.6,225.4c-0.1-0.3-0.3-0.4-0.6-0.4h-1.3v16.1h2.1v-5.3c0.4,0.4,0.9,0.8,1.4,1
			c0.5,0.2,1.2,0.4,1.9,0.4c0.8,0,1.5-0.2,2.2-0.5c0.6-0.3,1.2-0.8,1.6-1.3c0.4-0.6,0.8-1.2,1-2c0.2-0.8,0.4-1.6,0.4-2.5
			c0-1-0.1-1.9-0.3-2.6c-0.2-0.8-0.5-1.4-0.9-1.9c-0.4-0.5-0.9-0.9-1.4-1.2c-0.6-0.3-1.2-0.4-1.9-0.4c-0.9,0-1.6,0.2-2.3,0.6
			c-0.7,0.4-1.2,0.9-1.8,1.5L174.6,225.4z M174.9,228.3c0.4-0.6,0.9-1,1.4-1.3c0.5-0.3,1.1-0.5,1.8-0.5c0.5,0,0.9,0.1,1.3,0.2
			s0.7,0.4,1,0.8c0.3,0.4,0.5,0.8,0.6,1.4c0.1,0.6,0.2,1.2,0.2,2c0,1.5-0.3,2.6-0.9,3.4c-0.6,0.8-1.5,1.2-2.6,1.2
			c-0.6,0-1.1-0.1-1.5-0.3c-0.5-0.2-0.9-0.6-1.3-1.1V228.3z M161.7,234.3c-0.6-0.8-0.9-1.9-0.9-3.3c0-0.7,0.1-1.4,0.2-1.9
			c0.1-0.6,0.4-1,0.7-1.4s0.7-0.7,1.1-0.9c0.4-0.2,1-0.3,1.6-0.3c1.2,0,2.1,0.4,2.7,1.2c0.6,0.8,0.9,1.9,0.9,3.3
			c0,1.4-0.3,2.5-0.9,3.3c-0.6,0.8-1.5,1.2-2.7,1.2C163.2,235.5,162.3,235.1,161.7,234.3 M162,225.2c-0.7,0.3-1.3,0.7-1.8,1.2
			c-0.5,0.5-0.9,1.2-1.1,2c-0.3,0.8-0.4,1.6-0.4,2.6c0,0.9,0.1,1.8,0.4,2.6c0.3,0.8,0.6,1.4,1.1,1.9c0.5,0.5,1.1,1,1.8,1.2
			c0.7,0.3,1.5,0.4,2.4,0.4c0.9,0,1.7-0.1,2.4-0.4c0.7-0.3,1.3-0.7,1.8-1.2c0.5-0.5,0.9-1.2,1.1-1.9c0.3-0.8,0.4-1.6,0.4-2.6
			c0-0.9-0.1-1.8-0.4-2.6c-0.3-0.8-0.6-1.4-1.1-2c-0.5-0.5-1.1-1-1.8-1.2c-0.7-0.3-1.5-0.4-2.4-0.4
			C163.5,224.8,162.7,224.9,162,225.2 M147.9,225.4c-0.1-0.3-0.3-0.4-0.6-0.4h-1.3v12h2.1v-8.9c0.5-0.5,1-0.9,1.5-1.2
			c0.5-0.3,1.1-0.5,1.8-0.5c0.8,0,1.5,0.3,1.9,0.8c0.4,0.5,0.6,1.2,0.6,2.1v7.7h2.1v-7.7c0-0.7-0.1-1.3-0.3-1.9s-0.4-1-0.8-1.4
			c-0.3-0.4-0.8-0.7-1.3-0.9c-0.5-0.2-1.1-0.3-1.7-0.3c-0.4,0-0.8,0-1.2,0.1c-0.4,0.1-0.7,0.2-1,0.4c-0.3,0.2-0.6,0.4-0.9,0.6
			c-0.3,0.2-0.6,0.5-0.8,0.8L147.9,225.4z M128.6,237v-9c0.4-0.5,0.8-0.9,1.2-1.1c0.4-0.3,0.9-0.4,1.4-0.4c0.7,0,1.3,0.2,1.7,0.7
			c0.4,0.5,0.6,1.2,0.6,2.2v7.7h2.1v-7.7c0-0.5,0.1-0.9,0.2-1.3c0.1-0.4,0.3-0.7,0.6-0.9c0.2-0.2,0.5-0.4,0.8-0.5
			c0.3-0.1,0.6-0.2,1-0.2c0.8,0,1.4,0.2,1.8,0.7c0.4,0.5,0.6,1.2,0.6,2.1v7.7h2.1v-7.7c0-0.7-0.1-1.4-0.3-1.9
			c-0.2-0.6-0.4-1-0.8-1.4s-0.8-0.7-1.3-0.9c-0.5-0.2-1.1-0.3-1.7-0.3c-0.4,0-0.8,0-1.2,0.1c-0.4,0.1-0.7,0.2-1.1,0.5
			c-0.3,0.2-0.6,0.5-0.9,0.8c-0.3,0.3-0.5,0.7-0.7,1.1c-0.2-0.8-0.6-1.4-1.1-1.8c-0.5-0.5-1.2-0.7-2-0.7c-0.7,0-1.4,0.2-1.9,0.5
			c-0.6,0.3-1.1,0.8-1.5,1.3l-0.2-1.2c-0.1-0.3-0.3-0.4-0.6-0.4h-1.3v12H128.6z M121,237h2.1v-17.5H121V237z M108.9,219.5V237h2.1
			v-5.7h0.6c0.2,0,0.4,0,0.5,0.1c0.1,0.1,0.2,0.2,0.3,0.3l4,4.9c0.1,0.2,0.2,0.3,0.3,0.3c0.1,0.1,0.3,0.1,0.5,0.1h1.9l-4.7-5.9
			c-0.1-0.2-0.2-0.3-0.3-0.4c-0.1-0.1-0.2-0.2-0.4-0.3c0.2-0.1,0.5-0.4,0.7-0.6l4.4-4.7h-1.9c-0.2,0-0.4,0-0.5,0.1
			c-0.1,0.1-0.2,0.2-0.3,0.3l-3.8,4.1c-0.1,0.1-0.2,0.2-0.3,0.3c-0.1,0-0.2,0.1-0.4,0.1H111v-10.3H108.9z M105.7,220.6
			c-0.1-0.2-0.2-0.3-0.3-0.5c-0.1-0.1-0.3-0.2-0.5-0.3c-0.2-0.1-0.4-0.1-0.6-0.1c-0.2,0-0.4,0-0.6,0.1c-0.2,0.1-0.3,0.2-0.5,0.3
			c-0.1,0.1-0.2,0.3-0.3,0.5c-0.1,0.2-0.1,0.4-0.1,0.6c0,0.2,0,0.4,0.1,0.6c0.1,0.2,0.2,0.3,0.3,0.5c0.1,0.1,0.3,0.2,0.5,0.3
			c0.2,0.1,0.4,0.1,0.6,0.1c0.2,0,0.4,0,0.6-0.1c0.2-0.1,0.3-0.2,0.5-0.3c0.1-0.1,0.2-0.3,0.3-0.5s0.1-0.4,0.1-0.6
			C105.8,221,105.8,220.8,105.7,220.6 M103.3,225v12.9c0,0.6-0.1,1.1-0.4,1.4c-0.3,0.3-0.7,0.4-1.3,0.4c-0.2,0-0.3,0-0.4,0
			s-0.2,0-0.2,0c-0.1,0-0.1,0-0.1,0.1c0,0-0.1,0.1-0.1,0.2l-0.1,1.1c0.2,0.1,0.4,0.1,0.6,0.2c0.2,0,0.4,0.1,0.7,0.1
			c0.6,0,1.1-0.1,1.6-0.3c0.4-0.2,0.8-0.4,1.1-0.7c0.3-0.3,0.5-0.7,0.6-1.1c0.1-0.4,0.2-0.9,0.2-1.3V225H103.3z M100,220.6
			c-0.1-0.2-0.2-0.3-0.3-0.5c-0.1-0.1-0.3-0.2-0.5-0.3c-0.2-0.1-0.4-0.1-0.6-0.1c-0.2,0-0.4,0-0.6,0.1c-0.2,0.1-0.3,0.2-0.5,0.3
			c-0.1,0.1-0.2,0.3-0.3,0.5s-0.1,0.4-0.1,0.6c0,0.2,0,0.4,0.1,0.6s0.2,0.3,0.3,0.5c0.1,0.1,0.3,0.2,0.5,0.3
			c0.2,0.1,0.4,0.1,0.6,0.1c0.2,0,0.4,0,0.6-0.1c0.2-0.1,0.3-0.2,0.5-0.3c0.1-0.1,0.2-0.3,0.3-0.5c0.1-0.2,0.1-0.4,0.1-0.6
			C100.1,221,100.1,220.8,100,220.6 M97.6,237h2.1v-12h-2.1V237z M86.3,219.5h-2.1V237h2.1v-8.9c0.5-0.5,1-0.9,1.5-1.2
			c0.5-0.3,1.1-0.5,1.8-0.5c0.8,0,1.5,0.3,1.9,0.8c0.4,0.5,0.6,1.2,0.6,2.1v7.7h2.1v-7.7c0-0.7-0.1-1.3-0.3-1.9
			c-0.2-0.6-0.4-1-0.8-1.4c-0.3-0.4-0.8-0.7-1.3-0.9c-0.5-0.2-1.1-0.3-1.7-0.3c-0.8,0-1.5,0.2-2.2,0.5c-0.6,0.3-1.2,0.8-1.7,1.3
			V219.5z M78.7,225.4c-0.4-0.2-0.8-0.4-1.2-0.5c-0.5-0.1-0.9-0.2-1.5-0.2c-0.7,0-1.3,0.1-1.8,0.3s-1,0.4-1.4,0.8
			c-0.4,0.3-0.7,0.7-0.9,1.2c-0.2,0.5-0.3,1-0.3,1.6c0,0.7,0.2,1.4,0.5,1.9c0.3,0.6,0.8,1,1.4,1.3c-0.3,0.1-0.5,0.3-0.7,0.4
			s-0.3,0.3-0.5,0.5c-0.1,0.2-0.2,0.4-0.3,0.6c-0.1,0.2-0.1,0.4-0.1,0.5c0,0.5,0.1,0.8,0.3,1.1s0.5,0.5,0.8,0.6
			c-0.6,0.2-1.2,0.6-1.5,1c-0.4,0.4-0.6,0.9-0.6,1.5c0,0.4,0.1,0.8,0.3,1.2c0.2,0.4,0.5,0.7,1,1s1,0.5,1.6,0.7s1.4,0.3,2.3,0.3
			c0.9,0,1.7-0.1,2.4-0.3c0.7-0.2,1.3-0.5,1.8-0.9c0.5-0.4,0.9-0.8,1.1-1.3c0.3-0.5,0.4-1,0.4-1.5c0-0.6-0.1-1-0.3-1.4
			c-0.2-0.3-0.5-0.6-0.9-0.8c-0.4-0.2-0.8-0.3-1.3-0.4s-1-0.1-1.5-0.2c-0.5,0-1-0.1-1.5-0.1s-0.9-0.1-1.3-0.1
			c-0.4-0.1-0.7-0.2-0.9-0.3c-0.2-0.1-0.3-0.4-0.3-0.6c0-0.2,0.1-0.4,0.2-0.5c0.1-0.2,0.3-0.3,0.6-0.5c0.5,0.1,1,0.2,1.6,0.2
			c0.6,0,1.3-0.1,1.8-0.3s1-0.4,1.4-0.8c0.4-0.3,0.7-0.8,0.9-1.2c0.2-0.5,0.3-1,0.3-1.6c0-0.6-0.1-1.2-0.4-1.7l1.4-0.2
			c0.3-0.1,0.5-0.2,0.5-0.5v-0.8H78.7z M79.6,238.5c-0.2,0.3-0.4,0.5-0.7,0.7c-0.3,0.2-0.7,0.3-1.1,0.4c-0.5,0.1-1,0.2-1.5,0.2
			c-0.6,0-1.1-0.1-1.5-0.1c-0.4-0.1-0.8-0.2-1.1-0.4c-0.3-0.2-0.5-0.4-0.6-0.6c-0.1-0.2-0.2-0.5-0.2-0.8c0-0.4,0.1-0.8,0.4-1.1
			c0.3-0.3,0.6-0.6,1.1-0.8c0.4,0.1,0.8,0.1,1.2,0.1c0.4,0,0.8,0,1.3,0.1c0.4,0,0.8,0.1,1.2,0.1c0.4,0,0.7,0.1,1,0.2
			c0.3,0.1,0.5,0.2,0.7,0.4c0.2,0.2,0.2,0.4,0.2,0.7C79.9,238,79.8,238.3,79.6,238.5 M74.9,230.9c-0.3-0.1-0.6-0.3-0.8-0.5
			c-0.2-0.2-0.4-0.5-0.5-0.8c-0.1-0.3-0.2-0.6-0.2-1c0-0.7,0.2-1.3,0.7-1.8c0.4-0.4,1.1-0.7,2-0.7c0.8,0,1.5,0.2,1.9,0.7
			c0.4,0.4,0.7,1,0.7,1.8c0,0.4-0.1,0.7-0.2,1s-0.3,0.6-0.5,0.8c-0.2,0.2-0.5,0.4-0.8,0.5c-0.3,0.1-0.7,0.2-1.1,0.2
			C75.6,231.1,75.3,231.1,74.9,230.9 M66.6,237v-10.3H70v-1.5h-3.5v-1.1c0-0.5,0.1-0.9,0.2-1.3c0.1-0.3,0.3-0.6,0.5-0.8
			c0.2-0.2,0.5-0.4,0.8-0.5c0.3-0.1,0.6-0.1,1-0.1c0.3,0,0.6,0,0.8,0s0.3-0.1,0.3-0.3l0-1.1c-0.5-0.2-0.9-0.2-1.5-0.2
			c-0.6,0-1.2,0.1-1.7,0.3c-0.5,0.2-0.9,0.5-1.3,0.8c-0.4,0.4-0.6,0.8-0.8,1.4c-0.2,0.5-0.3,1.1-0.3,1.8v1.2h-1.9v0.9
			c0,0.2,0.1,0.3,0.2,0.4c0.1,0.1,0.2,0.1,0.4,0.2l1.3,0.2V237H66.6z M60.4,234.5c-0.1-0.1-0.2-0.2-0.4-0.2c-0.1,0-0.3,0.1-0.5,0.2
			c-0.2,0.1-0.4,0.3-0.7,0.4c-0.3,0.1-0.6,0.3-1,0.4c-0.4,0.1-0.8,0.2-1.4,0.2c-0.6,0-1.1-0.1-1.5-0.3s-0.9-0.5-1.2-0.8
			c-0.3-0.4-0.6-0.8-0.8-1.4s-0.3-1.2-0.3-2h8c0.2,0,0.3-0.1,0.4-0.2c0.1-0.1,0.1-0.3,0.1-0.7c0-0.9-0.1-1.6-0.4-2.3
			c-0.3-0.7-0.6-1.2-1.1-1.7c-0.4-0.5-1-0.8-1.6-1c-0.6-0.2-1.3-0.4-2-0.4c-0.9,0-1.7,0.2-2.4,0.5c-0.7,0.3-1.3,0.7-1.8,1.3
			c-0.5,0.5-0.9,1.2-1.1,1.9c-0.3,0.7-0.4,1.5-0.4,2.4c0,1,0.1,2,0.4,2.8c0.3,0.8,0.7,1.5,1.2,2c0.5,0.5,1.1,1,1.8,1.2
			c0.7,0.3,1.5,0.4,2.3,0.4c0.4,0,0.9,0,1.3-0.1c0.4-0.1,0.9-0.2,1.3-0.3c0.4-0.2,0.8-0.3,1.2-0.6c0.4-0.2,0.7-0.5,0.9-0.8
			L60.4,234.5z M52.7,229.7c0.1-1,0.5-1.9,1.1-2.5c0.6-0.6,1.4-0.9,2.4-0.9c0.5,0,0.9,0.1,1.3,0.2c0.4,0.2,0.7,0.4,1,0.7
			c0.3,0.3,0.5,0.6,0.6,1.1c0.1,0.4,0.2,0.9,0.2,1.3H52.7z M45.8,219.5v6.7c-0.4-0.4-0.9-0.8-1.4-1c-0.5-0.2-1.2-0.4-1.9-0.4
			c-0.8,0-1.5,0.2-2.2,0.5s-1.2,0.8-1.6,1.3c-0.4,0.6-0.8,1.2-1,2c-0.2,0.8-0.4,1.6-0.4,2.5c0,1,0.1,1.9,0.3,2.6
			c0.2,0.8,0.5,1.4,0.9,1.9c0.4,0.5,0.9,0.9,1.4,1.2s1.2,0.4,1.9,0.4c0.9,0,1.6-0.2,2.3-0.6c0.7-0.4,1.2-0.9,1.8-1.5l0.2,1.5
			c0.1,0.3,0.3,0.4,0.6,0.4h1.3v-17.5H45.8z M45.8,233.6c-0.4,0.6-0.9,1-1.4,1.3c-0.5,0.3-1.1,0.5-1.8,0.5c-0.5,0-0.9-0.1-1.3-0.2
			c-0.4-0.2-0.7-0.4-1-0.8c-0.3-0.4-0.5-0.8-0.6-1.4c-0.1-0.6-0.2-1.2-0.2-2c0-1.5,0.3-2.6,0.9-3.4c0.6-0.8,1.5-1.2,2.6-1.2
			c0.6,0,1.1,0.1,1.5,0.3c0.5,0.2,0.9,0.6,1.3,1.1V233.6z M35.7,226.3c-0.5-0.5-1.1-0.9-1.7-1.2c-0.6-0.3-1.4-0.4-2.2-0.4
			c-0.9,0-1.7,0.2-2.4,0.5c-0.7,0.3-1.3,0.7-1.8,1.3s-0.8,1.2-1.1,2c-0.2,0.8-0.4,1.6-0.4,2.5c0,1,0.1,1.9,0.4,2.6
			c0.3,0.8,0.6,1.4,1.1,1.9c0.5,0.5,1,0.9,1.7,1.2c0.6,0.3,1.3,0.4,2.1,0.4c0.4,0,0.9,0,1.3-0.1c0.4-0.1,0.8-0.2,1.2-0.3
			c0.4-0.2,0.7-0.3,1.1-0.6c0.3-0.2,0.6-0.5,0.9-0.8l-0.6-0.8c-0.1-0.1-0.2-0.2-0.4-0.2c-0.1,0-0.3,0.1-0.4,0.2
			c-0.1,0.1-0.3,0.3-0.5,0.4c-0.2,0.2-0.5,0.3-0.8,0.4c-0.3,0.1-0.8,0.2-1.3,0.2c-0.5,0-1-0.1-1.5-0.3s-0.8-0.5-1.1-0.9
			s-0.5-0.9-0.7-1.4c-0.2-0.6-0.2-1.2-0.2-1.9c0-0.7,0.1-1.3,0.2-1.9c0.2-0.6,0.4-1,0.7-1.4c0.3-0.4,0.7-0.7,1.1-0.9
			c0.5-0.2,1-0.3,1.6-0.3c0.4,0,0.8,0,1.1,0.1c0.3,0.1,0.6,0.2,0.8,0.3c0.2,0.1,0.4,0.2,0.5,0.3c0.1,0.1,0.3,0.1,0.4,0.1
			c0.1,0,0.2,0,0.3-0.1c0.1,0,0.1-0.1,0.2-0.2L35.7,226.3z M15.6,219.5h-2.1V237h1.4c0.3,0,0.5-0.2,0.5-0.5l0.1-1.1
			c0.4,0.5,0.9,1,1.4,1.3c0.5,0.3,1.2,0.4,2,0.4c0.8,0,1.5-0.2,2.2-0.5c0.6-0.3,1.2-0.8,1.6-1.3c0.4-0.6,0.8-1.2,1-2
			c0.2-0.8,0.4-1.7,0.4-2.7c0-0.9-0.1-1.7-0.3-2.5c-0.2-0.7-0.5-1.3-0.9-1.9c-0.4-0.5-0.9-0.9-1.4-1.2c-0.6-0.3-1.2-0.4-1.9-0.4
			c-0.8,0-1.6,0.2-2.2,0.5c-0.6,0.3-1.2,0.8-1.7,1.4V219.5z M15.6,228.3c0.4-0.6,0.9-1,1.4-1.3c0.5-0.3,1.1-0.5,1.8-0.5
			c1,0,1.8,0.3,2.3,1c0.5,0.7,0.8,1.8,0.8,3.2c0,1.6-0.3,2.8-0.9,3.6c-0.6,0.8-1.5,1.2-2.6,1.2c-0.6,0-1.1-0.1-1.5-0.3
			c-0.5-0.2-0.9-0.6-1.3-1.1V228.3z M1.7,227.3c0.1,0.1,0.2,0.2,0.3,0.3c0.1,0.1,0.2,0.1,0.4,0.1c0.2,0,0.4-0.1,0.6-0.2
			c0.2-0.1,0.4-0.3,0.7-0.4c0.3-0.2,0.6-0.3,0.9-0.4c0.4-0.1,0.8-0.2,1.3-0.2c0.8,0,1.4,0.2,1.8,0.7c0.4,0.5,0.6,1.2,0.6,2.1v0.9
			c-1.4,0-2.5,0.2-3.5,0.4c-0.9,0.2-1.7,0.5-2.3,0.8c-0.6,0.3-1,0.7-1.3,1.2c-0.3,0.4-0.4,0.9-0.4,1.4c0,0.5,0.1,1,0.3,1.4
			c0.2,0.4,0.4,0.7,0.7,1c0.3,0.3,0.7,0.5,1.1,0.6c0.4,0.1,0.8,0.2,1.3,0.2c0.5,0,0.9,0,1.3-0.1c0.4-0.1,0.7-0.2,1.1-0.4
			c0.3-0.2,0.6-0.3,0.9-0.6c0.3-0.2,0.6-0.5,0.9-0.8l0.2,1.1c0.1,0.2,0.2,0.3,0.3,0.4C9,237,9.1,237,9.3,237h0.9v-7.7
			c0-0.7-0.1-1.3-0.3-1.9s-0.5-1-0.8-1.4c-0.4-0.4-0.8-0.7-1.3-0.9c-0.5-0.2-1.1-0.3-1.8-0.3c-0.9,0-1.8,0.2-2.6,0.5
			c-0.8,0.3-1.5,0.8-2.1,1.4L1.7,227.3z M8.2,234.1c-0.2,0.3-0.5,0.5-0.7,0.7c-0.2,0.2-0.5,0.4-0.8,0.5c-0.3,0.1-0.6,0.3-0.9,0.3
			c-0.3,0.1-0.6,0.1-1,0.1c-0.3,0-0.5,0-0.8-0.1c-0.2-0.1-0.5-0.2-0.6-0.3c-0.2-0.1-0.3-0.3-0.4-0.6c-0.1-0.2-0.2-0.5-0.2-0.8
			c0-0.3,0.1-0.6,0.3-0.9c0.2-0.3,0.5-0.5,0.9-0.7c0.4-0.2,1-0.4,1.7-0.5c0.7-0.1,1.5-0.2,2.5-0.2V234.1z"/>
		<path class="st0" d="M175.3,280.4c-0.2,1-0.6,1.8-1,2.4c-0.4,0.6-0.9,1-1.4,1.3c-0.5,0.3-1.1,0.4-1.7,0.4c-0.6,0-1.2-0.1-1.7-0.4
			c-0.5-0.3-1-0.7-1.4-1.3c-0.4-0.6-0.7-1.4-1-2.4c-0.2-1-0.4-2.2-0.4-3.7c0-1.5,0.1-2.7,0.4-3.7c0.2-1,0.6-1.8,1-2.4
			c0.4-0.6,0.9-1,1.4-1.3c0.5-0.3,1.1-0.4,1.7-0.4c0.6,0,1.2,0.1,1.7,0.4c0.5,0.3,1,0.7,1.4,1.3c0.4,0.6,0.7,1.4,1,2.4
			c0.2,1,0.4,2.2,0.4,3.7C175.7,278.2,175.6,279.4,175.3,280.4 M177.6,272.4c-0.4-1.2-0.9-2.2-1.5-3.1c-0.6-0.8-1.4-1.4-2.2-1.8
			c-0.9-0.4-1.8-0.6-2.7-0.6c-1,0-1.9,0.2-2.7,0.6c-0.8,0.4-1.6,1-2.2,1.8s-1.1,1.8-1.5,3.1c-0.4,1.2-0.5,2.7-0.5,4.4
			c0,1.7,0.2,3.1,0.5,4.3c0.4,1.2,0.8,2.2,1.5,3c0.6,0.8,1.4,1.4,2.2,1.8c0.8,0.4,1.8,0.6,2.7,0.6c1,0,1.9-0.2,2.7-0.6
			c0.8-0.4,1.6-1,2.2-1.8c0.6-0.8,1.1-1.8,1.5-3c0.4-1.2,0.5-2.7,0.5-4.3C178.2,275,178,273.6,177.6,272.4 M148.8,286.3h2.2
			c0.3,0,0.5-0.1,0.7-0.2c0.2-0.1,0.4-0.2,0.5-0.4l4.7-6.7c0.3-0.5,0.7-1,0.9-1.4c0.3-0.5,0.5-0.9,0.7-1.4c0.2-0.5,0.3-1,0.4-1.5
			c0.1-0.5,0.2-1,0.2-1.6c0-0.9-0.1-1.8-0.4-2.5c-0.3-0.8-0.7-1.4-1.2-2s-1.2-1-1.9-1.3c-0.7-0.3-1.6-0.5-2.5-0.5
			c-0.9,0-1.8,0.2-2.6,0.5c-0.8,0.3-1.4,0.7-2,1.3s-1,1.2-1.3,1.9c-0.3,0.7-0.5,1.5-0.5,2.4c0,0.9,0.1,1.7,0.4,2.3
			c0.3,0.7,0.7,1.3,1.2,1.7c0.5,0.5,1.1,0.8,1.7,1.1c0.6,0.2,1.3,0.4,2.1,0.4c0.7,0,1.3-0.1,1.9-0.3c0.6-0.2,1.2-0.5,1.7-0.9
			c-0.2,0.2-0.3,0.5-0.5,0.7c-0.2,0.2-0.4,0.5-0.5,0.7L148.8,286.3z M149.4,271.2c0.2-0.5,0.5-0.9,0.8-1.2c0.3-0.3,0.8-0.6,1.2-0.8
			c0.5-0.2,1-0.3,1.6-0.3c0.6,0,1.1,0.1,1.5,0.3c0.5,0.2,0.9,0.4,1.2,0.8c0.3,0.3,0.6,0.8,0.8,1.2c0.2,0.5,0.3,1,0.3,1.6
			c0,0.5-0.1,1-0.3,1.4c-0.2,0.5-0.4,0.9-0.8,1.2c-0.3,0.3-0.8,0.6-1.2,0.8c-0.5,0.2-1.1,0.3-1.7,0.3c-0.6,0-1.1-0.1-1.6-0.3
			c-0.5-0.2-0.9-0.4-1.2-0.7c-0.3-0.3-0.6-0.7-0.7-1.2c-0.2-0.5-0.3-1-0.3-1.6C149.1,272.2,149.2,271.7,149.4,271.2 M139.9,274.6
			c0.5-0.7,0.8-1.6,0.8-2.7c0-0.7-0.1-1.4-0.4-2c-0.3-0.6-0.7-1.1-1.2-1.6c-0.5-0.5-1.1-0.8-1.8-1.1c-0.7-0.3-1.5-0.4-2.4-0.4
			c-0.9,0-1.7,0.1-2.4,0.4c-0.7,0.3-1.3,0.6-1.8,1.1c-0.5,0.5-0.9,1-1.2,1.6c-0.3,0.6-0.4,1.3-0.4,2c0,1,0.3,1.9,0.8,2.7
			c0.5,0.7,1.3,1.3,2.3,1.7c-1.2,0.3-2.1,0.9-2.8,1.7c-0.6,0.8-1,1.8-1,3c0,0.8,0.2,1.6,0.5,2.3c0.3,0.7,0.8,1.2,1.3,1.7
			c0.6,0.5,1.3,0.8,2,1.1c0.8,0.3,1.7,0.4,2.6,0.4s1.8-0.1,2.6-0.4c0.8-0.3,1.5-0.6,2-1.1c0.6-0.5,1-1,1.3-1.7
			c0.3-0.7,0.5-1.4,0.5-2.3c0-1.2-0.3-2.3-1-3c-0.6-0.8-1.6-1.4-2.8-1.7C138.6,275.9,139.4,275.4,139.9,274.6 M136.4,269
			c0.4,0.2,0.8,0.4,1.1,0.7c0.3,0.3,0.5,0.6,0.7,1c0.1,0.4,0.2,0.8,0.2,1.3c0,0.4-0.1,0.9-0.2,1.3c-0.1,0.4-0.3,0.8-0.6,1.1
			c-0.3,0.3-0.6,0.6-1.1,0.8c-0.4,0.2-1,0.3-1.6,0.3s-1.2-0.1-1.6-0.3c-0.4-0.2-0.8-0.4-1.1-0.8c-0.3-0.3-0.5-0.7-0.6-1.1
			c-0.1-0.4-0.2-0.8-0.2-1.3c0-0.4,0.1-0.9,0.2-1.3s0.4-0.7,0.7-1c0.3-0.3,0.6-0.5,1.1-0.7c0.4-0.2,0.9-0.3,1.5-0.3
			C135.5,268.8,136,268.8,136.4,269 M133.2,284.3c-0.5-0.2-0.9-0.4-1.3-0.7c-0.3-0.3-0.6-0.7-0.8-1.1c-0.2-0.4-0.3-0.9-0.3-1.5
			c0-0.7,0.1-1.2,0.3-1.7c0.2-0.5,0.5-0.8,0.9-1.1c0.4-0.3,0.8-0.5,1.3-0.6c0.5-0.1,1-0.2,1.5-0.2c0.5,0,1,0.1,1.5,0.2
			s0.9,0.4,1.3,0.6c0.4,0.3,0.7,0.7,0.9,1.1c0.2,0.5,0.3,1,0.3,1.7c0,0.5-0.1,1-0.3,1.5c-0.2,0.4-0.4,0.8-0.8,1.1
			c-0.3,0.3-0.8,0.6-1.3,0.7c-0.5,0.2-1.1,0.3-1.7,0.3S133.7,284.5,133.2,284.3 M110.4,267.1v1.6c0,0.2,0.1,0.3,0.2,0.4
			c0.1,0.1,0.2,0.2,0.4,0.2h10c-0.1,0.2-0.3,0.3-0.4,0.5c-0.1,0.2-0.2,0.4-0.4,0.6l-8,15.8h1.7c0.3,0,0.6-0.1,0.8-0.2
			c0.2-0.2,0.4-0.4,0.5-0.6l7.9-16c0.1-0.1,0.1-0.3,0.2-0.5c0.1-0.2,0.1-0.4,0.1-0.7v-1.1H110.4z M102.8,267.1h-2.1
			c-0.3,0-0.5,0.1-0.8,0.2c-0.2,0.1-0.4,0.2-0.5,0.4l-4.9,6.5c-0.8,1.1-1.4,2.1-1.8,3c-0.4,0.9-0.6,1.8-0.6,2.7c0,1,0.1,1.9,0.4,2.7
			c0.3,0.8,0.7,1.5,1.3,2.1c0.5,0.6,1.2,1,2,1.3c0.8,0.3,1.7,0.5,2.6,0.5c1,0,1.9-0.2,2.7-0.5c0.8-0.3,1.5-0.8,2.1-1.3
			c0.6-0.6,1-1.2,1.3-2c0.3-0.8,0.5-1.6,0.5-2.5c0-0.9-0.2-1.7-0.5-2.4c-0.3-0.7-0.7-1.3-1.2-1.8c-0.5-0.5-1.1-0.9-1.8-1.1
			c-0.7-0.3-1.4-0.4-2.2-0.4c-0.6,0-1.2,0.1-1.8,0.3s-1,0.4-1.5,0.7c0.1-0.2,0.3-0.4,0.4-0.6c0.2-0.2,0.3-0.4,0.5-0.6L102.8,267.1z
			 M96.9,284.2c-0.5-0.2-0.9-0.5-1.3-0.8c-0.3-0.4-0.6-0.8-0.8-1.3c-0.2-0.5-0.3-1.1-0.3-1.7c0-0.5,0.1-1,0.3-1.5
			c0.2-0.5,0.5-0.9,0.8-1.3c0.4-0.4,0.8-0.7,1.3-0.9c0.5-0.2,1.1-0.3,1.7-0.3c0.6,0,1.1,0.1,1.6,0.3c0.5,0.2,0.9,0.5,1.3,0.8
			c0.4,0.4,0.6,0.8,0.8,1.3s0.3,1.1,0.3,1.7c0,0.6-0.1,1.1-0.3,1.6c-0.2,0.5-0.5,0.9-0.9,1.3c-0.4,0.4-0.8,0.6-1.3,0.9
			c-0.5,0.2-1.1,0.3-1.7,0.3C97.9,284.5,97.3,284.4,96.9,284.2 M78.4,269.3h6c0.5,0,0.9-0.1,1.1-0.3c0.2-0.2,0.3-0.5,0.3-0.8v-1
			h-9.1l-1.5,8.9l1.5,0.4c0.5-0.2,1.1-0.3,1.6-0.4c0.5-0.1,1-0.1,1.5-0.1c0.7,0,1.3,0.1,1.8,0.3c0.5,0.2,1,0.4,1.3,0.8
			c0.4,0.3,0.6,0.7,0.8,1.2c0.2,0.5,0.3,1,0.3,1.6c0,0.7-0.1,1.3-0.3,1.9s-0.5,1-0.9,1.4c-0.4,0.4-0.8,0.7-1.4,0.9
			c-0.5,0.2-1.1,0.3-1.8,0.3c-0.6,0-1.1-0.1-1.5-0.2c-0.4-0.1-0.8-0.3-1.1-0.5c-0.3-0.2-0.6-0.3-0.8-0.5c-0.2-0.1-0.4-0.2-0.6-0.2
			c-0.3,0-0.5,0.1-0.6,0.3l-0.7,1c0.3,0.3,0.6,0.5,1,0.8c0.4,0.2,0.8,0.5,1.2,0.6c0.5,0.2,0.9,0.3,1.5,0.4c0.5,0.1,1.1,0.2,1.6,0.2
			c1,0,1.9-0.2,2.7-0.5c0.8-0.3,1.6-0.8,2.2-1.3c0.6-0.6,1.1-1.3,1.5-2.1c0.4-0.8,0.5-1.7,0.5-2.8c0-0.8-0.1-1.6-0.4-2.3
			c-0.3-0.7-0.7-1.3-1.2-1.8c-0.5-0.5-1.2-0.9-1.9-1.2c-0.8-0.3-1.6-0.4-2.6-0.4c-0.8,0-1.8,0.1-2.8,0.3L78.4,269.3z M66.3,279.4
			v-12.2h-2.2l-9.3,12.4l0.2,1.2c0,0.2,0.1,0.3,0.2,0.4c0.1,0.1,0.3,0.2,0.5,0.2h8.5v5h2.1v-5h2.4c0.2,0,0.3,0,0.4-0.1
			c0.1-0.1,0.1-0.2,0.1-0.4v-1.4H66.3z M57.4,279.4l7-9.5c0,0.3-0.1,0.6-0.1,0.8c0,0.3,0,0.5,0,0.8v7.9H57.4z M39.3,272.5
			c0.3,0,0.6,0,0.8-0.1c0.2-0.1,0.3-0.3,0.4-0.6c0.1-0.4,0.2-0.8,0.5-1.1c0.2-0.3,0.5-0.6,0.8-0.9c0.3-0.3,0.7-0.5,1.1-0.6
			c0.4-0.1,0.9-0.2,1.3-0.2c0.5,0,0.9,0.1,1.3,0.2c0.4,0.1,0.8,0.3,1.1,0.6c0.3,0.3,0.5,0.6,0.7,1c0.2,0.4,0.3,0.9,0.3,1.4
			c0,0.5-0.1,1-0.2,1.4c-0.2,0.4-0.4,0.8-0.8,1.1c-0.4,0.3-0.8,0.5-1.4,0.7c-0.6,0.2-1.3,0.3-2.1,0.3v1.7c1,0,1.8,0.1,2.5,0.3
			c0.6,0.2,1.1,0.4,1.5,0.7c0.4,0.3,0.6,0.7,0.7,1.1c0.1,0.4,0.2,0.9,0.2,1.4c0,0.4-0.1,0.8-0.3,1.3c-0.2,0.4-0.4,0.8-0.8,1.2
			c-0.3,0.3-0.8,0.6-1.3,0.8c-0.5,0.2-1.1,0.3-1.8,0.3c-0.7,0-1.3-0.1-1.8-0.3c-0.5-0.2-0.9-0.5-1.2-0.8c-0.3-0.3-0.5-0.7-0.7-1
			c-0.2-0.3-0.3-0.6-0.4-0.9c-0.1-0.2-0.3-0.4-0.6-0.4s-0.5,0-0.8,0.1l-1,0.4c0.2,0.7,0.5,1.4,0.8,2c0.3,0.6,0.7,1.1,1.2,1.6
			c0.5,0.4,1.1,0.8,1.8,1c0.7,0.3,1.6,0.4,2.6,0.4c0.9,0,1.7-0.1,2.5-0.4c0.8-0.3,1.4-0.6,2-1.1c0.6-0.5,1-1.1,1.4-1.8
			c0.3-0.7,0.5-1.5,0.5-2.4c0-1.2-0.3-2.1-0.9-2.9c-0.6-0.8-1.6-1.3-2.8-1.7c0.5-0.2,1-0.4,1.4-0.6c0.4-0.2,0.8-0.6,1-0.9
			c0.3-0.4,0.5-0.8,0.7-1.2c0.2-0.5,0.2-1,0.2-1.6c0-0.7-0.1-1.4-0.4-2c-0.3-0.6-0.7-1.1-1.2-1.5c-0.5-0.4-1.1-0.8-1.8-1
			c-0.7-0.2-1.4-0.3-2.2-0.3c-0.8,0-1.6,0.1-2.3,0.4s-1.3,0.6-1.9,1c-0.5,0.5-1,1-1.4,1.7c-0.4,0.7-0.6,1.4-0.7,2.3L39.3,272.5z
			 M24.9,284c-0.3,0-0.7,0-1.1,0.1c-0.4,0.1-0.7,0.1-1.1,0.2l5-5.2c0.5-0.5,1-1.1,1.5-1.6c0.5-0.5,0.9-1.1,1.3-1.6s0.7-1.1,0.9-1.7
			c0.2-0.6,0.3-1.3,0.3-2c0-0.8-0.1-1.6-0.4-2.2c-0.3-0.7-0.7-1.2-1.2-1.7c-0.5-0.5-1.1-0.8-1.8-1c-0.7-0.2-1.5-0.4-2.3-0.4
			c-0.8,0-1.6,0.1-2.3,0.4c-0.7,0.2-1.3,0.6-1.9,1c-0.5,0.5-1,1-1.4,1.7c-0.4,0.7-0.6,1.4-0.7,2.3l1.2,0.2c0.3,0,0.6,0,0.8-0.1
			c0.2-0.1,0.3-0.3,0.4-0.6c0.1-0.4,0.2-0.8,0.5-1.1c0.2-0.3,0.5-0.6,0.8-0.9c0.3-0.3,0.7-0.5,1.1-0.6c0.4-0.1,0.9-0.2,1.3-0.2
			c0.5,0,0.9,0.1,1.3,0.2c0.4,0.1,0.8,0.3,1.1,0.6s0.5,0.6,0.7,1c0.2,0.4,0.3,0.9,0.3,1.5s-0.1,1.1-0.2,1.6c-0.2,0.5-0.4,1-0.7,1.5
			c-0.3,0.5-0.6,1-1.1,1.4c-0.4,0.5-0.9,1-1.4,1.5l-6.1,6.2c-0.2,0.2-0.3,0.3-0.3,0.5c-0.1,0.2-0.1,0.4-0.1,0.5v0.8h12.8v-1.4
			c0-0.2-0.1-0.4-0.2-0.6c-0.2-0.2-0.4-0.2-0.6-0.2H24.9z M9.8,284.5v-17.4H7.9L2.2,272l0.7,1c0,0.1,0.1,0.1,0.2,0.2
			c0.1,0.1,0.2,0.1,0.3,0.1c0.1,0,0.2,0,0.3,0c0.1,0,0.2-0.1,0.3-0.2l3.4-2.9c0,0.4,0,0.8,0,1.2v13H3.3v1.8h10.3v-1.8H9.8z"/>
		<path class="st0" d="M317.2,123.3c-0.9,0.8-1.8,1.6-2.8,2.2c-0.9,0.6-1.9,1.1-3,1.5c-1.1,0.4-2.3,0.7-3.5,0.9
			c-1.3,0.2-2.7,0.3-4.3,0.3c-2.6,0-5-0.5-7.3-1.4c-2.2-0.9-4.2-2.3-5.8-4.1c-1.6-1.8-2.9-4-3.9-6.6s-1.4-5.6-1.4-8.9
			c0-3.3,0.5-6.2,1.4-8.8s2.2-4.8,3.8-6.6c1.6-1.8,3.6-3.2,5.9-4.1c2.3-1,4.8-1.4,7.5-1.4c2.3,0,4.2,0.2,5.8,0.7
			c1.6,0.5,2.9,1,3.9,1.6c1,0.6,1.9,1.1,2.5,1.6c0.6,0.5,1.2,0.7,1.6,0.7c0.4,0,0.7-0.1,0.9-0.2c0.2-0.2,0.4-0.4,0.6-0.6l2.4-3.3
			c-2.2-2.1-4.7-3.7-7.6-4.9c-2.9-1.2-6.2-1.8-10-1.8c-3.9,0-7.4,0.7-10.6,2c-3.2,1.3-5.9,3.2-8.2,5.6c-2.3,2.4-4.1,5.3-5.3,8.6
			c-1.3,3.3-1.9,7-1.9,11s0.6,7.7,1.8,11s2.9,6.2,5.1,8.6c2.2,2.4,4.9,4.2,8,5.6c3.1,1.3,6.6,2,10.4,2c4.4,0,8.2-0.7,11.3-2.1
			s5.7-3.4,7.9-5.9l-2.9-3.1c-0.3-0.3-0.6-0.5-1-0.5C318.1,122.7,317.6,122.9,317.2,123.3"/>
		<path class="st0" d="M60.1,103.5c0.2,0.3,0.5,0.6,0.8,0.9c0.3,0.2,0.7,0.4,1.2,0.4c0.6,0,1.1-0.2,1.7-0.6c0.6-0.4,1.3-0.9,2.1-1.4
			c0.8-0.5,1.8-1,2.9-1.4c1.1-0.4,2.5-0.6,4.1-0.6c2.4,0,4.3,0.7,5.5,2.2c1.3,1.5,1.9,3.7,1.9,6.6v2.9c-4.3,0.1-7.9,0.5-10.8,1.2
			c-2.9,0.7-5.3,1.6-7.2,2.6c-1.8,1.1-3.2,2.3-4,3.7c-0.8,1.4-1.2,2.8-1.2,4.3c0,1.7,0.3,3.2,0.8,4.4c0.6,1.2,1.3,2.3,2.3,3.1
			c1,0.8,2.1,1.4,3.4,1.8c1.3,0.4,2.7,0.6,4.1,0.6c1.4,0,2.7-0.1,3.9-0.4c1.2-0.3,2.3-0.6,3.3-1.1c1-0.5,2-1.1,3-1.8
			s1.9-1.5,2.9-2.4l0.7,3.6c0.2,0.6,0.5,1,0.8,1.2c0.3,0.2,0.8,0.3,1.5,0.3h2.9v-24c0-2.1-0.3-4-0.9-5.8c-0.6-1.8-1.4-3.3-2.5-4.5
			c-1.1-1.2-2.5-2.2-4.1-2.9c-1.6-0.7-3.5-1-5.6-1c-2.9,0-5.6,0.5-8,1.5c-2.4,1-4.6,2.5-6.7,4.5L60.1,103.5z M80.2,124.6
			c-0.7,0.8-1.5,1.5-2.3,2.1s-1.6,1.2-2.4,1.6c-0.9,0.4-1.8,0.8-2.7,1c-1,0.2-2,0.4-3.2,0.4c-0.9,0-1.7-0.1-2.4-0.3
			c-0.8-0.2-1.4-0.5-2-1c-0.6-0.5-1-1-1.3-1.8c-0.3-0.7-0.5-1.6-0.5-2.6c0-1,0.3-2,0.9-2.8c0.6-0.8,1.6-1.6,2.9-2.2
			c1.3-0.6,3.1-1.1,5.2-1.5c2.1-0.4,4.7-0.6,7.8-0.7V124.6z"/>
		<path class="st0" d="M144.3,80.5v53.2h18.8c3,0,5.6-0.4,7.9-1.1c2.3-0.7,4.3-1.8,5.9-3.1c1.6-1.3,2.8-2.9,3.6-4.8
			c0.8-1.9,1.2-3.9,1.2-6.2c0-3.3-1-6-2.9-8c-2-2-4.9-3.4-8.8-4.2c1.7-0.5,3.1-1.2,4.4-2c1.2-0.8,2.3-1.8,3.1-2.8
			c0.8-1,1.4-2.2,1.8-3.4c0.4-1.2,0.6-2.5,0.6-3.8c0-2.2-0.4-4.1-1.1-5.8c-0.7-1.7-1.8-3.2-3.4-4.4c-1.5-1.2-3.5-2.1-5.8-2.7
			c-2.4-0.6-5.2-1-8.4-1H144.3z M161.3,86.2c4,0,6.9,0.7,8.8,2.2c1.9,1.4,2.8,3.7,2.8,6.9c0,1.3-0.2,2.6-0.7,3.7
			c-0.5,1.1-1.2,2.1-2.2,2.9c-1,0.8-2.2,1.4-3.7,1.9c-1.5,0.4-3.3,0.7-5.3,0.7h-9.5V86.2H161.3z M151.5,128v-18.5H163
			c3.9,0,6.8,0.8,8.8,2.4c2,1.6,2.9,3.8,2.9,6.5c0,1.4-0.2,2.7-0.7,3.9c-0.4,1.2-1.1,2.2-2.1,3c-1,0.9-2.2,1.5-3.7,2
			c-1.5,0.5-3.3,0.7-5.3,0.7H151.5z"/>
		<path class="st0" d="M200.9,79h-6.6v54.7h4.3c0.9,0,1.5-0.5,1.7-1.4l0.3-3.4c1.3,1.7,2.7,3,4.4,4c1.7,0.9,3.8,1.4,6.3,1.4
			c2.5,0,4.7-0.5,6.8-1.5c2-1,3.7-2.3,5.1-4.1c1.4-1.8,2.5-3.9,3.2-6.4c0.7-2.5,1.1-5.3,1.1-8.3c0-2.8-0.3-5.4-1-7.7
			c-0.7-2.3-1.6-4.2-2.8-5.8s-2.7-2.8-4.5-3.7c-1.8-0.8-3.8-1.3-6-1.3c-2.6,0-4.9,0.5-6.9,1.6c-2,1.1-3.8,2.5-5.4,4.4V79z
			 M200.9,106.5c1.4-1.8,2.8-3.2,4.4-4.2c1.6-1,3.5-1.5,5.6-1.5c3.1,0,5.5,1.1,7.1,3.2c1.7,2.2,2.5,5.5,2.5,10.1
			c0,4.9-0.9,8.7-2.8,11.2c-1.9,2.5-4.6,3.7-8.1,3.7c-1.7,0-3.3-0.3-4.8-1s-2.8-1.8-4-3.4V106.5z"/>
		<path class="st0" d="M361.3,100.4c-1.6-1.6-3.3-2.8-5.4-3.6c-2-0.9-4.3-1.3-7-1.3c-2.8,0-5.4,0.5-7.6,1.4c-2.2,1-4,2.3-5.5,4
			c-1.5,1.7-2.6,3.8-3.4,6.1c-0.8,2.4-1.2,5-1.2,7.8c0,3.1,0.4,5.8,1.3,8.2c0.8,2.4,2,4.4,3.5,6.1c1.5,1.6,3.2,2.9,5.2,3.8
			c2,0.9,4.2,1.3,6.5,1.3c1.4,0,2.7-0.1,4-0.3c1.3-0.2,2.6-0.6,3.8-1.1c1.2-0.5,2.3-1.1,3.4-1.8c1-0.7,2-1.6,2.8-2.6l-1.9-2.4
			c-0.3-0.4-0.7-0.6-1.3-0.6c-0.4,0-0.9,0.2-1.4,0.6c-0.5,0.4-1,0.8-1.7,1.3c-0.7,0.5-1.5,0.9-2.6,1.3c-1,0.4-2.4,0.6-4,0.6
			c-1.7,0-3.2-0.3-4.5-0.9c-1.3-0.6-2.5-1.5-3.4-2.7c-1-1.2-1.7-2.7-2.2-4.5c-0.5-1.8-0.8-3.8-0.8-6.1c0-2.2,0.2-4.1,0.7-5.9
			c0.5-1.8,1.2-3.3,2.2-4.5c1-1.2,2.1-2.2,3.5-2.8c1.4-0.7,3-1,4.9-1c1.4,0,2.6,0.2,3.5,0.5c1,0.3,1.8,0.6,2.4,1
			c0.7,0.4,1.2,0.7,1.7,1c0.4,0.3,0.9,0.5,1.2,0.5c0.3,0,0.6-0.1,0.8-0.2c0.2-0.1,0.4-0.4,0.6-0.6L361.3,100.4z"/>
		<path class="st0" d="M40.1,7.4c0-3,1.8-4.8,4.4-4.8c2.6,0,4.4,1.8,4.4,4.8c0,2.9-1.8,4.8-4.4,4.8C41.9,12.3,40.1,10.4,40.1,7.4
			 M52,7.4C52,3.1,48.7,0,44.6,0c-4.1,0-7.4,3.1-7.4,7.4c0,4.4,3.3,7.4,7.4,7.4C48.7,14.9,52,11.8,52,7.4 M25.1,2.6h3.9v12.2h2.9
			V2.6h3.9V0.2H25.1V2.6z M19.1,9.6h-4.2L17,3.6L19.1,9.6z M20.8,14.7h3.1L18.7,0.2h-3.4l-5.2,14.5h3.1l1-2.8h5.8L20.8,14.7z
			 M1.4,0.2v14.5h7.7v-2.3H4.3V0.2H1.4z"/>
		<line class="st1" x1="0" y1="30.7" x2="363.6" y2="30.7"/>
	</g>
</g>
</svg>
