<?xml version="1.0" encoding="utf-8"?>
<!-- Generator: Adobe Illustrator 24.0.1, SVG Export Plug-In . SVG Version: 6.00 Build 0)  -->
<svg version="1.1" id="Layer_1" xmlns="http://www.w3.org/2000/svg" xmlns:xlink="http://www.w3.org/1999/xlink" x="0px" y="0px"
	 viewBox="0 0 363.6 286.6" style="enable-background:new 0 0 363.6 286.6;" xml:space="preserve">
<style type="text/css">
	.st0{clip-path:url(#SVGID_2_);fill:#111111;}
	.st1{clip-path:url(#SVGID_2_);fill:none;stroke:#111111;stroke-width:1.484;}
	.st2{clip-path:url(#SVGID_4_);fill:#111111;}
	.st3{fill:#111111;}
	.st4{clip-path:url(#SVGID_6_);fill:#111111;}
	.st5{clip-path:url(#SVGID_6_);fill:none;stroke:#111111;stroke-width:1.484;}
	.st6{clip-path:url(#SVGID_8_);fill:#111111;}
	.st7{clip-path:url(#SVGID_8_);fill:none;stroke:#111111;stroke-width:1.484;}
</style>
<g>
	<g>
		<defs>
			<rect id="SVGID_3_" width="363.6" height="286.6"/>
		</defs>
		<clipPath id="SVGID_2_">
			<use xlink:href="#SVGID_3_"  style="overflow:visible;"/>
		</clipPath>
		<path class="st0" d="M69.4,0.2v10l-6.6-10h-2.9v14.5h2.9v-10l6.6,10h2.9V0.2H69.4z M45.9,7.4c0-2.9,1.8-4.8,4.4-4.8
			c2.6,0,4.4,1.8,4.4,4.8c0,3-1.8,4.8-4.4,4.8C47.7,12.3,45.9,10.4,45.9,7.4 M57.7,7.4c0-4.3-3.3-7.4-7.4-7.4
			c-4.1,0-7.4,3.1-7.4,7.4c0,4.4,3.3,7.4,7.4,7.4C54.4,14.9,57.7,11.8,57.7,7.4 M30.8,2.6h3.9v12.2h2.9V2.6h3.9V0.2H30.8V2.6z
			 M25.8,0.2v10l-6.6-10h-2.9v14.5h2.9v-10l6.6,10h2.9V0.2H25.8z M9.5,9.6H5.3l2.1-6.1L9.5,9.6z M11.3,14.7h3.1L9.1,0.2H5.8
			L0.5,14.7h3.1l1-2.8h5.8L11.3,14.7z"/>
	</g>
	<path class="st3" d="M17.6,78.3h0.6l2.8,32.4h-5.8L17.6,78.3z M13.5,131.2l0.7-10.3H22l0.9,10.3h12.1l-6.1-63.7H7.3l-6.2,63.7H13.5
		z"/>
	<g>
		<defs>
			<rect id="SVGID_5_" width="363.6" height="286.6"/>
		</defs>
		<clipPath id="SVGID_4_">
			<use xlink:href="#SVGID_5_"  style="overflow:visible;"/>
		</clipPath>
		<path class="st2" d="M361.6,193.7v-4.2h-5.1l5.4-14.7v-4h-9.6v4.2h4.7l-5.2,14.6v4.2H361.6z M346.2,193.7v-7.6l3.7-15.4h-4.5
			l-1.3,7.8l-1.3-7.8h-4.5l3.7,15.4v7.6H346.2z M328.9,193.7l1.5-9l1.4,9h4.6l-2.5-12.2l2-10.8h-4.5l-1,7.9l-1.2-7.9h-4.5l1.9,10.8
			l-2.5,12.2H328.9z M311.9,193.7l1.1-11.1l1.1,11.1h5.5l2.5-22.9h-4.5l-1.2,14.5l-1.2-14.5h-4.3l-1.3,14.5l-1.3-14.5h-4.5l2.5,22.9
			H311.9z M299,193.7l2.8-23h-4.4l-1.5,15.6l-1.7-15.6h-4.4l2.8,23H299z M282,193.9c1.9,0,3.3-0.5,4.2-1.6c0.9-1.1,1.4-2.7,1.4-4.8
			v-16.8h-4.5v16.6c0,0.7-0.1,1.3-0.2,1.7c-0.1,0.4-0.4,0.6-0.9,0.6c-0.5,0-0.8-0.2-0.9-0.6c-0.1-0.4-0.2-1-0.2-1.7v-16.6h-4.5v16.8
			c0,2.1,0.5,3.7,1.4,4.8C278.7,193.3,280.1,193.9,282,193.9 M271.3,193.7v-18.5h2.7v-4.4h-10v4.4h2.7v18.5H271.3z M256.5,193.9
			c1.9,0,3.3-0.6,4.1-1.8c0.8-1.2,1.2-2.9,1.2-5.1c0-1-0.1-1.9-0.4-2.6c-0.2-0.7-0.6-1.4-1-1.9c-0.4-0.5-0.9-1.1-1.5-1.7l-2.7-2.6
			c-0.9-0.8-1.3-1.6-1.3-2.3c0-0.3,0.1-0.6,0.3-0.8c0.2-0.2,0.4-0.3,0.8-0.3c0.3,0,0.5,0.1,0.7,0.3c0.2,0.2,0.3,0.4,0.3,0.7l0,1.6
			h4.7c0-2.3-0.5-4-1.4-5.1c-0.9-1.1-2.4-1.6-4.5-1.6c-1.7,0-3,0.5-3.9,1.5c-0.9,1-1.3,2.5-1.3,4.5c0,1.8,0.8,3.5,2.3,5l2,2
			c0.7,0.7,1.2,1.2,1.5,1.5c0.3,0.3,0.5,0.7,0.7,1.2c0.2,0.5,0.3,1.1,0.3,1.9c0,0.6-0.1,1-0.2,1.2c-0.2,0.2-0.4,0.4-0.9,0.4
			c-0.7,0-1.1-0.6-1.1-1.7v-2.9h-4.5v2.2c0,2.3,0.5,4,1.4,5C252.9,193.4,254.4,193.9,256.5,193.9 M241.7,179.2V175h1.1
			c0.3,0,0.5,0.1,0.6,0.2c0.1,0.1,0.2,0.3,0.3,0.6c0.1,0.3,0.1,0.8,0.1,1.4c0,1.4-0.3,2.1-1,2.1H241.7z M237,193.7h4.6v-10.5
			c0.7,0,1.1,0.1,1.4,0.3c0.2,0.2,0.4,0.6,0.4,1.2v9h4.5l0.1-8.7c0-0.9-0.2-1.7-0.5-2.2c-0.3-0.6-0.8-0.9-1.5-1
			c0.8-0.3,1.4-0.8,1.8-1.5c0.3-0.7,0.5-1.7,0.5-3c0-1.4-0.1-2.6-0.3-3.5c-0.2-0.9-0.6-1.6-1.2-2.1c-0.6-0.5-1.5-0.8-2.6-0.8H237
			V193.7z M227.8,189.7c-0.5,0-0.8-0.2-0.9-0.6c-0.1-0.4-0.2-0.9-0.2-1.6v-10.8c0-1.2,0.4-1.9,1.1-1.9c0.4,0,0.7,0.2,0.8,0.5
			c0.2,0.3,0.2,0.8,0.2,1.4v10.7c0,0.7-0.1,1.2-0.2,1.7C228.5,189.4,228.2,189.7,227.8,189.7 M232.6,196.1l1.5-2.7l-2-1.3
			c0.9-1.1,1.3-2.6,1.3-4.5v-11.1c0-2-0.5-3.5-1.5-4.5c-1-1-2.4-1.5-4.2-1.5s-3.2,0.5-4.2,1.5c-1,1-1.5,2.5-1.5,4.5v11.1
			c0,2,0.5,3.6,1.4,4.7c1,1.1,2.4,1.6,4.2,1.6c0.1,0,0.5-0.1,1.1-0.2L232.6,196.1z M213,180.4v-5.6h0.5c0.6,0,1.1,0.2,1.3,0.6
			c0.2,0.4,0.3,1.1,0.3,2.1c0,0.7,0,1.3-0.1,1.6c-0.1,0.4-0.2,0.7-0.5,0.9s-0.7,0.3-1.2,0.3H213z M208.5,193.7h4.5v-9.1h1.9
			c1.8,0,3-0.6,3.7-1.7c0.7-1.2,1-2.9,1-5.2c0-2.3-0.4-4-1.2-5.2c-0.8-1.2-2.1-1.8-3.9-1.8h-6.1V193.7z M199.7,189.7
			c-0.4,0-0.7-0.2-0.9-0.5c-0.2-0.3-0.2-0.8-0.2-1.5v-11.2c0-1.2,0.4-1.7,1.1-1.7c0.4,0,0.7,0.2,0.8,0.5c0.1,0.3,0.2,0.7,0.2,1.2
			v11.2c0,0.6-0.1,1.1-0.2,1.5C200.4,189.5,200.1,189.7,199.7,189.7 M199.7,193.9c1.9,0,3.3-0.6,4.2-1.7c1-1.1,1.4-2.7,1.4-4.8
			v-10.9c0-2-0.5-3.5-1.4-4.5c-1-1-2.4-1.5-4.2-1.5c-1.9,0-3.3,0.5-4.2,1.5c-1,1-1.4,2.5-1.4,4.5v10.9c0,2,0.5,3.6,1.4,4.8
			C196.4,193.3,197.8,193.9,199.7,193.9 M184,193.7v-11.5l2.3,11.5h4.5v-22.9h-4.4v11l-2.1-11h-4.7v22.9H184z M162.4,193.7v-16.5
			l2.8,16.5h4.1l2.6-16.5v16.5h4.2v-22.9h-7.1l-1.9,14l-1.9-14h-7v22.9H162.4z M155.7,193.7v-3.9H151v-19h-4.6v22.9H155.7z
			 M137,193.7v-11.1l2.5,11.1h4.8l-3.1-12.4l2.6-10.5h-4.6l-2.1,9.2v-9.2h-4.5v22.9H137z M123.7,193.9c1.1,0,2.1-0.2,2.9-0.7
			s1.5-1.2,2-2.1c0.5-0.9,0.7-1.9,0.7-3.1v-17.2h-4.6v17.7c0,0.4-0.1,0.7-0.3,0.9c-0.2,0.2-0.4,0.3-0.8,0.3c-0.4,0-0.6-0.1-0.8-0.4
			c-0.2-0.2-0.3-0.6-0.3-1v-5.5h-4.5v5.7c0,1.1,0.2,2.1,0.7,2.9c0.5,0.8,1.2,1.4,2,1.8C121.7,193.7,122.7,193.9,123.7,193.9
			 M115.5,170.7H111v22.9h4.4V170.7z M101.1,193.7v-10.4h2.2v10.4h4.6v-22.9h-4.6v8.2h-2.2v-8.2h-4.6v22.9H101.1z M87,193.9
			c1.7,0,3-0.7,3.8-2.1l0.8,1.9h1.8v-13.4h-5.6v4H89v3.3c0,0.7-0.1,1.2-0.3,1.6c-0.2,0.4-0.5,0.5-0.9,0.5s-0.8-0.2-0.9-0.5
			c-0.2-0.4-0.3-0.9-0.3-1.6v-11.1c0-1.1,0.4-1.7,1.3-1.7c0.4,0,0.7,0.2,0.8,0.5c0.2,0.3,0.2,0.7,0.2,1.3v2.1h4.5
			c0-1.8-0.2-3.3-0.5-4.5c-0.3-1.2-0.9-2-1.7-2.6c-0.8-0.6-2-0.9-3.5-0.9c-1.9,0-3.3,0.5-4.2,1.6c-0.9,1.1-1.4,2.7-1.4,4.8v9.9
			c0,2.4,0.4,4.1,1.2,5.3C84.1,193.3,85.3,193.9,87,193.9 M74.9,193.7v-10.4h4.3v-4.4h-4.3v-3.7h4.6v-4.5h-9.2v22.9H74.9z
			 M67.4,193.7v-4.5h-4.8v-5.3h4.3v-4.3h-4.3v-4.5h4.5v-4.4h-9.2v22.9H67.4z M48.1,189.6v-14.9h0.5c0.4,0,0.8,0,1,0.1
			c0.2,0.1,0.4,0.3,0.4,0.5c0.1,0.3,0.1,0.6,0.1,1.2v11.8c0,0.8-0.4,1.2-1.3,1.2H48.1z M43.4,193.7h6.2c1.9,0,3.2-0.6,4-1.7
			c0.8-1.1,1.2-2.8,1.2-5.1l-0.1-10.7c0-1.8-0.4-3.1-1.3-4c-0.8-0.9-2-1.4-3.7-1.4h-6.3V193.7z M34.8,193.9c3.9,0,5.8-1.9,5.8-5.8
			v-4.3H36v4.1c0,1.2-0.4,1.7-1.1,1.7c-0.4,0-0.6-0.1-0.8-0.4c-0.2-0.3-0.3-0.7-0.3-1.3v-11.5c0-0.6,0.1-1,0.2-1.3
			c0.2-0.3,0.4-0.4,0.8-0.4c0.4,0,0.7,0.1,0.8,0.4c0.2,0.2,0.2,0.7,0.2,1.4v3.4h4.6v-4c0-1.7-0.5-3.1-1.5-4c-1-0.9-2.4-1.4-4.1-1.4
			c-1.9,0-3.4,0.6-4.3,1.7c-0.9,1.2-1.4,2.9-1.4,5.2V188c0,1.8,0.5,3.3,1.5,4.3C31.8,193.4,33.1,193.9,34.8,193.9 M20.2,189.6
			l-0.5,0V183h0.9c0.5,0,0.9,0.2,1.1,0.5c0.2,0.4,0.3,0.9,0.3,1.6v2.9C22,189.1,21.4,189.6,20.2,189.6 M19.8,179.3v-5.1h1
			c0.7,0,1,0.4,1,1.1v2.3c0,0.5-0.1,0.9-0.2,1.2c-0.1,0.3-0.4,0.4-0.8,0.4H19.8z M15.3,193.7h6.2c1.9,0,3.2-0.6,4-1.9
			c0.7-1.3,1.1-3.1,1.1-5.5c0-1.5-0.2-2.7-0.6-3.6c-0.4-0.9-1.1-1.5-2-1.7c1.6-0.4,2.4-1.7,2.4-3.9v-1c0-1.9-0.4-3.2-1.1-4
			c-0.8-0.8-2-1.2-3.6-1.2h-6.2V193.7z M6.3,174.6h0.2l1,11.7H5.5L6.3,174.6z M4.9,193.7l0.3-3.7h2.8l0.3,3.7h4.4l-2.2-22.9H2.6
			l-2.2,22.9H4.9z"/>
		<path class="st2" d="M349.3,240v-3.5h-4.6l4.6-12.9v-3.2h-9.5v3.7h4.6l-4.9,13v2.9H349.3z M326.1,243.2h5.3c0.8,0,1.4-0.2,1.8-0.5
			c0.4-0.4,0.6-0.9,0.8-1.7l3.6-20.6h-4.5l-1,9.5l-0.5,4.9l-0.4-4.9l-0.9-9.5h-4.5l3,19.2c0,0.1,0,0.2,0,0.3c0,0.3-0.2,0.4-0.5,0.4
			h-2.2V243.2z M320.6,230.1l3.4-9.7h-3.5l-1.7,4.8l-1.7-4.8h-4.8l3.3,9.1l-3.6,10.5h3.5l1.9-5.5l2,5.5h4.7L320.6,230.1z M300.2,240
			l1.2-11.1l1.4,11.1h4.7l2.5-19.6h-4.4l-1.1,10.5l-1.3-10.5h-4.1l-1.1,10.5l-1.3-10.5h-4L295,240H300.2z M287.2,240l3.2-19.6h-4.7
			l-1.1,9.9l-0.2,3.2l-0.2-3.2l-1-9.9h-4.7l3.1,19.6H287.2z M268.4,240.2c0.8,0,1.5-0.2,1.9-0.5c0.4-0.4,0.8-0.9,1.1-1.8v2.1h4.7
			v-19.6h-4.6l0,13.6v0.2c0,0.7-0.1,1.3-0.2,1.7c-0.1,0.4-0.4,0.6-0.9,0.6c-0.4,0-0.6-0.1-0.8-0.3c-0.2-0.2-0.3-0.6-0.3-1.1v-1
			v-13.6h-4.7V235c0,1.7,0.3,3,0.8,3.9C266,239.7,267,240.2,268.4,240.2 M259.2,240.2c0.5,0,1,0,1.5-0.1c0.5-0.1,0.9-0.2,1.2-0.2
			v-3.2c-0.1,0-0.2,0-0.3,0c-0.2,0-0.3,0-0.5,0c-0.2,0-0.4-0.1-0.4-0.2c-0.1-0.2-0.1-0.4-0.1-0.7v-11h1.3v-3.6h-1.3V217H256v4.1
			h-1.3v3.6h1.3v12.2c0,1.1,0.2,2,0.7,2.5C257.1,239.9,258,240.2,259.2,240.2 M246.5,240.2c1.9,0,3.3-0.5,4.3-1.5s1.5-2.4,1.5-4.2
			c0-1.4-0.3-2.5-0.8-3.4s-1.3-1.7-2.4-2.5l-2.9-2.1c-0.6-0.4-0.8-0.9-0.8-1.7c0-0.3,0.1-0.6,0.3-0.8c0.2-0.2,0.4-0.3,0.7-0.3
			c0.4,0,0.6,0.2,0.8,0.5c0.2,0.3,0.2,0.7,0.2,1.2v0.7h4.8v-0.4c0-3.8-1.9-5.7-5.7-5.7c-1.1,0-2,0.2-2.9,0.5
			c-0.9,0.4-1.6,0.9-2.1,1.6c-0.5,0.7-0.8,1.6-0.8,2.6c0,1.3,0.2,2.3,0.6,3c0.4,0.7,1,1.4,1.8,2l2.5,1.9c0.6,0.5,1.1,0.9,1.4,1.4
			c0.3,0.4,0.4,1,0.4,1.8c0,1-0.3,1.5-0.9,1.5c-0.4,0-0.7-0.1-0.9-0.4c-0.2-0.2-0.3-0.6-0.3-1.1l0-2.3h-4.7l0,1.5
			C240.7,238.2,242.7,240.2,246.5,240.2 M230.6,240h4.7v-15c0-0.2,0.4-0.5,1.2-0.7c0.8-0.2,1.5-0.3,2.2-0.3v-3.9
			c-0.9,0-1.6,0.2-2.2,0.6c-0.6,0.4-1,1-1.2,1.8v-2.2h-4.7V240z M221.5,236.5c-0.4,0-0.7-0.2-0.8-0.6c-0.1-0.4-0.2-1-0.2-1.7v-8.3
			c0-0.7,0.1-1.2,0.2-1.5c0.1-0.4,0.4-0.5,0.9-0.5c0.7,0,1.1,0.7,1.1,2v8.6c0,0.7-0.1,1.2-0.2,1.5
			C222.3,236.4,222,236.5,221.5,236.5 M222.6,243.9h4.8v-23.5h-4.8v1c-0.7-0.8-1.6-1.3-2.8-1.3c-1.5,0-2.5,0.5-3.2,1.5
			c-0.6,1-0.9,2.4-0.9,4.2v7.7c0,1.5,0.1,2.7,0.3,3.6c0.2,0.9,0.6,1.6,1.2,2.1c0.6,0.5,1.5,0.8,2.7,0.8c0.6,0,1.1-0.1,1.5-0.4
			c0.5-0.3,0.8-0.6,1.1-1V243.9z M207.1,236.5c-0.4,0-0.7-0.2-0.9-0.5c-0.2-0.4-0.2-0.9-0.2-1.5v-8.6c0-1.4,0.4-2,1.1-2
			c0.4,0,0.7,0.2,0.9,0.5c0.1,0.4,0.2,0.9,0.2,1.5v8.3c0,0.7-0.1,1.3-0.2,1.7C207.8,236.4,207.6,236.5,207.1,236.5 M201.3,243.9h4.8
			v-4.7c0.6,0.7,1.5,1,2.7,1c1.2,0,2.1-0.3,2.8-0.9c0.6-0.6,1-1.4,1.2-2.4c0.2-1,0.3-2.2,0.3-3.8v-7.2c0-1.8-0.3-3.2-0.9-4.2
			c-0.6-1-1.7-1.5-3.2-1.5c-1.2,0-2.1,0.4-2.8,1.3v-1h-4.8V243.9z M192.3,236.6c-0.4,0-0.7-0.1-0.8-0.4c-0.2-0.3-0.3-0.6-0.3-1.1
			v-9.6c0-1.1,0.4-1.7,1.1-1.7s1.1,0.6,1.1,1.7v9.6c0,0.5-0.1,0.8-0.3,1.1C193,236.4,192.7,236.6,192.3,236.6 M192.3,240.2
			c3.9,0,5.8-2,5.8-6.1v-7.9c0-1.9-0.5-3.3-1.6-4.4c-1-1.1-2.5-1.6-4.3-1.6c-1.8,0-3.2,0.5-4.3,1.6c-1,1.1-1.6,2.6-1.6,4.4v7.9
			C186.5,238.2,188.4,240.2,192.3,240.2 M172,240h4.7v-13.8c0-0.7,0.1-1.3,0.2-1.8c0.2-0.4,0.5-0.7,0.9-0.7c0.4,0,0.6,0.2,0.8,0.5
			c0.2,0.3,0.3,0.7,0.3,1.1V240h4.6v-15.1c0-1.5-0.3-2.6-0.9-3.5c-0.6-0.8-1.6-1.2-2.9-1.2c-0.8,0-1.4,0.2-1.9,0.7
			c-0.5,0.5-0.8,1.1-1,1.9v-2.5H172V240z M150.4,240h4.6v-13.8c0-0.7,0.1-1.2,0.3-1.7c0.2-0.5,0.5-0.7,1-0.7c0.4,0,0.6,0.2,0.7,0.5
			c0.1,0.3,0.2,0.8,0.2,1.3V240h4.7v-14.1c0-0.6,0.1-1.1,0.3-1.6c0.2-0.4,0.5-0.7,1-0.7c0.6,0,1,0.6,1,1.9V240h4.7l0.1-14.3
			c0-1.8-0.3-3.1-0.9-4.1s-1.7-1.4-3.2-1.4c-0.9,0-1.5,0.2-2,0.5c-0.5,0.3-0.9,0.8-1.3,1.5c-0.2-0.6-0.6-1.1-1.2-1.4
			c-0.6-0.3-1.2-0.5-2-0.5c-0.9,0-1.7,0.2-2.2,0.6c-0.5,0.4-0.9,1-1.1,1.9v-2.3h-4.6V240z M147.2,216.9h-4.8V240h4.8V216.9z
			 M132.6,240v-9.2l2.9,9.2h5l-3.7-11.1l2.9-8.5h-4.8l-2.2,6.7v-10.3H128V240H132.6z M121.1,242.3c1.3,0,2.2-0.4,2.8-1.1
			c0.6-0.8,0.9-1.9,0.9-3.3v-17.4h-4.7v17.5c0,0.3,0,0.5-0.1,0.7c-0.1,0.2-0.2,0.2-0.5,0.2c-0.2,0-0.3,0-0.4-0.1v3.1
			C119.4,242.1,120.1,242.3,121.1,242.3 M124.8,215.8h-4.7v3.3h4.7V215.8z M116.4,220.4h-4.7V240h4.7V220.4z M116.4,215.8h-4.7v3.3
			h4.7V215.8z M97,240h4.8v-14.8c0-0.4,0.1-0.7,0.3-1c0.2-0.3,0.4-0.4,0.8-0.4c0.4,0,0.7,0.1,0.9,0.4s0.3,0.6,0.3,1V240h4.7v-15.1
			c0-1.5-0.3-2.6-1-3.4c-0.7-0.8-1.7-1.3-3-1.3c-1.4,0-2.4,0.7-2.9,2.1v-5.4H97V240z M87.9,234.4c-0.4,0-0.7-0.2-0.9-0.5
			c-0.1-0.4-0.2-0.8-0.2-1.4v-7c0-0.5,0.1-0.9,0.2-1.2c0.1-0.3,0.4-0.4,0.8-0.4c0.3,0,0.6,0.2,0.8,0.5c0.2,0.4,0.3,0.7,0.3,1.1v7
			C89,233.7,88.7,234.4,87.9,234.4 M87.4,242.8c2.2,0,3.8-0.5,4.9-1.4c1-1,1.5-2.5,1.5-4.7v-16.2H89v2.2c-0.2-0.8-0.5-1.4-1-1.8
			c-0.5-0.4-1.2-0.6-2-0.6c-1.4,0-2.5,0.5-3,1.4c-0.6,0.9-0.9,2.2-0.9,4v7.3c0,1.5,0.3,2.7,0.9,3.6c0.6,0.9,1.6,1.4,3,1.4
			c1.6,0,2.6-0.7,3-2v1.1c0,0.8-0.2,1.4-0.6,1.9c-0.4,0.5-0.9,0.7-1.7,0.7c-1.1,0-2.3-0.3-3.4-1l-1.6,2.7c0.8,0.6,1.5,1,2.3,1.3
			C85,242.7,86,242.8,87.4,242.8 M73.8,240h4.6v-15.1h0.9v-3.6h-1V221c0-0.4,0-0.6,0.1-0.8c0.1-0.2,0.2-0.3,0.5-0.3
			c0.1,0,0.2,0,0.4,0.1v-2.9c-0.6-0.2-1.4-0.4-2.4-0.4c-2.1,0-3.2,1.1-3.2,3.2v1.3H73l0,3.6h0.8V240z M63.5,228.3v-2.5
			c0-1.4,0.4-2.1,1.2-2.1c0.7,0,1,0.7,1,2.1v2.5H63.5z M64.5,240.2c2.2,0,3.7-0.5,4.6-1.6c0.9-1.1,1.3-2.8,1.3-5v-1.1h-4.6v1.9
			c0,0.5,0,0.9,0,1.2c0,0.3-0.1,0.5-0.3,0.7c-0.2,0.2-0.4,0.3-0.8,0.3c-0.5,0-0.8-0.2-0.9-0.6c-0.1-0.4-0.2-0.9-0.2-1.6v-3.8h6.8
			c0-0.9,0.1-2,0.1-3.5v-1.4c0-3.7-1.9-5.5-5.6-5.5c-1.9,0-3.3,0.5-4.3,1.4c-1,0.9-1.5,2.3-1.5,4.1v7.9c0,2.2,0.4,3.8,1.3,4.9
			C61,239.6,62.4,240.2,64.5,240.2 M50,236.5c-0.7,0-1.1-0.8-1.1-2.5v-8.2c0-0.6,0.1-1.1,0.2-1.5c0.2-0.4,0.5-0.5,0.9-0.5
			c0.4,0,0.7,0.2,0.9,0.6s0.2,0.9,0.2,1.4v7.3v0.8c0,0.8-0.1,1.4-0.2,1.8C50.7,236.3,50.4,236.5,50,236.5 M48.2,240.2
			c0.8,0,1.4-0.2,1.8-0.6c0.5-0.4,0.8-1,1.1-1.7v2.1h4.7v-23.1h-4.7v4.6c-0.6-0.8-1.6-1.3-2.8-1.3c-1.3,0-2.3,0.4-3,1.3
			c-0.7,0.9-1.1,2-1.1,3.4l-0.1,8.8c0,1.4,0.1,2.6,0.3,3.5c0.2,0.9,0.6,1.6,1.1,2.2C46.2,239.9,47,240.2,48.2,240.2 M35.8,240.2
			c1.7,0,3-0.5,4-1.4c1-0.9,1.6-2.2,1.6-3.8v-3.4h-4.8l0,3.3c0,0.5-0.1,0.9-0.3,1.2c-0.2,0.3-0.5,0.5-0.8,0.5s-0.7-0.2-0.8-0.5
			c-0.2-0.3-0.3-0.7-0.3-1.1v-9.5c0-1.1,0.4-1.6,1.1-1.6c0.4,0,0.7,0.1,0.8,0.4c0.1,0.3,0.2,0.7,0.2,1.2v2.8h4.8v-3
			c0-1.6-0.5-2.8-1.6-3.7c-1.1-0.9-2.4-1.3-4.1-1.3c-1.5,0-2.7,0.3-3.6,0.8c-0.9,0.5-1.5,1.3-1.8,2.4c-0.4,1.1-0.5,2.4-0.5,4.1v6
			c0,2.2,0.5,3.9,1.4,5C32.1,239.6,33.6,240.2,35.8,240.2 M21.2,236.5c-0.5,0-0.8-0.2-1-0.6c-0.1-0.4-0.2-1.1-0.2-1.9v-8.2
			c0-0.7,0.1-1.2,0.2-1.5c0.2-0.3,0.5-0.5,0.9-0.5c0.4,0,0.7,0.2,0.8,0.5c0.1,0.3,0.2,0.9,0.2,1.6v8.1c0,0.7,0,1.1,0,1.5
			c0,0.3-0.1,0.6-0.2,0.8C21.7,236.4,21.5,236.5,21.2,236.5 M22.7,240.2c1.4,0,2.4-0.5,3.1-1.5c0.7-1,1-2.3,1-3.9v-9.4
			c0-1.7-0.3-3-1-3.9c-0.7-0.9-1.7-1.3-3.3-1.3c-1,0-1.9,0.4-2.6,1.1v-4.5h-4.8V240H20v-2.1C20.5,239.4,21.4,240.2,22.7,240.2
			 M6.3,236.5c-0.7,0-1-0.6-1-1.7v-2.5c0-0.7,0.2-1.3,0.5-1.7c0.3-0.4,0.8-0.7,1.5-1v5.4c0,0.4-0.1,0.8-0.2,1.1
			C6.9,236.4,6.7,236.5,6.3,236.5 M4.5,240.2c0.7,0,1.3-0.2,1.8-0.7c0.5-0.4,0.9-1.1,1.1-1.9v2.3H12v-14.9c0-1.5-0.5-2.7-1.5-3.6
			s-2.3-1.3-4-1.3c-2,0-3.5,0.4-4.4,1.2c-0.9,0.8-1.3,2.2-1.3,4.1v0.6h4.5V225c0-0.4,0.1-0.7,0.3-0.9c0.2-0.2,0.4-0.3,0.7-0.3
			c0.3,0,0.5,0.1,0.7,0.4c0.2,0.3,0.3,0.7,0.3,1.2v1.9v0.1l-1.3,0.4c-1.5,0.5-2.5,0.9-3.3,1.3c-0.7,0.4-1.3,1-1.7,1.8
			c-0.4,0.8-0.6,2-0.6,3.5c0,1.9,0.3,3.3,0.8,4.3C1.9,239.7,3,240.2,4.5,240.2"/>
		<path class="st2" d="M145.3,282.3c-0.3,0-0.6-0.2-0.8-0.5c-0.2-0.3-0.3-0.7-0.3-1.1v-11.3c0-0.7,0.1-1.2,0.2-1.5
			c0.1-0.3,0.4-0.5,0.9-0.5s0.8,0.2,0.9,0.5c0.2,0.3,0.2,0.9,0.2,1.5v11.3c0,0.4-0.1,0.8-0.3,1.1
			C145.9,282.1,145.7,282.3,145.3,282.3 M145.3,286.5c2,0,3.5-0.5,4.5-1.6c1.1-1.1,1.6-2.7,1.6-4.7v-10.4c0-2.2-0.5-3.8-1.5-5
			c-1-1.1-2.5-1.7-4.6-1.7c-2,0-3.5,0.6-4.5,1.7c-1,1.1-1.5,2.8-1.5,5v10.4c0,2,0.5,3.6,1.6,4.7
			C141.9,285.9,143.4,286.5,145.3,286.5 M129.3,273.5c-0.7,0-1.1-0.6-1.1-1.9v-1.9c0-0.9,0.1-1.5,0.2-1.9c0.1-0.4,0.4-0.6,0.9-0.6
			c0.8,0,1.1,0.6,1.1,1.7v2.9C130.5,273,130.1,273.5,129.3,273.5 M129.1,286.5c1.8,0,3.2-0.4,4.1-1.1c0.9-0.7,1.5-1.8,1.8-3.1
			c0.3-1.4,0.4-3.2,0.4-5.6v-6.2c0-1.7-0.2-3.1-0.6-4.2c-0.4-1.1-1-1.9-1.9-2.4c-0.9-0.5-2.1-0.8-3.7-0.8c-2.1,0-3.7,0.7-4.6,2
			c-0.9,1.3-1.4,3.2-1.4,5.6c0,1.6,0.1,2.9,0.4,3.9c0.3,1,0.7,1.7,1.4,2.2c0.7,0.5,1.7,0.7,2.9,0.7c0.6,0,1.1-0.1,1.6-0.4
			c0.4-0.2,0.8-0.6,1-1v4.6c0,0.6-0.1,1-0.3,1.2c-0.2,0.3-0.6,0.4-1.1,0.4c-0.5,0-0.8-0.2-0.9-0.7c-0.1-0.4-0.2-1.1-0.2-1.8v-0.5
			h-4.4v2.5c0,1,0.2,1.8,0.7,2.5c0.5,0.7,1.2,1.2,2,1.5C127.2,286.3,128.1,286.5,129.1,286.5 M113.3,282c-0.8,0-1.3-0.8-1.3-2.3
			l0-0.7v-0.2c0-0.1,0-0.4,0-0.7c0-0.7,0.1-1.3,0.3-1.8c0.2-0.5,0.5-0.7,1-0.7c0.5,0,0.9,0.3,1,0.8c0.1,0.5,0.2,1.2,0.2,2.1l0,1.1
			C114.6,281.2,114.2,282,113.3,282 M113.3,271.5c-0.8,0-1.2-0.7-1.2-2.2c0-0.6,0.1-1,0.3-1.4c0.2-0.4,0.5-0.6,0.9-0.6
			c0.4,0,0.7,0.2,0.9,0.6c0.2,0.4,0.3,0.9,0.3,1.4C114.5,270.7,114.1,271.5,113.3,271.5 M113.3,286.5c2.1,0,3.6-0.6,4.6-1.8
			s1.4-3,1.4-5.3c0-0.1,0-0.3,0-0.6c0-1.5-0.1-2.7-0.4-3.6c-0.2-0.8-0.8-1.4-1.6-1.8c0.7-0.3,1.2-0.8,1.5-1.6
			c0.3-0.7,0.4-1.7,0.4-2.8c0-2.1-0.5-3.6-1.5-4.6c-1-1-2.5-1.4-4.5-1.4c-2,0-3.5,0.5-4.5,1.4c-1,0.9-1.5,2.4-1.5,4.4v0.6
			c0,1,0.2,1.9,0.5,2.5c0.3,0.7,0.8,1.1,1.5,1.4c-0.7,0.4-1.2,0.9-1.5,1.6c-0.3,0.7-0.4,1.7-0.4,2.9v1.5c0,2.3,0.5,4.1,1.4,5.3
			C109.7,285.9,111.2,286.5,113.3,286.5 M92.7,286.3h5.2c0.1-2.2,0.5-4.4,0.9-6.4c0.5-2,1.1-4,1.9-6c0.2-0.6,0.5-1.2,0.9-2.1
			c0.5-1.1,0.9-2,1.2-2.8c0.3-0.8,0.5-1.6,0.5-2.4v-3.4H91.8v4.2h6.5l-0.9,2.4c-0.2,0.4-0.4,1.1-0.8,2c-1.1,2.8-2,5.3-2.6,7.4
			C93.3,281.5,92.9,283.8,92.7,286.3 M81.7,282.3c-0.8,0-1.1-0.6-1.1-1.7v-2.8c0-1.1,0.4-1.6,1.2-1.6c0.7,0,1.1,0.6,1.1,1.9v1.8
			c0,0.9-0.1,1.5-0.2,1.9C82.5,282.1,82.2,282.3,81.7,282.3 M81.9,286.5c2.1,0,3.7-0.7,4.6-2c0.9-1.3,1.4-3.2,1.4-5.7
			c0-1.6-0.1-2.9-0.4-3.8c-0.3-1-0.7-1.7-1.4-2.2c-0.7-0.5-1.7-0.7-2.9-0.7c-0.6,0-1.1,0.1-1.6,0.4c-0.4,0.2-0.8,0.6-1,1v-4.6
			c0-0.6,0.1-1,0.3-1.2s0.6-0.4,1.1-0.4c0.5,0,0.8,0.2,0.9,0.6c0.1,0.4,0.2,1,0.2,1.8v0.5h4.4v-2.5c0-1-0.2-1.8-0.7-2.5
			c-0.5-0.7-1.2-1.2-2-1.5c-0.8-0.3-1.8-0.5-2.8-0.5c-1.8,0-3.2,0.4-4.1,1.1c-0.9,0.7-1.5,1.8-1.8,3.1c-0.3,1.4-0.4,3.2-0.4,5.6v6.2
			c0,1.7,0.2,3.1,0.6,4.2c0.4,1.1,1,1.9,1.9,2.4C79.1,286.2,80.3,286.5,81.9,286.5 M65.7,286.6c1.7,0,3-0.4,3.9-1.1
			c0.9-0.7,1.5-1.7,1.8-3c0.3-1.3,0.4-2.9,0.4-5c0-2.5-0.4-4.4-1.1-5.7c-0.7-1.4-2-2-3.9-2c-0.5,0-0.9,0.1-1.3,0.3
			c-0.4,0.2-0.7,0.4-0.9,0.7v-3.2h6.6v-4.3H60.2v12.2h4.2c0-1.3,0.4-1.9,1.3-1.9c0.5,0,0.8,0.2,0.9,0.7c0.2,0.4,0.2,1,0.2,1.8v4.5
			c0,0.6-0.1,1-0.3,1.3c-0.2,0.3-0.5,0.5-0.9,0.5c-0.5,0-0.8-0.2-1-0.7c-0.2-0.4-0.2-1.1-0.2-1.8v-1.9h-4.8v3.4c0,1.8,0.5,3.1,1.6,4
			C62.4,286.1,63.9,286.6,65.7,286.6 M50.3,267.2v11.6h-2.7L50.3,267.2z M55,286.3v-3.6h1.2v-3.8H55v-15.5h-7.2l-4.3,15.8v3.6h6.8
			v3.6H55z M33.7,286.5c2.2,0,3.8-0.6,4.7-1.8c1-1.2,1.5-3,1.5-5.4c0-1.1,0-2-0.1-2.7c-0.1-0.7-0.3-1.3-0.6-1.7
			c-0.3-0.5-0.8-0.9-1.4-1.2c0.8-0.3,1.3-0.8,1.7-1.5c0.3-0.7,0.5-1.7,0.5-2.8c0-4.1-2-6.1-5.8-6.1c-2,0-3.5,0.5-4.5,1.5
			c-1,1-1.5,2.5-1.5,4.6l0,0.8h4.8v-0.7c0-0.2,0-0.4,0.1-0.8c0-0.4,0.1-0.6,0.3-0.9c0.1-0.2,0.4-0.3,0.9-0.3c0.7,0,1.1,0.7,1.1,2
			c0,0.8-0.2,1.4-0.6,1.7c-0.4,0.4-1,0.5-1.8,0.5v4.1c0.1,0,0.2,0,0.5,0c1.3,0,2,1,2,3v0.6c0,0.7,0,1.2-0.1,1.6
			c0,0.4-0.1,0.7-0.3,0.9c-0.2,0.3-0.4,0.4-0.8,0.4c-0.5,0-0.9-0.2-1.1-0.6c-0.2-0.4-0.3-0.9-0.3-1.6v-2.4h-4.7v2.4
			c0,2.2,0.5,3.8,1.4,4.8C30.2,286,31.7,286.5,33.7,286.5 M12.3,286.3h11.9v-4.3H18c0.3-0.6,0.7-1.2,1.1-1.8c0.4-0.6,0.9-1.2,1.5-2
			c0.8-1,1.5-1.9,2-2.7c0.5-0.8,0.9-1.7,1.3-2.7c0.3-1,0.5-2.2,0.5-3.4c0-2-0.5-3.5-1.6-4.6c-1.1-1.1-2.5-1.6-4.5-1.6
			c-1.6,0-2.8,0.3-3.7,0.9c-0.9,0.6-1.5,1.4-1.9,2.6c-0.4,1.1-0.5,2.6-0.5,4.3l0.1,1.4h4.8v-2.8c0-1.4,0.4-2.1,1.1-2.1
			c0.5,0,0.8,0.2,1,0.5c0.2,0.3,0.3,0.8,0.3,1.5c0,1.1-0.2,2-0.5,2.9c-0.3,0.9-0.7,1.7-1.2,2.4c-0.5,0.7-1.1,1.5-1.9,2.5
			c-0.8,1-1.4,1.8-1.9,2.5s-0.9,1.5-1.2,2.4c-0.3,0.9-0.5,1.9-0.5,2.9V286.3z M3.2,286.3H8v-23H4.3c-0.3,0.8-0.9,1.5-1.7,2
			c-0.8,0.5-1.6,0.8-2.3,0.9v3.7c0.5,0,1-0.1,1.6-0.3c0.5-0.2,1-0.5,1.3-0.9V286.3z"/>
		<path class="st2" d="M293.5,131.8c10.7,0,16.1-5.3,16.1-16v-12h-12.8v11.5c0,3.2-1,4.8-3,4.8c-1,0-1.7-0.4-2.2-1.1
			c-0.5-0.8-0.7-2-0.7-3.7v-32c0-1.5,0.2-2.7,0.6-3.5c0.4-0.8,1.2-1.2,2.3-1.2c1.1,0,1.9,0.3,2.3,1c0.4,0.7,0.7,2,0.7,3.8v9.4h12.7
			v-11c0-4.8-1.4-8.6-4.3-11.1c-2.9-2.6-6.7-3.9-11.4-3.9c-5.4,0-9.4,1.6-11.9,4.8c-2.5,3.2-3.8,8-3.8,14.3v29.4
			c0,5.1,1.4,9.1,4.2,12C285.1,130.3,288.9,131.8,293.5,131.8"/>
		<path class="st2" d="M61.5,121.7c-1.9,0-2.9-1.6-2.9-4.8v-7c0-2,0.5-3.6,1.4-4.7c0.9-1.1,2.3-2.1,4.3-2.8v15.1
			c0,1.2-0.2,2.2-0.6,3C63.2,121.3,62.5,121.7,61.5,121.7 M56.4,131.8c1.9,0,3.6-0.6,5-1.9c1.4-1.2,2.4-3,3.1-5.2v6.5h12.9V89.8
			c0-4.3-1.4-7.6-4.2-10c-2.8-2.3-6.5-3.5-11-3.5c-5.6,0-9.7,1.1-12.2,3.4c-2.5,2.3-3.7,6.1-3.7,11.4v1.8h12.6v-3.3
			c0-1.1,0.3-2,0.8-2.6c0.5-0.6,1.1-1,1.8-1c0.8,0,1.5,0.4,2,1.2c0.6,0.8,0.9,1.9,0.9,3.3V96v0.1l-3.6,1.2c-4.1,1.3-7.1,2.5-9.1,3.5
			c-2,1.1-3.5,2.7-4.6,5c-1.1,2.3-1.7,5.5-1.7,9.8c0,5.2,0.8,9.2,2.3,12C49.3,130.4,52.1,131.8,56.4,131.8"/>
		<path class="st2" d="M154.1,120l-1.3-0.1v-18.5h2.4c1.4,0,2.4,0.5,3,1.5c0.6,1,0.9,2.4,0.9,4.4v7.9
			C159.1,118.4,157.4,120,154.1,120 M152.8,91.4V77.3h2.7c1.8,0,2.7,1,2.7,3.1v6.4c0,1.5-0.2,2.6-0.6,3.5c-0.4,0.8-1.1,1.2-2.2,1.2
			H152.8z M140.4,131.2h17.3c5.3,0,9-1.7,11-5.2c2-3.5,3-8.6,3-15.4c0-4.2-0.5-7.5-1.6-10c-1.1-2.5-3-4.1-5.6-4.8
			c4.4-1.2,6.5-4.8,6.5-10.9V82c0-5.1-1.1-8.9-3.2-11.1c-2.1-2.3-5.5-3.4-10.1-3.4h-17.3V131.2z"/>
		<path class="st2" d="M200.7,121.7c-1.4,0-2.3-0.6-2.7-1.7c-0.4-1.2-0.6-2.9-0.6-5.3V91.9c0-1.8,0.2-3.2,0.7-4.2
			c0.4-0.9,1.3-1.4,2.5-1.4c1.1,0,1.9,0.5,2.2,1.4c0.3,0.9,0.5,2.4,0.5,4.3v22.6c0,1.8,0,3.2-0.1,4c-0.1,0.9-0.3,1.6-0.7,2.2
			C202.2,121.4,201.6,121.7,200.7,121.7 M205,131.8c3.9,0,6.7-1.3,8.6-4c1.9-2.7,2.8-6.3,2.8-10.7V90.8c0-4.7-0.9-8.3-2.7-10.8
			c-1.8-2.5-4.8-3.7-9.1-3.7c-2.8,0-5.2,1.1-7.3,3.2V67.1H184v64.1h13.4v-5.8C198.9,129.7,201.5,131.8,205,131.8"/>
		<path class="st2" d="M338.7,131.8c4.6,0,8.3-1.3,11.2-3.8c2.9-2.5,4.3-6,4.3-10.5V108H341l0.1,9.1c0,1.3-0.2,2.4-0.7,3.3
			c-0.5,0.8-1.3,1.3-2.3,1.3c-1,0-1.8-0.4-2.3-1.3c-0.5-0.9-0.8-1.9-0.8-3.2V90.8c0-3,1.1-4.5,3.2-4.5c1.1,0,1.9,0.4,2.3,1.1
			c0.4,0.8,0.6,1.9,0.6,3.3v7.6h13.2v-8.3c0-4.4-1.5-7.7-4.4-10.2c-2.9-2.4-6.7-3.6-11.4-3.6c-4.3,0-7.6,0.7-10,2.2
			c-2.4,1.5-4.1,3.7-5.1,6.6c-1,2.9-1.5,6.8-1.5,11.5v16.8c0,6.2,1.3,10.9,3.9,13.9C328.4,130.3,332.7,131.8,338.7,131.8"/>
		<line style="clip-path:url(#SVGID_4_);fill:none;stroke:#111111;stroke-width:1.484;" x1="0" y1="30.7" x2="363.6" y2="30.7"/>
	</g>
</g>
</svg>
