<?xml version="1.0" encoding="utf-8"?>
<!-- Generator: Adobe Illustrator 24.0.1, SVG Export Plug-In . SVG Version: 6.00 Build 0)  -->
<svg version="1.1" id="Layer_1" xmlns="http://www.w3.org/2000/svg" xmlns:xlink="http://www.w3.org/1999/xlink" x="0px" y="0px"
	 viewBox="0 0 363.6 286.8" style="enable-background:new 0 0 363.6 286.8;" xml:space="preserve">
<style type="text/css">
	.st0{clip-path:url(#SVGID_2_);fill:#111111;}
	.st1{clip-path:url(#SVGID_2_);fill:none;stroke:#111111;stroke-width:1.484;}
	.st2{clip-path:url(#SVGID_4_);fill:#111111;}
	.st3{fill:#111111;}
	.st4{clip-path:url(#SVGID_6_);fill:#111111;}
	.st5{clip-path:url(#SVGID_6_);fill:none;stroke:#111111;stroke-width:1.484;}
	.st6{clip-path:url(#SVGID_8_);fill:#111111;}
	.st7{clip-path:url(#SVGID_8_);fill:none;stroke:#111111;stroke-width:1.484;}
</style>
<g>
	<defs>
		<rect id="SVGID_7_" width="363.6" height="286.8"/>
	</defs>
	<clipPath id="SVGID_2_">
		<use xlink:href="#SVGID_7_"  style="overflow:visible;"/>
	</clipPath>
	<path class="st0" d="M32,89.2c0.2-0.4,0.5-0.8,1-0.8s0.6,0.2,0.9,0.7c0.7,1.3,5.5,12.8,9.6,22.8H22.9C25.8,103.8,29.6,94.4,32,89.2
		 M36.7,74.4c-1.9,0-2.4,1-3.3,2.7c-9.8,20.6-18.8,40.6-21.9,46.5c-1.6,3-2.7,4.7-5.7,5.3c-1.9,0.4-2.2,0.6-2.2,1.4
		c0,1,0.7,1.3,1.9,1.3c2.2,0,3.9-0.4,9.8-0.4c2.5,0,5,0.2,6.5,0.2c1,0,1.4-0.4,1.4-1.1c0-0.6-0.4-1.1-1.3-1.2c-1.9-0.2-3-1.2-3-3.3
		c0-1.4,1.1-5.3,2.7-10.2h23.3c2.3,5.9,4.1,10.7,4.1,11.5c0,1.3-1.5,1.8-2.6,1.9c-0.9,0.1-1.3,0.6-1.3,1.2c0,0.7,0.4,1.1,1.4,1.1
		c1.5,0,3.9-0.2,6.5-0.2c5.9,0,10.9,0.4,12.8,0.4c1.5,0,2.2-0.3,2.2-1.3c0-0.8-0.2-1-2.2-1.4c-3-0.6-4.4-3.2-5.9-6.3
		C54.2,110.8,41.3,80.7,39.8,77C39.1,75.4,38.4,74.4,36.7,74.4"/>
	<path class="st0" d="M228.3,219.7c0-0.4,11.8-17,11.8-17.5c0-0.4-0.3-0.7-0.8-0.7c-0.3,0-1,0.2-4.6,0.2c-3.6,0-8.9-0.2-9.5-0.2
		s-1,0.4-1,1.1c0,1.4-0.7,3.8-0.7,4.2c0,0.3,0.2,0.5,0.5,0.5c0.4,0,0.5-0.3,0.7-0.7c1.2-2.3,2.6-3.4,7.3-3.4c2.2,0,2.7,0.1,2.7,0.4
		c0,0.5-11.8,17.2-11.8,17.6c0,0.4,0.3,0.7,0.8,0.7c0.3,0,1-0.2,4.6-0.2s9.7,0.2,10.4,0.2s1-0.4,1-1.1c0-1.4,0.8-4,0.8-4.5
		c0-0.3-0.2-0.5-0.5-0.5c-0.4,0-0.5,0.3-0.7,0.7c-1.2,2.3-3.6,3.6-8.3,3.6C228.7,220.2,228.3,220,228.3,219.7 M212,212.4
		c0-0.6,2.8-4.5,4.4-6.8c1.3-1.8,2.9-2.4,4.1-2.8c0.7-0.2,0.9-0.3,0.9-0.6c0-0.4-0.3-0.5-0.8-0.5c-0.7,0-1.2,0.3-3.3,0.3
		c-0.9,0-2.4-0.2-3-0.2c-0.3,0-0.5,0.2-0.5,0.4c0,0.5,1.3,0.4,1.3,1.2c0,0.6-1.7,3.9-3.8,6.8c-2-2.9-4.5-6.3-4.5-6.9
		c0-0.7,0.9-0.7,0.9-1.1c0-0.2-0.2-0.4-0.5-0.4c-0.5,0-2.5,0.2-3.4,0.2c-2.1,0-2.9-0.3-3.5-0.3c-0.5,0-0.8,0.1-0.8,0.5
		c0,0.3,0.2,0.4,0.9,0.6c1.3,0.5,2.2,1.6,2.9,2.7c1.3,1.9,4.9,6.6,4.9,7.4v5.9c0,1.1-0.4,2-1.5,2.2c-0.6,0.1-0.8,0.2-0.8,0.5
		c0,0.3,0.2,0.5,0.6,0.5c0.6,0,2.7-0.3,3.5-0.3c0.9,0,2.9,0.3,3.5,0.3c0.4,0,0.6-0.2,0.6-0.5c0-0.3-0.2-0.4-0.8-0.5
		c-1.1-0.2-1.5-1.1-1.5-2.2V212.4z M191.7,205.3c1.5-1.7,2.9-2.1,4.2-2.6c0.7-0.2,0.9-0.3,0.9-0.6c0-0.4-0.3-0.5-0.8-0.5
		c-0.7,0-1.2,0.3-3.3,0.3c-0.9,0-2.4-0.2-3-0.2c-0.3,0-0.5,0.2-0.5,0.4c0,0.5,1.3,0.4,1.3,1.2c0,0.6-1.7,3.1-3.8,6
		c-2.1-2.9-3.9-5.5-3.9-6.1c0-0.7,0.9-0.7,0.9-1.1c0-0.2-0.2-0.4-0.5-0.4c-0.5,0-2.5,0.2-3.4,0.2c-2.1,0-2.9-0.3-3.5-0.3
		c-0.5,0-0.8,0.1-0.8,0.5c0,0.3,0.2,0.4,0.9,0.6c1.3,0.5,2.2,1.7,2.9,2.7c0,0,2.6,3.3,5.2,6.8c-2.3,2.9-4.5,5.6-5.4,6.4
		c-0.9,0.8-2.2,1.8-3.5,2.2c-0.7,0.2-0.9,0.3-0.9,0.6c0,0.4,0.3,0.5,0.8,0.5c0.7,0,1.2-0.3,3.3-0.3c0.9,0,2.2,0.2,2.7,0.2
		c0.3,0,0.5-0.2,0.5-0.4c0-0.5-1.3-0.4-1.3-1.2c0-0.6,2.2-3.7,4.6-6.8c2.3,3.1,4.4,6.1,4.4,6.5c0,1.2-1.3,1.1-1.3,1.5
		c0,0.2,0.2,0.4,0.5,0.4c0.5,0,3.2-0.2,4.1-0.2c2.1,0,3.1,0.3,3.8,0.3c0.5,0,0.8-0.1,0.8-0.5c0-0.3-0.2-0.4-0.9-0.6
		c-1.3-0.5-2.7-1.7-3.4-2.7c0,0-3-3.8-5.7-7.6C189.5,208.1,191.2,205.9,191.7,205.3 M158.3,203.7c-0.3-0.7-0.6-1.8-1.3-1.8
		c-0.6,0-1,1.1-1.3,1.8l-4.8,12.7c-0.1,0.2-0.2,0.3-0.3,0.3c-0.2,0-0.2-0.1-0.3-0.3c-0.4-0.8-4.1-12.3-4.1-13.2
		c0-0.5,0.5-0.6,0.9-0.7c0.3-0.1,0.5-0.2,0.5-0.4c0-0.2-0.2-0.4-0.5-0.4c-0.5,0-1.4,0.1-2.3,0.1c-2.1,0-3.9-0.1-4.6-0.1
		c-0.5,0-0.8,0.1-0.8,0.5c0,0.3,0.1,0.4,0.8,0.5c1.1,0.2,1.7,1.1,2.1,2.3c1.3,4.1,4.6,15.1,5.1,16.4c0.2,0.6,0.8,0.9,1.5,0.9
		c0.7,0,1.3-0.2,1.6-1l5.1-13l5.5,13c0.2,0.6,0.6,0.9,1.5,0.9c0.9,0,1.2-0.4,1.7-1.7c2.6-7.1,5-13.9,6.1-16c0.6-1.1,1-1.7,2.1-1.9
		c0.7-0.1,0.8-0.2,0.8-0.5c0-0.4-0.3-0.5-0.7-0.5c-0.8,0-1.4,0.1-3.5,0.1c-0.9,0-1.8-0.1-2.3-0.1c-0.3,0-0.5,0.2-0.5,0.4
		c0,0.2,0.1,0.4,0.5,0.4c0.7,0.1,1.1,0.4,1.1,1.2c0,1.5-2.4,9.5-3.7,13.2c-0.1,0.2-0.2,0.3-0.3,0.3c-0.2,0-0.2-0.1-0.3-0.3
		L158.3,203.7z M125,222.2c0.7,0,0.9-0.3,1.2-1c3.5-7.4,6.8-14.6,7.9-16.7c0.6-1.1,1-1.7,2.1-1.9c0.7-0.1,0.8-0.2,0.8-0.5
		c0-0.4-0.3-0.5-0.7-0.5c-0.8,0-1.4,0.1-3.5,0.1c-0.9,0-1.8-0.1-2.3-0.1c-0.3,0-0.5,0.2-0.5,0.4c0,0.2,0.1,0.4,0.5,0.4
		c0.7,0.1,1.1,0.4,1.1,1.2c0,1.5-3.2,9.6-4.7,12.9c-0.1,0.2-0.2,0.3-0.3,0.3c-0.2,0-0.2-0.1-0.3-0.3c-0.4-0.8-5.4-12.6-5.4-13.4
		c0-0.5,0.5-0.6,0.9-0.7c0.3-0.1,0.5-0.2,0.5-0.4c0-0.2-0.2-0.4-0.5-0.4c-0.5,0-1.4,0.1-2.3,0.1c-2.1,0-3.9-0.1-4.6-0.1
		c-0.5,0-0.8,0.1-0.8,0.5c0,0.3,0.1,0.4,0.8,0.5c1.1,0.2,1.6,1.1,2.1,2.3c2.1,4.2,6.7,15.1,7.3,16.4
		C124.1,221.9,124.4,222.2,125,222.2 M109.4,213.4c0-0.7,0-5.9,0.2-8.2c0.1-1.2,0.5-2.3,1.8-2.6c0.7-0.2,0.8-0.3,0.8-0.5
		c0-0.3-0.2-0.4-0.6-0.4c-0.8,0-2.2,0.2-2.9,0.2s-2.1-0.2-2.9-0.2c-0.4,0-0.6,0.1-0.6,0.4c0,0.2,0.1,0.3,0.8,0.5
		c1.3,0.3,1.7,1.4,1.8,2.6c0.2,2.3,0.2,8,0.2,8c0,4.6-1.8,7.3-6.1,7.3c-4.1,0-6-3.2-6-7.2v-8.5c0-1.1,0.4-2,1.5-2.2
		c0.6-0.1,0.8-0.2,0.8-0.5c0-0.3-0.2-0.5-0.6-0.5c-0.6,0-2.6,0.3-3.5,0.3c-0.9,0-2.9-0.3-3.5-0.3c-0.4,0-0.6,0.2-0.6,0.5
		c0,0.3,0.2,0.4,0.8,0.5c1.1,0.2,1.5,1.1,1.5,2.2v9.9c0,3.7,2.5,7.4,9,7.4C107.2,222.2,109.4,218.5,109.4,213.4 M76.7,218.7
		c0,1.1-0.4,2-1.5,2.2c-0.6,0.1-0.8,0.2-0.8,0.5c0,0.3,0.2,0.5,0.6,0.5c0.6,0,2.7-0.3,3.5-0.3c0.9,0,2.9,0.3,3.5,0.3
		c0.4,0,0.6-0.2,0.6-0.5c0-0.3-0.2-0.4-0.8-0.5c-1.1-0.2-1.5-1.1-1.5-2.2v-14.4c0-1,0.4-1.1,1.3-1.1c1.5,0,3.5,1.2,4.6,3.4
		c0.2,0.4,0.3,0.7,0.7,0.7c0.2,0,0.5-0.2,0.5-0.5c0-0.4-0.7-2.8-0.7-4.2c0-0.7-0.3-1.1-1-1.1c-0.6,0-5.2,0.3-7.3,0.3
		c-2.2,0-6.7-0.3-7.3-0.3c-0.7,0-1,0.4-1,1.1c0,1.4-0.7,3.8-0.7,4.2c0,0.3,0.2,0.5,0.5,0.5c0.4,0,0.5-0.3,0.7-0.7
		c1.2-2.3,3.2-3.4,4.6-3.4c0.8,0,1.3,0.1,1.3,1.1V218.7z M58.3,202.9c3.1,0,4.5,1.3,5.7,3.5c0.2,0.4,0.4,0.9,0.8,0.9
		c0.2,0,0.5-0.1,0.5-0.5c0-0.4-0.3-2.9-0.3-4.2c0-0.7-0.2-1-0.6-1c-0.4,0-0.9,0.2-1.6,0.2c-0.7,0-1.7-0.6-4.3-0.6
		c-2.6,0-7.1,1.2-7.1,5.7c0,5.8,12,5.1,12,10.4c0,1.4-1.3,3.2-4,3.2c-3.1,0-5.5-1.8-6.5-4.8c-0.2-0.5-0.3-0.9-0.7-0.9
		c-0.2,0-0.5,0.1-0.5,0.5c0,0.2,0.1,1.1,0.1,2.2c0,0.7-0.2,1.8-0.2,2.3c0,0.7,0.2,0.9,0.6,0.9s1.1,0,1.7,0.2c1,0.2,2.8,1.2,5.3,1.2
		c3.9,0,7.6-2.5,7.6-6.8c0-6-11.6-5.9-11.6-10.2C55.1,203.8,56.4,202.9,58.3,202.9 M34.8,204.2c0-0.8,0.7-1.3,3.1-1.3
		c3.4,0,4.9,1.5,4.9,4.1c0,2.9-1.6,4.4-3.4,4.8c-1.5,0.4-2,0.4-3.6,0.4c-0.7,0-0.9-0.2-0.9-0.9V204.2z M35.4,213.8
		c0.5,0,1.1,0,1.7,0c1.3,0.6,2.2,2.8,4.3,6c1.3,2,3.6,2.2,5.4,2.2c1.8,0,2.4-0.3,2.4-0.7c0-0.3-0.2-0.4-0.5-0.5
		c-2.5-0.4-4.1-2.9-5.7-5.3c-0.9-1.4-1.8-2-2.5-2.1c0.4-0.1,0.8-0.2,1.2-0.3c2.8-0.9,4.9-2.8,4.9-5.9c0-3.7-2.8-5.5-6.6-5.5
		c-1.8,0-4.5,0.3-7.2,0.3c-0.9,0-2.9-0.3-3.5-0.3c-0.4,0-0.6,0.2-0.6,0.5c0,0.3,0.2,0.4,0.8,0.5c1.1,0.2,1.5,1.1,1.5,2.2v13.9
		c0,1.1-0.4,2-1.5,2.2c-0.6,0.1-0.8,0.2-0.8,0.5c0,0.3,0.2,0.5,0.6,0.5c0.6,0,2.7-0.3,3.5-0.3s2.9,0.3,3.5,0.3
		c0.4,0,0.6-0.2,0.6-0.5c0-0.3-0.2-0.4-0.8-0.5c-1.1-0.2-1.5-1.1-1.5-2.2v-4C34.8,214.1,34.9,213.8,35.4,213.8 M6.1,211.8
		c0-5.4,3.5-9,7.4-9c3.9,0,7.4,3.6,7.4,9c0,5.4-3.5,8.9-7.4,8.9C9.6,220.7,6.1,217.2,6.1,211.8 M1.7,211.8c0,5.6,3.5,9.2,8.7,10.2
		c-2.1,0.5-2.9,1.7-2.9,2.6c0,0.8,0.5,1.5,1.6,1.5s1.8-0.8,1.8-2c0-0.7-0.1-1.7,1.1-1.7c1.8,0,3.6,5.3,7.4,5.3
		c2.9,0,4.9-2.9,4.9-3.2s-0.2-0.5-0.4-0.5c-0.4,0-0.6,0.6-2.2,0.6c-3.1,0-4.4-1.6-6.8-2.4c6-0.5,10.2-4.3,10.2-10.4
		c0-6.5-5-10.4-11.8-10.4C6.7,201.4,1.7,205.3,1.7,211.8"/>
	<path class="st0" d="M350.9,172.2c0-0.8,0.7-1.3,3.1-1.3c3.4,0,4.9,1.5,4.9,4.5c0,2.5-1.5,4.5-3.3,4.9c-1.5,0.4-2.2,0.4-3.8,0.4
		c-0.7,0-0.9-0.2-0.9-0.9V172.2z M351.5,182.1c1.7,0,3.6,0,5.8-0.6c3.4-0.9,5.5-3,5.5-6.2c0-3.7-2.8-5.8-6.6-5.8
		c-1.8,0-4.5,0.3-7.2,0.3c-0.9,0-2.9-0.3-3.5-0.3c-0.4,0-0.6,0.2-0.6,0.5c0,0.3,0.2,0.4,0.8,0.5c1.1,0.2,1.5,1.1,1.5,2.2v13.9
		c0,1.1-0.4,2-1.5,2.2c-0.6,0.1-0.8,0.2-0.8,0.5c0,0.3,0.2,0.5,0.6,0.5c0.6,0,2.7-0.3,3.5-0.3c0.9,0,2.9,0.3,3.5,0.3
		c0.4,0,0.6-0.2,0.6-0.5c0-0.3-0.2-0.4-0.8-0.5c-1.1-0.2-1.5-1.1-1.5-2.2V183C350.9,182.5,351,182.1,351.5,182.1 M323.3,179.7
		c0-5.4,3.5-9,7.4-9c3.9,0,7.4,3.6,7.4,9c0,5.4-3.5,8.9-7.4,8.9C326.8,188.6,323.3,185.1,323.3,179.7 M319,179.8
		c0,6.6,5,10.4,11.7,10.4c6.8,0,11.8-3.9,11.8-10.4c0-6.5-5-10.4-11.8-10.4C323.9,169.3,319,173.2,319,179.8 M312.4,184.3
		c0,0-10.2-11.7-11.4-13.5c-0.6-0.9-0.7-1.1-1.4-1.1c-0.6,0-1.2,0.1-2.3,0.1c-0.6,0-1.8-0.3-2.4-0.3c-0.4,0-0.6,0.2-0.6,0.5
		c0,0.3,0.2,0.4,0.8,0.5c1.1,0.2,1.5,0.8,1.5,1.9c0,1.1,0.1,11.5-0.1,13.8c-0.1,1.2-0.5,2.3-1.8,2.6c-0.7,0.2-0.8,0.3-0.8,0.5
		c0,0.3,0.2,0.4,0.6,0.4c0.8,0,2.2-0.2,2.9-0.2c0.7,0,2.1,0.2,2.9,0.2c0.4,0,0.6-0.1,0.6-0.4c0-0.2-0.1-0.3-0.8-0.5
		c-1.3-0.3-1.7-1.4-1.8-2.6c-0.2-2.3-0.2-12.2-0.2-12.2s12.7,14.4,13.4,15.2c0.5,0.5,0.8,0.9,1.5,0.9c1,0,1-1.1,1-1.7
		c0-1.4,0-13,0.2-15.3c0.1-1.2,0.5-2.3,1.8-2.6c0.7-0.2,0.8-0.3,0.8-0.5c0-0.3-0.2-0.4-0.6-0.4c-0.8,0-2.2,0.2-2.9,0.2
		s-2.1-0.2-2.9-0.2c-0.4,0-0.6,0.1-0.6,0.4c0,0.2,0.1,0.3,0.8,0.5c1.3,0.3,1.7,1.4,1.8,2.6C312.4,175.5,312.4,184.3,312.4,184.3
		 M277.5,186.2c0,0-5.9-13.3-6.6-15.4c-0.3-0.9-0.3-1.1-0.9-1.1c-0.6,0-1.7,0.1-2.8,0.1c-0.6,0-1.8-0.3-2.4-0.3
		c-0.4,0-0.6,0.2-0.6,0.5c0,0.3,0.2,0.4,0.8,0.5c1.1,0.2,1.5,0.8,1.5,1.9c0,1.1-0.9,12.2-1.2,14.3c-0.2,1.2-0.5,1.9-1.5,2.1
		c-0.7,0.1-0.8,0.3-0.8,0.5c0,0.3,0.2,0.4,0.6,0.4c0.8,0,1.5-0.1,2.2-0.1c0.6,0,1.5,0.1,2,0.1c0.3,0,0.5-0.2,0.5-0.4
		c0-0.2-0.1-0.4-0.5-0.4c-0.7-0.1-1.2-0.6-1.3-1.4c-0.2-2.5,1-13.3,1-13.3s6.3,13.6,6.7,14.4c0.4,0.7,0.6,1.2,1.8,1.2
		c1.1,0,1.4-0.4,1.8-1.2c0.5-1.2,6.5-15.3,6.5-15.3s1.2,12.7,1.2,13.2c0,1.1-0.4,2-1.5,2.2c-0.6,0.1-0.8,0.2-0.8,0.5
		c0,0.3,0.2,0.5,0.6,0.5c0.6,0,2.6-0.3,3.5-0.3s2.9,0.3,3.5,0.3c0.4,0,0.6-0.2,0.6-0.5c0-0.3-0.2-0.4-0.8-0.5
		c-1.1-0.2-1.4-1.1-1.5-2.2c-0.2-1.2-1.2-13.1-1.2-14.2c0-1.1,0.1-1.7,1.1-1.9c0.6-0.1,0.8-0.2,0.8-0.5c0-0.3-0.2-0.5-0.6-0.5
		c-0.6,0-1.9,0.3-2.4,0.3c-1.1,0-1.6-0.1-2.3-0.1c-0.6,0-0.7,0.9-1.3,2.1C282.1,175.3,277.5,186.2,277.5,186.2 M249.5,172.8
		c0-1.1,0.4-2,1.5-2.2c0.6-0.1,0.8-0.2,0.8-0.5c0-0.3-0.2-0.5-0.6-0.5c-0.6,0-2.6,0.3-3.5,0.3s-2.9-0.3-3.5-0.3
		c-0.4,0-0.6,0.2-0.6,0.5c0,0.3,0.2,0.4,0.8,0.5c1.1,0.2,1.5,1.1,1.5,2.2v13.9c0,1.1-0.4,2-1.5,2.2c-0.7,0.1-0.8,0.2-0.8,0.5
		c0,0.4,0.3,0.5,0.7,0.5c0.6,0,2.3-0.3,3.2-0.3c8.7,0,10.7,0.3,11.4,0.3c0.7,0,1-0.4,1-1.1c0-1.4,1.3-4.4,1.3-4.9
		c0-0.3-0.2-0.6-0.4-0.6c-0.3,0-0.5,0.2-0.8,0.7c-1.3,2.1-2.5,3.2-4.3,3.7c-2,0.6-3.1,0.6-4.7,0.6c-0.7,0-1.4-0.4-1.4-1.1V172.8z
		 M231.3,186.5c0.7,1,1.1,1.6,1.1,1.9c0,0.3-0.3,0.5-0.9,0.6c-0.3,0-0.5,0.2-0.5,0.4c0,0.2,0.2,0.4,0.5,0.4c0.5,0,3.5-0.1,4.4-0.1
		c2.1,0,2.7,0.1,3.5,0.1c0.4,0,0.7-0.1,0.7-0.5c0-0.3-0.1-0.4-0.8-0.5c-1.1-0.2-1.9-0.9-3-2.1c-0.5-0.6-6.8-8.9-6.8-9.2
		c0-0.3,3.8-4,5.3-5.3c1.5-1.3,2.2-1.5,3.3-1.7c0.7-0.1,0.8-0.2,0.8-0.5c0-0.4-0.3-0.5-0.7-0.5c-0.8,0-1.4,0.1-3.5,0.1
		c-0.9,0-2.3-0.1-2.9-0.1c-0.3,0-0.5,0.2-0.5,0.4c0,0.2,0.1,0.4,0.5,0.4c0.7,0.1,0.9,0.2,0.9,0.6c0,0.3-0.3,0.9-1.1,1.9
		c-0.7,1-4.5,5-6.6,6.6v-6.7c0-1.1,0.4-2,1.5-2.2c0.6-0.1,0.8-0.2,0.8-0.5c0-0.3-0.2-0.5-0.6-0.5c-0.6,0-2.6,0.3-3.5,0.3
		c-0.9,0-2.9-0.3-3.5-0.3c-0.4,0-0.6,0.2-0.6,0.5c0,0.3,0.2,0.4,0.8,0.5c1.1,0.2,1.5,1.1,1.5,2.2v13.9c0,1.1-0.4,2-1.5,2.2
		c-0.6,0.1-0.8,0.2-0.8,0.5c0,0.3,0.2,0.5,0.6,0.5c0.6,0,2.7-0.3,3.5-0.3c0.9,0,2.9,0.3,3.5,0.3c0.4,0,0.6-0.2,0.6-0.5
		c0-0.3-0.2-0.4-0.8-0.5c-1.1-0.2-1.5-1.1-1.5-2.2v-5.3c0.4-0.4,1.1-1,1.4-1C227,180.3,231.3,186.5,231.3,186.5 M209.4,182.9
		c0,3.3-0.3,6-2.3,6c-0.8,0-1.2-0.5-1.2-1.1c0-0.6,0.4-0.9,0.4-1.9c0-0.8-0.7-1.4-1.8-1.4c-1.1,0-2.2,0.8-2.2,2.3
		c0,1.8,1.8,3.3,4.5,3.3c4,0,6.4-2.3,6.4-7.2v-10.2c0-1.1,0.4-2,1.5-2.2c0.6-0.1,0.8-0.2,0.8-0.5c0-0.3-0.2-0.5-0.6-0.5
		c-0.6,0-2.6,0.3-3.5,0.3s-2.9-0.3-3.5-0.3c-0.4,0-0.6,0.2-0.6,0.5c0,0.3,0.2,0.4,0.8,0.5c1.1,0.2,1.5,1.1,1.5,2.2V182.9z
		 M193.5,186.7c0,1.1-0.4,2-1.5,2.2c-0.6,0.1-0.8,0.2-0.8,0.5c0,0.3,0.2,0.5,0.6,0.5c0.6,0,2.7-0.3,3.5-0.3c0.9,0,2.9,0.3,3.5,0.3
		c0.4,0,0.6-0.2,0.6-0.5c0-0.3-0.2-0.4-0.8-0.5c-1.1-0.2-1.5-1.1-1.5-2.2v-13.9c0-1.1,0.4-2,1.5-2.2c0.6-0.1,0.8-0.2,0.8-0.5
		c0-0.3-0.2-0.5-0.6-0.5c-0.6,0-2.6,0.3-3.5,0.3c-0.9,0-2.9-0.3-3.5-0.3c-0.4,0-0.6,0.2-0.6,0.5c0,0.3,0.2,0.4,0.8,0.5
		c1.1,0.2,1.5,1.1,1.5,2.2V186.7z M181.3,186.7c0,1.1-0.4,2-1.5,2.2c-0.6,0.1-0.8,0.2-0.8,0.5c0,0.3,0.2,0.5,0.6,0.5
		c0.6,0,2.7-0.3,3.5-0.3s2.9,0.3,3.5,0.3c0.4,0,0.6-0.2,0.6-0.5c0-0.3-0.2-0.4-0.8-0.5c-1.1-0.2-1.5-1.1-1.5-2.2v-13.9
		c0-1.1,0.4-2,1.5-2.2c0.6-0.1,0.8-0.2,0.8-0.5c0-0.3-0.2-0.5-0.6-0.5c-0.6,0-2.6,0.3-3.5,0.3s-2.9-0.3-3.5-0.3
		c-0.4,0-0.6,0.2-0.6,0.5c0,0.3,0.2,0.4,0.8,0.5c1.1,0.2,1.5,1.1,1.5,2.2v6.3h-11.5v-6.3c0-1.1,0.4-2,1.5-2.2
		c0.6-0.1,0.8-0.2,0.8-0.5c0-0.3-0.2-0.5-0.6-0.5c-0.6,0-2.6,0.3-3.5,0.3c-0.9,0-2.9-0.3-3.5-0.3c-0.4,0-0.6,0.2-0.6,0.5
		c0,0.3,0.2,0.4,0.8,0.5c1.1,0.2,1.5,1.1,1.5,2.2v13.9c0,1.1-0.4,2-1.5,2.2c-0.6,0.1-0.8,0.2-0.8,0.5c0,0.3,0.2,0.5,0.6,0.5
		c0.6,0,2.7-0.3,3.5-0.3c0.9,0,2.9,0.3,3.5,0.3c0.4,0,0.6-0.2,0.6-0.5c0-0.3-0.2-0.4-0.8-0.5c-1.1-0.2-1.5-1.1-1.5-2.2v-6.2h11.5
		V186.7z M161.1,180.5c0.6-0.1,0.8-0.2,0.8-0.5c0-0.3-0.2-0.5-0.6-0.5c-0.6,0-2.6,0.3-3.5,0.3s-2.9-0.3-3.5-0.3
		c-0.4,0-0.6,0.2-0.6,0.5c0,0.3,0.2,0.4,0.8,0.5c1.1,0.2,1.5,1.1,1.5,2.2v3.1c0,1.1-0.2,2.5-3.8,2.5c-3.3,0-7.7-2.1-7.7-7.9
		c0-7.5,4-9.5,7.6-9.5c3.1,0,4.5,1.3,5.7,3.5c0.2,0.4,0.4,0.9,0.8,0.9c0.2,0,0.5-0.1,0.5-0.5c0-0.4-0.3-2.9-0.3-4.2
		c0-0.7-0.2-1-0.6-1c-0.4,0-0.9,0.2-1.6,0.2c-0.7,0-1.7-0.6-4.3-0.6c-5.4,0-12.5,2.8-12.5,11c0,7.8,6.5,9.8,11,9.8
		c4.9,0,6.6-2.2,8.2-2.2c0.6,0,1-0.1,1-0.7c0-0.5-0.2-0.6-0.2-1.4v-3.1C159.6,181.6,160,180.7,161.1,180.5 M125.8,181.2
		c0-0.8,0.5-1.1,3.5-1.1c1.1,0,1.7,0.2,2.6,0.8c0.9,0.6,1.3,1.8,1.7,1.8c0.2,0,0.4-0.2,0.4-0.6c0-0.4-0.4-1.7-0.4-3s0.3-2.1,0.3-2.4
		c0-0.3-0.2-0.5-0.4-0.5c-0.4,0-0.7,1-1.9,1.7c-1.6,0.9-3.3,0.7-4.9,0.7c-0.7,0-0.9-0.2-0.9-0.9v-5.7c0-0.8,0.7-1.3,3.1-1.3
		c4.7,0,6.1,1.5,7.3,3.7c0.2,0.4,0.3,0.7,0.7,0.7c0.2,0,0.5-0.2,0.5-0.5c0-0.4-0.7-2.8-0.7-4.2c0-0.7-0.3-1.1-1-1.1
		c-0.7,0-1.6,0.2-10.3,0.2c-2.7,0-4.6-0.1-5-0.1c-0.4,0-0.7,0.1-0.7,0.5c0,0.3,0.1,0.4,0.8,0.5c1.1,0.2,1.5,1.1,1.5,2.2v13.9
		c0,1.1-0.4,2-1.5,2.2c-0.6,0.1-0.8,0.2-0.8,0.5c0,0.3,0.2,0.5,0.6,0.5c0.6,0,2.7-0.3,3.5-0.3c0.9,0,2.9,0.3,3.5,0.3
		c0.4,0,0.6-0.2,0.6-0.5c0-0.3-0.2-0.4-0.8-0.5c-1.1-0.2-1.5-1.1-1.5-2.2V181.2z M107.5,180.4c1.1,0,1.7,0,2.6,0.6
		c0.9,0.6,1.3,1.8,1.7,1.8c0.2,0,0.4-0.2,0.4-0.6c0-0.4-0.4-1.7-0.4-3s0.3-2.1,0.3-2.4c0-0.3-0.2-0.5-0.4-0.5c-0.4,0-0.7,1-1.9,1.7
		c-1.6,0.9-4.2,0.7-5.8,0.7c-0.7,0-0.9-0.2-0.9-0.9v-5.7c0-0.8,0.7-1.3,3.1-1.3c4.7,0,6.4,1.5,7.5,3.7c0.2,0.4,0.3,0.7,0.7,0.7
		c0.2,0,0.5-0.2,0.5-0.5c0-0.4-0.7-2.8-0.7-4.2c0-0.7-0.3-1.1-1-1.1c-0.7,0-1.8,0.2-10.6,0.2c-2.7,0-4.6-0.1-5-0.1
		c-0.4,0-0.7,0.1-0.7,0.5c0,0.3,0.1,0.4,0.8,0.5c1.1,0.2,1.5,1.1,1.5,2.2v13.9c0,1.1-0.4,2-1.5,2.2c-0.7,0.1-0.8,0.2-0.8,0.5
		c0,0.4,0.3,0.5,0.7,0.5c0.6,0,2.4-0.3,3.2-0.3c8.7,0,12.2,0.3,12.9,0.3c0.7,0,1-0.4,1-1.1c0-1.4,1.3-4.4,1.3-4.9
		c0-0.3-0.2-0.6-0.4-0.6c-0.3,0-0.5,0.2-0.8,0.7c-1.3,2.1-2.6,3.4-4.5,3.8s-5.7,0.5-6,0.5c-0.7,0-1.4-0.4-1.4-1.1v-6
		C103.1,180.4,103.8,180.4,107.5,180.4 M90,179.1c0,5.4-2,9.2-7.6,9.2H80c-0.7,0-1-0.4-1-1.1v-15c0-0.8,0.7-1.3,3.1-1.3
		C86.8,170.9,90,173.1,90,179.1 M73.6,189.9c0.6,0,2.4-0.3,3.2-0.3c0.9,0,4,0.3,6.2,0.3c8,0,11.2-4.8,11.2-10.8
		c0-6.9-5.3-9.5-9.9-9.5c-1.8,0-3,0.1-5.7,0.1c-2.7,0-4.6-0.1-5-0.1c-0.4,0-0.7,0.1-0.7,0.5c0,0.3,0.1,0.4,0.8,0.5
		c1.1,0.2,1.5,1.1,1.5,2.2v13.9c0,1.1-0.4,2-1.5,2.2c-0.7,0.1-0.8,0.2-0.8,0.5C72.9,189.8,73.2,189.9,73.6,189.9 M68.3,169.7
		c-0.4,0-0.9,0.2-1.6,0.2c-0.7,0-1.7-0.6-4.3-0.6c-5.4,0-12.5,2.8-12.5,11c0,7.3,6.5,9.8,11,9.8c7.4,0,10.1-4.6,10.1-5.1
		c0-0.5-0.6-0.8-0.9-0.8c-0.4,0-2.3,4.1-7.7,4.1c-3.3,0-7.7-2.1-7.7-7.9c0-7.5,4-9.5,7.6-9.5c3.1,0,4.5,1.3,5.7,3.5
		c0.2,0.4,0.4,0.9,0.8,0.9c0.2,0,0.5-0.1,0.5-0.5c0-0.4-0.3-2.9-0.3-4.2C68.9,169.9,68.7,169.7,68.3,169.7 M33.6,181
		c0-0.8,0.7-1.1,4.4-1.1c3.5,0,5.2,1.3,5.2,4.1c0,2.1-1.3,4.4-4.6,4.4h-4c-0.7,0-1-0.4-1-1.1V181z M33.6,172.2
		c0-0.8,0.7-1.3,3.1-1.3c3,0,4.6,1.3,4.6,3.7c0,1.8-0.7,3.2-2.5,3.7c-1.5,0.4-2.7,0.3-4.3,0.3c-0.7,0-0.9-0.2-0.9-0.9V172.2z
		 M28.2,189.9c0.6,0,2.4-0.3,3.2-0.3c0.9,0,4,0.3,7.1,0.3c5.6,0,8.6-2.1,8.6-6.4c0-4.6-5.5-4.9-5.5-4.9s3.5-1.4,3.5-4.6
		c0-2.7-2.5-4.4-6.2-4.4c-1.8,0-3,0.1-5.7,0.1c-2.7,0-4.6-0.1-5-0.1c-0.4,0-0.7,0.1-0.7,0.5c0,0.3,0.1,0.4,0.8,0.5
		c1.1,0.2,1.5,1.1,1.5,2.2v13.9c0,1.1-0.4,2-1.5,2.2c-0.7,0.1-0.8,0.2-0.8,0.5C27.6,189.8,27.8,189.9,28.2,189.9 M11.5,174.6
		c0.1-0.2,0.2-0.3,0.3-0.3c0.2,0,0.2,0.1,0.3,0.3c0.2,0.5,2,4.6,3.4,8.2H8.3C9.3,179.9,10.7,176.5,11.5,174.6 M13.2,169.3
		c-0.7,0-0.9,0.3-1.2,1c-3.5,7.4-6.8,14.6-7.9,16.7c-0.6,1.1-1,1.7-2.1,1.9c-0.7,0.1-0.8,0.2-0.8,0.5c0,0.4,0.3,0.5,0.7,0.5
		c0.8,0,1.4-0.1,3.5-0.1c0.9,0,1.8,0.1,2.3,0.1c0.3,0,0.5-0.2,0.5-0.4c0-0.2-0.1-0.4-0.5-0.4c-0.7-0.1-1.1-0.4-1.1-1.2
		c0-0.5,0.4-1.9,1-3.7h8.4c0.8,2.1,1.5,3.8,1.5,4.1c0,0.5-0.5,0.6-0.9,0.7c-0.3,0.1-0.5,0.2-0.5,0.4c0,0.2,0.2,0.4,0.5,0.4
		c0.5,0,1.4-0.1,2.3-0.1c2.1,0,3.9,0.1,4.6,0.1c0.5,0,0.8-0.1,0.8-0.5c0-0.3-0.1-0.4-0.8-0.5c-1.1-0.2-1.6-1.1-2.1-2.3
		c-2.1-4.2-6.7-15.1-7.3-16.4C14.1,169.7,13.8,169.3,13.2,169.3"/>
	<path class="st0" d="M170,277.2c0-5,2.2-8.1,5.3-8.1c3.1,0,5.3,3.1,5.3,8.1c0,5-2.2,8.1-5.3,8.1C172.3,285.4,170,282.3,170,277.2
		 M165.8,277.3c0,5.8,4.4,9.5,9.5,9.5c5.1,0,9.5-3.7,9.5-9.5c0-5.8-4.4-9.5-9.5-9.5C170.2,267.8,165.8,271.5,165.8,277.3
		 M152.3,279.5c-2.6,0-3.7-1.4-3.7-4.8s1.7-5.8,4.2-5.8c2.5,0,3.8,2,3.8,5.5C156.7,277.9,154.3,279.5,152.3,279.5 M156.6,278.9
		c0,3.3-1.6,6.3-4.6,6.3c-2.6,0-3.3-2.5-3.9-2.5c-0.5,0-1.6,0.7-1.6,1.3c0,0.6,1.7,2.5,5.4,2.5c4.5,0,8.7-3.3,8.7-11.1
		c0-5.7-3.6-7.9-7.6-7.9c-4.9,0-8.1,3.1-8.1,7.3c0,4.2,3.6,6.2,6.7,6.2C154.8,281.1,156.6,278.9,156.6,278.9 M133,268.8
		c2.1,0,3.1,1.1,3.1,2.9c0,1.8-1.7,3.6-1.7,3.6s-4.8-0.8-4.8-3.8C129.6,269.6,131,268.8,133,268.8 M131,276.9c0,0,5.6,1,5.6,4.7
		c0,2.1-1.3,3.7-4,3.7c-2.6,0-3.7-1.6-3.7-3.9C128.9,278.2,131,276.9,131,276.9 M133.2,267.6c-4.3,0-7.1,2.2-7.1,4.8
		c0,2.6,3.5,3.9,3.7,4c-0.2,0.1-4.7,1.9-4.7,5.2c0,3.2,3,5,7.2,5c4.4,0,7.6-2.1,7.6-5.9c0-3.5-4.2-4.8-4.2-4.8s3.5-1.7,3.5-4.1
		S137.1,267.6,133.2,267.6 M117.2,270.9c0,0-1.1,1.8-3.8,6.7c-2.8,4.9-4.6,8-4.6,8.5c0,0.3,0.2,0.4,0.5,0.4c0.5,0,2.4-0.2,3.1-0.2
		c0.3,0,0.5-0.2,0.6-0.6c0.4-1.2,1-3.3,2.7-7.2c2.4-5.5,4.8-9.2,4.8-9.9c0-0.3-0.3-0.5-0.7-0.5c-8.1,0-9.1-0.2-9.9-0.2
		c-0.8,0-1.8,3.5-1.8,3.8c0,0.3,0.1,0.4,0.3,0.4c0.4,0,0.8-1.4,4.9-1.4C116.9,270.8,117.2,270.9,117.2,270.9 M96.1,274.6
		c2.6,0,3.7,1.4,3.7,4.8c0,3.4-1.7,5.8-4.2,5.8c-2.5,0-3.8-2-3.8-5.5C91.8,276.2,94.2,274.6,96.1,274.6 M91.9,275.2
		c0-3.3,1.6-6.3,4.6-6.3c2.6,0,3.3,2.5,3.9,2.5c0.5,0,1.6-0.7,1.6-1.3c0-0.6-1.7-2.5-5.4-2.5c-4.5,0-8.7,3.3-8.7,11.1
		c0,5.7,3.6,7.9,7.6,7.9c4.9,0,8.1-3.1,8.1-7.3c0-4.2-3.6-6.2-6.7-6.2C93.7,273,91.9,275.2,91.9,275.2 M77.4,273.2
		c-2.9,0-4.2,1.9-4.5,1.9c-0.1,0-0.2-0.1-0.2-0.3c0-0.3,0.3-2.9,0.5-3.4c0.1-0.3,0.1-0.5,0.6-0.5c0.5,0,5.7,0.1,6.5,0.1
		c0.8,0,1.5-2.7,1.5-3c0-0.3-0.1-0.4-0.3-0.4c-0.4,0-0.9,0.6-3.9,0.6c-3.6,0-4.3-0.3-4.8-0.3c-0.4,0-1.1,0.8-1.2,1.2
		c-0.4,2.8-0.9,6.3-0.9,6.7s1.3,1.4,1.7,1.4c0.5,0,2-2.3,3.7-2.3c2.5,0,3.7,1.9,3.7,4.7s-1.4,5.5-4,5.5c-2.8,0-3.7-3.3-4.3-3.3
		c-0.5,0-1.7,1.1-1.7,1.7c0,0.6,1.9,3,5.9,3c4.1,0,7.6-3.3,7.6-7C83.2,275.2,80.5,273.2,77.4,273.2 M52.9,278.4
		c0-0.1,0.1-0.1,0.1-0.2c0.8-1,5.4-6,5.7-6.3c0.1-0.2,0.2-0.3,0.4-0.3c0.1,0,0.2,0.1,0.2,0.3v6.6H53
		C52.9,278.5,52.9,278.4,52.9,278.4 M59.2,283.2c0,1.1-0.4,2-1.5,2.2c-0.6,0.1-0.8,0.2-0.8,0.5c0,0.3,0.2,0.5,0.6,0.5
		c0.6,0,2.7-0.3,3.5-0.3s2.9,0.3,3.5,0.3c0.4,0,0.6-0.2,0.6-0.5c0-0.3-0.2-0.4-0.8-0.5c-1.1-0.2-1.5-1.1-1.5-2.2v-14.7
		c0-0.5-0.5-0.7-0.9-0.7c-0.8,0-2.2,0.2-2.8,0.9c-0.9,1.1-7.9,8.6-8.3,9c-0.4,0.4-0.8,0.8-0.8,1.3s0.2,0.9,0.7,0.9h8.2V283.2z
		 M41.1,271.4c0,3-4.8,3.8-4.8,4.5s0.6,1.7,1.2,1.7c0.6,0,1.2-1.2,2.4-1.2c1.2,0,2.5,0.6,2.5,3.4c0,2.8-1.5,5.6-4,5.6
		c-3.1,0-3.7-3.3-4.2-3.3c-0.5,0-1.9,0.9-1.9,1.5c0,0.6,1.9,3,5.9,3c4.1,0,8.1-3,8.1-6.5c0-4.6-5-5.2-5-5.2s3.5-1.3,3.5-3.9
		c0-2.3-2.6-3.3-5.6-3.3c-2.6,0-4.8,0.9-5.3,1.7c-0.3,0.5-0.5,1.9-0.5,3.2c0,0.4,0.3,0.6,0.6,0.6c0.3,0,0.4-0.2,0.6-0.5
		c0.9-1.8,2.6-3.7,4.5-3.7C40.5,269.2,41.1,270,41.1,271.4 M24.3,272.2c0,4.6-4.2,8.4-8.4,11.9c-0.9,0.8-1.4,1.1-1.4,1.4
		c0,0.4,0.2,0.8,0.5,0.8c0.3,0,0.9-0.1,3.5-0.1s6.2,0.3,6.8,0.3c0.6,0,0.9-0.4,1.2-1.1c0.3-0.7,1.5-2.2,1.5-2.6
		c0-0.2-0.2-0.4-0.4-0.4c-0.3,0-1.3,0.9-2.6,1.1c-1.5,0.3-4.4,0.4-6.4,0.4c2.9-2.9,9.5-6,9.5-11.5c0-2.8-2.7-4.7-6.7-4.7
		c-2.6,0-4.8,0.9-5.3,1.7c-0.3,0.5-0.5,2.2-0.5,3.5c0,0.4,0.3,0.6,0.6,0.6s0.4-0.2,0.6-0.5c0.7-1.5,2.2-4,4.5-4
		C23.2,269.2,24.3,270.1,24.3,272.2 M3.5,283.2c0,1.1-0.4,2-1.5,2.2c-0.6,0.1-0.8,0.2-0.8,0.5c0,0.3,0.2,0.5,0.6,0.5
		c0.6,0,2.7-0.3,3.5-0.3s2.9,0.3,3.5,0.3c0.4,0,0.6-0.2,0.6-0.5c0-0.3-0.2-0.4-0.8-0.5c-1.1-0.2-1.5-1.1-1.5-2.2V269
		c0-0.5-0.5-1-1-1c-0.7,0-1,0.4-2.3,1c-1.3,0.6-2.5,0.9-2.5,1.5c0,0.3,0.2,0.6,0.6,0.6c0.3,0,1-0.3,1.3-0.3c0.2,0,0.3,0.1,0.3,0.3
		V283.2z"/>
	<path class="st0" d="M353.4,75.4c-1,0-2.5,0.7-4.4,0.7c-1.9,0-4.8-1.6-12-1.6c-14.9,0-34.7,7.6-34.7,30.6
		c0,20.2,18.1,27.3,30.5,27.3c20.6,0,28-12.9,28-14.2c0-1.3-1.6-2.3-2.6-2.3c-1,0-6.5,11.5-21.5,11.5c-9.3,0-21.4-5.7-21.4-22
		c0-20.9,11.2-26.5,21.1-26.5c8.5,0,12.5,3.5,15.8,9.8c0.6,1.2,1.2,2.6,2.3,2.6c0.7,0,1.4-0.3,1.4-1.3c0-1.2-1-7.9-1-11.7
		C355.1,76.2,354.4,75.4,353.4,75.4"/>
	<path class="st0" d="M172,106.8c0-2.2,1.9-3,12.1-3c9.8,0,14.5,3.6,14.5,11.5c0,5.8-3.7,12.1-12.8,12.1h-11c-1.9,0-2.8-1.2-2.8-3.2
		V106.8z M172,82.5c0-2.2,1.9-3.7,8.5-3.7c8.5,0,12.9,3.6,12.9,10.2c0,4.9-2,8.9-7,10.2c-4.2,1-7.5,1-11.9,1c-1.9,0-2.4-0.4-2.4-2.4
		V82.5z M157.1,131.6c1.8,0,6.5-0.7,8.9-0.7c2.4,0,11,0.7,19.6,0.7c15.7,0,23.9-5.9,23.9-17.8c0-12.9-15.2-13.7-15.2-13.7
		s9.7-3.9,9.7-12.8c0-7.5-6.8-12.1-17.3-12.1c-5.1,0-8.2,0.4-15.7,0.4c-7.5,0-12.8-0.4-13.9-0.4c-1.1,0-1.9,0.3-1.9,1.3
		c0,0.8,0.2,1,2.2,1.4c3,0.6,4.2,3.2,4.2,6.2v38.6c0,3-1.2,5.6-4.2,6.2c-1.9,0.4-2.2,0.6-2.2,1.4C155.3,131.3,156,131.6,157.1,131.6
		"/>
	<path class="st0" d="M136.5,14.7h2.9V8.6h4.6V6.3h-4.6V2.6h6V0.2h-9V14.7z M130.7,14.7h2.9V0.2h-2.9V14.7z M117.4,0.2v14.5h2.9V9.1
		h1.4l3.2,5.7h3.4l-3.5-5.9c2.3-0.6,3.3-2.4,3.3-4.2c0-2.4-1.7-4.4-5.2-4.4H117.4z M125.1,4.7c0,1.3-0.7,2.2-2.3,2.2h-2.4V2.6h2.4
		C124.4,2.6,125.1,3.4,125.1,4.7 M114.8,0.2h-8.4v14.5h8.4v-2.4h-5.5V8.5h4.9V6.2h-4.9V2.6h5.5V0.2z M103.8,10.5
		c0-5.1-7.4-3.5-7.4-6.4c0-1.2,0.9-1.7,2-1.7c1.2,0,2,0.8,2.1,1.7h3.2c-0.2-2.6-2.2-4.1-5.2-4.1c-3,0-5.1,1.6-5.1,4.2
		c0,5.3,7.5,3.4,7.5,6.5c0,1-0.8,1.8-2.2,1.8c-1.3,0-2.1-0.8-2.2-1.9h-3.1c0,2.7,2.4,4.3,5.4,4.3C102,14.9,103.8,12.8,103.8,10.5
		 M86.2,10.5c0-5.1-7.4-3.5-7.4-6.4c0-1.2,0.9-1.7,2-1.7c1.2,0,2,0.8,2.1,1.7h3.2C85.9,1.5,83.9,0,80.9,0c-3,0-5.1,1.6-5.1,4.2
		c0,5.3,7.5,3.4,7.5,6.5c0,1-0.8,1.8-2.2,1.8c-1.3,0-2.1-0.8-2.2-1.9h-3.1c0,2.7,2.4,4.3,5.4,4.3C84.4,14.9,86.2,12.8,86.2,10.5
		 M70.3,0.2v10l-6.6-10h-2.9v14.5h2.9v-10l6.6,10h2.9V0.2H70.3z M47.5,0.2v14.5h2.9V9.1h1.4l3.2,5.7h3.4l-3.5-5.9
		c2.3-0.6,3.3-2.4,3.3-4.2c0-2.4-1.7-4.4-5.2-4.4H47.5z M55.2,4.7c0,1.3-0.7,2.2-2.3,2.2h-2.4V2.6h2.4C54.5,2.6,55.2,3.4,55.2,4.7
		 M33.5,7.4c0-2.9,1.8-4.8,4.4-4.8c2.6,0,4.4,1.8,4.4,4.8c0,3-1.8,4.8-4.4,4.8C35.3,12.3,33.5,10.4,33.5,7.4 M45.4,7.4
		c0-4.3-3.3-7.4-7.4-7.4c-4.1,0-7.4,3.1-7.4,7.4c0,4.4,3.3,7.4,7.4,7.4C42.1,14.9,45.4,11.8,45.4,7.4 M19.2,12.2V2.7h2.1
		c3.1,0,4.8,1.8,4.8,4.8c0,3-1.7,4.8-4.8,4.8H19.2z M21.4,0.2h-5.1v14.5h5.1c4.6,0,7.6-2.8,7.6-7.2C29,3.1,26,0.2,21.4,0.2 M9.5,9.6
		H5.3l2.1-6.1L9.5,9.6z M11.3,14.7h3.1L9.1,0.2H5.8L0.5,14.7h3.1l1-2.8h5.8L11.3,14.7z"/>
	<line class="st1" x1="0" y1="30.7" x2="363.6" y2="30.7"/>
</g>
</svg>
