<?xml version="1.0" encoding="utf-8"?>
<!-- Generator: Adobe Illustrator 24.0.1, SVG Export Plug-In . SVG Version: 6.00 Build 0)  -->
<svg version="1.1" id="Layer_1" xmlns="http://www.w3.org/2000/svg" xmlns:xlink="http://www.w3.org/1999/xlink" x="0px" y="0px"
	 viewBox="0 0 29.53 50" style="enable-background:new 0 0 29.53 50;" xml:space="preserve">
<style type="text/css">
	.st0{fill:#EFBA00;}
</style>
<path id="XMLID_2329_" class="st0" d="M0.52,30.19c-1.74-4.61,1.22-5.35,4.08-1.92c1.98,2.37,4.06,6.6,6.63,8.21
	c1.53-3.39-2.42-38.22,4.04-36.42c3.2,0.89,2.43,12.56,2.6,15.2c0.43,6.59,1.53,13.32,1.58,19.89c2.44-2.21,3.93-5.15,6.24-7.47
	c2.63-2.64,4.47-1.6,3.64,2.3c-1.31,6.1-7.31,11.11-10.05,16.67c-3.14,6.37-7.07,2.42-10.01-1.76C6.04,40.29,2.51,35.45,0.52,30.19z
	"/>
</svg>
