<?xml version="1.0" encoding="utf-8"?>
<!-- Generator: Adobe Illustrator 24.0.1, SVG Export Plug-In . SVG Version: 6.00 Build 0)  -->
<svg version="1.1" id="Layer_1" xmlns="http://www.w3.org/2000/svg" xmlns:xlink="http://www.w3.org/1999/xlink" x="0px" y="0px"
	 viewBox="0 0 50 29.53" style="enable-background:new 0 0 50 29.53;" xml:space="preserve">
<style type="text/css">
	.st0{fill:#FFFFFF;}
</style>
<path id="XMLID_2329_" class="st0" d="M30.19,29.01c-4.61,1.74-5.35-1.22-1.92-4.08c2.37-1.98,6.6-4.06,8.21-6.63
	c-3.39-1.53-38.22,2.42-36.42-4.04c0.89-3.2,12.56-2.43,15.2-2.6c6.59-0.43,13.32-1.53,19.89-1.58c-2.21-2.44-5.15-3.93-7.47-6.24
	c-2.64-2.63-1.6-4.47,2.3-3.64c6.1,1.31,11.11,7.31,16.67,10.05c6.37,3.14,2.42,7.07-1.76,10.01
	C40.29,23.49,35.45,27.02,30.19,29.01z"/>
</svg>
