<?xml version="1.0" encoding="utf-8"?>
<!-- Generator: Adobe Illustrator 23.0.4, SVG Export Plug-In . SVG Version: 6.00 Build 0)  -->
<svg version="1.1" id="Layer_1" xmlns="http://www.w3.org/2000/svg" xmlns:xlink="http://www.w3.org/1999/xlink" x="0px" y="0px"
	 viewBox="0 0 512 512" style="enable-background:new 0 0 512 512;" xml:space="preserve">
<style type="text/css">
	.st0{fill:#505050;}
	.st1{fill:#E5D6B9;}
	.st2{fill:#D1A982;}
	.st3{fill:#49AAB7;}
	.st4{fill:#488089;}
	.st5{fill:#5CBF96;}
	.st6{fill:#529E5F;}
	.st7{fill:#E6E6E6;}
	.st8{fill:#CCCCCC;}
	.st9{fill:#EA7E5A;}
	.st10{fill:#D64F39;}
	.st11{fill:#F7D65E;}
	.st12{fill:#D1A22A;}
	.st13{fill:#ED5972;}
	.st14{fill:#D8375A;}
</style>
<path class="st0" d="M511,255c0,51.3-15.1,99.1-41.1,139.2c-8.6,13.3-18.4,25.7-29.3,37.2c-5.2,5.5-10.7,10.8-16.4,15.8
	c-17.1,15.1-36.3,27.9-57,38c-19.2,9.4-39.7,16.4-61.1,20.7c-8.7,1.8-17.6,3.1-26.6,3.9c-8,0.8-16.2,1.1-24.4,1.1
	c-8.1,0-16.1-0.4-24-1.1c-8.9-0.8-17.7-2.1-26.3-3.8c-5.4-1.1-10.8-2.3-16.1-3.8c-19.1-5.1-37.3-12.4-54.4-21.5
	c-1.8-0.9-3.6-1.9-5.3-2.9c-8.1-4.6-16-9.6-23.5-15.1c-33.2-23.9-60.4-55.6-79-92.4C8.9,335.6-1,296.5-1,255s9.9-80.6,27.4-115.3
	c20-39.5,49.9-73.2,86.4-97.6c6.7-4.5,13.7-8.7,20.8-12.5c0.2-0.1,0.4-0.2,0.5-0.3C170.2,9.9,211.3-1,255-1c22.1,0,43.5,2.8,64,8.1
	c0.9,0.2,1.8,0.5,2.6,0.7c2.5,0.7,4.9,1.4,7.3,2.1C387.1,27.4,436.6,65,469.2,114.7c3.4,5.2,6.6,10.5,9.7,16
	C499.3,167.5,511,209.9,511,255z"/>
<path class="st1" d="M253.9,94.9c0,1.2,0,2.4-0.1,3.6c-1.6,56.2-86.3,56.2-87.9,0c0-1.2,0-2.4,0-3.6c0-17.5,3.5-34.1,9.9-49.2
	c7.6-18.1,19.4-34,34.1-46.7C236.8,22.2,253.9,56.6,253.9,94.9z"/>
<path class="st2" d="M209.9,140.7c-21.6,0-43.2-14.1-44-42.2c0-1.2,0-2.4,0-3.6c0-17.5,3.5-34.1,9.9-49.2
	c7.6-18.1,19.4-34,34.1-46.7c-4.2,12.6-7.5,28.6-9.7,46.7c-1.8,15.1-2.8,31.8-2.8,49.2c0,1.2,0,2.4,0,3.6
	C197.6,126.6,203.8,140.7,209.9,140.7z"/>
<path class="st3" d="M253.9,94.9c-34.3,15.2-40-35-55.6-19.4c-0.2,0.2-0.3,0.3-0.5,0.5c-15.4,14.8-30.3-0.8-22-30.3
	c7.6-18.1,19.4-34,34.1-46.7C236.8,22.2,253.9,56.6,253.9,94.9z"/>
<path class="st4" d="M209.9-1c-4.2,12.6-7.5,28.6-9.7,46.7c-1.1,9.6-2,19.7-2.4,30.3c-15.4,14.8-30.3-0.8-22-30.3
	C183.5,27.6,195.2,11.6,209.9-1z"/>
<path class="st5" d="M244,126.9l-4.8,141l-8.2,242c-8.9-0.8-17.7-2.1-26.3-3.8c-5.4-1.1-10.8-2.3-16.1-3.8l-7.9-234.5l-4.8-141
	L244,126.9L244,126.9z"/>
<path class="st6" d="M204.7,506c-5.4-1.1-10.8-2.3-16.1-3.8l-7.9-234.5l-4.8-141h25.7l1.2,141L204.7,506z"/>
<path class="st7" d="M244,126.9l-4.8,141h-58.5l-4.8-141C175.9,126.9,244,126.9,244,126.9z"/>
<path class="st8" d="M202.7,267.8h-22.1l-4.8-141h25.7L202.7,267.8z"/>
<path class="st3" d="M479.4,114.7l-0.5,16l-4.1,121.7L470,394.2c-8.6,13.3-18.4,25.7-29.3,37.2c-5.2,5.5-10.7,10.8-16.4,15.8
	l-6.6-194.8L413,114.8h66.4V114.7z"/>
<path class="st4" d="M440.6,431.3c-5.2,5.5-10.7,10.8-16.4,15.8l-6.6-194.8l-4.7-137.6H438l1.1,137.6L440.6,431.3z"/>
<path class="st7" d="M479.4,114.7l-4.7,137.6h-57.2l-4.7-137.6H479.4z"/>
<path class="st8" d="M439.1,252.3h-21.6l-4.7-137.6H438L439.1,252.3z"/>
<path class="st1" d="M511,7.8l-16,54.1l-15.6,52.8h-66.5l-23.2-78.4l0,0l-8.4-28.5C381.3,7.8,511,7.8,511,7.8z"/>
<path class="st2" d="M438,114.7L438,114.7h-25.1l-23.2-78.4l0,0l-8.4-28.5h35.5L438,114.7z"/>
<path class="st9" d="M511,7.8l-16,54.1c-5.7-8.9-11-18.9-21.7-22.8C447.5,30,451,54,429.4,63.3c-0.5,0.2-1,0.4-1.5,0.6
	c-20.7,7.8-33.3-11.1-38.2-27.6l0,0l-8.4-28.5C381.3,7.8,511,7.8,511,7.8z"/>
<path class="st10" d="M427.9,63.9c-20.7,7.8-33.3-11.1-38.2-27.6l0,0l-8.4-28.5h35.5L427.9,63.9z"/>
<path class="st11" d="M367.1,82.1v403.1c-19.2,9.4-39.7,16.4-61.1,20.7c-8.7,1.8-17.6,3.1-26.6,3.9V82.1l25-47.3L319,7.1l4.3-8.1
	L329,9.9l13.2,24.9L367.1,82.1z"/>
<path class="st1" d="M367.2,82.1c-13.2,7-28.1,10.9-44,10.9c-5.8,0-11.5-0.5-16.9-1.5c-9.6-1.7-18.6-4.9-26.9-9.3L323.2-1l0,0
	L367.2,82.1z"/>
<path class="st12" d="M323.3-1l-1.6,8.8L306,93v412.9c-8.7,1.8-17.6,3.1-26.6,3.9V82.1l25-47.3L319,7.1L323.3-1z"/>
<path class="st2" d="M323.2-1l-17,92.5c-9.6-1.7-18.6-4.9-26.9-9.3L323.2-1L323.2-1z"/>
<path class="st13" d="M342.2,34.8c-5.6,3-12.1,4.7-18.9,4.7c-2.5,0-4.9-0.2-7.3-0.7c-4.1-0.8-8-2.1-11.6-4L323.2-1L342.2,34.8z"/>
<path class="st14" d="M323.2-1l-7.3,39.8c-4.1-0.8-8-2.1-11.6-4L323.2-1z"/>
<path class="st9" d="M134.2-1v481.8c-1.8-0.9-3.6-1.9-5.3-2.9c-8.1-4.6-16-9.6-23.5-15.1c-33.2-23.9-60.4-55.6-79-92.4V-1H134.2z"/>
<g>
	<path class="st10" d="M89.3,27h44.4v15.1H89.3V27z"/>
	<path class="st10" d="M89.3,75.4h44.4v15.1H89.3V75.4z"/>
	<path class="st10" d="M89.3,123.8h44.4v15.1H89.3V123.8z"/>
	<path class="st10" d="M89.3,172.2h44.4v15.1H89.3V172.2z"/>
	<path class="st10" d="M89.3,220.7h44.4v15.1H89.3V220.7z"/>
	<path class="st10" d="M89.3,269.1h44.4v15.1H89.3V269.1z"/>
	<path class="st10" d="M89.3,317.5h44.4v15.1H89.3V317.5z"/>
	<path class="st10" d="M89.3,365.9h44.4V381H89.3V365.9z"/>
	<path class="st10" d="M89.3,414.3h44.4v15.1H89.3V414.3z"/>
	<path class="st10" d="M133.6,462.7v15.1h-4.8c-8.1-4.6-16-9.6-23.5-15.1H133.6z"/>
</g>
</svg>
