<?xml version="1.0" encoding="utf-8"?>
<!-- Generator: Adobe Illustrator 24.0.1, SVG Export Plug-In . SVG Version: 6.00 Build 0)  -->
<svg version="1.1" id="Layer_1" xmlns="http://www.w3.org/2000/svg" xmlns:xlink="http://www.w3.org/1999/xlink" x="0px" y="0px"
	 viewBox="0 0 70 100" style="enable-background:new 0 0 70 100;" xml:space="preserve">
<style type="text/css">
	.st0{clip-path:url(#SVGID_2_);}
	.st1{fill:#787878;}
</style>
<g>
	<g>
		<defs>
			<rect id="SVGID_1_" x="0.5" width="69" height="99"/>
		</defs>
		<clipPath id="SVGID_2_">
			<use xlink:href="#SVGID_1_"  style="overflow:visible;"/>
		</clipPath>
		<g class="st0">
			<g>
				<path class="st1" d="M41.1,54.9c-0.4,1.9,0.6,3.7,1.9,5c1.4,1.4,3.3,2.3,4.9,3.5c3.1,2.3,5,6.1,6.1,9.8c0.6,2.1,1,4.2,0.7,6.4
					c-0.3,2.1-1.1,4.1-2.1,5.9c-1.8,3.5-4.2,6.9-7.3,9.3c-3,2.3-6.6,3.7-10.4,3.6c-3.6-0.1-7-1.4-10-3.4c-1.5-1-2.9-2.2-4.1-3.5
					c-1.3-1.5-2.5-3.1-3.2-5c-0.8-2-1-4.2-0.9-6.3c0.1-2.1,0.5-4.2,1.1-6.3c0.6-1.9,1.4-3.8,2.6-5.4c1.1-1.5,2.4-2.9,3.8-4
					c1.4-1.2,3-2.2,4.6-3.1c1.6-0.9,3.5-1.8,4.3-3.6c0.3-0.8,0.5-1.7,0.1-2.5c-0.1-0.4-0.7-0.2-0.6,0.2c0.3,0.9,0.1,1.8-0.3,2.6
					c-0.5,0.8-1.3,1.4-2.1,1.9c-0.8,0.5-1.7,0.9-2.6,1.4c-0.8,0.5-1.6,1-2.4,1.6c-3.1,2.2-5.7,5.1-7.2,8.7c-0.8,2-1.3,4-1.6,6.1
					c-0.3,2.2-0.4,4.4,0,6.5c0.7,3.9,3.3,7.3,6.2,9.8c2.8,2.3,6.1,4.1,9.7,4.7c1.8,0.3,3.6,0.4,5.4,0.1c1.9-0.3,3.7-0.9,5.4-1.8
					c3.5-1.9,6.3-4.9,8.4-8.3c1.1-1.7,2.1-3.6,2.8-5.5c0.8-2,1.2-4.1,1-6.3c-0.2-2.2-0.8-4.3-1.7-6.3c-0.7-1.8-1.6-3.5-2.8-5.1
					c-0.6-0.8-1.2-1.5-2-2.1c-0.8-0.7-1.6-1.2-2.5-1.8c-1.7-1.1-3.4-2.2-4.3-4c-0.4-0.8-0.6-1.7-0.4-2.6
					C41.7,54.7,41.1,54.5,41.1,54.9L41.1,54.9z"/>
			</g>
			<g>
				<path class="st1" d="M41.5,54.5c-0.8-0.2-1.6-0.2-2.5-0.1c-0.8,0-1.7,0.1-2.5,0.2c-0.9,0.1-1.7,0.1-2.6,0.2
					c-0.6,0-1.6,0.1-1.9-0.5c-0.3-0.6,0.4-1.1,0.8-1.4c0.7-0.4,1.5-0.6,2.2-0.7c0.8-0.2,1.6-0.3,2.4-0.4c0.8-0.1,1.7-0.2,2.4-0.1
					c0.7,0.1,1.4,0.5,1.9,1.1c0.2,0.3,0.4,0.8,0.4,1.2C42.1,54.3,41.8,54.6,41.5,54.5c-0.4,0.1-0.4,0.7,0,0.6
					c0.8-0.1,1.3-0.8,1.2-1.6s-0.7-1.5-1.3-2C40.7,51.1,39.8,51,39,51c-0.9,0.1-1.9,0.2-2.8,0.3c-0.9,0.1-1.9,0.3-2.7,0.6
					c-0.7,0.2-1.5,0.6-1.9,1.3s-0.1,1.4,0.5,1.8c0.8,0.5,1.8,0.3,2.7,0.2c1.1-0.1,2.2-0.1,3.3-0.2c1.1-0.1,2.2-0.2,3.3,0
					C41.7,55.2,41.9,54.6,41.5,54.5L41.5,54.5z"/>
			</g>
			<g>
				<path class="st1" d="M41.7,52.1c0.3-0.9,0.7-2.4-0.3-3c-0.4-0.2-0.9-0.2-1.3-0.2c-0.6,0-1.2,0.1-1.8,0.1
					c-1.3,0.1-2.6,0.3-3.8,0.5c-1,0.2-2.1,0.4-2.7,1.2c-0.5,0.7-0.5,2,0.4,2.4c0.3,0.2,0.6-0.3,0.3-0.5c-0.6-0.3-0.6-1.1-0.2-1.5
					c0.5-0.7,1.5-0.8,2.3-1c1.1-0.2,2.1-0.3,3.2-0.4c0.5,0,1-0.1,1.6-0.1c0.4,0,0.9-0.1,1.3,0c0.5,0.1,0.8,0.3,0.8,0.8
					c0,0.6-0.1,1.2-0.3,1.7C41,52.3,41.6,52.5,41.7,52.1L41.7,52.1z"/>
			</g>
			<g>
				<path class="st1" d="M39.9,48.9c-0.2-0.3-0.4-0.6-0.6-0.9c-0.2-0.3-0.2-0.6-0.4-0.9c-0.1-0.3-0.3-0.6-0.6-0.7
					c-0.3-0.1-0.7-0.1-1-0.1c-0.8,0-1.6,0.1-2.4,0.2c-0.3,0-0.7,0.1-1,0.2c-0.3,0.1-0.4,0.4-0.5,0.7c-0.3,0.8-0.3,1.7-0.2,2.6
					c0,0.4,0.6,0.4,0.6,0c-0.1-0.8-0.1-1.8,0.2-2.6c0.1-0.4,0.6-0.4,0.9-0.4c0.4-0.1,0.9-0.1,1.3-0.1c0.4,0,0.9,0,1.3,0
					c0.4,0,0.7,0,0.9,0.4c0.1,0.4,0.2,0.7,0.4,1.1c0.2,0.4,0.4,0.7,0.7,1C39.8,49.6,40.2,49.2,39.9,48.9L39.9,48.9z"/>
			</g>
			<g>
				<path class="st1" d="M36.8,46.2c0.1-4,0.3-8.1,0.4-12.1c0.1-1.9,0.2-3.8,0-5.6c-0.2-1.6-0.9-3.3-2.5-4c-0.6-0.3-1.4-0.3-2,0.1
					c-0.5,0.3-0.9,0.9-1,1.5s0.1,1.2,0.5,1.7c0.5,0.5,1.1,0.7,1.8,0.7s1.3-0.2,1.8-0.7c0.5-0.6,0.8-1.3,0.9-2.1
					c0.2-1.9,0.3-3.7,0.4-5.6c0.3-3.8,2-15.9,2.9-19.7c0.1-0.5,0.2-0.9,0.4-1.4c0.1-0.4-0.5-0.5-0.6-0.2c-1,3.4-2.9,15.2-3.2,18.8
					c-0.1,1.8-0.2,3.6-0.4,5.4c-0.1,0.8-0.1,1.7-0.2,2.5c-0.1,0.7-0.3,1.5-0.8,1.9c-0.8,0.7-2.4,0.6-2.9-0.5c-0.2-0.5-0.1-1,0.2-1.4
					c0.4-0.5,1-0.7,1.6-0.5c1.5,0.4,2.2,2.1,2.4,3.4c0.3,1.7,0.1,3.5,0.1,5.2c-0.1,3.7-0.2,7.5-0.4,11.2c0,0.5,0,0.9,0,1.4
					C36.2,46.6,36.7,46.6,36.8,46.2L36.8,46.2z"/>
			</g>
			<g>
				<g>
					<path class="st1" d="M61.1,20.9c0.8,0.3,1.6,0.6,2.3,1s1.3,0.8,1.9,1.4c1.1,1.1,1.9,2.4,2.5,3.8c0.6,1.3,1,2.7,1,4.1
						s-0.2,2.7-0.7,4c-1,2.6-2.9,4.7-5.1,6.3c-2.6,1.8-5.8,2.9-9,2.7c-2.7-0.1-5.3-1.2-7.4-2.8c-2.1-1.6-3.7-3.9-4.4-6.4
						s-0.4-5.1,0.6-7.5c1-2.3,2.7-4.4,4.9-5.6c1-0.6,2.2-0.8,3.2-1.4c0.5-0.3,0.9-0.6,1.2-1.1c0.1-0.3,0.2-0.5,0.3-0.8
						c0-0.3-0.1-0.8,0.1-1c0.2-0.2,0.5-0.2,0.7-0.3c0.4,0,0.9-0.1,1.3-0.1c0.9,0,1.8-0.1,2.8-0.1c0.7,0,1.4,0.2,1.7,0.9
						c0.2,0.6,0.2,1.4,0.6,1.9C59.9,20.3,60.5,20.6,61.1,20.9c0.4,0.1,0.5-0.4,0.2-0.6C60.7,20,60,19.7,59.8,19
						c-0.2-0.7-0.2-1.4-0.7-2s-1.3-0.6-2-0.6c-1,0-1.9,0-2.9,0.1c-0.7,0-1.6,0-2.1,0.4c-0.6,0.5-0.2,1.3-0.5,1.9
						c-0.5,1-1.8,1.4-2.8,1.8c-2.5,0.9-4.6,2.7-5.9,5c-1.3,2.3-2,5-1.6,7.6c0.3,2.7,1.7,5.3,3.6,7.2c2,2,4.5,3.4,7.2,3.9
						c3.3,0.6,6.7,0,9.6-1.6c2.5-1.4,4.8-3.4,6.2-6c1.4-2.5,1.9-5.4,1.2-8.2c-0.4-1.5-1.1-2.9-2-4.2c-0.9-1.3-2.1-2.4-3.6-3.2
						c-0.8-0.4-1.5-0.7-2.3-1C60.9,20.2,60.8,20.7,61.1,20.9z"/>
				</g>
			</g>
			<g>
				<g>
					<path class="st1" d="M58.8,17.2c0.5-0.4,0.6-1.2,0.1-1.6c-0.3-0.3-0.6-0.3-0.9-0.4c-0.4,0-0.8-0.1-1.2-0.1c-0.8,0-1.6,0-2.4,0
						c-0.7,0-1.6,0-2.1,0.5s-0.5,1.4,0.3,1.6c0.4,0.1,0.5-0.5,0.2-0.6c-0.2-0.1-0.2-0.4-0.1-0.5c0.2-0.3,0.5-0.3,0.8-0.4
						c0.7-0.1,1.5-0.1,2.2-0.1s1.5,0,2.2,0.1c0.3,0,0.6,0,0.8,0.3s0.1,0.5-0.2,0.7C58.1,17,58.5,17.4,58.8,17.2L58.8,17.2z"/>
				</g>
			</g>
			<g>
				<g>
					<path class="st1" d="M58.6,15.7c0.4-0.5,0.8-1.2,0.4-1.8c-0.4-0.5-1.2-0.5-1.8-0.5c-0.8,0-1.6,0-2.5,0.1
						c-0.4,0.1-0.8,0.1-1.3,0.2c-0.4,0.1-0.7,0.1-1.1,0.2c-0.3,0.1-0.6,0.4-0.6,0.8c0,0.4,0.2,0.7,0.5,1c0.2,0.3,0.7-0.1,0.4-0.4
						c-0.1-0.2-0.5-0.6-0.2-0.8c0.2-0.2,0.7-0.2,0.9-0.2c0.8-0.1,1.5-0.3,2.3-0.3c0.7-0.1,1.5-0.1,2.2,0c0.2,0,0.5,0.1,0.6,0.4
						c0.1,0.3-0.2,0.7-0.4,0.9C57.9,15.6,58.3,16,58.6,15.7L58.6,15.7z"/>
				</g>
			</g>
			<g>
				<g>
					<path class="st1" d="M57.8,13.3c-0.1-0.4-0.2-0.8-0.3-1.2c-0.1-0.2-0.1-0.4-0.2-0.6c0-0.2-0.1-0.4-0.2-0.5
						c-0.2-0.3-0.7-0.2-1-0.3c-0.4,0-0.8,0-1.2,0s-0.8,0.1-1.2,0.1c-0.4,0.1-0.7,0.1-0.8,0.5c-0.2,0.8-0.3,1.6-0.3,2.5
						c0,0.4,0.6,0.4,0.6,0c0-0.7,0.1-1.4,0.2-2.1c0-0.1,0-0.2,0.1-0.3v-0.1c-0.1,0.1,0,0.1,0.1,0c0.2,0,0.3-0.1,0.5-0.1
						c0.3-0.1,0.7-0.1,1-0.1s0.7,0,1,0c0.2,0,0.4,0,0.5,0s0.2,0,0.2,0c-0.1,0,0,0,0,0.1c0.2,0.7,0.4,1.3,0.6,2
						C57.4,13.8,57.9,13.6,57.8,13.3L57.8,13.3z"/>
				</g>
			</g>
			<g>
				<g>
					<path class="st1" d="M55.5,11c0.6-4.9-0.5-9.7-0.7-14.6c-0.1-1.4,0-2.8,0.1-4.1c0-0.4-0.5-0.4-0.6,0C53.8-2.9,54.9,2,55.1,6.8
						c0,1.4,0,2.8-0.2,4.1C54.9,11.4,55.4,11.4,55.5,11L55.5,11z"/>
				</g>
			</g>
			<g>
				<g>
					<g>
						<g>
							<path class="st1" d="M15.6,17.8c1.1,0,2.2,0,3.3,0c0.8,0.1,1.8,0.1,2.5,0.6c0.3,0.2,0.6,0.5,0.8,0.8c0.1,0.3,0.1,0.7,0.1,1
								c-0.1,1-0.1,2.1-0.1,3.1s-0.1,2.1,0.4,3c0.4,0.7,1.1,1.3,1.8,1.8c0.7,0.5,1.4,1,2.1,1.6c0.6,0.6,1.2,1.3,1.8,2
								c2.1,2.9,3.2,6.5,3,10.1c-0.2,3.7-1.8,7.3-4.3,10s-6,4.5-9.6,5.1c-3.7,0.6-7.8,0-10.7-2.5c-2.6-2.1-4.2-5.3-4.9-8.5
								C0.7,42.1,1.1,38,2.7,34.5c1.5-3.3,4.2-6,7.4-7.5c0.4-0.2,0.8-0.3,1.2-0.5c0.4-0.1,0.8-0.3,1.1-0.5s0.6-0.5,0.8-0.8
								c0.2-0.5,0.2-1,0.1-1.5c-0.1-1.1-0.2-2.3-0.3-3.4c0-0.7-0.2-1.9,0.6-2.3C14.3,17.7,15,17.8,15.6,17.8c0.4,0,0.4-0.6,0-0.6
								c-0.7,0-1.5-0.1-2.1,0.2c-0.8,0.4-1,1.4-1,2.2c0,1.1,0.1,2.3,0.2,3.4c0,0.5,0.2,1.1,0.1,1.6c-0.1,0.4-0.4,0.7-0.7,0.9
								c-0.4,0.2-0.8,0.3-1.2,0.5s-0.8,0.3-1.3,0.5C8.8,27,8,27.4,7.3,28c-1.5,1.1-2.7,2.4-3.8,3.9c-2.3,3.4-3.3,7.6-3,11.7
								c0.3,3.4,1.6,6.9,3.8,9.5c1.1,1.3,2.4,2.4,4,3.2c1.9,0.9,4,1.3,6.1,1.4c3.8,0,7.6-1.2,10.7-3.5s5.3-5.7,6.2-9.4
								c0.9-3.7,0.5-7.5-1.2-10.9c-0.8-1.6-1.9-3.2-3.2-4.4c-0.7-0.6-1.4-1.2-2.1-1.7s-1.4-1.1-1.8-1.9c-0.2-0.5-0.2-1-0.2-1.5
								c0-0.6,0-1.1,0-1.7s0-1.1,0-1.7c0-0.4,0.1-0.8,0.1-1.2c0-0.8-0.6-1.5-1.3-1.8c-0.8-0.4-1.8-0.5-2.6-0.6c-1.1-0.1-2.2,0-3.3,0
								C15.2,17.2,15.2,17.8,15.6,17.8z"/>
						</g>
					</g>
					<g>
						<g>
							<path class="st1" d="M22.3,24.4c-2.9,0.5-6,0.3-8.9-0.4c-0.4-0.1-0.5,0.5-0.2,0.6c3,0.8,6.1,0.9,9.2,0.4
								C22.8,24.9,22.6,24.4,22.3,24.4L22.3,24.4z"/>
						</g>
					</g>
					<g>
						<g>
							<path class="st1" d="M22.3,22.4C19.2,22.1,16.1,22,13,22c-0.4,0-0.4,0.6,0,0.6c3.1,0,6.3,0.1,9.4,0.4
								C22.7,23,22.7,22.5,22.3,22.4L22.3,22.4z"/>
						</g>
					</g>
					<g>
						<g>
							<path class="st1" d="M22.1,20.2C19,20,15.9,19.9,12.8,20c-0.4,0-0.4,0.6,0,0.6c3.1-0.1,6.2,0,9.3,0.2
								C22.5,20.8,22.5,20.2,22.1,20.2L22.1,20.2z"/>
						</g>
					</g>
					<g>
						<g>
							<path class="st1" d="M20.3,17.4c-0.3-0.9-0.1-2.3-1.4-2.6c-0.3-0.1-0.6-0.1-0.9-0.1c-0.4,0-0.7,0-1.1,0
								c-0.6,0-1.2-0.1-1.6,0.4c-0.5,0.5-0.6,1.4-0.7,2.1c-0.1,0.4,0.5,0.5,0.6,0.2c0.1-0.4,0.1-0.7,0.2-1.1
								c0.1-0.3,0.2-0.7,0.5-0.9c0.2-0.1,0.5-0.1,0.8-0.1c0.4,0,0.8,0,1.3,0s1.2-0.1,1.4,0.5c0.2,0.5,0.2,1.1,0.4,1.7
								C19.9,17.9,20.5,17.8,20.3,17.4L20.3,17.4z"/>
						</g>
					</g>
				</g>
				<g>
					<g>
						<path class="st1" d="M17.9,14.9c1.3-4.6,1.5-9.5,0.6-14.2c-0.2-1.2-0.6-2.3-0.9-3.5C17.4-4,17.1-5.2,17-6.4
							c-0.2-1.7-0.3-3.4-0.2-5.1c0.2-2.1,0.6-4.1,0.9-6.2c0-0.2-0.1-0.3-0.3-0.3c-0.2,0-0.3,0.1-0.3,0.3c-0.2,1.9-0.6,3.7-0.8,5.6
							c-0.2,1.6-0.2,3.2,0,4.8c0.1,1.1,0.3,2.3,0.5,3.4c0.3,1.2,0.6,2.4,0.9,3.5c0.6,2.3,0.8,4.7,0.8,7.1c0,2.7-0.4,5.4-1.1,8
							C17.3,15.1,17.8,15.2,17.9,14.9L17.9,14.9z"/>
					</g>
				</g>
			</g>
			<path class="st1" d="M60.8,34.7c-0.1-0.2-0.3-0.2-0.4-0.2c-0.1,0-0.2,0-0.3,0s-0.2,0.1-0.2,0.2c-0.5,0-1,0.1-1.4,0.1
				c-0.2,0-0.4,0-0.7,0.1l0,0c0.5-0.2,0.9-0.6,1.2-0.9c0.7-0.7,1.1-1.7,1.2-3c0.2-0.1,0.4-0.2,0.4-0.5c0.1-0.2,0-0.4,0-0.5
				c-0.1-0.2-0.3-0.2-0.5-0.2l0,0c-0.1,0-0.3,0-0.4,0.1c-0.2,0.1-0.3,0.3-0.3,0.5s0.2,0.5,0.4,0.6v0.2c-0.2,1-0.5,1.9-1.3,2.6
				c-0.5,0.4-1.1,0.8-1.9,0.9l0,0c-0.2-0.2-0.4-0.3-0.6-0.3c-0.2,0-0.4,0-0.5,0.1s-0.2,0.2-0.3,0.3c-0.6,0-1.2-0.2-1.7-0.5
				c-0.9-0.5-1.3-1.3-1.8-2.2V32c0,0,0,0,0.1,0l0,0c0.2-0.2,0.2-0.5,0-0.7S51.3,30.9,51,31h-0.1c-0.2,0.1-0.3,0.3-0.4,0.6
				c0,0.2,0.1,0.4,0.2,0.5c0.1,0.1,0.2,0.1,0.4,0.1c0.3,0.9,0.8,2,1.8,2.7c0.3,0.2,0.8,0.4,1.3,0.6c-0.2,0-0.5,0.1-0.7,0.1h-0.1
				c-0.5,0-0.9,0.1-1.4,0.2c0-0.1-0.1-0.2-0.2-0.2c-0.1,0-0.2,0-0.3,0s-0.2,0.1-0.3,0.3c0,0.1,0,0.3,0,0.4c0.1,0.2,0.3,0.3,0.4,0.3
				l0,0l0,0c0.2,0,0.3-0.2,0.4-0.4c0.5,0,1-0.1,1.5-0.1c0.2,0,0.5-0.1,0.7-0.1c0.3,0,0.7-0.1,1-0.1c0.2,0.2,0.4,0.4,0.6,0.3l0,0
				c0.2,0,0.5-0.2,0.5-0.5c0.4,0,0.9-0.1,1.3-0.1c0.2,0,0.4,0,0.6-0.1c0.5,0,1-0.1,1.5-0.2c0.1,0.2,0.3,0.3,0.5,0.3l0,0
				c0.2,0,0.3-0.1,0.4-0.4C60.9,34.9,60.9,34.8,60.8,34.7z"/>
			<g>
				<path class="st1" d="M13.9,43.1c-1.2-0.5-2.4-1-3.5-1.5c1.2-0.5,2.4-1.1,3.5-1.8c0.4-0.3,0-0.9-0.4-0.6
					c-1.3,0.9-2.8,1.5-4.2,2.2C9,41.5,9.1,42,9.4,42.1c1.4,0.6,2.9,1.2,4.3,1.8c0.2,0.1,0.4-0.1,0.4-0.3
					C14.2,43.3,14.1,43.1,13.9,43.1z"/>
				<path class="st1" d="M16.9,36.8c-0.5,3.2-1.1,6.4-1.5,9.6C15.3,46.8,16,47,16,46.5c0.5-3.2,1-6.4,1.5-9.6
					C17.6,36.5,16.9,36.3,16.9,36.8z"/>
				<path class="st1" d="M23,40.8c-1.4-0.4-2.7-1-3.9-1.6c-0.4-0.2-0.8,0.4-0.4,0.6c1.1,0.6,2.2,1,3.3,1.4c-0.1,0-0.2,0.1-0.3,0.1
					c-0.4,0.1-0.8,0.3-1.1,0.4c-0.7,0.3-1.4,0.7-2.1,1.2c-0.4,0.3,0,0.9,0.4,0.6c0.7-0.5,1.4-0.9,2.2-1.2c0.4-0.1,0.7-0.3,1.1-0.4
					c0.4-0.1,0.7-0.3,1-0.6C23.3,41.2,23.3,40.8,23,40.8z"/>
			</g>
			<g>
				<g>
					<path class="st1" d="M16.1,25.1c-0.3,6.1-4.6,10.9-6.9,16.3c-0.1,0.3,0.3,0.5,0.4,0.2c2.3-5.5,6.7-10.3,7-16.5
						C16.6,24.7,16.1,24.7,16.1,25.1L16.1,25.1z"/>
				</g>
			</g>
			<g>
				<g>
					<path class="st1" d="M18.4,25.2c0.5,5.6,1.2,11.3,4.4,16.1c0.2,0.3,0.6,0,0.4-0.2c-3.1-4.6-3.9-10.3-4.4-15.8
						C18.8,24.8,18.3,24.8,18.4,25.2L18.4,25.2z"/>
				</g>
			</g>
			<g>
				<g>
					<path class="st1" d="M55.8,16.9c0.3,2.3,0.6,4.6,1.3,6.8s1.9,4.2,2.8,6.4c0.1,0.3,0.6,0.2,0.5-0.1c-0.8-2.1-2-4.1-2.7-6.2
						c-0.8-2.2-1.1-4.6-1.4-6.9C56.2,16.6,55.8,16.6,55.8,16.9L55.8,16.9z"/>
				</g>
			</g>
			<g>
				<g>
					<path class="st1" d="M51.4,31.5c2-4.6,3.1-9.6,3.2-14.7c0-0.3-0.5-0.3-0.5,0c-0.1,5-1.2,9.9-3.2,14.4
						C50.9,31.5,51.3,31.8,51.4,31.5L51.4,31.5z"/>
				</g>
			</g>
			<g>
				<g>
					<path class="st1" d="M29.6,81.4c4.7-8,5.4-17.4,5.9-26.4c0-0.4-0.6-0.4-0.6,0c-0.6,8.9-1.2,18.2-5.8,26.1
						C28.9,81.4,29.4,81.7,29.6,81.4L29.6,81.4z"/>
				</g>
			</g>
			<g>
				<g>
					<path class="st1" d="M44.9,80.6c-4.1-7.9-6-16.7-5.5-25.6c0-0.4-0.6-0.4-0.6,0c-0.5,8.9,1.5,17.9,5.6,25.9
						C44.5,81.2,45,80.9,44.9,80.6L44.9,80.6z"/>
				</g>
			</g>
			<g>
				<g>
					<path class="st1" d="M29.5,81.5c2,0,3.4-1.4,4.5-2.8c1.2-1.6,2.9-4,5.3-3.2c0-0.3,0.1-0.6,0.1-0.9c-1.7,0-3.4,0.4-4.5,1.7
						c-0.9,1-1.3,2.5-0.6,3.7c0.6,1.2,1.9,1.7,3.2,1.3c1.5-0.6,2.4-2.1,2.4-3.7c0-0.5-0.8-0.6-0.9-0.1c-0.2,1.2,0.3,2.3,1.3,3
						c1.2,0.9,2.8,0.8,4.2,0.6c0.6-0.1,0.6-0.9,0-0.9c-1,0.1-2.1,0.2-3.1-0.2c-0.9-0.3-1.8-1.3-1.6-2.3c-0.3,0-0.6-0.1-0.9-0.1
						c0,1.2-0.6,2.4-1.7,2.8c-1.1,0.4-2.1-0.2-2.4-1.3c-0.3-1,0.3-2.1,1.1-2.7c1-0.8,2.2-1,3.4-1c0.5,0,0.6-0.7,0.1-0.9
						c-2-0.7-3.8,0.5-5,2c-1.4,1.6-2.6,4-5,4C28.9,80.6,28.9,81.5,29.5,81.5L29.5,81.5z"/>
				</g>
			</g>
		</g>
	</g>
</g>
</svg>
