<?xml version="1.0" encoding="utf-8"?>
<!-- Generator: Adobe Illustrator 23.0.4, SVG Export Plug-In . SVG Version: 6.00 Build 0)  -->
<svg version="1.1" id="Capa_1" xmlns="http://www.w3.org/2000/svg" xmlns:xlink="http://www.w3.org/1999/xlink" x="0px" y="0px"
	 viewBox="0 0 24 24" style="enable-background:new 0 0 24 24;" xml:space="preserve">
<style type="text/css">
	.st0{fill:#E23E4E;}
</style>
<g>
	<path class="st0" d="M17.4,19.7L4.3,6.6c-0.3-0.3-0.3-0.8,0-1.2l1.2-1.2c0.3-0.3,0.8-0.3,1.2,0l13.1,13.1c0.3,0.3,0.3,0.8,0,1.2
		l-1.2,1.2C18.2,20.1,17.7,20.1,17.4,19.7z"/>
	<path class="st0" d="M4.3,17.4L17.4,4.3c0.3-0.3,0.8-0.3,1.2,0l1.2,1.2c0.3,0.3,0.3,0.8,0,1.2L6.6,19.7c-0.3,0.3-0.8,0.3-1.2,0
		l-1.2-1.2C3.9,18.2,3.9,17.7,4.3,17.4z"/>
</g>
</svg>
