<?xml version="1.0" encoding="utf-8"?>
<!-- Generator: Adobe Illustrator 24.0.1, SVG Export Plug-In . SVG Version: 6.00 Build 0)  -->
<svg version="1.1" id="Capa_1" xmlns="http://www.w3.org/2000/svg" xmlns:xlink="http://www.w3.org/1999/xlink" x="0px" y="0px"
	 viewBox="0 0 481.17 278.26" style="enable-background:new 0 0 481.17 278.26;" xml:space="preserve">
<style type="text/css">
	.st0{fill:#FFFFFF;}
</style>
<g>
	<g>
		<path class="st0" d="M218.92,0.36C122.4,5.03,32.21,60.09,0.92,153.9c-0.86,2.58-0.97,4.91-0.6,7.02
			c-0.73,3.17-0.28,6.73,2.1,10.36c106,162.42,358.22,123.95,473.1-8.87c0.81-0.94,1.47-1.9,2.01-2.89
			c3.63-4.22,5.12-10.26,1.8-16.58C428.59,46.53,325.9-4.82,218.92,0.36z M30.39,159.59C54.17,91.3,113.8,50.24,181.37,35.55
			c-42.27,16.85-76.05,53.1-80.92,101.05c-4.12,40.62,13.95,78.41,43.42,103.31C99.14,227.48,59.09,201.77,30.39,159.59z
			 M223.06,242.04c-53.41,3.11-97.59-48.46-95.57-99.41c1.66-42.07,35.02-72.84,73.07-84.55c12.52-0.94,25.01-0.88,37.53,0.27
			c1.2,0.11,2.29,0.07,3.33-0.07c45.17,12.4,80.92,51.91,73.87,102.6C309.05,205.71,266.91,239.48,223.06,242.04z M304.88,234.81
			c20.04-19.48,34.09-45.2,37.87-72.38c9.24-66.42-40.73-118.64-100.94-132.37c-0.12-0.17-0.23-0.35-0.36-0.52
			c84.49,1.43,163.53,45.25,206.73,118.8C411.44,187.78,360.08,218.17,304.88,234.81z"/>
		<path class="st0" d="M280.65,137.97c-5.11-14.82-12.89-27.81-26.6-36.06c-3.22-1.93-6.65-3.31-10.19-4.29
			c-4.37-1.81-8.9-2.93-13.49-3.48c0.38,0.61,0.78,1.19,1.12,1.85c3.69,7.32,4.43,14.73,3.23,22.74c-0.9,5.97-4.16,12.72-8.86,16.65
			c-6.99,5.84-15.66,8.23-24.62,5.68c-9.29-2.65-17.08-9.18-23.38-16.26c-1.4-1.57-2.41-3.36-3.06-5.24
			c-12.54,14.99-15.01,35.19-0.3,53.59c17.76,22.22,51.34,29.65,77.4,19.51c0.39-0.15,0.7-0.37,1.07-0.54
			c2.59-0.47,4.99-1.59,6.91-3.41c1.28-0.78,2.54-1.69,3.73-2.94c10.05-10.48,18.59-23.36,17.78-38.5c-0.01-0.25-0.08-0.48-0.1-0.74
			C281.82,143.97,281.75,141.13,280.65,137.97z"/>
	</g>
</g>
</svg>
