<?xml version="1.0" encoding="utf-8"?>
<!-- Generator: Adobe Illustrator 24.0.1, SVG Export Plug-In . SVG Version: 6.00 Build 0)  -->
<svg version="1.1" id="Capa_1" xmlns="http://www.w3.org/2000/svg" xmlns:xlink="http://www.w3.org/1999/xlink" x="0px" y="0px"
	 viewBox="0 0 54.82 51.66" style="enable-background:new 0 0 54.82 51.66;" xml:space="preserve">
<style type="text/css">
	.st0{fill:#FFFFFF;}
</style>
<g>
	<path class="st0" d="M26.11,51.66c-2.83,0-5.72-0.4-8.62-1.2c-5.08-1.4-10.08-5.25-13.69-10.58C0.28,34.69-0.8,28.6,0.59,21.77
		c0.6-2.97,1.44-6.03,3.36-8.46c-0.35-0.12-0.66-0.36-0.86-0.69c-0.28-0.46-0.3-1.03-0.05-1.51C7.27,2.91,17.74,0,25.42,0
		c0.24,0,0.47,0,0.7,0.01c7.41,0.17,13.34,1.67,17.63,4.46c4.81,3.13,8.46,8.15,10.03,13.76c1.73,6.21,1.3,12.26-1.21,17.05
		c-1.44,2.74-3.72,6.7-6.91,9.45c-2.18,1.88-4.85,3.06-7.42,4.2l-0.86,0.38C33.88,50.87,30.09,51.66,26.11,51.66L26.11,51.66z
		 M8.03,11.47c0.01,0.02,0.03,0.04,0.06,0.08l0.24,0.3l-0.1,1.44l-0.3,0.27c-0.97,0.87-1.68,1.72-2.19,2.62
		c-1.73,3.04-2.66,7.12-2.61,11.51c0.06,6.07,2.95,11.6,8.37,15.98c3.95,3.2,8.96,4.89,14.47,4.89l0,0
		c8.97,0,17.62-4.55,22.03-11.59c3.79-6.05,4.68-12.47,2.58-18.57c-2.15-6.25-6.49-10.99-11.89-13c-4.16-1.55-8.63-2.37-12.93-2.37
		c-1.86,0-3.69,0.16-5.42,0.46c-4.27,0.76-9.42,2.8-12.66,6.37L8.03,11.47z"/>
	<path class="st0" d="M52.81,18.49C51.32,13.15,47.84,8.33,43.2,5.3C38.28,2.1,31.85,1.13,26.09,1C18.06,0.82,7.88,3.91,3.93,11.57
		c-0.33,0.64,0.64,1.18,0.97,0.55c2.8-5.43,9.49-8.57,15.26-9.59c6.21-1.1,13-0.24,18.87,1.95c6.13,2.29,10.39,7.54,12.49,13.61
		c2.33,6.76,1.04,13.49-2.68,19.42c-7.68,12.25-26.52,16.23-37.98,6.94C5.61,40.2,2.19,34.51,2.12,27.7
		c-0.04-4.01,0.74-8.49,2.75-12.01c0.62-1.09,1.46-2.02,2.4-2.87c0.01-0.22,0.03-0.44,0.05-0.65c-0.11-0.14-0.2-0.29-0.25-0.48
		c-0.01-0.02,0-0.04-0.01-0.06c-0.57,0.48-1.13,0.99-1.65,1.53c-2.29,2.37-3.19,5.66-3.83,8.8C0.3,28.21,1.05,34.04,4.63,39.32
		c3.06,4.51,7.79,8.72,13.13,10.18c6.42,1.76,13.12,1.61,19.2-1.11c2.75-1.23,5.73-2.44,8.04-4.42c2.83-2.44,4.96-5.88,6.68-9.16
		C54.29,29.82,54.29,23.82,52.81,18.49z"/>
	<path class="st0" d="M15.54,33.28c0.14,1.53,0.16,4.09,1.76,4.78c0.07,0.09,0.14,0.17,0.22,0.23c1.59,1.2,3.81-0.67,5.15-1.47
		c3.72-2.22,16.73-10.68,18.66-13.66c0.2-0.31,0.13-0.6-0.06-0.81c-0.01-0.21-0.11-0.42-0.34-0.57c-2.16-1.32-11.79-5.71-14.47-6.7
		c-1.39-0.52-7.43-3.11-8.26-3.13c-3.15-2.03-2.69,7.34-2.7,8.18C15.42,24.49,15.16,28.92,15.54,33.28z M19.83,24.22
		c-0.12,0.05-0.22,0.14-0.29,0.24c-0.01-0.4-0.01-0.79-0.01-1.18c0.13,0.07,0.26,0.14,0.4,0.2C19.89,23.72,19.86,23.97,19.83,24.22z
		 M20.1,30.41c0.08-0.33,0.2-0.66,0.34-0.99c2.1-0.49,4.1-1.52,6.16-2.19c1-0.28,2.01-0.55,3-0.84
		C26.5,27.85,23.33,29.14,20.1,30.41z M24.65,25.19c-0.24,0.11-0.48,0.22-0.72,0.33c-0.21-0.13-0.42-0.23-0.64-0.32
		C23.74,25.18,24.2,25.18,24.65,25.19z M24.01,23.22c0.03-0.02,0.06-0.03,0.1-0.05c0.85,0.18,1.71,0.31,2.58,0.32
		c0.61,0.07,1.22,0.15,1.83,0.22c-0.06,0.02-0.12,0.04-0.18,0.06C27.06,23.64,25.5,23.49,24.01,23.22z M30.35,21.66
		c-1.01-0.36-2.02-0.73-3.04-1.13c-1.68-0.67-3.36-1.14-5.11-1.55c-0.55-0.13-1-0.35-1.4-0.62C24.1,18.87,27.29,20.15,30.35,21.66z
		 M22.4,20.53c-1-0.1-2.01-0.14-3.03-0.14c-0.03-0.39-0.07-0.79-0.11-1.18C20.26,19.9,21.29,20.25,22.4,20.53z"/>
</g>
</svg>
