<?xml version="1.0" encoding="utf-8"?>
<!-- Generator: Adobe Illustrator 24.0.1, SVG Export Plug-In . SVG Version: 6.00 Build 0)  -->
<svg version="1.1" id="Layer_1" xmlns="http://www.w3.org/2000/svg" xmlns:xlink="http://www.w3.org/1999/xlink" x="0px" y="0px"
	 viewBox="0 0 74 74" style="enable-background:new 0 0 74 74;" xml:space="preserve">
<style type="text/css">
	.st0{fill:#FFFFFF;}
</style>
<path class="st0" d="M59,25H15c-1.2,0-2-0.4-2-1v-4c0-0.5,0.8-1,2-1h44c1,0,2,0.4,2,1v4C61,24.6,60.2,25,59,25z"/>
<path class="st0" d="M59.7,40H14.3c-0.6,0-1.3-0.4-1.3-1v-4c0-0.5,0.5-1,1.3-1h45.3c0.7,0,1.3,0.4,1.3,1v4C61,39.5,60.5,40,59.7,40z
	"/>
<path class="st0" d="M60,55H14c-0.5,0-1-0.4-1-1v-4c0-0.5,0.4-1,1-1h46c0.5,0,1,0.4,1,1v4C61,54.5,60.6,55,60,55z"/>
</svg>
