<?xml version="1.0" encoding="utf-8"?>
<!-- Generator: Adobe Illustrator 24.0.1, SVG Export Plug-In . SVG Version: 6.00 Build 0)  -->
<svg version="1.1" id="Layer_1" xmlns="http://www.w3.org/2000/svg" xmlns:xlink="http://www.w3.org/1999/xlink" x="0px" y="0px"
	 viewBox="0 0 48 35.9" style="enable-background:new 0 0 48 35.9;" xml:space="preserve">
<path d="M46,6H2C0.8,6,0,5.6,0,5V1c0-0.5,0.8-1,2-1h44c1,0,2,0.4,2,1v4C48,5.6,47.2,6,46,6z"/>
<path d="M46.7,21H1.3C0.7,21,0,20.6,0,20v-4c0-0.5,0.5-1,1.3-1h45.3c0.7,0,1.3,0.4,1.3,1v4C48,20.5,47.5,21,46.7,21z"/>
<path d="M47,35.9H1c-0.5,0-1-0.4-1-1v-4c0-0.5,0.4-1,1-1h46c0.5,0,1,0.4,1,1v4C48,35.5,47.6,35.9,47,35.9z"/>
</svg>
