<?xml version="1.0" encoding="utf-8"?>
<!-- Generator: Adobe Illustrator 23.0.1, SVG Export Plug-In . SVG Version: 6.00 Build 0)  -->
<svg version="1.1" id="Layer_1" xmlns="http://www.w3.org/2000/svg" xmlns:xlink="http://www.w3.org/1999/xlink" x="0px" y="0px"
	 viewBox="0 0 500 500" style="enable-background:new 0 0 500 500;" xml:space="preserve">
<style type="text/css">
	.st0{fill:#58595B;}
</style>
<g id="surface1">
	<path class="st0" d="M84.14,60C70.92,60,60,70.92,60,84.14v331.72C60,429.08,70.92,440,84.14,440h331.72
		c13.22,0,24.14-10.89,24.14-24.14V84.14C440,70.92,429.11,60,415.86,60H84.14z M84.14,78.1h331.72c3.36,0,6.04,2.69,6.04,6.04
		v331.72c0,3.36-2.69,6.04-6.04,6.04H84.14c-3.36,0-6.04-2.69-6.04-6.04V84.14C78.1,80.78,80.78,78.1,84.14,78.1z"/>
</g>
<g>
	<polygon class="st0" points="220.08,192.63 159.25,192.63 159.25,236.93 213.52,236.93 213.52,265.92 159.25,265.92 159.25,336.5 
		124.31,336.5 124.31,163.5 220.08,163.5 	"/>
	<polygon class="st0" points="349.07,336.5 321.17,336.5 302.97,262.12 284.81,336.5 256.77,336.5 230.16,207.94 262.48,207.94 
		273.88,280.18 290.99,207.94 314.9,207.94 332.01,280.08 343.51,207.94 375.69,207.94 	"/>
</g>
</svg>
