<?xml version="1.0" encoding="utf-8"?>
<!-- Generator: Adobe Illustrator 23.0.1, SVG Export Plug-In . SVG Version: 6.00 Build 0)  -->
<svg version="1.1" id="Layer_1" xmlns="http://www.w3.org/2000/svg" xmlns:xlink="http://www.w3.org/1999/xlink" x="0px" y="0px"
	 viewBox="0 0 500 500" style="enable-background:new 0 0 500 500;" xml:space="preserve">
<style type="text/css">
	.st0{fill-rule:evenodd;clip-rule:evenodd;fill:#58595B;}
	.st1{fill:#58595B;}
</style>
<g>
	<path class="st0" d="M80,60l30,340l140,40l140-40c10-113.32,20-226.68,30-340H80z M371.29,384.53L250,419.22l-121.28-34.69
		L101.84,80h296.32L371.29,384.53z"/>
	<polygon class="st1" points="342.84,178.26 195.4,178.26 198.92,218.15 339.29,218.15 328.76,336.04 249.92,359.86 249.16,359.61 
		171.24,336.01 166.99,287.98 205.17,287.98 206.82,306.62 250.38,315.74 293.15,306.62 297.71,256.17 164.14,256.17 153.76,140.14 
		346.24,140.14 	"/>
</g>
</svg>
