<?xml version="1.0" encoding="utf-8"?>
<!-- Generator: Adobe Illustrator 23.0.1, SVG Export Plug-In . SVG Version: 6.00 Build 0)  -->
<svg version="1.1" id="Layer_1" xmlns="http://www.w3.org/2000/svg" xmlns:xlink="http://www.w3.org/1999/xlink" x="0px" y="0px"
	 viewBox="0 0 500 500" style="enable-background:new 0 0 500 500;" xml:space="preserve">
<style type="text/css">
	.st0{fill:#58595B;}
</style>
<g id="surface1">
	<path class="st0" d="M84.14,60C70.92,60,60,70.92,60,84.14v331.72C60,429.08,70.92,440,84.14,440h331.72
		c13.22,0,24.14-10.89,24.14-24.14V84.14C440,70.92,429.11,60,415.86,60H84.14z M84.14,78.1h331.72c3.36,0,6.04,2.69,6.04,6.04
		v331.72c0,3.36-2.69,6.04-6.04,6.04H84.14c-3.36,0-6.04-2.69-6.04-6.04V84.14C78.1,80.78,80.78,78.1,84.14,78.1z"/>
</g>
<g>
	<g>
		<path class="st0" d="M168.9,350.69c-9.52,0-15.27-6.83-17.21-10.95c-2.13-3.6-7.51-16.09,7.75-31.68
			c5.59-5.87,17.21-18.08,48.18-28.64c1.67-3.48,3.4-7.12,5.18-10.88c2.38-5.02,4.86-10.24,7.43-15.55
			c5.28-11.55,8.9-20.05,11.63-27.33c-12.06-19.6-14.31-34.06-13.99-50.92c0.34-20.12,13.98-25.44,21.15-25.44
			c0.2,0,19.81,0.34,21.15,29.4c0.32,10.12-1.27,21.66-9.96,44.93c5.66,8.35,13.59,18.15,24.89,30.74c2.38,2.77,4.69,5.23,6.93,7.6
			c1.03,1.09,2.02,2.14,2.96,3.16c1.22-0.02,2.46-0.08,3.66-0.14c1.54-0.08,3.14-0.16,4.73-0.16c26.81,0,40.61,5.99,46.45,9.56
			c7.06,4.46,9.66,10.2,10.6,14.23c1.17,5.02,0.33,9.69-0.85,12.38c-1.78,4.64-8.25,12.63-20.98,12.63c-3.4,0-6.61-0.44-9.53-1.32
			c-9.38-2.64-16.84-6.03-40.36-30.42c-11.34,1.03-22.58,2.66-33.43,4.83c-9.94,1.92-18.63,4-25.88,6.19
			c-25.43,49.13-37.44,54.13-41.39,55.78C175.03,350.01,171.95,350.69,168.9,350.69z M166.58,333.07c0.3,0.4,1.1,1.26,2.32,1.26
			c0.52,0,1.45-0.19,2.5-0.72l0.09-0.05l0.1-0.04c0.83-0.31,8.24-3.76,24.13-31.81c-14.78,7.12-21.39,14.17-24.75,17.76
			c-6.71,6.94-5.93,10.86-5.66,11.68l1.25,1.26V333.07z M300.84,281.34c12.99,12.71,17.56,13.85,22.38,15.06
			c2.12,0.6,3.76,0.87,5.38,0.87c3.81,0,5.11-1.62,5.42-2.12l0.13-0.33c0.47-1.17,1.12-4.17-2.85-6.79
			C328.21,286.49,319.53,282.24,300.84,281.34z M241.2,246.12c-1.84,4.36-3.74,8.87-5.91,13.8c-2.23,4.46-4.49,8.98-6.4,13.3
			c4.28-1.03,8.7-2.08,13.22-2.8c6.63-1.37,13.99-2.55,22.31-3.56c-0.42-0.47-0.85-0.96-1.27-1.49
			c-8.27-8.84-14.93-17.14-20.04-23.77C242.48,243.08,241.85,244.58,241.2,246.12z M238.52,165.45c-2.68,0.76-4.12,3.82-4.29,9.09
			c-0.25,8.29-0.02,17.37,5.09,29.61c4.12-13.41,4.5-19.89,4.5-25.35C243.35,168.9,239.82,166.14,238.52,165.45z"/>
		<path class="st0" d="M168.9,348.69c-8.34,0-13.59-5.87-15.44-9.88c-1.85-3.09-7.1-14.52,7.41-29.34
			c6.18-6.49,17.92-18.22,48.19-28.42c4.02-8.34,8.34-17.61,12.97-27.18c4.94-10.81,8.96-20.08,12.05-28.42
			c-12.36-19.77-14.52-34.29-14.21-50.66c0.31-18.53,12.66-23.48,19.15-23.48c0.31,0,17.92,0.62,19.15,27.49
			c0.31,9.88-1.24,21.31-10.19,45.1c6.18,9.27,14.83,19.77,25.64,31.82c3.71,4.32,7.41,8.03,10.5,11.43c3.09,0,6.18-0.31,9.27-0.31
			c26.56,0,39.85,5.87,45.41,9.27c11.74,7.41,11.12,19.15,8.96,24.09c-1.54,4.02-7.41,11.43-19.15,11.43
			c-2.78,0-5.87-0.31-8.96-1.24c-9.88-2.78-17.3-6.8-40.16-30.58c-10.5,0.93-22.24,2.47-34.6,4.94c-9.58,1.85-18.84,4.02-26.87,6.49
			c-25.33,49.11-37.07,54.06-40.77,55.6C174.46,348.07,171.68,348.69,168.9,348.69z M200.41,297.41
			c-18.22,7.72-26.26,15.75-30.89,20.7c-8.96,9.27-5.87,14.21-5.87,14.21l0.93,0.93v0.31c0,0.31,1.54,2.78,4.32,2.78
			c0.93,0,2.16-0.31,3.4-0.93C174.77,334.48,183.42,328.61,200.41,297.41z M295.86,279.19c15.44,15.75,20.7,17.61,26.87,19.15
			c2.16,0.62,4.02,0.93,5.87,0.93c5.87,0,7.41-3.4,7.41-3.71c0.62-1.54,1.54-5.87-3.71-9.27
			C328.6,284.44,318.41,279.5,295.86,279.19z M225.74,275.48l-0.31,0.62c5.25-1.24,11.12-2.78,16.99-3.71
			c8.96-1.85,17.92-3.09,26.26-4.02l-0.31-0.31l0,0c-1.24-1.24-2.47-2.47-3.71-4.02c-8.96-9.58-16.06-18.53-21.93-26.26l-0.31,0.31
			l0,0c-2.78,6.49-5.56,13.28-8.96,21C230.68,264.67,227.9,270.23,225.74,275.48L225.74,275.48z M238.71,163.36
			c-1.85,0.31-6.18,1.54-6.49,11.12c-0.31,10.19,0.31,20.7,7.41,35.21c5.87-17.61,6.18-25.02,6.18-30.89
			C245.2,165.83,239.64,163.67,238.71,163.36z"/>
	</g>
</g>
</svg>
