<?xml version="1.0" encoding="utf-8"?>
<!-- Generator: Adobe Illustrator 23.0.4, SVG Export Plug-In . SVG Version: 6.00 Build 0)  -->
<svg version="1.1" id="Layer_1" xmlns="http://www.w3.org/2000/svg" xmlns:xlink="http://www.w3.org/1999/xlink" x="0px" y="0px"
	 viewBox="0 0 500 500" style="enable-background:new 0 0 500 500;" xml:space="preserve">
<style type="text/css">
	.st0{fill:#FFFFFF;}
</style>
<g id="surface1">
	<path class="st0" d="M84.1,60C70.9,60,60,70.9,60,84.1v331.7c0,13.2,10.9,24.1,24.1,24.1h331.7c13.2,0,24.1-10.9,24.1-24.1V84.1
		c0-13.2-10.9-24.1-24.1-24.1H84.1z M84.1,78.1h331.7c3.4,0,6,2.7,6,6v331.7c0,3.4-2.7,6-6,6H84.1c-3.4,0-6-2.7-6-6V84.1
		C78.1,80.8,80.8,78.1,84.1,78.1z"/>
</g>
<g>
	<g>
		<rect x="311" y="211.1" class="st0" width="33.9" height="129.2"/>
		<path class="st0" d="M341.3,190.5c-3.3,3.4-7.8,5.2-13.4,5.2c-5.7,0-10.1-1.7-13.4-5.2c-3.3-3.4-5-7.7-5-12.9
			c0-5.3,1.7-9.6,5-12.9c3.3-3.4,7.8-5,13.4-5c5.5,0,10,1.7,13.4,5s5,7.6,5,12.9C346.2,182.8,344.6,187.1,341.3,190.5z"/>
	</g>
	<path class="st0" d="M240.2,166.4h-32.1l-54.3,173.9h37.2l9.3-35.6h47.9l9.3,35.6h37.5L240.2,166.4z M207.9,275.4l16.2-61.9
		l16.2,61.9H207.9z"/>
</g>
</svg>
