<?xml version="1.0" encoding="utf-8"?>
<!-- Generator: Adobe Illustrator 23.0.4, SVG Export Plug-In . SVG Version: 6.00 Build 0)  -->
<svg version="1.1" id="Layer_1" xmlns="http://www.w3.org/2000/svg" xmlns:xlink="http://www.w3.org/1999/xlink" x="0px" y="0px"
	 viewBox="0 0 500 500" style="enable-background:new 0 0 500 500;" xml:space="preserve">
<style type="text/css">
	.st0{fill:#FFFFFF;}
</style>
<g id="surface1">
	<path class="st0" d="M84.1,60C70.9,60,60,70.9,60,84.1v331.7c0,13.2,10.9,24.1,24.1,24.1h331.7c13.2,0,24.1-10.9,24.1-24.1V84.1
		c0-13.2-10.9-24.1-24.1-24.1H84.1z M84.1,78.1h331.7c3.4,0,6,2.7,6,6v331.7c0,3.4-2.7,6-6,6H84.1c-3.4,0-6-2.7-6-6V84.1
		C78.1,80.8,80.8,78.1,84.1,78.1z"/>
</g>
<g>
	<g>
		<path class="st0" d="M168.9,350.7c-9.5,0-15.3-6.8-17.2-11c-2.1-3.6-7.5-16.1,7.8-31.7c5.6-5.9,17.2-18.1,48.2-28.6
			c1.7-3.5,3.4-7.1,5.2-10.9c2.4-5,4.9-10.2,7.4-15.6c5.3-11.6,8.9-20.1,11.6-27.3c-12.1-19.6-14.3-34.1-14-50.9
			c0.3-20.1,14-25.4,21.1-25.4c0.2,0,19.8,0.3,21.2,29.4c0.3,10.1-1.3,21.7-10,44.9c5.7,8.4,13.6,18.1,24.9,30.7
			c2.4,2.8,4.7,5.2,6.9,7.6c1,1.1,2,2.1,3,3.2c1.2,0,2.5-0.1,3.7-0.1c1.5-0.1,3.1-0.2,4.7-0.2c26.8,0,40.6,6,46.5,9.6
			c7.1,4.5,9.7,10.2,10.6,14.2c1.2,5,0.3,9.7-0.9,12.4c-1.8,4.6-8.2,12.6-21,12.6c-3.4,0-6.6-0.4-9.5-1.3c-9.4-2.6-16.8-6-40.4-30.4
			c-11.3,1-22.6,2.7-33.4,4.8c-9.9,1.9-18.6,4-25.9,6.2C194,342,182,347,178,348.7C175,350,171.9,350.7,168.9,350.7z M166.6,333.1
			c0.3,0.4,1.1,1.3,2.3,1.3c0.5,0,1.4-0.2,2.5-0.7l0.1,0l0.1,0c0.8-0.3,8.2-3.8,24.1-31.8c-14.8,7.1-21.4,14.2-24.8,17.8
			c-6.7,6.9-5.9,10.9-5.7,11.7l1.2,1.3L166.6,333.1L166.6,333.1z M300.8,281.3c13,12.7,17.6,13.9,22.4,15.1c2.1,0.6,3.8,0.9,5.4,0.9
			c3.8,0,5.1-1.6,5.4-2.1l0.1-0.3c0.5-1.2,1.1-4.2-2.9-6.8C328.2,286.5,319.5,282.2,300.8,281.3z M241.2,246.1
			c-1.8,4.4-3.7,8.9-5.9,13.8c-2.2,4.5-4.5,9-6.4,13.3c4.3-1,8.7-2.1,13.2-2.8c6.6-1.4,14-2.5,22.3-3.6c-0.4-0.5-0.9-1-1.3-1.5
			c-8.3-8.8-14.9-17.1-20-23.8C242.5,243.1,241.9,244.6,241.2,246.1z M238.5,165.4c-2.7,0.8-4.1,3.8-4.3,9.1
			c-0.2,8.3,0,17.4,5.1,29.6c4.1-13.4,4.5-19.9,4.5-25.4C243.4,168.9,239.8,166.1,238.5,165.4z"/>
		<path class="st0" d="M168.9,348.7c-8.3,0-13.6-5.9-15.4-9.9c-1.9-3.1-7.1-14.5,7.4-29.3c6.2-6.5,17.9-18.2,48.2-28.4
			c4-8.3,8.3-17.6,13-27.2c4.9-10.8,9-20.1,12.1-28.4c-12.4-19.8-14.5-34.3-14.2-50.7c0.3-18.5,12.7-23.5,19.1-23.5
			c0.3,0,17.9,0.6,19.1,27.5c0.3,9.9-1.2,21.3-10.2,45.1c6.2,9.3,14.8,19.8,25.6,31.8c3.7,4.3,7.4,8,10.5,11.4
			c3.1,0,6.2-0.3,9.3-0.3c26.6,0,39.9,5.9,45.4,9.3c11.7,7.4,11.1,19.1,9,24.1c-1.5,4-7.4,11.4-19.1,11.4c-2.8,0-5.9-0.3-9-1.2
			c-9.9-2.8-17.3-6.8-40.2-30.6c-10.5,0.9-22.2,2.5-34.6,4.9c-9.6,1.9-18.8,4-26.9,6.5c-25.3,49.1-37.1,54.1-40.8,55.6
			C174.5,348.1,171.7,348.7,168.9,348.7z M200.4,297.4c-18.2,7.7-26.3,15.8-30.9,20.7c-9,9.3-5.9,14.2-5.9,14.2l0.9,0.9v0.3
			c0,0.3,1.5,2.8,4.3,2.8c0.9,0,2.2-0.3,3.4-0.9C174.8,334.5,183.4,328.6,200.4,297.4z M295.9,279.2c15.4,15.8,20.7,17.6,26.9,19.1
			c2.2,0.6,4,0.9,5.9,0.9c5.9,0,7.4-3.4,7.4-3.7c0.6-1.5,1.5-5.9-3.7-9.3C328.6,284.4,318.4,279.5,295.9,279.2z M225.7,275.5
			l-0.3,0.6c5.2-1.2,11.1-2.8,17-3.7c9-1.9,17.9-3.1,26.3-4l-0.3-0.3l0,0c-1.2-1.2-2.5-2.5-3.7-4c-9-9.6-16.1-18.5-21.9-26.3
			l-0.3,0.3l0,0c-2.8,6.5-5.6,13.3-9,21C230.7,264.7,227.9,270.2,225.7,275.5L225.7,275.5z M238.7,163.4c-1.9,0.3-6.2,1.5-6.5,11.1
			c-0.3,10.2,0.3,20.7,7.4,35.2c5.9-17.6,6.2-25,6.2-30.9C245.2,165.8,239.6,163.7,238.7,163.4z"/>
	</g>
</g>
</svg>
