<?xml version="1.0" encoding="utf-8"?>
<!-- Generator: Adobe Illustrator 23.0.1, SVG Export Plug-In . SVG Version: 6.00 Build 0)  -->
<svg version="1.1" id="Layer_1" xmlns="http://www.w3.org/2000/svg" xmlns:xlink="http://www.w3.org/1999/xlink" x="0px" y="0px"
	 viewBox="0 0 500 500" style="enable-background:new 0 0 500 500;" xml:space="preserve">
<style type="text/css">
	.st0{fill:#58595B;}
</style>
<g id="surface1">
	<path class="st0" d="M84.14,60C70.92,60,60,70.92,60,84.14v331.72C60,429.08,70.92,440,84.14,440h331.72
		c13.22,0,24.14-10.89,24.14-24.14V84.14C440,70.92,429.11,60,415.86,60H84.14z M84.14,78.1h331.72c3.36,0,6.04,2.69,6.04,6.04
		v331.72c0,3.36-2.69,6.04-6.04,6.04H84.14c-3.36,0-6.04-2.69-6.04-6.04V84.14C78.1,80.78,80.78,78.1,84.14,78.1z"/>
</g>
<g>
	<g>
		<rect x="311.04" y="211.08" class="st0" width="33.91" height="129.19"/>
		<path class="st0" d="M341.27,190.54c-3.3,3.44-7.79,5.16-13.43,5.16c-5.69,0-10.12-1.72-13.43-5.16
			c-3.34-3.44-4.96-7.74-4.96-12.9c0-5.26,1.68-9.55,5.01-12.9c3.34-3.35,7.79-5.01,13.38-5.01c5.54,0,10.03,1.68,13.38,5.01
			s5.01,7.64,5.01,12.9C346.24,182.8,344.56,187.1,341.27,190.54z"/>
	</g>
	<path class="st0" d="M240.21,166.42h-32.14l-54.3,173.86h37.16l9.27-35.58h47.91l9.32,35.58h37.49L240.21,166.42z M207.88,275.41
		l16.24-61.94l16.24,61.94H207.88z"/>
</g>
</svg>
