<?xml version="1.0" encoding="utf-8"?>
<!-- Generator: Adobe Illustrator 23.0.4, SVG Export Plug-In . SVG Version: 6.00 Build 0)  -->
<svg version="1.1" id="Layer_1" xmlns="http://www.w3.org/2000/svg" xmlns:xlink="http://www.w3.org/1999/xlink" x="0px" y="0px"
	 viewBox="0 0 500 500" style="enable-background:new 0 0 500 500;" xml:space="preserve">
<style type="text/css">
	.st0{fill:#FFFFFF;}
</style>
<g id="surface1">
	<path class="st0" d="M84.1,60C70.9,60,60,70.9,60,84.1v331.7c0,13.2,10.9,24.1,24.1,24.1h331.7c13.2,0,24.1-10.9,24.1-24.1V84.1
		c0-13.2-10.9-24.1-24.1-24.1H84.1z M84.1,78.1h331.7c3.4,0,6,2.7,6,6v331.7c0,3.4-2.7,6-6,6H84.1c-3.4,0-6-2.7-6-6V84.1
		C78.1,80.8,80.8,78.1,84.1,78.1z"/>
</g>
<g>
	<path class="st0" d="M349.5,332.7c-8.6,6.9-19.9,10.4-33.7,10.4c-9.4,0-17.6-1.8-24.8-5.5c-7.2-3.7-12.8-8.8-16.8-15.3
		c-4.1-6.5-6.1-13.6-6.1-21.1h31.8c0.2,5.9,1.5,10.2,4.1,13.1c2.5,2.9,6.8,4.3,12.5,4.3c9,0,13.5-4,13.5-12.1c0-2.8-1.3-5.5-4.1-7.8
		c-2.7-2.4-8.7-5.7-18.1-9.7c-13.8-5.6-23.2-11.4-28.4-17.4c-5.1-6-7.7-13.4-7.7-22.3c0-11.1,4.1-20.4,12.1-27.6
		c8-7.3,18.7-10.9,32-10.9c14,0,25.2,3.6,33.6,10.9c8.4,7.2,12.6,16.9,12.6,29.1h-33.4c0-10.4-4.3-15.6-13-15.6
		c-3.5,0-6.5,1.1-8.7,3.3c-2.3,2.2-3.4,5.3-3.4,9.2c0,2.8,1.3,5.3,3.8,7.5c2.5,2.2,8.4,5.2,17.8,9.2c13.6,5,23.2,10.7,28.8,16.8
		c5.7,6.2,8.4,14.1,8.4,24C362.3,316.6,358,325.7,349.5,332.7z"/>
	<path class="st0" d="M236.8,184.8c-10.1-10.5-23.6-15.8-40.6-15.8h-58.5v171.7h34.7v-60.4h23.1c17.7,0,31.5-4.9,41.5-14.6
		c10-9.8,15-23,15-39.9S246.9,195.3,236.8,184.8z M211.5,244.9c-3.6,4.3-8.7,6.5-15.3,6.5h-23.8v-53.6h24.1
		c6.2,0.1,11.2,2.6,14.9,7.7c3.7,5.1,5.6,11.9,5.6,20.5C216.9,234.3,215.1,240.6,211.5,244.9z"/>
</g>
</svg>
