<?xml version="1.0" encoding="utf-8"?>
<!-- Generator: Adobe Illustrator 23.0.4, SVG Export Plug-In . SVG Version: 6.00 Build 0)  -->
<svg version="1.1" id="Layer_1" xmlns="http://www.w3.org/2000/svg" xmlns:xlink="http://www.w3.org/1999/xlink" x="0px" y="0px"
	 viewBox="0 0 500 500" style="enable-background:new 0 0 500 500;" xml:space="preserve">
<style type="text/css">
	.st0{fill:#FFFFFF;}
</style>
<g id="surface1">
	<path class="st0" d="M84.1,60C70.9,60,60,70.9,60,84.1v331.7c0,13.2,10.9,24.1,24.1,24.1h331.7c13.2,0,24.1-10.9,24.1-24.1V84.1
		c0-13.2-10.9-24.1-24.1-24.1H84.1z M84.1,78.1h331.7c3.4,0,6,2.7,6,6v331.7c0,3.4-2.7,6-6,6H84.1c-3.4,0-6-2.7-6-6V84.1
		C78.1,80.8,80.8,78.1,84.1,78.1z M231.9,231.9v113.8c0,17.5-6.6,22-18.1,22c-12,0-20.4-7.5-25.9-17.2l-28.4,17.2
		c8.2,17.4,28.4,36.2,56.4,36.2c31,0,52.2-16.5,52.2-52.6V231.9H231.9z M344.6,231.9c-30.8,0-50.6,19.7-50.6,45.6
		c0,28.1,16.6,41.4,41.5,52l8.6,3.7c15.7,6.9,23.5,11.1,23.5,22.9c0,9.9-7.5,17-21.8,17c-17,0-25.1-11.6-32.5-23.6l-27.1,18.1
		c10.1,20,28.3,36.2,60.4,36.2c32.8,0,57.2-17,57.2-48.1c0-28.8-16.5-41.7-45.9-54.2l-8.6-3.7c-14.8-6.4-21.2-10.6-21.2-21
		c0-8.4,6.4-14.8,16.5-14.8c9.9,0,16.3,4.2,22.2,14.8l26.9-17.2C382.3,239.5,366.5,231.9,344.6,231.9z"/>
</g>
</svg>
