<?xml version="1.0" encoding="utf-8"?>
<!-- Generator: Adobe Illustrator 23.0.1, SVG Export Plug-In . SVG Version: 6.00 Build 0)  -->
<svg version="1.1" id="Layer_1" xmlns="http://www.w3.org/2000/svg" xmlns:xlink="http://www.w3.org/1999/xlink" x="0px" y="0px"
	 viewBox="0 0 500 500" style="enable-background:new 0 0 500 500;" xml:space="preserve">
<style type="text/css">
	.st0{fill:#58595B;}
</style>
<g id="surface1">
	<path class="st0" d="M84.14,60C70.92,60,60,70.92,60,84.14v331.72C60,429.08,70.92,440,84.14,440h331.72
		c13.22,0,24.14-10.89,24.14-24.14V84.14C440,70.92,429.11,60,415.86,60H84.14z M84.14,78.1h331.72c3.36,0,6.04,2.69,6.04,6.04
		v331.72c0,3.36-2.69,6.04-6.04,6.04H84.14c-3.36,0-6.04-2.69-6.04-6.04V84.14C78.1,80.78,80.78,78.1,84.14,78.1z"/>
</g>
<g>
	<path class="st0" d="M349.5,332.66c-8.59,6.93-19.86,10.38-33.73,10.38c-9.39,0-17.64-1.84-24.77-5.47
		c-7.17-3.68-12.78-8.77-16.84-15.29c-4.06-6.51-6.09-13.59-6.09-21.14h31.75c0.19,5.85,1.51,10.19,4.06,13.12
		c2.55,2.92,6.75,4.34,12.55,4.34c8.96,0,13.45-4.01,13.45-12.12c0-2.83-1.32-5.47-4.06-7.83c-2.74-2.41-8.73-5.66-18.07-9.72
		c-13.78-5.61-23.21-11.37-28.4-17.36c-5.14-5.99-7.74-13.4-7.74-22.31c0-11.13,4.06-20.38,12.12-27.65
		c8.02-7.27,18.73-10.9,31.99-10.9c14.01,0,25.19,3.63,33.64,10.85c8.4,7.22,12.6,16.94,12.6,29.11H328.6
		c0-10.38-4.34-15.57-12.97-15.57c-3.54,0-6.46,1.13-8.73,3.3c-2.31,2.22-3.44,5.28-3.44,9.2c0,2.83,1.27,5.33,3.77,7.5
		c2.55,2.17,8.44,5.24,17.83,9.25c13.59,5.05,23.21,10.66,28.82,16.84c5.66,6.18,8.44,14.15,8.44,23.97
		C362.33,316.57,358.03,325.73,349.5,332.66z"/>
	<path class="st0" d="M236.79,184.76c-10.1-10.52-23.64-15.8-40.62-15.8h-58.5v171.72h34.67V280.3h23.12
		c17.69,0,31.51-4.86,41.47-14.62c10-9.77,15-23.02,15-39.86S246.89,195.28,236.79,184.76z M211.5,244.91
		c-3.63,4.34-8.73,6.51-15.33,6.51h-23.82v-53.55h24.15c6.23,0.05,11.18,2.64,14.86,7.69c3.73,5.1,5.57,11.89,5.57,20.47
		C216.93,234.3,215.14,240.62,211.5,244.91z"/>
</g>
</svg>
