<?xml version="1.0" encoding="utf-8"?>
<!-- Generator: Adobe Illustrator 23.0.4, SVG Export Plug-In . SVG Version: 6.00 Build 0)  -->
<svg version="1.1" id="Layer_1" xmlns="http://www.w3.org/2000/svg" xmlns:xlink="http://www.w3.org/1999/xlink" x="0px" y="0px"
	 viewBox="0 0 500 500" style="enable-background:new 0 0 500 500;" xml:space="preserve">
<style type="text/css">
	.st0{fill-rule:evenodd;clip-rule:evenodd;fill:#FFFFFF;}
	.st1{fill:#FFFFFF;}
</style>
<g>
	<path class="st0" d="M80,60l30,340l140,40l140-40c10-113.3,20-226.7,30-340H80z M371.3,384.5L250,419.2l-121.3-34.7L101.8,80h296.3
		L371.3,384.5z"/>
	<polygon class="st1" points="342.8,178.3 195.4,178.3 198.9,218.1 339.3,218.1 328.8,336 249.9,359.9 249.2,359.6 171.2,336 
		167,288 205.2,288 206.8,306.6 250.4,315.7 293.1,306.6 297.7,256.2 164.1,256.2 153.8,140.1 346.2,140.1 	"/>
</g>
</svg>
