<?xml version="1.0" encoding="utf-8"?>
<!-- Generator: Adobe Illustrator 23.0.1, SVG Export Plug-In . SVG Version: 6.00 Build 0)  -->
<svg version="1.1" id="Layer_1" xmlns="http://www.w3.org/2000/svg" xmlns:xlink="http://www.w3.org/1999/xlink" x="0px" y="0px"
	 viewBox="0 0 500 500" style="enable-background:new 0 0 500 500;" xml:space="preserve">
<style type="text/css">
	.st0{fill:#58595B;}
</style>
<g id="surface1">
	<path class="st0" d="M84.14,60C70.92,60,60,70.92,60,84.14v331.72C60,429.08,70.92,440,84.14,440h331.72
		c13.22,0,24.14-10.89,24.14-24.14V84.14C440,70.92,429.11,60,415.86,60H84.14z M84.14,78.1h331.72c3.36,0,6.04,2.69,6.04,6.04
		v331.72c0,3.36-2.69,6.04-6.04,6.04H84.14c-3.36,0-6.04-2.69-6.04-6.04V84.14C78.1,80.78,80.78,78.1,84.14,78.1z"/>
</g>
<g>
	<path class="st0" d="M294.84,159.3v63.95c-6.51-8.5-14.68-12.74-24.54-12.74c-13.5,0-23.83,5.14-30.91,15.48
		c-7.08,10.29-10.62,25.91-10.62,46.82v9.68c0.19,19.82,3.78,34.83,10.81,45.07s17.23,15.34,30.63,15.34
		c10.76,0,19.59-5.1,26.43-15.34l1.51,12.98h30.35V159.3H294.84z M294.84,306.22c-3.35,5.9-8.35,8.83-14.96,8.83
		c-6.37,0-10.9-2.5-13.59-7.5c-2.64-4.96-4.01-13.78-4.01-26.34v-8.87c0-12.65,1.46-21.47,4.29-26.43c2.78-4.96,7.27-7.41,13.4-7.41
		c6.61,0,11.56,3.11,14.87,9.44V306.22z"/>
	<rect x="171.09" y="168.73" class="st0" width="34.69" height="171.8"/>
</g>
</svg>
