<?xml version="1.0" encoding="utf-8"?>
<!-- Generator: Adobe Illustrator 23.0.4, SVG Export Plug-In . SVG Version: 6.00 Build 0)  -->
<svg version="1.1" id="Layer_1" xmlns="http://www.w3.org/2000/svg" xmlns:xlink="http://www.w3.org/1999/xlink" x="0px" y="0px"
	 viewBox="0 0 500 500" style="enable-background:new 0 0 500 500;" xml:space="preserve">
<style type="text/css">
	.st0{fill:#FFFFFF;}
</style>
<g id="surface1">
	<path class="st0" d="M84.1,60C70.9,60,60,70.9,60,84.1v331.7c0,13.2,10.9,24.1,24.1,24.1h331.7c13.2,0,24.1-10.9,24.1-24.1V84.1
		c0-13.2-10.9-24.1-24.1-24.1H84.1z M84.1,78.1h331.7c3.4,0,6,2.7,6,6v331.7c0,3.4-2.7,6-6,6H84.1c-3.4,0-6-2.7-6-6V84.1
		C78.1,80.8,80.8,78.1,84.1,78.1z"/>
</g>
<g>
	<path class="st0" d="M294.8,159.3v63.9c-6.5-8.5-14.7-12.7-24.5-12.7c-13.5,0-23.8,5.1-30.9,15.5c-7.1,10.3-10.6,25.9-10.6,46.8
		v9.7c0.2,19.8,3.8,34.8,10.8,45.1s17.2,15.3,30.6,15.3c10.8,0,19.6-5.1,26.4-15.3l1.5,13h30.4V159.3H294.8z M294.8,306.2
		c-3.4,5.9-8.4,8.8-15,8.8c-6.4,0-10.9-2.5-13.6-7.5c-2.6-5-4-13.8-4-26.3v-8.9c0-12.6,1.5-21.5,4.3-26.4c2.8-5,7.3-7.4,13.4-7.4
		c6.6,0,11.6,3.1,14.9,9.4V306.2z"/>
	<rect x="171.1" y="168.7" class="st0" width="34.7" height="171.8"/>
</g>
</svg>
