<?xml version="1.0" encoding="utf-8"?>
<!-- Generator: Adobe Illustrator 23.0.1, SVG Export Plug-In . SVG Version: 6.00 Build 0)  -->
<svg version="1.1" id="Layer_1" xmlns="http://www.w3.org/2000/svg" xmlns:xlink="http://www.w3.org/1999/xlink" x="0px" y="0px"
	 viewBox="0 0 500 500" style="enable-background:new 0 0 500 500;" xml:space="preserve">
<style type="text/css">
	.st0{fill:#58595B;}
</style>
<g id="surface1">
	<path class="st0" d="M84.14,60C70.92,60,60,70.92,60,84.14v331.72C60,429.08,70.92,440,84.14,440h331.72
		c13.22,0,24.14-10.89,24.14-24.14V84.14C440,70.92,429.11,60,415.86,60H84.14z M84.14,78.1h331.72c3.36,0,6.04,2.69,6.04,6.04
		v331.72c0,3.36-2.69,6.04-6.04,6.04H84.14c-3.36,0-6.04-2.69-6.04-6.04V84.14C78.1,80.78,80.78,78.1,84.14,78.1z"/>
</g>
<g>
	<path class="st0" d="M255.56,260.88c-4.18-6.7-10.17-11.17-17.97-13.4c6.75-2.95,12.07-7.56,15.97-13.88
		c3.85-6.32,5.8-13.93,5.8-22.72c0-15.49-4.66-27.28-14.07-35.31c-9.41-8.08-23.1-12.07-41.16-12.07h-53.47v173h57.27
		c17.49,0,30.85-4.28,40.07-12.83c9.22-8.55,13.83-21.24,13.88-38.02C261.88,275.81,259.79,267.59,255.56,260.88z M185.55,192.59
		h18.54c7.13,0,12.31,1.71,15.45,5.13c3.18,3.42,4.75,9.03,4.75,16.87c0,14.16-6.84,21.29-20.53,21.24h-18.2L185.55,192.59
		L185.55,192.59z M222.2,301.66c-3.28,3.9-8.03,5.85-14.26,5.85H185.6v-46.24h24.57c11.26,0.43,16.87,8.36,16.87,23.91
		C227.04,292.3,225.43,297.77,222.2,301.66z"/>
	<path class="st0" d="M348.95,240.4l-11.17-0.95c-9.22,0-15.4,4.04-18.68,12.12v84.93h-33.7V207.94h31.7l0.95,13.93
		c5.32-10.88,12.64-16.3,22.01-16.3c3.8,0,6.84,0.52,9.27,1.57L348.95,240.4z"/>
</g>
</svg>
