<?xml version="1.0" encoding="utf-8"?>
<!-- Generator: Adobe Illustrator 23.0.1, SVG Export Plug-In . SVG Version: 6.00 Build 0)  -->
<svg version="1.1" id="Layer_1" xmlns="http://www.w3.org/2000/svg" xmlns:xlink="http://www.w3.org/1999/xlink" x="0px" y="0px"
	 viewBox="0 0 500 500" style="enable-background:new 0 0 500 500;" xml:space="preserve">
<style type="text/css">
	.st0{fill:#58595B;}
</style>
<g id="surface1">
	<path class="st0" d="M84.14,60C70.92,60,60,70.92,60,84.14v331.72C60,429.08,70.92,440,84.14,440h331.72
		c13.22,0,24.14-10.89,24.14-24.14V84.14C440,70.92,429.11,60,415.86,60H84.14z M84.14,78.1h331.72c3.36,0,6.04,2.69,6.04,6.04
		v331.72c0,3.36-2.69,6.04-6.04,6.04H84.14c-3.36,0-6.04-2.69-6.04-6.04V84.14C78.1,80.78,80.78,78.1,84.14,78.1z M231.9,231.9
		v113.77c0,17.46-6.61,21.95-18.1,21.95c-12.02,0-20.36-7.49-25.87-17.21l-28.42,17.21c8.23,17.42,28.42,36.19,56.41,36.19
		c30.96,0,52.17-16.47,52.17-52.62V231.9H231.9z M344.58,231.9c-30.82,0-50.57,19.72-50.57,45.63c0,28.1,16.58,41.39,41.49,51.99
		l8.62,3.71c15.73,6.89,23.5,11.1,23.5,22.94c0,9.86-7.49,17-21.81,17c-17.03,0-25.09-11.56-32.48-23.64l-27.14,18.1
		c10.14,20.04,28.34,36.19,60.4,36.19c32.8,0,57.22-17.03,57.22-48.1c0-28.84-16.54-41.67-45.91-54.25l-8.62-3.68
		c-14.81-6.43-21.24-10.6-21.24-20.96c0-8.38,6.43-14.81,16.54-14.81c9.93,0,16.29,4.21,22.19,14.81l26.9-17.25
		C382.32,239.54,366.52,231.9,344.58,231.9z"/>
</g>
</svg>
