<?xml version="1.0" encoding="utf-8"?>
<!-- Generator: Adobe Illustrator 24.0.1, SVG Export Plug-In . SVG Version: 6.00 Build 0)  -->
<svg version="1.1" id="Layer_1" xmlns="http://www.w3.org/2000/svg" xmlns:xlink="http://www.w3.org/1999/xlink" x="0px" y="0px"
	 viewBox="0 0 760 480" style="enable-background:new 0 0 760 480;" xml:space="preserve">
<g>
	<g>
		<path d="M312.8,480c-2.3,0-4.7,0.1-7,0c-42.4-1.7-82.1-19.9-111.6-50.9c-26.1-27.4-41.7-62.4-44.8-99.7h-0.6l0-15V30.9
			c-30.3,3.3-58.3,16.9-80.2,39c-25.3,25.7-39.2,59.7-38.9,95.7l0.1,15.1h-0.1V480H0V150.8h0.6c3.2-38.4,19.5-74.2,47-102
			c31-31.4,72.2-48.7,116.1-48.7c0,0,0.1,0,0.1,0l14.9,0v299.2h0.1l-0.1,15.1c-0.3,35.1,12.9,68.5,37.1,93.9
			c24.1,25.4,56.6,40.1,91.3,41.5c37,1.5,72-11.8,98.6-37.7c26.6-25.9,41.2-60.6,40.9-97.7l-0.1-15.1h0.1V0.2l14.9,0
			c0,0,0.1,0,0.1,0c43.9,0,85.1,17.3,116.1,48.7c27.4,27.8,43.8,63.5,47,102h0.6l0,15V480h-29.8V180.7h-0.1l0.1-15.1
			c0.3-36.1-13.5-70-38.9-95.7c-21.8-22.1-49.9-35.7-80.2-39v298.4h-0.6c-3.3,39.7-20.5,76.3-49.4,104.4
			C395.4,463.7,355.4,480,312.8,480z"/>
	</g>
	<g>
		<path d="M760,329.3H447.5v-0.6c-39.5-3.3-75.9-20.6-103.8-49.7c-31.4-32.7-47.7-75.7-45.8-121.1c1.9-47.1,20.3-89.2,51.8-118.4
			C379.5,12,418.5-1.6,462.4,0.2H760v29.9H477.2v0.7l-15.5-0.7c-36.1-1.6-67.9,9.3-91.9,31.5c-25.7,23.8-40.7,58.4-42.2,97.6
			c-1.5,37.2,11.8,72.4,37.5,99.1c25.5,26.5,59.6,41.1,96.2,41.1c0.3,0,0.7,0,1,0l15-0.1v0.1H760V329.3z"/>
	</g>
	<g>
		<polygon points="462.3,15.1 530.5,32.2 579.3,73.5 610.2,148.3 610.2,314.4 462.3,314.4 		"/>
	</g>
	<ellipse cx="462.3" cy="163.7" rx="111.1" ry="111.7"/>
</g>
</svg>
