<?xml version="1.0" encoding="utf-8"?>
<!-- Generator: Adobe Illustrator 24.1.0, SVG Export Plug-In . SVG Version: 6.00 Build 0)  -->
<svg version="1.1" id="Capa_1" xmlns="http://www.w3.org/2000/svg" xmlns:xlink="http://www.w3.org/1999/xlink" x="0px" y="0px"
	 viewBox="0 0 688 512" style="enable-background:new 0 0 688 512;" xml:space="preserve">
<style type="text/css">
	.st0{fill:#FFFF00;}
</style>
<rect x="33.9" y="189" class="st0" width="502" height="291"/>
<g>
	<path d="M55.7,118.6c-7.1,0-12.8,5.7-12.8,12.8c0,7.1,5.8,12.8,12.8,12.8c7.1,0,12.8-5.7,12.8-12.8
		C68.5,124.3,62.8,118.6,55.7,118.6z"/>
	<path d="M101.5,118.6c-7.1,0-12.8,5.7-12.8,12.8c0,7.1,5.8,12.8,12.8,12.8c7.1,0,12.8-5.7,12.8-12.8
		C114.4,124.3,108.6,118.6,101.5,118.6z"/>
	<ellipse cx="147.4" cy="131.4" rx="12.8" ry="12.8"/>
	<path d="M537.8,88H32c-17.7,0-32.1,14.4-32.1,32v218.7v15.9v125.3c0,17.7,14.4,32,32.1,32h505.8c17.7,0,32.1-14.4,32.1-32V260.1
		v-9.9V120C569.9,102.3,555.5,88,537.8,88z M550,155H19.8v-35c0-6.7,5.5-12.2,12.2-12.2h505.8c6.7,0,12.2,5.5,12.2,12.2V155z
		 M19.8,354.7v-15.9v-164H550v75.4v9.9v219.8c0,6.7-5.5,12.2-12.2,12.2H32c-6.7,0-12.2-5.5-12.2-12.2V354.7z"/>
	<path d="M256.8,240.7h55.9c5.5,0,9.9-4.5,9.9-9.9c0-5.5-4.5-9.9-9.9-9.9h-55.9c-5.5,0-9.9,4.5-9.9,9.9S251.3,240.7,256.8,240.7z"/>
	<path d="M256.8,274.2h55.9c5.5,0,9.9-4.5,9.9-9.9c0-5.5-4.5-9.9-9.9-9.9h-55.9c-5.5,0-9.9,4.5-9.9,9.9S251.3,274.2,256.8,274.2z"/>
	<path d="M59,471.8h111.8c5.5,0,9.9-4.5,9.9-9.9v-89.3c0-5.5-4.5-9.9-9.9-9.9h-46v-21.4h150.1v21.4h-46c-5.5,0-9.9,4.5-9.9,9.9v89.3
		c0,5.5,4.5,9.9,9.9,9.9h111.8c5.5,0,9.9-4.5,9.9-9.9v-89.3c0-5.5-4.5-9.9-9.9-9.9h-46v-21.4h150.1v21.4h-46c-5.5,0-9.9,4.5-9.9,9.9
		v89.3c0,5.5,4.5,9.9,9.9,9.9h111.8c5.5,0,9.9-4.5,9.9-9.9v-89.3c0-5.5-4.5-9.9-9.9-9.9h-46v-31.4c0-5.5-4.5-9.9-9.9-9.9h-160v-19.2
		h46c5.5,0,9.9-4.5,9.9-9.9V203c0-5.5-4.5-9.9-9.9-9.9H229c-5.5,0-9.9,4.5-9.9,9.9v89.3c0,5.5,4.5,9.9,9.9,9.9h46v19.2H115
		c-5.5,0-9.9,4.5-9.9,9.9v31.4H59c-5.5,0-9.9,4.5-9.9,9.9v89.3C49.1,467.3,53.6,471.8,59,471.8z M238.9,451.9v-69.4h91.9v69.4H238.9
		z M330.9,212.8v69.4H239v-69.4L330.9,212.8L330.9,212.8z M408.9,451.9v-69.4h91.9v69.4H408.9z M69,451.9v-69.4h91.9v69.4H69z"/>
	<path d="M482.8,390.5h-55.9c-5.5,0-9.9,4.5-9.9,9.9c0,5.5,4.5,9.9,9.9,9.9h55.9c5.5,0,9.9-4.5,9.9-9.9
		C492.7,395,488.3,390.5,482.8,390.5z"/>
	<path d="M482.8,424h-55.9c-5.5,0-9.9,4.5-9.9,9.9c0,5.5,4.5,9.9,9.9,9.9h55.9c5.5,0,9.9-4.5,9.9-9.9
		C492.7,428.5,488.3,424,482.8,424z"/>
	<path d="M312.8,390.5h-55.9c-5.5,0-9.9,4.5-9.9,9.9c0,5.5,4.5,9.9,9.9,9.9h55.9c5.5,0,9.9-4.5,9.9-9.9
		C322.8,395,318.3,390.5,312.8,390.5z"/>
	<path d="M312.8,424h-55.9c-5.5,0-9.9,4.5-9.9,9.9c0,5.5,4.5,9.9,9.9,9.9h55.9c5.5,0,9.9-4.5,9.9-9.9
		C322.8,428.5,318.3,424,312.8,424z"/>
	<path d="M142.9,390.5H87c-5.5,0-9.9,4.5-9.9,9.9c0,5.5,4.5,9.9,9.9,9.9h55.9c5.5,0,9.9-4.5,9.9-9.9
		C152.8,395,148.4,390.5,142.9,390.5z"/>
	<path d="M142.9,424H87c-5.5,0-9.9,4.5-9.9,9.9c0,5.5,4.5,9.9,9.9,9.9h55.9c5.5,0,9.9-4.5,9.9-9.9C152.8,428.5,148.4,424,142.9,424z
		"/>
</g>
</svg>
