<?xml version="1.0" encoding="utf-8"?>
<!-- Generator: Adobe Illustrator 24.0.1, SVG Export Plug-In . SVG Version: 6.00 Build 0)  -->
<svg version="1.1" id="Layer_1" xmlns="http://www.w3.org/2000/svg" xmlns:xlink="http://www.w3.org/1999/xlink" x="0px" y="0px"
	 viewBox="0 0 750 828" style="enable-background:new 0 0 750 828;" xml:space="preserve">
<style type="text/css">
	.st0{clip-path:url(#SVGID_2_);}
	.st1{fill:#E6E6E6;}
</style>
<g>
	<defs>
		<rect id="SVGID_1_" width="750" height="828"/>
	</defs>
	<clipPath id="SVGID_2_">
		<use xlink:href="#SVGID_1_"  style="overflow:visible;"/>
	</clipPath>
	<g class="st0">
		<path class="st1" d="M631.18,524.11c-0.46,0.44-0.95,0.84-1.46,1.2c0.11-0.1,0.32-0.3,0.32-0.3c1.74-1.66,3.03-3.65,4.18-6.45
			c0.03-0.07,0.06-0.1,0.07-0.11c0.01-0.01,0.03-0.03,0.07-0.03c0.04,0,0.07,0.02,0.07,0.02l0,0c0,0,0.01,0.04-0.01,0.13
			C634.05,520.48,632.86,522.5,631.18,524.11z"/>
		<path class="st1" d="M627.61,520.57c-2.24,2.14-5.16,3.83-8.25,4.84c3.17-1.44,5.98-3.42,8.96-6.26c0.42-0.4,0.85-0.82,1.27-1.25
			c0.05-0.01,0.17,0.06,0.22,0.13C629.17,518.93,628.44,519.78,627.61,520.57z"/>
		<path class="st1" d="M443.39,696.74c-1.21,1.16-2.82,1.86-4.52,2.05c1.65-0.46,3.18-1.36,4.56-2.67c0.08-0.08,0.11-0.11,0.22,0
			c0.17,0.17,0.06,0.29,0,0.35C443.57,696.56,443.48,696.65,443.39,696.74z"/>
		<g>
			<path class="st1" d="M696.97,309.27c-0.04,0.04-0.06,0.06-0.2,0.02l-0.18-0.06c-0.17-0.1-0.31-0.27-0.36-0.44
				c-0.03-0.11-0.01-0.19,0.04-0.26c3.43-5.44,7.06-10.9,10.58-16.18c15.65-23.51,31.83-47.83,34.76-77.66
				c2.3-23.44-6.5-42.29-15.82-62.26c-4.22-9.03-8.57-18.37-11.76-28.11c-7.83-23.88-6.07-50.69,4.82-73.58
				c3.68-7.72,10.48-15.87,17.67-24.49c16.42-19.69,35.03-42,18.81-64.81c-0.04-0.09-0.08-0.18-0.12-0.26l-0.52-0.91l-1,0.32
				c-0.27,0.09-0.54-0.07-0.66-0.26c-0.08-0.13-0.12-0.29,0.14-0.55c0.32-0.33,0.65-0.65,0.99-0.98
				c5.23-4.99,11.86-8.82,17.75-10.25c0.56-0.14,0.94-0.02,1.15,0.37c0.25,0.45,0.22,1.18-0.25,1.63c-0.14,0.13-0.31,0.24-0.52,0.32
				c-0.76,0.28-1.49,0.56-2.22,0.84l-0.08,0.03c-5.29,2.08-9.05,3.96-12.59,6.3l-1.31,0.86l1.1,1.15
				c18.04,23.23-1.88,47.12-17.89,66.32c-1.3,1.56-2.57,3.08-3.78,4.56c-11.86,14.46-19.4,31.6-21.81,49.56
				c-2.38,17.74,0.22,36.29,7.54,53.65c2.28,5.41,4.7,10.72,7.05,15.85c10.1,22.11,19.64,42.99,16.04,68.92
				c-3.99,28.82-19.47,58.37-47.33,90.33L696.97,309.27z"/>
			<path class="st1" d="M656.64,544.2c-6.2,5.92-13.57,10.62-19.7,12.56c-12.49,3.94-22.32-4.15-31.83-11.97
				c-0.86-0.7-1.71-1.4-2.56-2.09c-16.78-13.66-33.23-28.03-48.9-42.72c-1.23-1.16-2.47-2.31-3.71-3.47
				c-14.22-13.3-28.92-27.04-40.63-42.62l-0.19-0.26l-0.29-0.14c-6.31-2.99-10.18-11.03-8.99-18.71c0.83-5.39,4.23-11.07,9.84-16.43
				c5.47-5.23,12.76-9.82,19.49-12.28c4.31-1.59,8.54-1.58,12.93,0.03l0.92,0.34l0.58-0.79c9.14-12.4,19.15-24.47,28.83-36.13
				c1.42-1.71,2.84-3.42,4.25-5.13c2.34-2.82,4.61-5.75,7.02-8.84c5.2-6.7,10.59-13.63,16.66-19.43c3.7-3.54,7.29-6.3,10.96-8.45
				c13.37-7.85,29.69-6.07,49.9,5.44l1.24,0.71l0.59-1.3c0.03-0.07,0.06-0.14,0.08-0.21c3.26-4.59,7.16-9.79,11.5-13.94
				c7.3-6.97,14.17-9.16,21-6.71l0.37,0.12c2.55,0.97,5.2,2.64,7.81,4.92c1.77,1.57,3.26,3.01,4.56,4.4l1.1,1.18l0.93-1.32
				c2.58-3.69,5.24-7.42,7.82-11.04c19.43-27.28,39.52-55.48,45.17-90.09c2.99-18.4,1.19-36.34-5.35-53.35
				c-2.99-7.79-6.71-15.39-10.31-22.73c-3.14-6.42-6.39-13.06-9.13-19.77c-10.98-26.93-8.4-50.57,8.38-76.66
				c1.99-3.1,4.14-6.29,6.42-9.66c16.08-23.81,36.09-53.45,17.27-81.28c-0.31-0.47,0.03-0.91,0.26-1.13
				c0.13-0.12,0.27-0.22,0.43-0.3c0.32-0.16,0.77-0.27,1.05,0.1c7.86,10.48,10.23,23.18,7.04,37.76
				C777,4.1,771.24,16.51,762.34,29.71c-1.74,2.58-3.57,5.2-5.33,7.74c-8.87,12.72-18.04,25.88-21.63,41.32
				c-4.75,20.36,3.29,39.78,11.2,56.39c14.56,30.55,25.19,56.5,18.76,89.05c-7.55,38.09-31.73,71.03-54.38,98.22l-0.68,0.81
				l0.65,0.83c3.61,4.62,5.38,9.14,5.25,13.43c-0.23,7.73-6.83,15.13-12.14,21.08c-0.77,0.87-1.52,1.71-2.23,2.53l0.03-0.05
				c1.28-2.16,2.76-4.35,4.2-6.46c0.42-0.61,0.83-1.22,1.24-1.83l0.64-0.94l-0.01-0.01l0.56-0.85c1.67-2.54,2.9-4.67,3.86-6.71
				c0.32-0.67,0.55-1.33,0.76-1.94l0.05-0.15l0.24,0.33l0.41-3.24c0.98-7.85-4.4-14.28-8.54-18.44
				c-8.17-8.19-15.87-10.35-22.88-6.42l-2.2,1.23l2.28,1.09c11.48,5.48,20.83,12.74,27.81,21.59c-9.65-9.92-19.15-16.91-29.67-21.87
				l-0.77-0.36l-0.64,0.55c-0.56,0.48-1.13,1-1.69,1.53c-1.66,1.58-3.32,3.4-5.07,5.56l-1.01,1.25l1.43,0.74
				c10.62,5.46,20.64,12.67,29.28,21.03c-9.27-7.81-19.08-14.72-29.84-21.02l-1-0.59l-0.7,0.92c-1.02,1.34-2.03,2.71-3,4.03
				c-0.79,1.08-1.58,2.14-2.36,3.19c-0.04,0.03-0.08,0.07-0.13,0.11c-0.08,0.08-0.16,0.16-0.22,0.26l-0.79,1.14l1.18,0.73
				c8.74,5.39,16.72,11.56,23.52,16.93l1.1,0.87c3.06,2.42,6.54,5.17,10,8.09l0.98,0.82l0,0l0.99,0.86
				c10.64,9.16,17.67,17.06,22.12,24.87c5.88,10.31,6.86,19.88,3,29.25c-5.16,12.48-14.3,24-23.15,35.13
				c-2.5,3.14-4.86,6.11-7.14,9.11c-9.98,13.11-21.88,28.45-34.43,42.74l-0.7,0.8l0.63,0.85c6.57,8.81,8.07,17.28,4.47,25.16
				C664.76,535.15,661.2,539.84,656.64,544.2z M513.41,456.96c11.57,10.22,22.81,21.22,33.68,31.87
				c12.78,12.51,26,25.46,39.89,37.27c2.22,1.88,4.64,4.14,7.2,6.54c13.07,12.21,29.33,27.4,45.74,19.61
				c4.11-1.95,8.34-5.08,13.32-9.83c1.13-1.08,2.31-2.25,3.7-3.67c9.4-9.63,10.6-20.05,3.46-30.13
				c-6.63-9.38-16.21-16.78-25.48-23.95c-3.19-2.47-6.2-4.8-9.11-7.21l-1.33-1.1c-12.83-10.62-25.66-21.24-38.46-31.85
				c-7.24-6.02-14.47-12.03-21.74-18.04c-1.58-1.31-3.14-2.7-4.79-4.16c-6.15-5.47-12.5-11.13-20.35-13.05
				c-8.82-2.15-19.5,4.27-26.54,11c-0.39,0.37-0.77,0.75-1.14,1.12c-4.24,4.33-9.74,10.99-8.46,18.78
				c0.68,4.27,2.94,7.91,6.23,10.03c0.25,0.37,0.54,0.77,0.91,1.16l3.2,3.36l-2.49,0.03L513.41,456.96z M602.42,338
				c-0.61,0.58-1.23,1.19-1.83,1.82c-10.77,11.14-20.68,23.43-30.26,35.3c-8.16,10.12-16.6,20.58-25.52,30.26l-1.16,1.26l1.52,0.79
				c4.71,2.45,9.11,6.34,13.36,10.09c1.52,1.34,3.08,2.72,4.62,4c17.52,14.5,35.03,29.01,52.53,43.52
				c4.23,3.51,8.73,7.02,13.09,10.41c10.62,8.27,21.6,16.82,30.36,26.71l1.04,1.17l0.97-1.22c2.91-3.68,5.84-7.35,8.76-11.03
				c15.82-19.89,32.17-40.45,46.89-61.73c11.86-17.17,12.21-31.01,1.14-44.87c-8.91-11.15-20.26-21.98-33.71-32.2
				c-14.43-10.97-26.61-18.3-38.34-23.05C629.68,322.66,615.47,325.54,602.42,338z"/>
			<path class="st1" d="M724.24,114.28c-1.93-4.19-2.93-8.99-2.65-13.03c0.01-0.12,0.04-0.19,0.06-0.21
				c0.04-0.04,0.15-0.05,0.26-0.01c0.09,0.03,0.17,0.09,0.19,0.31C722.44,106.36,723.1,110.38,724.24,114.28z"/>
			<path class="st1" d="M720.85,120.55c-2.34-6.29-3.36-11.71-3.12-16.44c0.38,1.98,0.72,3.96,1.04,5.88
				C719.37,113.45,719.97,117,720.85,120.55z"/>
			<path class="st1" d="M620.87,334.04c-0.02,0.01-0.06,0.05-0.18,0.08c-5.96,1.56-10.37,3.94-14.3,7.69
				c-0.47,0.45-0.95,0.93-1.42,1.44c0.84-1.16,1.8-2.25,2.87-3.27c3.61-3.45,8.1-5.72,12.64-6.38c0.13-0.02,0.28-0.01,0.37,0.17
				C620.91,333.87,620.91,334,620.87,334.04z"/>
			<path class="st1" d="M623.53,338.92c-0.05,0.05-0.12,0.08-0.21,0.11c-3.9,1.06-7.03,2.6-9.98,4.95c0.27-0.28,0.54-0.56,0.83-0.83
				c2.56-2.44,5.76-4.18,9.02-4.89c0.2-0.05,0.3-0.01,0.38,0.14C623.64,338.56,623.66,338.8,623.53,338.92z"/>
			<path class="st1" d="M622.47,515.86c-4.44,4.23-11.25,4.22-15.53-0.03c-2.13-2.13-3.29-4.86-3.26-7.69
				c0.03-2.63,1.1-5.08,3.01-6.91c0.21-0.2,0.43-0.39,0.66-0.58l0.22-0.18l0.13-0.25c0.28-0.56,0.66-1.06,1.13-1.51
				c2.6-2.48,7.77-2.82,11.3-0.75c2.95,1.74,5.01,4.63,5.63,7.92c0.59,3.11-0.17,6.19-2.13,8.69
				C623.27,515.04,622.88,515.47,622.47,515.86z M605.01,506.13c-0.42,4.54,1.74,8.56,5.66,10.49c3.44,1.69,7.78,0.88,10.81-2.01
				c0.95-0.91,1.7-1.96,2.23-3.11l1.4-3.06l-3.1,1.31c-3.62,1.54-7.67,1.68-10.57,0.37c-1.92-0.87-3.23-2.31-3.89-4.29
				L605.01,506.13z"/>
			<path class="st1" d="M553.41,460.1c-2.36,2.25-5.38,3.39-8.51,3.21c-4.06-0.23-7.52-2.95-8.43-6.62
				c-0.66-2.77,0.09-5.79,1.88-7.5c0.2-0.19,0.42-0.37,0.65-0.53l0.49-0.34l0.06-0.59c0.01-0.13,0.03-0.26,0.04-0.39
				c0.02-0.26,0.04-0.51,0.09-0.75c0.35-1.89,1.11-3.4,2.28-4.51c1.6-1.52,3.93-2.22,6.41-1.92c2.98,0.37,5.72,2.11,7.32,4.65
				C559.11,450.16,557.13,456.55,553.41,460.1z M538.65,452.62c-0.21,2.43,0.53,4.68,2.04,6.18c1.06,1.05,3,2.25,6.22,1.95
				c2.16-0.19,4.15-1.1,5.75-2.63l0,0c1.44-1.37,2.45-3.13,2.94-5.1l0.85-3.44l-0.62,0.44l-0.02-0.26c-0.03-0.48-0.1-0.96-0.2-1.44
				l-0.65-2.88l-1.53,2.19c-0.11-0.03-0.23-0.06-0.36-0.07l-0.62-0.08l-0.45,0.43c-0.52,0.49-1.05,1-1.61,1.44l-0.09,0.07
				l-0.08,0.08c-0.09,0.1-0.18,0.2-0.28,0.29c-0.26,0.24-0.55,0.48-0.89,0.72l1.03,2.35c1.08-0.24,2.17-0.58,3.12-0.98
				c-3.9,2.55-9.78,2.55-12.33-0.07l-1.99-2.05L538.65,452.62z"/>
			<path class="st1" d="M538.51,429.75c-0.67,0.03-1.33,0.11-1.97,0.23c0.67-0.16,1.37-0.28,2.08-0.36
				c-0.01,0.05-0.02,0.09-0.04,0.12L538.51,429.75z"/>
			<path class="st1" d="M540.23,432.17c1.39-0.04,1.66,2.26,0.27,2.43c-4.82,0.62-7.92,2.48-10.71,6.47
				c-0.44,0.65-1.55,0.25-1.28-0.54C530.13,435.8,535.25,432.24,540.23,432.17z"/>
			<path class="st1" d="M430.97,646.42c-9.52-10.54-16.69-25.32-20.23-41.77l-0.34-1.57l-1.47,0.65
				c-5.55,2.46-10.79,4.45-16.03,6.09c-0.11,0.03-0.14,0.01-0.18-0.02c-0.13-0.09-0.24-0.31-0.26-0.51
				c-0.01-0.1,0.01-0.18,0.03-0.21c0.01-0.01,0.03-0.02,0.07-0.04c14.22-6.2,25.54-12.14,35.66-18.72
				c6.41-4.19,12.53-8.77,18.17-13.61c0.77-0.66,1.81-1.47,3.01-2.4c2.1-1.64,4.72-3.67,6.86-5.72c2.24-2.14,3.63-3.97,4.23-5.58
				c0.99-2.65,0.83-4.69-0.5-6.05c-3.16-3.24-11.78-0.82-18.95,1.65l-0.31,0.11c-7.92,2.68-15.71,5.85-23.16,9.42
				c-11.14,5.33-21.96,11.78-33.11,19.72c-0.45,0.31-0.74,0.29-0.92,0.24l-0.94-0.23l-0.5,0.83c-2.26,3.75-2.65,8.5-1.04,12.7
				c1.5,3.93,4.61,6.87,8.52,8.08c0.15,0.05,0.21,0.1,0.22,0.12c0.01,0.06-0.03,0.2-0.13,0.29c-0.09,0.09-0.21,0.12-0.37,0.09
				c-4.66-0.72-8.62-4.28-10.34-9.3c-1.71-5-0.76-10.24,2.49-13.68c0.01-0.01,0.02-0.02,0.02-0.02c0.05-0.05,0.1-0.08,0.2-0.12
				l0.65-0.26l0.15-0.68c0.07-0.35,0.23-0.63,0.48-0.87c0.07-0.07,0.16-0.14,0.25-0.2c4.73-3.34,9.81-6.61,15.11-9.74l2.29-1.36
				c11.56-6.67,23.57-12.25,35.69-16.56c0.8-0.28,1.74-0.65,2.81-1.06c8.04-3.09,23-8.84,26.93-0.52c1.37,2.9,0.1,4.88-2.1,7.86
				l-0.51,0.7c-1.78,2.45-3.98,4.91-6.72,7.54c-4.24,4.05-8.97,7.7-13.55,11.23l-1.26,0.97c-9.08,7.04-18.75,13.05-28.76,17.88
				l-1,0.48l0.31,1.06c4.68,16.04,11.57,29.47,18.86,42.87L430.97,646.42z"/>
			<path class="st1" d="M463.99,720.65c-6.75,6.44-16.95,9.57-25.08,11.57l-0.6,0.15l-0.27,0.56c-0.03,0.07-0.08,0.14-0.15,0.2
				c-0.12,0.11-0.23,0.15-0.26,0.15c-0.14-0.12-0.28-0.23-0.43-0.35l1.45-1.42c7.07-2.57,17.58-6.42,24.34-12.88
				c5.64-5.39,7.66-11.69,5.98-18.73c-1.04-4.35-4.16-7.19-7.19-9.93c-3.53-3.2-6.58-5.96-6.13-10.69l-0.36,0.75l-1.62-2.04
				c-6.39,4.21-12.3,7.42-18.09,9.81l1.4-1.18c5.36-4.51,11.25-8.64,16.95-12.64c4.46-3.13,9.07-6.37,13.42-9.78
				c1.57-1.23,3.49-2.61,5.52-4.07c4.4-3.16,9.38-6.74,13.53-10.7c0,0,0,0,0,0c4.28-4.09,6.88-7.84,7.96-11.49
				c1.07-3.61,0.7-6.26-1.09-7.87c-4.16-3.73-14.57-0.03-22.04,3.09l-0.7,0.29c-5.86,2.39-11.91,5.14-17.97,8.18
				c-6.62,3.34-12.94,7.27-19.05,11.07c-3.98,2.47-8.09,5.03-12.23,7.39l-0.56,0.32l-0.09,0.64c-1.33,9.52,3.83,18.47,14.17,24.6
				l-0.44,1.97c-0.91-0.57-2.13-1.44-3.09-2.54l-0.26-0.3l-0.38-0.11c-1.12-0.31-2.2-0.9-3.61-1.98c-2.11-1.61-3.95-3.65-5.48-6.07
				c-3.31-5.26-4.35-11.32-2.93-17.07l0.05-0.2l-0.02-0.21c-0.02-0.21,0.12-0.42,0.24-0.58c0.04-0.05,0.08-0.1,0.11-0.13
				c0.03-0.03,0.06-0.07,0.09-0.11c3.67-3.15,7.72-6.14,12.38-9.13l2.29-1.45c9.99-6.18,21.77-11.8,37.09-17.69
				c0.8-0.31,1.69-0.67,2.65-1.06c10.14-4.12,20.36-7.45,24.2,0.7c2.6,5.52,0.02,11.71-8.12,19.48c-1.81,1.72-3.6,3.26-5.18,4.62
				l-0.94,0.81c-9.2,7.9-17.56,14.95-26.69,21.31l-2.5,1.74l2.98,0.61c0.2,0.04,0.41,0.14,0.48,0.59c0.67,4.69,3.9,7.65,7.03,10.51
				c2.47,2.27,4.81,4.4,5.93,7.33c1.68,4.35,1.48,9.63-0.55,14.89C468.79,715,466.73,718.05,463.99,720.65z"/>
			<path class="st1" d="M435.18,731.25c-1.38-1.17-2.69-2.36-3.73-3.3l-0.83-0.76l-0.87,0.71c-25.99,21.21-60.97,46.17-101.15,50.9
				c-28.76,3.41-56.04-5.63-74.84-24.79l-0.65-0.66l-0.84,0.4c-0.94,0.44-1.94,0.87-2.88,1.24l-0.09,0.03l-0.08,0.05
				c-18.23,10.19-44.45,16.26-58.34-0.21l-0.93-1.1l-0.84-1.22c-0.75-1.09-1.38-2.1-1.91-3.07c-2.15-3.95-3.05-8.08-2.67-12.26
				l0.16-1.73l-18.59,3.58c-14.67,2.83-29.35,5.66-44.02,8.47c-3.68,0.7-7.45,1.38-11.09,2.04c-14.76,2.67-30.01,5.44-44.42,10.32
				c-12.32,4.15-22.16,9.85-30.09,17.42c-7.82,7.47-13.61,16.58-17.71,27.87c-1.16,3.2-2.23,6.52-3.26,9.73
				c-2.57,7.97-5.22,16.2-9.43,23.41c-1.11,1.96-2.34,3.81-3.67,5.51c-1.26,1.63-2.64,3.16-4.1,4.57
				c-18.82,17.97-51.92,14.05-76.09,11.18l-2.14-0.25c-34.4-4.04-65.3-12.36-91.82-24.74l-2.4-1.12l0.56,2.58
				c0.54,2.45,1.05,4.97,1.55,7.4c0.85,4.13,1.72,8.38,2.73,12.54l-0.06-0.05l0.75,2.85l0.77,3.09l0.04-0.12
				c0.24,0.82,0.48,1.61,0.69,2.32l0.21,0.68l0.6,0.17l0.05,0.09c0.05,0.09,0.08,0.18,0.12,0.27l0.05,0.13
				c0.04,0.09,0.06,0.18,0.06,0.23c-0.32,0.24-0.87,0.59-1.22,0.47c-0.96-0.32-1.72-3.11-2.09-4.45c-0.07-0.25-0.13-0.49-0.2-0.71
				c-2.85-9.8-5.47-19.4-7.76-28.54l-0.16-0.63l-0.6-0.25c-0.12-0.05-0.23-0.1-0.34-0.16l-0.06-0.04c-0.08-0.04-0.1-0.08-0.11-0.13
				c-0.03-0.17,0.05-0.41,0.18-0.56l0.5-0.55l-0.22-0.71c-0.02-0.11-0.04-0.2-0.06-0.28c-0.12-0.5-0.02-0.89,0.29-1.19
				c0.39-0.37,1.04-0.53,1.57-0.38c0.45,0.13,0.75,0.45,0.89,0.97l0.86,3.46l0.64,0.24c39.29,15.01,70.72,22.95,101.94,25.74
				l2.08,0.19c16.52,1.49,35.24,3.17,51.2-2.17c5.59-1.87,10.34-4.71,14.51-8.69c8.96-8.55,13.39-20.51,17.86-34.11
				c4.56-13.89,8.73-25.26,17.28-34.63c0.87-0.95,1.79-1.89,2.74-2.79c8.69-8.3,20.29-14.49,36.51-19.49
				c26-8.02,53.84-12.73,80.75-17.28c10.98-1.86,22.33-3.78,33.32-5.89c0.15-0.01,0.26-0.03,0.35-0.04l0.74-0.13l0.27-0.71
				c1.09-2.93,2.77-5.6,4.99-7.94c0.28-0.29,0.56-0.58,0.85-0.85c3.61-3.45,8.24-5.95,12.72-8.38c0.98-0.53,1.96-1.06,2.92-1.6
				c1.5-0.83,3-1.67,4.51-2.51c5.53-3.09,11.24-6.28,16.97-9.09l0.77-0.38l-0.04-0.85c-1.11-25.9,11.99-52.07,38.93-77.79
				c20.05-19.14,48.02-37.66,76.73-50.8c0.38-0.17,0.75-0.23,1.15-0.16l1.68,0.28l-0.16-1.7c-0.35-3.68-0.54-6.9-0.58-9.85
				c-0.01-0.5,0.13-0.89,0.41-1.16c0.32-0.31,0.84-0.47,1.39-0.44l0.88,0.06l0.39-0.79c0.05-0.1,0.12-0.19,0.21-0.28
				c0.1-0.09,0.22-0.18,0.36-0.25c7.29-3.86,25.7-12.47,39.09-9.01c7.44,1.93,7.78,9.14,8.15,16.78c0.11,2.28,0.21,4.45,0.51,6.47
				l-0.18,0.11c-0.73-2.09-1.21-4.27-1.54-6.87l-0.03-0.24c-0.82-6.54-1.6-12.71-10.35-14.69c-4.63-1.04-11.7,1.1-16.87,2.66
				c-0.59,0.18-1.15,0.35-1.67,0.5c-5.08,1.51-10.13,3.58-15.89,6.52c-0.11,0.06-0.14,0.07-0.14,0.07l-1.11,0.19l0.02,1.12
				c0.6,29.45,12.25,55.7,29.55,86.06c7.64,13.42,16.86,29.23,27.33,44.75c5.09,7.58,10.78,14.84,16.27,21.87
				c4.11,5.26,8.36,10.69,12.33,16.21L435.18,731.25z M233.46,702.96c1.05,12.19,5.44,24.32,13.03,36.04
				c9.73,15.03,23.97,26.04,41.18,31.84c16.14,5.45,34.21,6.19,52.26,2.16c29.05-6.49,53.08-23.34,76.31-39.62
				c3.52-2.47,7.16-5.02,10.76-7.49l1.3-0.89l-1.11-1.11c-19.28-19.27-34.02-45.84-47.03-69.28c-1.67-3.01-3.32-5.97-4.95-8.89
				c-11.04-19.66-22.85-43.26-26.74-69.22l-0.26-1.72l-1.58,0.73c-28.93,13.29-56.74,31.62-76.29,50.28
				c-25,23.87-37.49,48.26-37.11,72.5l0.02,0.97l0.94,0.26c0.35,0.1,0.63,0.4,0.73,0.79c0.06,0.23,0.09,0.67-0.34,1.08
				c-0.07,0.06-0.14,0.12-0.23,0.18l-0.94,0.59L233.46,702.96z M249.7,753.87l0.32-0.18c0.12-0.07,0.24-0.13,0.37-0.2
				c0.15-0.08,0.3-0.16,0.44-0.24l1.41-0.8l-1.08-1.21c-2.57-2.87-4.94-5.89-7.05-8.99c-7.92-11.69-12.71-23.79-14.23-35.97
				l-0.24-1.89l-1.68,0.9c-0.9,0.48-1.84,0.96-2.82,1.46c-0.56,0.29-1.14,0.58-1.72,0.89l-0.66,0.34l-0.04,0.75
				c-0.81,15.34,3.7,29.38,13.77,42.76c-9.36-10.62-14.54-25.32-14.35-41.05l0.03-2.18l-1.93,1c-3.22,1.66-6.65,3.46-10.01,5.38
				l-1.07,0.62l0.55,1.1c0.05,0.09,0.04,0.12,0.04,0.14c-2.09,13.33,1.29,26.13,9.56,36.8c-8.24-9.5-12.12-22.25-10.5-35.37
				l0.33-2.69l-2.31,1.41c-4.52,2.76-8.26,5.54-11.12,8.27c-0.21,0.2-0.42,0.41-0.63,0.61l-0.27,0.27l-0.08,0.37
				c-3.25,14.31,6.81,26.74,14.67,34.84l0.32,0.33l0.45,0.06c4.13,0.53,8.68,0.34,13.91-0.6l0.24-0.04l-0.01,0.04l1.32-0.27
				l1.25-0.22l-0.04-0.03c4.23-0.91,8.4-2.13,12.3-3.32l1.44-0.44l0,0l0.7-0.22l0,0l1.22-0.38c2.34-0.74,4.54-1.44,6.64-2.05
				l0.03-0.01C249.18,753.86,249.7,753.87,249.7,753.87z M190.71,730.96c-3.56,5.91-3.43,12.01,0.37,18.11
				c3.43,5.52,8.04,9.27,13.72,11.12l1.32-2.18c-8.22-7.99-13.07-17.85-12.98-26.37l0.05-4.82L190.71,730.96z M188.52,755.43
				c-0.04,0.03-0.1,0.08-0.24,0.12c-14.26,4.43-29.25,7.38-43.74,10.23c-5.01,0.98-10.19,2-15.24,3.07
				c-5.21,1.1-10.56,2.01-16.23,2.98c-14.95,2.55-30.4,5.19-43.48,11.43c-3.98,1.9-7.44,4.27-10.56,7.25
				c-8.48,8.1-12.76,19.31-16.89,30.15c-1.53,4-3.1,8.14-4.87,12.08c-4.31,9.6-10.38,18.17-18.03,25.48
				c-2.28,2.18-4.73,4.26-7.27,6.19c-50.4,38.26-115.19,20.05-177.7-5.34c-0.14-0.05-0.24-0.12-0.39-0.26l-0.63-0.56l0.28-0.94
				c0.06-0.21,0.17-0.4,0.3-0.52c0.09-0.08,0.31-0.3,0.88-0.09c2.21,0.84,4.44,1.68,6.67,2.53c29.36,11.16,59.73,22.69,91.88,24.42
				c32.73,1.76,64.08-8.48,83.88-27.37c1.08-1.03,2.14-2.1,3.15-3.18c2.42-2.54,4.74-5.36,6.89-8.36
				c5.54-7.83,8.91-16.74,12.16-25.36c2.3-6.1,4.68-12.41,7.81-18.22c2.46-4.57,5.49-8.6,9.03-11.98
				c5.38-5.14,11.94-8.9,20.04-11.49c12.03-3.87,24.87-6.29,37.3-8.63c4.95-0.93,10.07-1.9,15.04-2.94
				c5.11-1.07,10.31-2.23,15.34-3.36c14.33-3.2,29.15-6.51,43.86-8.2c0.12,0.02,0.29,0.03,0.5-0.01l0.72-0.13l-0.31,0.76
				C188.62,755.3,188.57,755.38,188.52,755.43z"/>
			<path class="st1" d="M377.27,573.74c-2.2,1.53-3.81,2.82-5.23,4.17c-0.62,0.59-1.2,1.2-1.74,1.82c0.84-1.22,1.76-2.33,2.77-3.28
				c1.3-1.24,2.71-2.22,4.19-2.91c0.06-0.03,0.1-0.04,0.12-0.04c0,0,0,0,0,0c-0.01,0.01,0.01,0.04,0.01,0.08
				c0,0.03,0,0.06-0.06,0.11C377.31,573.71,377.29,573.72,377.27,573.74z"/>
			<path class="st1" d="M371.68,588.9c0.92-3.17,2.7-6.17,5.17-8.53c0.84-0.8,1.75-1.52,2.71-2.13c0.01,0.02,0.03,0.04,0.04,0.05
				c-0.62,0.51-1.22,1.04-1.78,1.57C375.01,582.55,373.02,585.46,371.68,588.9z"/>
			<path class="st1" d="M441.08,692.07c-0.71,0.68-2.02,1.2-3.63,1.47c0.75-0.25,1.43-0.58,2.09-0.89c0.58-0.28,1.13-0.54,1.71-0.74
				C441.19,691.96,441.14,692.02,441.08,692.07z"/>
			<path class="st1" d="M332.23,594.27c1.17-0.58,2.01,1.07,0.94,1.75c-3.88,2.51-8.17,4.55-12.27,6.64
				c-0.7,0.37-1.22-0.66-0.59-1.07C324.21,599.08,328.12,596.4,332.23,594.27z"/>
			<path class="st1" d="M329.68,592.33c1.2-0.41,1.87,1.47,0.78,2.04c-6.22,3.15-11.79,6.11-17.27,10.48
				c-0.66,0.53-1.5-0.32-0.91-0.95C316.94,599.01,323.23,594.47,329.68,592.33z"/>
			<path class="st1" d="M318.23,764.55c-5.79,2.18-13.68,2.4-20.04,0.71c0.04,0,0.08,0.01,0.12,0.01c2.49,0.29,5.07,0.58,7.7,0.56
				c2.75-0.03,5.38-0.43,7.93-0.82c1.33-0.21,2.71-0.42,4.09-0.57C318.08,764.43,318.16,764.49,318.23,764.55z"/>
			<path class="st1" d="M304.48,758.61c-0.89,0.12-1.82,0.19-2.78,0.21c0.67-0.04,1.34-0.1,1.99-0.15
				C303.95,758.65,304.21,758.63,304.48,758.61z"/>
			<path class="st1" d="M15.59,847.11c3.48-4.53,4.98-9.59,6.05-14.48c0.05-0.03,0.25,0.02,0.29,0.08
				C21.76,837.66,19.52,842.73,15.59,847.11z"/>
			<path class="st1" d="M12.93,839.46c1.86-2.76,3.34-5.7,4.69-9.27c0.02-0.04,0.03-0.07,0.05-0.09c0.04-0.04,0.13-0.03,0.18-0.01
				c0,0.01-0.01,0.03-0.01,0.05c-0.11,0.43-0.25,0.85-0.39,1.26C16.5,834.14,14.92,836.95,12.93,839.46z"/>
		</g>
	</g>
</g>
</svg>
