<?xml version="1.0" encoding="utf-8"?>
<!-- Generator: Adobe Illustrator 23.0.4, SVG Export Plug-In . SVG Version: 6.00 Build 0)  -->
<svg version="1.1" id="Layer_3" xmlns="http://www.w3.org/2000/svg" xmlns:xlink="http://www.w3.org/1999/xlink" x="0px" y="0px"
	 viewBox="0 0 512 512" style="enable-background:new 0 0 512 512;" xml:space="preserve">
<style type="text/css">
	.st0{fill:#656565;}
	.st1{fill:#656565;}
</style>
<g>
	<path class="st0" d="M59.7,92.5v408.9c0,4.5,3.7,8.2,8.2,8.2h376.1c4.5,0,8.2-3.7,8.2-8.2V27c0-4.5-3.7-8.2-8.2-8.2h-65.6
		C371,9,359.3,2.5,345.9,2.5c-13.3,0-25,6.5-32.5,16.4H133.3c-2.3,0-4.3,0.9-5.8,2.4L62.1,86.7C60.7,88.2,59.7,90.2,59.7,92.5z
		 M125.2,84.3H87.7l37.5-37.5V84.3z M76.1,100.6h57.2c4.5,0,8.2-3.7,8.2-8.2V35.2h164.4c-0.5,2.6-0.8,5.4-0.8,8.2v114.5
		c0,31.6,25.7,57.2,57.2,57.2s57.2-25.7,57.2-57.2V51.6h-16.4v106.3c0,22.5-18.3,40.9-40.9,40.9s-40.9-18.3-40.9-40.9V43.4
		c0-13.5,11-24.5,24.5-24.5c13.5,0,24.5,11,24.5,24.5v114.5c0,4.5-3.7,8.2-8.2,8.2s-8.2-3.7-8.2-8.2V51.6h-16.4v106.3
		c0,13.5,11,24.5,24.5,24.5c13.5,0,24.5-11,24.5-24.5V43.4c0-2.8-0.3-5.5-0.8-8.2h49.9v457.9H76.1V100.6z"/>
	<path class="st0" d="M305.6,242.7h109.3v16.4H305.6V242.7z"/>
	<path class="st0" d="M305.6,275.4h109.3v16.4H305.6V275.4z"/>
	<path class="st0" d="M137.3,275.1h108.5c4.3,0,7.8-3.5,7.8-7.8v-15.5c0-20.3-15.7-36.7-35.5-38.4c2.8-4.7,4.5-10,4.5-15.8v-15.5
		c0-17.1-13.9-31-31-31s-31,13.9-31,31v15.5c0,5.8,1.7,11.2,4.5,15.8c-19.8,1.7-35.5,18.2-35.5,38.4v15.5
		C129.6,271.6,133.1,275.1,137.3,275.1z M176.1,182.1c0-8.5,7-15.5,15.5-15.5c8.5,0,15.5,7,15.5,15.5v15.5c0,8.5-7,15.5-15.5,15.5
		c-8.5,0-15.5-7-15.5-15.5V182.1z M145.1,251.8c0-12.8,10.4-23.3,23.3-23.3h46.5c12.8,0,23.3,10.4,23.3,23.3v7.8h-93V251.8z"/>
	<path class="st0" d="M276.9,120.1H106.3c-4.3,0-7.8,3.5-7.8,7.8v170.5c0,4.3,3.5,7.8,7.8,7.8h170.5c4.3,0,7.8-3.5,7.8-7.8V127.8
		C284.6,123.5,281.1,120.1,276.9,120.1z M269.1,290.6h-155v-155h155V290.6z"/>
	<path class="st0" d="M98.6,387.9h217.7v16.4H98.6V387.9z"/>
	<path class="st0" d="M98.6,443.1h316.3v16.4H98.6V443.1z"/>
	<path class="st0" d="M98.6,332.7h217.7V349H98.6V332.7z"/>
	<path class="st1" d="M400.4,323.5c-1-1.1-2.4-1.7-3.9-1.7c-1.4,0-2.8,0.6-3.9,1.6l-23.7,23.2l-9.2-9c-1-1-2.4-1.6-3.9-1.6
		c-1.5,0-2.9,0.6-3.9,1.7c-1,1.1-1.6,2.4-1.6,3.9c0,1.5,0.6,2.9,1.7,3.9l13.1,12.8c1,1,2.4,1.6,3.9,1.6c1.4,0,2.8-0.6,3.9-1.6
		l27.6-27c1.1-1,1.6-2.4,1.7-3.9C402,325.9,401.5,324.5,400.4,323.5z"/>
	<path class="st1" d="M400.4,379.7c-1-1.1-2.4-1.7-3.9-1.7c-1.4,0-2.8,0.6-3.9,1.6l-23.7,23.2l-9.2-9c-1-1-2.4-1.6-3.9-1.6
		c-1.5,0-2.9,0.6-3.9,1.7c-1,1.1-1.6,2.4-1.6,3.9c0,1.5,0.6,2.9,1.7,3.9l13.1,12.8c1,1,2.4,1.6,3.9,1.6c1.4,0,2.8-0.6,3.9-1.6
		l27.6-27c1.1-1,1.6-2.4,1.7-3.9C402,382.1,401.5,380.8,400.4,379.7z"/>
</g>
</svg>
