<?xml version="1.0" encoding="utf-8"?>
<!-- Generator: Adobe Illustrator 23.0.4, SVG Export Plug-In . SVG Version: 6.00 Build 0)  -->
<svg version="1.1" id="Layer_1" xmlns="http://www.w3.org/2000/svg" xmlns:xlink="http://www.w3.org/1999/xlink" x="0px" y="0px"
	 viewBox="0 0 512 512" style="enable-background:new 0 0 512 512;" xml:space="preserve">
<style type="text/css">
	.st0{fill:#FFFFFF;}
	.st1{fill:#F5F5F5;}
	.st2{fill:#EBEBEB;}
</style>
<path class="st0" d="M512,256c0,56.4-18.2,108.5-49.1,150.8C416.3,470.6,341,512,256,512S95.7,470.6,49.1,406.8
	C18.2,364.5,0,312.4,0,256s18.2-108.5,49.1-150.8C76.3,68,113.3,38.3,156.3,20.1C186.9,7.2,220.6,0,256,0s69.1,7.2,99.7,20.1
	c43,18.2,80,47.8,107.2,85.1C493.8,147.5,512,199.6,512,256z"/>
<path class="st1" d="M363.8,119.2V20.1l99.1,99.1H363.8z"/>
<path class="st2" d="M256,512c32.3,0,63.1-6,91.5-16.9H164.5C192.9,506,223.7,512,256,512z"/>
<path class="st2" d="M363.8,20.1H49.1v386.7c19.9,27.2,45,50.4,73.9,68H389c28.9-17.6,54-40.7,73.9-68V119.2L363.8,20.1z"/>
<rect x="143.2" y="91.4" width="225.7" height="20.4"/>
<ellipse transform="matrix(0.2298 -0.9732 0.9732 0.2298 -90.1813 328.7089)" cx="162.6" cy="221.3" rx="31.1" ry="31.1"/>
<path d="M162.6,259.5c29.7,0,54.4,21.7,59,50.1h-118C108.2,281.1,132.9,259.5,162.6,259.5z"/>
<rect x="82.6" y="422.5" width="346.4" height="20.4"/>
<rect x="82.6" y="370.3" width="346.4" height="20.4"/>
<rect x="268.5" y="318" width="160.5" height="20.4"/>
<rect x="268.5" y="265.8" width="160.5" height="20.4"/>
<rect x="268.5" y="213.6" width="160.5" height="20.4"/>
<rect x="268.5" y="161.3" width="160.5" height="20.4"/>
<path class="st1" d="M82.6,161.3v177.1h159.9V161.3H82.6z M162.6,190.2c17.2,0,31.1,13.9,31.1,31.1c0,17.2-13.9,31.1-31.1,31.1
	s-31.1-13.9-31.1-31.1C131.5,204.1,145.4,190.2,162.6,190.2z M103.6,309.5c4.6-28.4,29.3-50.1,59-50.1s54.4,21.7,59,50.1H103.6z"/>
</svg>
