<?xml version="1.0" encoding="utf-8"?>
<!-- Generator: Adobe Illustrator 24.0.1, SVG Export Plug-In . SVG Version: 6.00 Build 0)  -->
<svg version="1.1" id="Layer_1" xmlns="http://www.w3.org/2000/svg" xmlns:xlink="http://www.w3.org/1999/xlink" x="0px" y="0px"
	 viewBox="0 0 74 74" style="enable-background:new 0 0 74 74;" xml:space="preserve">
<style type="text/css">
	.st0{fill:#FFFFFF;}
</style>
<path class="st0" d="M26.8,62c-1.5,0-2.7-1.3-2.7-2.9v-1.5c0-1.5,1.3-2.9,2.7-2.9H51c2.3,0,4.1-2.1,4.1-4.6V32.5
	c0-2.5-1.8-4.6-4.1-4.6H27.2l3.1,7v0.9l-1,1l-16.7-11c-0.3-0.1-0.7-0.5-0.7-1.1c0-0.4,0.2-0.7,0.4-0.9l0,0L27.9,12h1l0.3,0.3
	c0.4,0.4,0.4,0.8,0.4,0.9v0.2l-2.7,7.1H51c3,0,5.8,1.3,7.8,3.5c2,2.3,3.1,5.2,3.1,8.4V50c0,6.6-4.9,11.9-11,11.9H27.8L26.8,62z"/>
<path class="st0" d="M26.8,61c-1,0-1.7-0.9-1.7-1.9v-1.5c0-1,0.8-1.9,1.7-1.9H51c2.8,0,5.1-2.5,5.1-5.6V32.5c0-3.1-2.3-5.6-5.1-5.6
	H25.7l3.6,8.2c0,0.1,0,0.2,0,0.3l-0.1,0.1L13.1,24.9c-0.1,0-0.1-0.1-0.1-0.2s0-0.1,0.1-0.2L28.2,13h0.1h0.1c0.1,0.1,0.1,0.2,0.1,0.2
	l-3.1,8.3H51c2.7,0,5.2,1.1,7,3.2c1.9,2.1,2.9,4.8,2.9,7.7V50c0,6-4.5,10.9-10,10.9L26.8,61L26.8,61z"/>
</svg>
