<?xml version="1.0" encoding="utf-8"?>
<!-- Generator: Adobe Illustrator 24.0.1, SVG Export Plug-In . SVG Version: 6.00 Build 0)  -->
<svg version="1.1" id="Layer_1" xmlns="http://www.w3.org/2000/svg" xmlns:xlink="http://www.w3.org/1999/xlink" x="0px" y="0px"
	 viewBox="0 0 10.6 5.54" style="enable-background:new 0 0 10.6 5.54;" xml:space="preserve">
<style type="text/css">
	.st0{fill:#FFFF00;}
	.st1{fill:#FFFF00;stroke:#000000;stroke-width:0.05;stroke-miterlimit:10;}
</style>
<g>
	<g>
		<path d="M1.14,2.7c-0.31,0.16-0.61,0.17-0.8-0.08c0.15-0.1,0.31-0.18,0.46-0.27C0.86,2.44,0.92,2.42,0.97,2.4
			c0.04-0.02,0.07-0.06,0.05-0.1C0.93,2.12,0.3,2.55,0.05,2.14C-0.1,1.9,0.08,1.62,0.41,1.44c0.38-0.2,0.69-0.15,0.82,0.11
			C1.07,1.63,0.9,1.71,0.73,1.79c-0.04-0.07-0.1-0.07-0.16-0.05C0.54,1.77,0.52,1.8,0.54,1.85C0.62,1.99,1.3,1.63,1.48,2.04
			C1.58,2.28,1.46,2.53,1.14,2.7z"/>
	</g>
	<g>
		<path d="M2.47,0.63C2.91,0.5,3.26,0.66,3.39,0.98C3.21,1.01,3.04,1.05,2.87,1.1C2.8,1.02,2.69,0.99,2.57,1.02
			C2.4,1.07,2.34,1.22,2.4,1.4c0.06,0.18,0.19,0.26,0.35,0.22c0.1-0.03,0.18-0.11,0.2-0.21c0.17-0.04,0.34-0.08,0.51-0.12
			c0,0.34-0.21,0.61-0.59,0.72c-0.43,0.12-0.8-0.05-0.95-0.44C1.76,1.17,1.96,0.77,2.47,0.63z"/>
	</g>
	<g>
		<path d="M4.74,0.25C5.16,0.23,5.38,0.44,5.38,0.7c0,0.19-0.12,0.34-0.34,0.42C5.16,1.3,5.27,1.48,5.38,1.66
			c-0.17,0-0.34,0-0.51,0.01c-0.1-0.17-0.2-0.33-0.31-0.49l0,0c0.01,0.16,0.02,0.33,0.04,0.5C4.44,1.7,4.29,1.71,4.14,1.73
			C4.07,1.27,4.01,0.8,3.95,0.33C4.21,0.3,4.47,0.27,4.74,0.25z M4.71,0.63c-0.07,0-0.14,0.01-0.2,0.02c0,0.07,0.01,0.15,0.02,0.23
			c0.07-0.01,0.13-0.01,0.2-0.02c0.1-0.01,0.14-0.04,0.14-0.13C4.86,0.67,4.81,0.62,4.71,0.63z"/>
	</g>
	<g>
		<path d="M6.66,1.75c-0.41-0.06-0.73-0.37-0.72-0.8c0.02-0.43,0.43-0.71,0.92-0.64s0.8,0.45,0.7,0.87
			C7.47,1.59,7.07,1.81,6.66,1.75z M6.72,1.34c0.19,0.03,0.32-0.08,0.35-0.26C7.1,0.89,7.01,0.75,6.8,0.72
			C6.59,0.69,6.47,0.8,6.45,0.99S6.52,1.31,6.72,1.34z"/>
	</g>
	<g>
		<path d="M8.89,0.83C8.77,1.17,8.65,1.51,8.53,1.85c0.15,0.05,0.3,0.1,0.44,0.16c-0.04,0.1-0.08,0.21-0.13,0.31
			C8.55,2.2,8.26,2.1,7.97,2.02c0.13-0.45,0.27-0.91,0.4-1.36C8.55,0.71,8.72,0.77,8.89,0.83z"/>
	</g>
	<g>
		<path d="M10.47,1.53c-0.17,0.32-0.34,0.63-0.52,0.95c0.14,0.08,0.28,0.16,0.41,0.24c-0.06,0.1-0.12,0.19-0.18,0.29
			C9.92,2.84,9.65,2.69,9.37,2.56c0.2-0.43,0.41-0.85,0.61-1.28C10.15,1.36,10.31,1.44,10.47,1.53z"/>
	</g>
</g>
<g>
	<path class="st0" d="M1.22,2.47C0.91,2.63,0.6,2.64,0.41,2.39C0.56,2.3,0.72,2.21,0.87,2.13C0.94,2.21,1,2.19,1.04,2.17
		s0.08-0.06,0.05-0.11C1,1.89,0.37,2.32,0.13,1.91c-0.15-0.24,0.03-0.53,0.36-0.7c0.38-0.2,0.69-0.15,0.82,0.11
		C1.15,1.4,0.98,1.48,0.81,1.56C0.76,1.49,0.7,1.49,0.65,1.52C0.61,1.54,0.6,1.57,0.62,1.62C0.7,1.76,1.38,1.4,1.56,1.81
		C1.66,2.05,1.54,2.3,1.22,2.47z"/>
	<path d="M0.81,2.61c-0.17,0-0.31-0.07-0.42-0.21L0.38,2.38L0.4,2.36C0.55,2.27,0.71,2.18,0.87,2.1l0.02-0.01L0.9,2.11
		C0.95,2.18,1,2.17,1.03,2.15c0.02-0.01,0.04-0.03,0.05-0.04c0-0.01,0-0.02,0-0.03c-0.03-0.05-0.14-0.03-0.28,0
		c-0.23,0.04-0.54,0.1-0.69-0.16c-0.06-0.09-0.07-0.19-0.04-0.3c0.05-0.16,0.2-0.32,0.42-0.44c0.23-0.12,0.44-0.15,0.61-0.1
		C1.2,1.12,1.29,1.2,1.34,1.31l0.01,0.02L1.33,1.34C1.15,1.42,0.98,1.5,0.82,1.58L0.8,1.6L0.79,1.58C0.76,1.52,0.71,1.51,0.66,1.54
		C0.65,1.55,0.64,1.56,0.63,1.57c0,0.01,0,0.02,0.01,0.03C0.66,1.65,0.79,1.62,0.9,1.61C1.14,1.57,1.46,1.53,1.58,1.8
		c0.11,0.26-0.02,0.53-0.35,0.69l0,0C1.08,2.57,0.93,2.61,0.81,2.61z M0.45,2.39C0.67,2.66,1.01,2.54,1.2,2.45l0,0
		c0.3-0.15,0.43-0.4,0.33-0.63c-0.1-0.24-0.39-0.19-0.62-0.16C0.76,1.68,0.64,1.7,0.6,1.63C0.58,1.6,0.58,1.58,0.59,1.56
		c0-0.03,0.02-0.05,0.05-0.06c0.07-0.04,0.13-0.02,0.18,0.04c0.15-0.08,0.31-0.15,0.47-0.22c-0.06-0.1-0.13-0.16-0.22-0.19
		C0.92,1.08,0.72,1.11,0.5,1.23C0.3,1.34,0.16,1.49,0.11,1.64C0.09,1.73,0.1,1.82,0.15,1.9c0.14,0.23,0.41,0.18,0.63,0.13
		C0.94,2,1.07,1.97,1.11,2.06C1.13,2.08,1.13,2.1,1.12,2.12C1.11,2.15,1.09,2.18,1.05,2.19C0.98,2.23,0.92,2.22,0.87,2.15
		C0.73,2.23,0.59,2.31,0.45,2.39z"/>
</g>
<g>
	<path class="st0" d="M2.55,0.4c0.44-0.12,0.79,0.04,0.92,0.35C3.3,0.78,3.12,0.82,2.95,0.87C2.88,0.79,2.77,0.76,2.66,0.79
		c-0.17,0.05-0.24,0.2-0.18,0.38s0.19,0.26,0.35,0.22c0.11-0.03,0.18-0.1,0.2-0.21C3.2,1.14,3.37,1.1,3.54,1.07
		c0,0.34-0.21,0.61-0.59,0.72C2.52,1.91,2.15,1.74,2,1.35C1.84,0.95,2.04,0.54,2.55,0.4z"/>
	<path d="M2.67,1.85c-0.32,0-0.58-0.18-0.7-0.5C1.9,1.16,1.9,0.96,1.99,0.79c0.1-0.19,0.3-0.34,0.56-0.42l0,0
		C2.98,0.25,3.36,0.4,3.5,0.74l0.01,0.03H3.48C3.3,0.81,3.12,0.85,2.95,0.89H2.94H2.93c-0.06-0.08-0.17-0.1-0.27-0.07
		C2.59,0.84,2.54,0.88,2.51,0.93C2.48,1,2.47,1.08,2.5,1.16c0.05,0.17,0.17,0.24,0.32,0.2C2.92,1.34,2.98,1.27,3,1.18V1.16h0.02
		C3.2,1.11,3.37,1.07,3.53,1.04l0.03-0.01v0.03c0,0.36-0.23,0.63-0.61,0.74C2.86,1.83,2.76,1.85,2.67,1.85z M2.56,0.42L2.56,0.42
		c-0.25,0.07-0.44,0.21-0.53,0.4C1.95,0.97,1.95,1.15,2.02,1.33c0.15,0.38,0.5,0.55,0.92,0.43C3.29,1.66,3.5,1.42,3.51,1.1
		c-0.15,0.03-0.3,0.06-0.46,0.1c-0.03,0.1-0.1,0.18-0.22,0.21C2.66,1.46,2.52,1.37,2.45,1.18c-0.03-0.1-0.03-0.19,0.01-0.27
		c0.04-0.07,0.1-0.12,0.18-0.14c0.12-0.03,0.23-0.01,0.31,0.07C3.11,0.8,3.27,0.76,3.44,0.73C3.3,0.43,2.96,0.31,2.56,0.42z"/>
</g>
<g>
	<path class="st0" d="M4.82,0.03C5.25,0,5.47,0.21,5.47,0.47c0,0.19-0.12,0.34-0.34,0.42c0.12,0.18,0.23,0.36,0.34,0.54
		c-0.17,0-0.34,0-0.51,0.01c-0.1-0.16-0.21-0.33-0.32-0.49l0,0c0.01,0.17,0.03,0.34,0.04,0.51c-0.15,0.01-0.3,0.03-0.46,0.05
		C4.16,1.04,4.09,0.57,4.03,0.1C4.29,0.07,4.56,0.04,4.82,0.03z M4.8,0.4c-0.07,0-0.14,0.01-0.2,0.02c0,0.08,0.01,0.16,0.01,0.23
		c0.07-0.01,0.13-0.01,0.2-0.01c0.1-0.01,0.15-0.04,0.14-0.13C4.95,0.44,4.9,0.39,4.8,0.4z"/>
	<path d="M4.2,1.54V1.52L4,0.08h0.03C4.29,0.04,4.55,0.02,4.82,0l0,0c0.02,0,0.05,0,0.07,0c0.2,0,0.36,0.05,0.47,0.16
		c0.09,0.08,0.13,0.19,0.13,0.31c0,0.19-0.12,0.35-0.32,0.43c0.11,0.16,0.22,0.33,0.32,0.51l0.02,0.04H5.47
		c-0.17,0-0.34,0-0.51,0.01H4.95L4.94,1.45C4.85,1.31,4.76,1.17,4.67,1.04C4.68,1.18,4.7,1.31,4.71,1.45v0.02H4.68
		c-0.15,0.02-0.3,0.04-0.46,0.06L4.2,1.54z M4.06,0.13l0.18,1.35c0.14-0.02,0.28-0.03,0.41-0.05C4.64,1.27,4.63,1.11,4.61,0.95V0.92
		h0.04l0.01,0.01c0.1,0.15,0.21,0.31,0.31,0.47c0.15,0,0.3,0,0.46,0c-0.1-0.17-0.21-0.34-0.32-0.5L5.09,0.87l0.03-0.01
		c0.2-0.07,0.32-0.21,0.32-0.39c0-0.11-0.04-0.21-0.12-0.28c-0.11-0.1-0.28-0.16-0.5-0.14l0,0C4.57,0.07,4.31,0.09,4.06,0.13z
		 M4.59,0.68V0.66c0-0.04-0.01-0.08-0.01-0.12S4.57,0.46,4.57,0.42V0.4H4.6c0.07-0.01,0.13-0.01,0.2-0.02l0,0
		c0.06-0.01,0.1,0.01,0.14,0.04c0.03,0.02,0.04,0.06,0.04,0.1c0,0.09-0.05,0.15-0.16,0.15c-0.07,0-0.13,0.01-0.2,0.01L4.59,0.68z
		 M4.62,0.44c0,0.03,0,0.06,0.01,0.09c0,0.03,0,0.06,0.01,0.09c0.06,0,0.12-0.01,0.17-0.01c0.11-0.01,0.12-0.05,0.12-0.1
		c0-0.03-0.01-0.05-0.03-0.06C4.88,0.43,4.84,0.42,4.8,0.43l0,0C4.74,0.43,4.68,0.43,4.62,0.44z"/>
</g>
<g>
	<path class="st0" d="M6.75,1.53c-0.41-0.06-0.74-0.37-0.72-0.8C6.05,0.3,6.46,0.02,6.95,0.09s0.8,0.45,0.71,0.86
		C7.56,1.37,7.16,1.58,6.75,1.53z M6.81,1.12C7,1.14,7.13,1.04,7.16,0.85C7.19,0.66,7.1,0.52,6.9,0.49
		C6.68,0.46,6.56,0.58,6.54,0.77C6.52,0.95,6.61,1.09,6.81,1.12z"/>
	<path d="M6.88,1.56c-0.04,0-0.09,0-0.13-0.01l0,0C6.3,1.49,5.99,1.14,6.01,0.72C6.02,0.53,6.1,0.36,6.25,0.24
		c0.18-0.15,0.43-0.22,0.71-0.18c0.27,0.04,0.5,0.17,0.63,0.36c0.11,0.16,0.14,0.35,0.1,0.53C7.59,1.32,7.27,1.56,6.88,1.56z
		 M6.76,1.5c0.41,0.06,0.79-0.18,0.88-0.56c0.03-0.17,0-0.34-0.1-0.49C7.42,0.27,7.2,0.15,6.95,0.11s-0.5,0.03-0.67,0.17
		C6.15,0.39,6.07,0.55,6.06,0.73C6.04,1.12,6.34,1.44,6.76,1.5L6.76,1.5z M6.87,1.14c-0.02,0-0.04,0-0.06,0l0,0
		C6.6,1.11,6.49,0.97,6.52,0.76c0.01-0.1,0.05-0.19,0.12-0.24c0.05-0.04,0.12-0.06,0.2-0.06c0.02,0,0.04,0,0.07,0
		C7,0.48,7.08,0.52,7.13,0.59C7.18,0.66,7.2,0.75,7.18,0.86C7.15,1.04,7.03,1.14,6.87,1.14z M6.83,0.51c-0.07,0-0.12,0.02-0.17,0.05
		C6.6,0.6,6.57,0.67,6.56,0.76c-0.02,0.18,0.07,0.3,0.25,0.32l0,0c0.02,0,0.04,0,0.05,0C7,1.08,7.1,0.99,7.13,0.83
		c0.01-0.09,0-0.17-0.04-0.23s-0.11-0.09-0.2-0.11C6.87,0.51,6.85,0.51,6.83,0.51z"/>
</g>
<g>
	<path class="st0" d="M8.98,0.6C8.86,0.94,8.75,1.28,8.63,1.62c0.15,0.05,0.29,0.11,0.44,0.17c-0.04,0.1-0.09,0.2-0.13,0.31
		C8.65,1.98,8.36,1.88,8.07,1.8c0.13-0.45,0.26-0.91,0.4-1.36C8.64,0.49,8.81,0.54,8.98,0.6z"/>
	<path d="M8.96,2.13L8.93,2.12C8.65,2,8.36,1.9,8.06,1.82L8.04,1.81l0.01-0.02l0.4-1.38l0.02,0.01c0.17,0.05,0.34,0.1,0.52,0.17
		L9.01,0.6v0.01l-0.35,1c0.14,0.05,0.28,0.1,0.42,0.16H9.1L8.96,2.13z M8.1,1.78c0.28,0.08,0.55,0.18,0.83,0.29L9.04,1.8
		C8.9,1.74,8.76,1.69,8.62,1.64H8.6V1.61l0.35-1c-0.16-0.05-0.31-0.1-0.47-0.15L8.1,1.78z"/>
</g>
<g>
	<path class="st0" d="M10.57,1.3c-0.17,0.32-0.34,0.63-0.51,0.95c0.14,0.08,0.28,0.16,0.41,0.24c-0.06,0.1-0.12,0.19-0.17,0.29
		c-0.27-0.16-0.54-0.31-0.82-0.45c0.2-0.43,0.41-0.85,0.61-1.28C10.24,1.13,10.41,1.21,10.57,1.3z"/>
	<path d="M10.3,2.81L10.28,2.8c-0.27-0.16-0.54-0.31-0.82-0.45L9.44,2.34l0.01-0.02c0.2-0.43,0.41-0.85,0.61-1.28l0.01-0.02
		l0.02,0.01c0.17,0.08,0.33,0.16,0.49,0.25l0.02,0.01l-0.01,0.02c-0.17,0.31-0.33,0.62-0.5,0.93c0.13,0.07,0.26,0.14,0.39,0.23
		l0.02,0.01L10.49,2.5c-0.03,0.05-0.06,0.1-0.09,0.14s-0.06,0.1-0.09,0.14L10.3,2.81z M9.5,2.32c0.27,0.13,0.53,0.27,0.78,0.42
		c0.02-0.04,0.05-0.08,0.07-0.12c0.02-0.04,0.05-0.08,0.07-0.12c-0.13-0.08-0.26-0.16-0.39-0.22l-0.02-0.01l0.01-0.02
		c0.17-0.31,0.33-0.62,0.5-0.93c-0.14-0.08-0.29-0.15-0.44-0.23C9.89,1.5,9.7,1.91,9.5,2.32z"/>
</g>
<g>
	<path d="M5.53,4.67c-0.16,0-0.3-0.09-0.43-0.17L3.81,3.61L3.95,3.4l1.29,0.88c0.11,0.08,0.23,0.15,0.31,0.14
		c0.06-0.01,0.13-0.05,0.19-0.1c0.42-0.29,0.83-0.6,1.21-0.93l0.16,0.19C6.73,3.91,6.32,4.23,5.89,4.53
		c-0.08,0.05-0.18,0.12-0.3,0.14C5.57,4.67,5.55,4.67,5.53,4.67z"/>
</g>
<g>
	<path class="st1" d="M5.68,4.52c-0.16,0-0.3-0.09-0.43-0.17L3.96,3.46L4.1,3.25l1.29,0.88C5.5,4.21,5.62,4.28,5.7,4.27
		c0.06-0.01,0.13-0.05,0.19-0.1c0.42-0.29,0.83-0.6,1.21-0.93l0.16,0.19C6.88,3.76,6.47,4.08,6.04,4.38
		C5.96,4.43,5.86,4.5,5.74,4.52C5.72,4.52,5.7,4.52,5.68,4.52z"/>
</g>
</svg>
