<?xml version="1.0" encoding="utf-8"?>
<!-- Generator: Adobe Illustrator 23.0.4, SVG Export Plug-In . SVG Version: 6.00 Build 0)  -->
<svg version="1.1" id="Layer_1" xmlns="http://www.w3.org/2000/svg" xmlns:xlink="http://www.w3.org/1999/xlink" x="0px" y="0px"
	 viewBox="0 0 48 48" style="enable-background:new 0 0 48 48; " xml:space="preserve">
<g>
	<path d="M26.6,39c-0.2,0-0.3,0-0.4-0.1c-0.2-0.1-0.3-0.3-0.3-0.5l-0.3-1.6h-3.2l-0.3,1.6c0,0.2-0.1,0.4-0.3,0.5
		C21.7,39,21.4,39,21.2,39c-2.1-0.4-4.1-1.2-5.9-2.4c-0.2-0.1-0.3-0.3-0.3-0.5c0-0.2,0-0.4,0.1-0.6l0.9-1.3l-2.3-2.3l-1.3,0.9
		C12.4,33,12.2,33,12,33c-0.2,0-0.4-0.2-0.5-0.3c-1.2-1.8-2.1-3.8-2.4-5.9c0-0.2,0-0.4,0.1-0.6c0.1-0.2,0.3-0.3,0.5-0.3l1.6-0.3
		v-3.2l-1.6-0.3c-0.2,0-0.4-0.1-0.5-0.3C9,21.7,9,21.4,9,21.2c0.4-2.1,1.2-4.1,2.4-5.9c0.1-0.2,0.3-0.3,0.5-0.3c0.2,0,0.4,0,0.6,0.1
		l1.3,0.9l2.3-2.3l-0.9-1.3C15,12.4,15,12.2,15,12c0-0.2,0.2-0.4,0.3-0.5c1.8-1.2,3.8-2.1,5.9-2.4c0.2,0,0.4,0,0.6,0.1
		c0.2,0.1,0.3,0.3,0.3,0.5l0.3,1.6h3.2l0.3-1.6c0-0.2,0.1-0.4,0.3-0.5C26.3,9,26.6,9,26.8,9c2.1,0.4,4.1,1.2,5.9,2.4
		c0.2,0.1,0.3,0.3,0.3,0.5c0,0.2,0,0.4-0.1,0.6l-0.9,1.3l2.3,2.3l1.3-0.9C35.6,15,35.8,15,36,15c0.2,0,0.4,0.2,0.5,0.3
		c1.2,1.8,2.1,3.8,2.4,5.9c0,0.2,0,0.4-0.1,0.6c-0.1,0.2-0.3,0.3-0.5,0.3l-1.6,0.3v3.2l1.6,0.3c0.2,0,0.4,0.1,0.5,0.3
		c0.1,0.2,0.2,0.4,0.1,0.6c-0.4,2.1-1.2,4.1-2.4,5.9c-0.1,0.2-0.3,0.3-0.5,0.3c-0.2,0-0.4,0-0.6-0.1l-1.3-0.9l-2.3,2.3l0.9,1.3
		C33,35.6,33,35.8,33,36c0,0.2-0.2,0.4-0.3,0.5c-1.8,1.2-3.8,2.1-5.9,2.4C26.7,39,26.7,39,26.6,39z M16.9,35.7
		c1.2,0.7,2.5,1.3,3.8,1.6l0.2-1.4c0.1-0.4,0.4-0.7,0.8-0.7h4.5c0.4,0,0.7,0.3,0.8,0.7l0.2,1.4c1.4-0.3,2.6-0.9,3.8-1.6l-0.8-1.2
		c-0.2-0.3-0.2-0.7,0.1-1l3.2-3.2c0.3-0.3,0.7-0.3,1-0.1l1.2,0.8c0.7-1.2,1.3-2.5,1.6-3.8L35.9,27c-0.4-0.1-0.7-0.4-0.7-0.8v-4.5
		c0-0.4,0.3-0.7,0.7-0.8l1.4-0.2c-0.3-1.4-0.9-2.6-1.6-3.8l-1.2,0.8c-0.3,0.2-0.7,0.2-1-0.1l-3.2-3.2c-0.3-0.3-0.3-0.7-0.1-1
		l0.8-1.2c-1.2-0.7-2.5-1.3-3.8-1.6L27,12.1c-0.1,0.4-0.4,0.7-0.8,0.7h-4.5c-0.4,0-0.7-0.3-0.8-0.7l-0.2-1.4
		c-1.4,0.3-2.6,0.9-3.8,1.6l0.8,1.2c0.2,0.3,0.2,0.7-0.1,1l-3.2,3.2c-0.3,0.3-0.7,0.3-1,0.1l-1.2-0.8c-0.7,1.2-1.3,2.5-1.6,3.8
		l1.4,0.2c0.4,0.1,0.7,0.4,0.7,0.8v4.5c0,0.4-0.3,0.7-0.7,0.8l-1.4,0.2c0.3,1.4,0.9,2.6,1.6,3.8l1.2-0.8c0.3-0.2,0.7-0.2,1,0.1
		l3.2,3.2c0.3,0.3,0.3,0.7,0.1,1L16.9,35.7z M24,31.6c-4.2,0-7.6-3.4-7.6-7.6c0-4.2,3.4-7.6,7.6-7.6c4.2,0,7.6,3.4,7.6,7.6
		C31.6,28.2,28.2,31.6,24,31.6z M24,17.9c-3.3,0-6.1,2.7-6.1,6.1c0,3.3,2.7,6.1,6.1,6.1c3.3,0,6.1-2.7,6.1-6.1
		C30.1,20.7,27.3,17.9,24,17.9z"/>
</g>
</svg>
