<?xml version="1.0" encoding="utf-8"?>
<!-- Generator: Adobe Illustrator 24.1.0, SVG Export Plug-In . SVG Version: 6.00 Build 0)  -->
<svg version="1.1" id="Capa_1" xmlns="http://www.w3.org/2000/svg" xmlns:xlink="http://www.w3.org/1999/xlink" x="0px" y="0px"
	 viewBox="0 0 512 512" style="enable-background:new 0 0 512 512;" xml:space="preserve">
<style type="text/css">
	.st0{fill:#FFFF00;}
	.st1{fill:#FFFF00;stroke:#000000;stroke-miterlimit:10;}
</style>
<g>
	<g>
		<rect x="309.3" y="244.7" class="st0" width="160" height="22.3"/>
	</g>
</g>
<polygon class="st1" points="7,228 77.8,169 330.7,436 272,499 "/>
<polygon class="st1" points="248.5,178 401,22.1 416,11 430.6,11 464,40.1 458.6,57 384,138.3 288.8,228 268,243.9 224,252.6 "/>
<g>
	<g>
		<path d="M74.7,88.8c-17.7,0-32,15-32,33.4v65.6H64v-65.6c0-6.2,4.8-11.1,10.7-11.1h256V88.8H74.7z"/>
	</g>
</g>
<g>
	<g>
		<path d="M74.7,422.9c-5.9,0-10.7-5-10.7-11.1V272.5H42.7v139.2c0,18.5,14.3,33.4,32,33.4h131.1v-22.3L74.7,422.9L74.7,422.9z"/>
	</g>
</g>
<g>
	<g>
		<path d="M469.3,422.9H315.6v22.3h111.1v55.7c0,6.2,4.8,11.1,10.7,11.1h32c23.6,0,42.7-19.9,42.7-44.5
			C512,442.8,492.9,422.9,469.3,422.9z M469.3,489.7H448v-44.5h21.3c11.8,0,21.3,10,21.3,22.3C490.7,479.8,481.1,489.7,469.3,489.7z
			"/>
	</g>
</g>
<g>
	<g>
		<path d="M469.3,88.8H416v22.3h53.3c11.8,0,21.3,10,21.3,22.3v334.1H512V133.3C512,108.7,492.9,88.8,469.3,88.8z"/>
	</g>
</g>
<g>
	<g>
		<g>
			<path d="M338.2,429.3l-259-270.4c-4.2-4.3-10.9-4.3-15.1,0l-61,63.6c-4.2,4.3-4.2,11.4,0,15.7l259.1,270.5c2,2.1,4.7,3.3,7.5,3.3
				s5.5-1.2,7.5-3.3l60.9-63.6C342.4,440.7,342.4,433.7,338.2,429.3z M269.7,485.1l-244-254.7l45.9-47.9l244,254.7L269.7,485.1z"/>
		</g>
	</g>
	<g>
		<g>
			<polygon points="163.1,325.9 195.1,292.5 210.2,308.3 178.2,341.7 			"/>
		</g>
	</g>
	<g>
		<g>
			<polygon points="120.5,281.4 152.5,248 167.5,263.7 135.5,297.1 			"/>
		</g>
	</g>
	<g>
		<g>
			<polygon points="205.8,370.5 237.8,337.1 252.9,352.8 220.9,386.2 			"/>
		</g>
	</g>
	<g>
		<g>
			<polygon points="248.5,415 280.5,381.6 295.5,397.4 263.5,430.8 			"/>
		</g>
	</g>
	<g>
		<g>
			<polygon points="77.8,236.8 109.8,203.4 124.8,219.2 92.8,252.6 			"/>
		</g>
	</g>
</g>
<g>
	<g>
		<path d="M460.1,24.7L445.4,9.3c-12.5-12.4-32.1-12.4-44.6,0L238.6,178.7c-4.2,4.3-4.2,11.4,0,15.7l44.2,46.2
			c2,2.1,4.7,3.3,7.5,3.3s5.5-1.2,7.5-3.3L460.1,71.3l0,0C472.4,58.4,472.4,37.6,460.1,24.7z M445,55.5L290.4,217l-29.2-30.4
			L415.9,25.1c4-4,10.4-4,14.4,0L445,40.5l0,0C449,44.6,449,51.3,445,55.5z"/>
	</g>
</g>
<g>
	<g>
		<path d="M286.9,222.2l-46,16l15.4-48.1l-20.3-7l-22.1,69.3c-0.4,1.1-0.5,2.3-0.5,3.5c0,6.2,4.8,11.1,10.7,11.1
			c1.1,0,2.3-0.2,3.3-0.5l66.4-23.1L286.9,222.2z"/>
	</g>
</g>
<g>
	<g>
		<polygon points="371.3,55.9 386.4,40.1 430.6,86.3 415.5,102 		"/>
	</g>
</g>
<g>
	<g>
		<rect x="224" y="244.7" width="160" height="22.3"/>
	</g>
</g>
<g>
	<g>
		<rect x="405.3" y="244.7" width="21.3" height="22.3"/>
	</g>
</g>
<g>
	<g>
		<rect x="448" y="244.7" width="21.3" height="22.3"/>
	</g>
</g>
</svg>
