<?xml version="1.0" encoding="utf-8"?>
<!-- Generator: Adobe Illustrator 23.0.4, SVG Export Plug-In . SVG Version: 6.00 Build 0)  -->
<svg version="1.1" id="Layer_1" xmlns="http://www.w3.org/2000/svg" xmlns:xlink="http://www.w3.org/1999/xlink" x="0px" y="0px"
	 viewBox="0 0 512 512" style="enable-background:new 0 0 512 512;" xml:space="preserve">
<style type="text/css">
	.st0{fill:#505050;}
	.st1{fill:#E6F7FE;}
	.st2{fill:#EBEBEB;}
	.st3{fill:#D5F1FE;}
	.st4{fill:#49AAB7;}
	.st5{fill:#488089;}
	.st6{fill:#969696;}
	.st7{fill:#646464;}
	.st8{fill:#D8375A;}
	.st9{fill:#D1A22A;}
	.st10{fill:#5CBF96;}
	.st11{fill:#B4B4B4;}
	.st12{fill:#529E5F;}
	.st13{fill:#EA7E5A;}
	.st14{fill:#D64F39;}
	.st15{fill:#F7D65E;}
	.st16{fill:#E5D6B9;}
</style>
<path class="st0" d="M475.5,375.8C491.8,343,501,306.1,501,267c0-135.3-109.7-245-245-245S11,131.7,11,267c0,39.1,9.2,76,25.5,108.8
	H475.5z"/>
<path class="st1" d="M36,257.6v117.2C75.9,456.1,159.4,512,256,512s180.1-55.9,220-137.2V257.6L36,257.6L36,257.6z"/>
<path class="st2" d="M36,257.6v117.2c15.9,32.5,38.9,60.9,66.8,83.3V257.6H36z"/>
<path class="st3" d="M36,47H476v26.3H36V47z"/>
<path class="st4" d="M152.9,73.3H36V47h92.2C141.8,47,152.9,58.8,152.9,73.3z"/>
<path class="st5" d="M36,47h66.8v26.3H36V47z"/>
<path class="st6" d="M474.7,0c-8.5,0-425,0-437.4,0C36.6,0,36,0.6,36,1.3v47.2H476V1.3C476,0.6,475.4,0,474.7,0z"/>
<path class="st7" d="M114.8,0C71.1,0,40.5,0,37.3,0C36.6,0,36,0.6,36,1.3v47.2h66.8V12C102.8,5.4,108.2,0,114.8,0z"/>
<path class="st8" d="M72.3,33.8c-5.5,0-10-4.5-10-10c0-4.8,3.4-8.9,8.1-9.8c6.1-1.2,11.9,3.5,11.9,9.8
	C82.3,29.4,77.8,33.8,72.3,33.8z"/>
<path class="st9" d="M102.8,33.8c-5.4,0-10-4.4-10-10c0-6.3,5.8-11,11.9-9.8c4.8,1,8.1,5.2,8.1,9.8
	C112.8,29.3,108.3,33.8,102.8,33.8z"/>
<path class="st10" d="M133.3,33.8c-5.4,0-10-4.4-10-10c0-6.4,5.8-11,11.9-9.8c4.8,1,8.1,5.2,8.1,9.8
	C143.3,29.3,138.8,33.8,133.3,33.8z"/>
<path class="st11" d="M447.1,31.8h-52.7c-4.1,0-7.5-3.4-7.5-7.5s3.4-7.5,7.5-7.5h52.7c4.1,0,7.5,3.4,7.5,7.5S451.3,31.8,447.1,31.8z
	"/>
<path class="st11" d="M356.8,31.8H172.9c-4.1,0-7.5-3.4-7.5-7.5s3.4-7.5,7.5-7.5h183.8c4.1,0,7.5,3.4,7.5,7.5S360.9,31.8,356.8,31.8
	z"/>
<path class="st2" d="M317.4,24.3c0-4.1,3.4-7.5,7.5-7.5h-152c-4.1,0-7.5,3.4-7.5,7.5c0,4.1,3.4,7.5,7.5,7.5h152
	C320.8,31.8,317.4,28.4,317.4,24.3z"/>
<path class="st4" d="M36,73.3H476v193.8H36V73.3z"/>
<path class="st5" d="M36,267.1h221.6c2.2-7,0.8-14.1-9.1-19.1c-26.8-13.8,14-32.2-13-43.2c-15.1-6.2-17.4-17.2-16.4-25.7
	c0.7-5.9-3.7-11.2-9.6-11.8c-24.8-2.5-28.9-20.2-29.2-30.5c-0.1-4.3-2.7-8.1-6.6-9.7c-41.2-16.2-20.8-53.7-20.8-53.7H36V267.1z"/>
<path class="st4" d="M476,267.1V133.3c-13.7,8.7-31.9,16.7-53.1,17.3c-6.3,10.6-17.9,17.8-31.2,17.8c-21.9,0-39-19.4-35.9-41.3
	c-11.8-8.8-41.9-37-89.2-36.5c-54.8,0.5-82.9,38.7-97.1,48.5c0,0-64.7,57.6-133.5,0.9v127.2H476z"/>
<path class="st5" d="M248.5,248c-26.8-13.8,14-32.2-13-43.2c-15.1-6.2-17.4-17.2-16.4-25.7c0.7-5.9-3.7-11.2-9.6-11.8
	c-24.8-2.5-28.9-20.2-29.2-30.5c0-1.9-0.6-3.8-1.6-5.4c-3.6,3.3-6.6,6-9.2,7.8c0,0-64.7,57.6-133.5,0.9v127.2h221.6
	C259.8,260.1,258.4,253,248.5,248z"/>
<path class="st10" d="M476,267.1v-59.3l-25.9-25.9c-10.2-10.2-26.6-10.2-36.8,0l-18.1,18.1c-4.4,4.4-11.6,4.4-16.1,0l-74.4-74.4
	c-11.2-11.2-29.4-11.2-40.7,0l-95.8,95.8c-3.7,3.7-9.7,3.7-13.4,0l-21.8-21.8c-11.6-11.6-30.3-11.6-41.9,0L36,255v12.1H476z"/>
<path class="st12" d="M248.5,248c-26.8-13.8,14-32.2-13-43.2c-15.1-6.2-17.4-17.2-16.4-25.7c0.3-2.5-0.3-4.8-1.6-6.8l-49.2,49.2
	c-3.7,3.7-9.7,3.7-13.4,0l-21.8-21.8c-11.6-11.6-30.3-11.6-41.9,0L36,255v12.1h221.6C259.8,260.1,258.4,253,248.5,248z"/>
<path class="st10" d="M476,267.1v-48c-26.3,25.9-68.2,46.7-122.2,5.2c-142.7-109.9-168,127.6-317.9-8.4v51.2H476z"/>
<path class="st12" d="M248.5,248c-26.1-13.4,12.2-31.4-11.3-42.5c-58.8,29.1-103.6,99-201.2,10.4v51.2h221.6
	C259.8,260.1,258.4,253,248.5,248z"/>
<path class="st13" d="M441.8,293.6H70.1c-3.7,0-6.7,3-6.7,6.7v50.6c0,3.7,3,6.7,6.7,6.7h371.8c3.7,0,6.7-3,6.7-6.7v-50.6
	C448.5,296.7,445.5,293.6,441.8,293.6z"/>
<path class="st14" d="M96.3,350.9v-50.6c0-3.7,3-6.7,6.7-6.7h-33c-3.7,0-6.7,3-6.7,6.7v50.6c0,3.7,3,6.7,6.7,6.7h33
	C99.3,357.6,96.3,354.6,96.3,350.9z"/>
<path class="st15" d="M166.2,383.9H70.8c-4.1,0-7.4,3.3-7.4,7.4v27c28.3,35.9,66.4,63.7,110.2,79.4V391.3
	C173.6,387.2,170.3,383.9,166.2,383.9z"/>
<path class="st9" d="M102.3,391.3c0-4.1,3.3-7.4,7.4-7.4H70.8c-4.1,0-7.4,3.3-7.4,7.4v27c11.5,14.6,24.5,27.8,38.9,39.4V391.3z"/>
<path class="st9" d="M126.2,425.8h-13.9c-5.5,0-10-4.5-10-10s4.5-10,10-10h13.9c5.5,0,10,4.5,10,10S131.7,425.8,126.2,425.8z"/>
<path class="st16" d="M145.4,467.9h-29.6c7.8,5.4,15.9,10.5,24.3,15h5.3c4.1,0,7.5-3.4,7.5-7.5C152.9,471.2,149.5,467.9,145.4,467.9
	z"/>
<path class="st16" d="M145.4,440.6H93.1c-2.7,0-5,1.4-6.3,3.5c4.2,4,8.5,7.8,12.9,11.5h45.8c4.1,0,7.5-3.4,7.5-7.5
	C152.9,444,149.5,440.6,145.4,440.6z"/>
<path class="st15" d="M303.6,383.9h-95.4c-4.1,0-7.4,3.3-7.4,7.4v114.4c17.7,4.1,36.2,6.2,55.2,6.2c18.9,0,37.4-2.2,55.1-6.2V391.3
	C311.1,387.2,307.7,383.9,303.6,383.9z"/>
<path class="st9" d="M239.8,391.3c0-4.1,3.3-7.4,7.4-7.4h-38.9c-4.1,0-7.4,3.3-7.4,7.4v114.4c12.6,2.9,25.6,4.8,38.9,5.7V391.3z"/>
<path class="st9" d="M263.6,425.8h-13.9c-5.5,0-10-4.5-10-10s4.5-10,10-10h13.9c5.5,0,10,4.5,10,10S269.2,425.8,263.6,425.8z"/>
<path class="st16" d="M282.8,482.9h-52.3c-4.1,0-7.5-3.4-7.5-7.5c0-4.1,3.4-7.5,7.5-7.5h52.3c4.1,0,7.5,3.4,7.5,7.5
	C290.3,479.5,287,482.9,282.8,482.9z"/>
<path class="st16" d="M282.8,455.6h-52.3c-4.1,0-7.5-3.4-7.5-7.5c0-4.1,3.4-7.5,7.5-7.5h52.3c4.1,0,7.5,3.4,7.5,7.5
	C290.3,452.2,287,455.6,282.8,455.6z"/>
<path class="st15" d="M448.5,418.5v-27.2c0-4.1-3.3-7.4-7.4-7.4h-95.4c-4.1,0-7.4,3.3-7.4,7.4v106.5
	C382.2,482.2,420.3,454.4,448.5,418.5z"/>
<path class="st9" d="M377.2,391.3c0-4.1,3.3-7.4,7.4-7.4h-38.9c-4.1,0-7.4,3.3-7.4,7.4v106.5c13.6-4.8,26.6-10.8,38.9-17.9V391.3z"
	/>
<path class="st9" d="M401.1,425.8h-13.9c-5.5,0-10-4.5-10-10s4.5-10,10-10h13.9c5.5,0,10,4.5,10,10S406.6,425.8,401.1,425.8z"/>
<path class="st16" d="M368,467.9c-4.1,0-7.5,3.4-7.5,7.5c0,4.1,3.4,7.5,7.5,7.5h3.9c8.4-4.5,16.5-9.6,24.3-15H368z"/>
<path class="st16" d="M420.3,440.6H368c-4.1,0-7.5,3.4-7.5,7.5c0,4.1,3.4,7.5,7.5,7.5h44.4c4.7-3.9,9.3-8,13.7-12.3
	C424.7,441.7,422.6,440.6,420.3,440.6z"/>
<path class="st2" d="M323.7,194.3H185.5c-2.6,0-4.7,2.1-4.7,4.7v16.3c0,2.6,2.1,4.7,4.7,4.7h138.2V194.3z"/>
<path class="st4" d="M226.9,215.3V199c0-2.6,2.1-4.7,4.7-4.7h-46.1c-2.6,0-4.7,2.1-4.7,4.7v16.3c0,2.6,2.1,4.7,4.7,4.7h46.1
	C229,220,226.9,217.9,226.9,215.3z"/>
<path class="st14" d="M344.2,194.3h-22.5V220h22.5c2.6,0,4.7-2.1,4.7-4.7V199C349,196.4,346.8,194.3,344.2,194.3z"/>
<path class="st15" d="M429.5,132.1c0,20.9-16.9,37.8-37.8,37.8s-37.8-16.9-37.8-37.8c0-20.9,16.9-37.8,37.8-37.8
	S429.5,111.2,429.5,132.1z"/>
<path class="st9" d="M386.3,94.7c-18.4,2.6-32.5,18.4-32.5,37.4c0,36.5,46.7,51.7,68.3,22.4C388.5,159.4,366.8,121.1,386.3,94.7z"/>
</svg>
