<?xml version="1.0" encoding="utf-8"?>
<!-- Generator: Adobe Illustrator 24.1.0, SVG Export Plug-In . SVG Version: 6.00 Build 0)  -->
<svg version="1.1" id="Capa_1" xmlns="http://www.w3.org/2000/svg" xmlns:xlink="http://www.w3.org/1999/xlink" x="0px" y="0px"
	 viewBox="0 0 688 512" style="enable-background:new 0 0 688 512;" xml:space="preserve">
<style type="text/css">
	.st0{fill:#FFFF00;}
	.st1{fill:#FFFFFF;}
	.st2{fill:#FFFFFF;stroke:#000000;stroke-width:20;stroke-miterlimit:10;}
</style>
<path class="st0" d="M30,429.9V168.7h429.5V439h-407C40.3,439,30,434.9,30,429.9z"/>
<path d="M52.1,105c-6.6,0-11.9,5.3-11.9,11.9s5.4,11.9,11.9,11.9c6.6,0,11.9-5.3,11.9-11.9S58.7,105,52.1,105z"/>
<path d="M94.8,105c-6.6,0-11.9,5.3-11.9,11.9s5.4,11.9,11.9,11.9c6.6,0,11.9-5.3,11.9-11.9C106.8,110.3,101.4,105,94.8,105z"/>
<ellipse cx="137.6" cy="117" rx="11.9" ry="11.9"/>
<path d="M501.9,76.5h-472C13.4,76.5,0,89.9,0,106.3v204v14.8V442c0,16.6,13.4,30,29.9,30h471.9c16.5,0,29.9-13.4,29.9-29.9V237v-9.2
	V106.3C531.8,89.8,518.4,76.5,501.9,76.5z M513.2,139H18.6v-32.7c0-6.3,5.1-11.4,11.4-11.4h471.9c6.3,0,11.4,5.1,11.4,11.4
	L513.2,139L513.2,139z M18.6,325.3v-14.8v-153h494.7v70.3v9.2v205.1c0,6.3-5.1,11.4-11.4,11.4h-472c-6.3,0-11.4-5.1-11.4-11.4V325.3
	H18.6z"/>
<g>
	<path d="M297.1,232.8c-4.7-2-10.1,0.2-12,4.8L230,366.1c-2,4.7,0.2,10.1,4.8,12c4.7,2,10.1-0.2,12-4.8l55.1-128.5
		C303.9,240.2,301.7,234.8,297.1,232.8L297.1,232.8z"/>
	<path d="M218,263c-3.2-4-8.9-4.6-12.9-1.4l-45.9,36.7c-4.6,3.7-4.6,10.7,0,14.3l45.9,36.7c4,3.2,9.7,2.5,12.9-1.4
		c3.2-4,2.5-9.7-1.4-12.9l-36.9-29.5l36.9-29.5C220.5,272.8,221.2,267,218,263L218,263z"/>
	<path d="M372.6,298.3l-45.9-36.7c-4-3.2-9.7-2.5-12.9,1.4c-3.2,4-2.5,9.7,1.4,12.9l36.9,29.5L315.2,335c-4,3.2-4.6,8.9-1.4,12.9
		s8.9,4.6,12.9,1.4l45.9-36.7C377.2,309,377.2,302,372.6,298.3z"/>
</g>
<path class="st1" d="M428.3,479.4V170.6c0-6.2,5-11.2,11.2-11.2h191.3c6.2,0,11.2,5,11.2,11.2v308.8c0,6.2-5,11.2-11.2,11.2H439.5
	C433.4,490.6,428.3,485.6,428.3,479.4z"/>
<path class="st0" d="M450.3,459.2V181.1H620v287.8H459.2C454.3,468.9,450.3,464.6,450.3,459.2z"/>
<path d="M419,479.4V170.6c0-11.3,9.2-20.5,20.5-20.5h191.3c11.3,0,20.5,9.2,20.5,20.5v308.8c0,11.3-9.2,20.5-20.5,20.5H439.5
	C428.2,499.9,419,490.7,419,479.4z M632.7,170.6c0-1-0.9-1.9-1.9-1.9H439.5c-1,0-1.9,0.9-1.9,1.9v308.8c0,1,0.9,1.9,1.9,1.9h191.3
	c1,0,1.9-0.9,1.9-1.9V170.6z"/>
<path class="st2" d="M393.1,494.1V302.3c0-3.8,3.1-7,7-7h118.8c3.8,0,7,3.1,7,7v191.8c0,3.8-3.1,7-7,7H400.1
	C396.2,501.1,393.1,497.9,393.1,494.1z"/>
<path class="st0" d="M414,471.8V319.3h91v157.8h-86.2C416.2,477.1,414,474.7,414,471.8z"/>
</svg>
