<?xml version="1.0" encoding="utf-8"?>
<!-- Generator: Adobe Illustrator 23.0.4, SVG Export Plug-In . SVG Version: 6.00 Build 0)  -->
<svg version="1.1" id="Layer_1" xmlns="http://www.w3.org/2000/svg" xmlns:xlink="http://www.w3.org/1999/xlink" x="0px" y="0px"
	 viewBox="0 0 512 512" style="enable-background:new 0 0 512 512;" xml:space="preserve">
<style type="text/css">
	.st0{fill:#FECD0A;}
	.st1{fill:#282828;}
	.st2{fill:#505050;}
	.st3{fill:#E6F7FE;}
	.st4{fill:#EBEBEB;}
	.st5{fill:#EA7E5A;}
	.st6{fill:#D64F39;}
	.st7{fill:#969696;}
	.st8{fill:#646464;}
	.st9{fill:#5CBF96;}
	.st10{fill:#B4B4B4;}
	.st11{fill:#D5F1FE;}
	.st12{fill:#49AAB7;}
	.st13{fill:#529E5F;}
	.st14{fill:#F7D65E;}
	.st15{fill:#D1A22A;}
	.st16{fill:#488089;}
</style>
<path class="st0" d="M404.9,70.3C361.9,33.4,306.1,11,245,11S128.1,33.4,85.1,70.3H404.9z"/>
<path class="st1" d="M389.6,453.8H100.4C140.9,483.5,190.9,501,245,501S349.1,483.5,389.6,453.8z"/>
<path class="st2" d="M257.7,500.7c49.2-2.5,94.6-19.5,131.9-46.9H255.8C286,453.8,287.5,498.6,257.7,500.7z"/>
<path class="st2" d="M444.8,68.3H87.5C34,113.3,0,180.7,0,256c0,61.5,22.7,117.7,60.1,160.7h267V186.2c0-12.5,10.2-22.8,22.8-22.8
	h118.8V92.2C468.6,79.1,457.9,68.3,444.8,68.3z"/>
<path class="st1" d="M99.2,398.6V87.4c0-9.1,6.1-16.7,14.5-19.1H87.5C34,113.3,0,180.7,0,256c0,61.5,22.7,117.7,60.1,160.7h50.9
	C104,413.6,99.2,406.6,99.2,398.6z"/>
<path class="st3" d="M0,256c0,61.5,22.7,117.7,60.1,160.7h267V255.3H0C0,255.5,0,255.8,0,256z"/>
<path class="st4" d="M99.2,397.6V255.3H0c0,0.2,0,0.5,0,0.7c0,61.5,22.7,117.7,60.1,160.7h53.6C105.3,414.4,99.2,406.7,99.2,397.6z"
	/>
<path class="st5" d="M448.4,137.4H30.6C11.1,172.5,0,213,0,256c0,0.4,0,0.9,0,1.3h327.1v-71.1c0-12.5,10.2-22.8,22.8-22.8h98.6
	V137.4z"/>
<path class="st6" d="M99.2,137.4H30.6C11.1,172.5,0,213,0,256c0,0.4,0,0.9,0,1.3h99.1L99.2,137.4L99.2,137.4z"/>
<path class="st7" d="M103.8,456.2h223.3v-41.5c-85.8,0-187.4,0-268.8,0C71.7,430.4,86.9,444.3,103.8,456.2z"/>
<path class="st8" d="M175.1,445.8c0-6.1,4.9-11,11-11.1v-20.1c-44.6,0-88.6,0-127.8,0c13.3,15.7,28.6,29.6,45.4,41.5h78.6
	C178.1,454.7,175.1,450.6,175.1,445.8z"/>
<path class="st7" d="M444.4,88.5H66.2c-14.3,15.3-26.7,32.4-36.7,50.9h419V92.6C448.4,90.3,446.6,88.5,444.4,88.5z"/>
<path class="st8" d="M99.2,88.5H66.2c-14.3,15.3-26.7,32.4-36.7,50.9h69.7L99.2,88.5L99.2,88.5z"/>
<path class="st9" d="M66.7,123.8c-5.6,0-10.1-4.6-10.1-10.1c0-6.4,5.9-11.1,12.1-9.9c4.9,1,8.1,5.3,8.1,9.9
	C76.8,119.2,72.4,123.8,66.7,123.8z"/>
<path class="st10" d="M416.7,121.7h-53.1c-4.2,0-7.6-3.4-7.6-7.6s3.4-7.6,7.6-7.6h53.1c4.2,0,7.6,3.4,7.6,7.6
	C424.3,118.4,420.9,121.7,416.7,121.7z"/>
<path class="st10" d="M325.6,121.7H106.7c-4.2,0-7.6-3.4-7.6-7.6s3.4-7.6,7.6-7.6h218.9c4.2,0,7.6,3.4,7.6,7.6
	S329.8,121.7,325.6,121.7z"/>
<path class="st4" d="M276.5,114.2c0-4.2,3.4-7.6,7.6-7.6H106.7c-4.2,0-7.6,3.4-7.6,7.6c0,4.2,3.4,7.6,7.6,7.6h177.3
	C279.9,121.7,276.5,118.4,276.5,114.2z"/>
<path class="st11" d="M16.5,167.4h431.9v-28h-419C24.6,148.4,20.3,157.7,16.5,167.4z"/>
<path class="st12" d="M99.2,139.4H29.5c-4.9,9-9.2,18.3-12.9,28h82.6V139.4z"/>
<path class="st9" d="M0,256c0,14.4,1.2,28.4,3.6,42.1h323.5v-81.6H3.2C1.1,229.4,0,242.6,0,256z"/>
<path class="st13" d="M99.2,216.5h-96C1.1,229.4,0,242.6,0,256c0,14.4,1.2,28.4,3.6,42.1h95.5V216.5z"/>
<path class="st4" d="M36,199.4c4.2,0,7.6-3.4,7.6-7.6c0-4.2-3.4-7.6-7.6-7.6H10.7c-1.5,5-2.9,10-4.1,15.1H36z"/>
<g>
	<path class="st14" d="M192.1,320.2H8.5c1.4,5.1,2.9,10.2,4.6,15.1h179c4.2,0,7.6-3.4,7.6-7.6C199.7,323.6,196.3,320.2,192.1,320.2z
		"/>
	<path class="st14" d="M192.1,349.4H18.5c2.1,5.1,4.4,10.2,6.9,15.1h166.8c4.2,0,7.6-3.4,7.6-7.6S196.3,349.4,192.1,349.4z"/>
	<path class="st14" d="M192.1,378.6H32.8c3,5.2,6.2,10.2,9.5,15.1h149.8c4.2,0,7.6-3.4,7.6-7.6S196.3,378.6,192.1,378.6z"/>
</g>
<path class="st15" d="M92,327.8c0-4.2,3.4-7.6,7.6-7.6h-91c1.4,5.1,2.9,10.2,4.6,15.1h86.4C95.3,335.4,92,332,92,327.8z"/>
<path class="st15" d="M92,357c0-4.2,3.4-7.6,7.6-7.6H18.5c2.1,5.1,4.4,10.2,6.9,15.1h74.2C95.3,364.5,92,361.1,92,357z"/>
<path class="st15" d="M92,386.2c0-4.2,3.4-7.6,7.6-7.6H32.8c3,5.2,6.2,10.2,9.5,15.1h57.2C95.3,393.7,92,390.3,92,386.2z"/>
<path class="st14" d="M329.1,335.4H223.9c-4.2,0-7.6-3.4-7.6-7.6c0-4.2,3.4-7.6,7.6-7.6h105.3c4.2,0,7.6,3.4,7.6,7.6
	C336.7,332,333.3,335.4,329.1,335.4z"/>
<path class="st14" d="M329.1,364.5H223.9c-4.2,0-7.6-3.4-7.6-7.6s3.4-7.6,7.6-7.6h105.3c4.2,0,7.6,3.4,7.6,7.6
	S333.3,364.5,329.1,364.5z"/>
<path class="st14" d="M329.1,393.7H223.9c-4.2,0-7.6-3.4-7.6-7.6s3.4-7.6,7.6-7.6h105.3c4.2,0,7.6,3.4,7.6,7.6
	S333.3,393.7,329.1,393.7z"/>
<path class="st8" d="M114.2,414.7v8.7c0,6.7,5.4,12.1,12.1,12.1h163.3c6.7,0,12.1-5.4,12.1-12.1v-8.7
	C243.4,414.7,176.5,414.7,114.2,414.7z"/>
<path class="st2" d="M171.1,423.4v-8.7c-19.1,0-38.2,0-56.8,0v8.7c0,6.7,5.4,12.1,12.1,12.1h56.8C176.5,435.5,171.1,430,171.1,423.4
	z"/>
<path class="st2" d="M487.7,161.9H349.9c-13.4,0-24.3,10.9-24.3,24.3v290.6c0,13.4,10.9,24.3,24.3,24.3h137.9
	c13.4,0,24.3-10.9,24.3-24.3V186.2C512,172.8,501.1,161.9,487.7,161.9z"/>
<path class="st1" d="M371.3,494.1c0-4.1,3.1-7.4,7.1-7.8V202.9c0-8.5-2.4-16.8-6.5-24.4c-0.9-1.7-1.4-3.6-1.4-5.6
	c0-4.9,3-9.2,7.3-11h-27.9c-13.4,0-24.3,10.9-24.3,24.3v290.6c0,13.4,10.9,24.3,24.3,24.3h25.5C373,499.7,371.3,497.1,371.3,494.1z"
	/>
<path class="st5" d="M498,238.5v-52.3c0-5.6-4.6-10.2-10.2-10.2h-20.5c-1.9,0-3.5,1.6-3.5,3.5c0,4.6-3.8,8.4-8.4,8.4h-73
	c-4.6,0-8.4-3.8-8.4-8.4c0-1.9-1.6-3.5-3.5-3.5h-20.5c-5.6,0-10.2,4.6-10.2,10.2v52.3H498z"/>
<path class="st6" d="M373.7,186.2c0-1.6,0.2-3.1,0.4-4.6c-0.2-0.7-0.3-1.4-0.3-2.1c0-1.9-1.6-3.5-3.5-3.5h-20.5
	c-5.6,0-10.2,4.6-10.2,10.2v52.3h34V186.2z"/>
<path class="st3" d="M339.6,333.5v143.3c0,5.6,4.6,10.2,10.2,10.2h137.9c5.6,0,10.2-4.6,10.2-10.2V333.5H339.6z"/>
<path class="st11" d="M373.7,476.7V333.5h-34v143.3c0,5.6,4.6,10.2,10.2,10.2h26.1C374.5,483.8,373.7,480.4,373.7,476.7z"/>
<path class="st9" d="M339.6,236.5H498v100.9H339.6V236.5z"/>
<path class="st13" d="M339.6,236.5h34v100.9h-34V236.5z"/>
<path class="st4" d="M381.7,220.1h-16.1c-4.2,0-7.6-3.4-7.6-7.6s3.4-7.6,7.6-7.6h16.1c4.2,0,7.6,3.4,7.6,7.6
	S385.9,220.1,381.7,220.1z"/>
<path class="st14" d="M471.4,376.3H366.2c-4.2,0-7.6-3.4-7.6-7.6c0-4.2,3.4-7.6,7.6-7.6h105.3c4.2,0,7.6,3.4,7.6,7.6
	C479,372.9,475.6,376.3,471.4,376.3z"/>
<path class="st14" d="M471.4,405.5H366.2c-4.2,0-7.6-3.4-7.6-7.6c0-4.2,3.4-7.6,7.6-7.6h105.3c4.2,0,7.6,3.4,7.6,7.6
	C479,402.1,475.6,405.5,471.4,405.5z"/>
<path class="st14" d="M471.4,434.7H366.2c-4.2,0-7.6-3.4-7.6-7.6c0-4.2,3.4-7.6,7.6-7.6h105.3c4.2,0,7.6,3.4,7.6,7.6
	C479,431.3,475.6,434.7,471.4,434.7z"/>
<path class="st15" d="M401.7,368.7c0-4.2,3.4-7.6,7.6-7.6h-43.1c-4.2,0-7.6,3.4-7.6,7.6c0,4.2,3.4,7.6,7.6,7.6h43.1
	C405,376.3,401.7,372.9,401.7,368.7z"/>
<path class="st15" d="M401.7,397.9c0-4.2,3.4-7.6,7.6-7.6h-43.1c-4.2,0-7.6,3.4-7.6,7.6c0,4.2,3.4,7.6,7.6,7.6h43.1
	C405,405.5,401.7,402.1,401.7,397.9z"/>
<path class="st15" d="M401.7,427.1c0-4.2,3.4-7.6,7.6-7.6h-43.1c-4.2,0-7.6,3.4-7.6,7.6c0,4.2,3.4,7.6,7.6,7.6h43.1
	C405,434.7,401.7,431.3,401.7,427.1z"/>
<path class="st15" d="M394.1,466.6c-4.7,0-8.4-4.4-7.4-9c0.8-4.1,4.8-6.8,8.9-5.9c3.4,0.7,6.1,3.7,6.1,7.4
	C401.7,463.2,398.3,466.6,394.1,466.6z"/>
<path class="st11" d="M418.8,466.6c-4.1,0-7.6-3.3-7.6-7.6c0-4.8,4.4-8.4,9-7.4c3.4,0.7,6.1,3.7,6.1,7.4
	C426.4,463.2,423,466.6,418.8,466.6z"/>
<path class="st11" d="M443.5,466.6c-4.1,0-7.6-3.3-7.6-7.6c0-4.8,4.4-8.4,9-7.4c3.4,0.7,6.1,3.7,6.1,7.4
	C451.1,463.2,447.7,466.6,443.5,466.6z"/>
<path class="st16" d="M66.7,167.4c0-15.5-12.5-28-28-28h-9.3c-4.9,9-9.2,18.3-12.9,28H66.7z"/>
</svg>
