<?xml version="1.0" encoding="utf-8"?>
<!-- Generator: Adobe Illustrator 23.0.4, SVG Export Plug-In . SVG Version: 6.00 Build 0)  -->
<svg version="1.1" id="Layer_1" xmlns="http://www.w3.org/2000/svg" xmlns:xlink="http://www.w3.org/1999/xlink" x="0px" y="0px"
	 viewBox="0 0 512 512" style="enable-background:new 0 0 512 512;" xml:space="preserve">
<style type="text/css">
	.st0{fill:#505050;}
	.st1{fill:#EDEDED;}
	.st2{fill:#D6D6D6;}
	.st3{fill:#49AAB7;}
	.st4{fill:#D8375A;}
</style>
<path class="st0" d="M511,255c0,141.4-114.6,256-256,256S-1,396.4-1,255S113.6-1,255-1S511,113.6,511,255z"/>
<path class="st1" d="M346.1,494.3c-28.3,10.8-59,16.7-91.1,16.7s-62.8-5.9-91.1-16.7l20.9-60.6l16.9-48.8h106.6l16.9,48.8
	L346.1,494.3z"/>
<path class="st2" d="M325.2,433.7l-154.9,42.4l31.5-91.2h106.6L325.2,433.7z"/>
<path class="st1" d="M501.1,79.1v246.7c-8.4,29.1-21.7,56.1-39.1,79.9H48.1c-17.4-23.8-30.8-50.8-39.1-79.9V79.1
	c0-17,13.8-30.7,30.7-30.7h430.7C487.3,48.4,501.1,62.2,501.1,79.1z"/>
<path class="st3" d="M39.7,342.4c-5.4,0-9.8-4.4-9.8-9.8V79.1c0-5.4,4.4-9.8,9.8-9.8h430.7c5.4,0,9.8,4.4,9.8,9.8v253.5
	c0,5.4-4.4,9.8-9.8,9.8H39.7z"/>
<g>
	<path class="st4" d="M133.2,206.9l49.7-32.3c1-0.8,2.3-1,3.7-1c5.9,0,13.3,6.3,13.3,14.3c0,3.3-1.4,6.3-3.5,7.6L162,217.9
		l34.4,22.3c2.2,1.4,3.5,4.3,3.5,7.6c0,8-7.4,14.3-13.3,14.3c-1.4,0-2.7-0.2-3.7-1l-49.7-32.3c-4.5-2.9-6.1-7.6-6.1-11
		C127.1,214.6,128.7,209.9,133.2,206.9z"/>
	<path class="st4" d="M299.7,131.4c0,1.2-0.2,2.5-0.8,3.7l-68.9,141.1c-1.4,2.9-5.1,4.9-8.8,4.9c-6.7,0-11-5.5-11-10.4
		c0-1.2,0.4-2.5,1-3.7l68.7-141.1c1.6-3.3,4.7-4.9,8.2-4.9C293.6,121,299.7,125.1,299.7,131.4z"/>
	<path class="st4" d="M376.8,228.8l-49.7,32.3c-1,0.8-2.3,1-3.7,1c-5.9,0-13.3-6.3-13.3-14.3c0-3.3,1.4-6.3,3.5-7.6l34.4-22.3
		l-34.4-22.3c-2.2-1.4-3.5-4.3-3.5-7.6c0-8,7.4-14.3,13.3-14.3c1.4,0,2.7,0.2,3.7,1l49.7,32.3c4.5,2.9,6.1,7.6,6.1,11
		C382.9,221.2,381.3,225.9,376.8,228.8z"/>
</g>
</svg>
